<?xml version="1.0" standalone="no"?>
 <!DOCTYPE svg PUBLIC "-//W3C//DTD SVG 1.1//EN" 
 "http://www.w3.org/Graphics/SVG/1.1/DTD/svg11.dtd"> 
<svg
  xmlns:svg="http://www.w3.org/2000/svg"
  xmlns="http://www.w3.org/2000/svg"
  xmlns:xlink="http://www.w3.org/1999/xlink"
  xmlns:inkscape="http://www.inkscape.org/namespaces/inkscape"
  version="1.1"
  width="26.6954mm" height="15.0876mm" viewBox="0.0000 0.0000 26.6954 15.0876">
<title>SVG Image created as B0512S_1WR3_unit1.svg date 2026-04-18T16:47:41 </title>
  <desc>Image generated by Eeschema-SVG </desc>
<g style="fill:#000000; fill-opacity:1.0000;stroke:#000000; stroke-opacity:1.0000;
stroke-linecap:round; stroke-linejoin:round;"
 transform="translate(0 0) scale(1 1)">
</g>
<g style="fill:#FFFFC2; fill-opacity:1.0000; stroke:none;">
<rect x="5.141900" y="3.546100" width="10.160000" height="10.160000" rx="0.000000" />
</g>
<g style="fill:none; 
stroke:#840000; stroke-width:0.2540; stroke-opacity:1; 
stroke-linecap:round; stroke-linejoin:round;">
<rect x="5.141900" y="3.546100" width="10.160000" height="10.160000" rx="0.000000" />
<path style="fill:none; 
stroke:#840000; stroke-width:0.1524; stroke-opacity:1; 
stroke-linecap:round; stroke-linejoin:round;stroke-dasharray:1.6764,0.6096;fill:none"
d="M 10.2219,3.5461
10.2219,13.7061
" /> 
</g>
<g style="fill:none; 
stroke:#840000; stroke-width:0.1524; stroke-opacity:1; 
stroke-linecap:round; stroke-linejoin:round;">
<text x="7.6819" y="5.1661"
textLength="1.5839" font-size="0.9333" lengthAdjust="spacingAndGlyphs"
text-anchor="middle" opacity="0" stroke-opacity="0">5V</text>
<g class="stroked-text"><desc>5V</desc>
<path d="M7.5486 4.4320
L7.2152 4.4320
" />
<path d="M7.2152 4.4320
L7.1819 4.7653
" />
<path d="M7.1819 4.7653
L7.2152 4.7320
" />
<path d="M7.2152 4.7320
L7.2819 4.6987
" />
<path d="M7.2819 4.6987
L7.4486 4.6987
" />
<path d="M7.4486 4.6987
L7.5152 4.7320
" />
<path d="M7.5152 4.7320
L7.5486 4.7653
" />
<path d="M7.5486 4.7653
L7.5819 4.8320
" />
<path d="M7.5819 4.8320
L7.5819 4.9987
" />
<path d="M7.5819 4.9987
L7.5486 5.0653
" />
<path d="M7.5486 5.0653
L7.5152 5.0987
" />
<path d="M7.5152 5.0987
L7.4486 5.1320
" />
<path d="M7.4486 5.1320
L7.2819 5.1320
" />
<path d="M7.2819 5.1320
L7.2152 5.0987
" />
<path d="M7.2152 5.0987
L7.1819 5.0653
" />
<path d="M7.7819 4.4320
L8.0153 5.1320
" />
<path d="M8.0153 5.1320
L8.2486 4.4320
" />
</g><text x="10.2219" y="8.9761"
textLength="2.0505" font-size="0.9333" lengthAdjust="spacingAndGlyphs"
text-anchor="middle" opacity="0" stroke-opacity="0">ISO</text>
<g class="stroked-text"><desc>ISO</desc>
<path d="M9.5178 8.9420
L9.6053 8.2420
" />
<path d="M9.8219 8.9087
L9.9177 8.9420
" />
<path d="M9.9177 8.9420
L10.0844 8.9420
" />
<path d="M10.0844 8.9420
L10.1552 8.9087
" />
<path d="M10.1552 8.9087
L10.1927 8.8753
" />
<path d="M10.1927 8.8753
L10.2344 8.8087
" />
<path d="M10.2344 8.8087
L10.2427 8.7420
" />
<path d="M10.2427 8.7420
L10.2177 8.6753
" />
<path d="M10.2177 8.6753
L10.1886 8.6420
" />
<path d="M10.1886 8.6420
L10.1261 8.6087
" />
<path d="M10.1261 8.6087
L9.9969 8.5753
" />
<path d="M9.9969 8.5753
L9.9344 8.5420
" />
<path d="M9.9344 8.5420
L9.9052 8.5087
" />
<path d="M9.9052 8.5087
L9.8802 8.4420
" />
<path d="M9.8802 8.4420
L9.8886 8.3753
" />
<path d="M9.8886 8.3753
L9.9302 8.3087
" />
<path d="M9.9302 8.3087
L9.9677 8.2753
" />
<path d="M9.9677 8.2753
L10.0386 8.2420
" />
<path d="M10.0386 8.2420
L10.2052 8.2420
" />
<path d="M10.2052 8.2420
L10.3011 8.2753
" />
<path d="M10.7386 8.2420
L10.8719 8.2420
" />
<path d="M10.8719 8.2420
L10.9344 8.2753
" />
<path d="M10.9344 8.2753
L10.9928 8.3420
" />
<path d="M10.9928 8.3420
L11.0094 8.4753
" />
<path d="M11.0094 8.4753
L10.9803 8.7087
" />
<path d="M10.9803 8.7087
L10.9303 8.8420
" />
<path d="M10.9303 8.8420
L10.8553 8.9087
" />
<path d="M10.8553 8.9087
L10.7844 8.9420
" />
<path d="M10.7844 8.9420
L10.6511 8.9420
" />
<path d="M10.6511 8.9420
L10.5886 8.9087
" />
<path d="M10.5886 8.9087
L10.5303 8.8420
" />
<path d="M10.5303 8.8420
L10.5136 8.7087
" />
<path d="M10.5136 8.7087
L10.5428 8.4753
" />
<path d="M10.5428 8.4753
L10.5928 8.3420
" />
<path d="M10.5928 8.3420
L10.6678 8.2753
" />
<path d="M10.6678 8.2753
L10.7386 8.2420
" />
</g><text x="12.7619" y="5.1661"
textLength="2.2506" font-size="0.9333" lengthAdjust="spacingAndGlyphs"
text-anchor="middle" opacity="0" stroke-opacity="0">12V</text>
<g class="stroked-text"><desc>12V</desc>
<path d="M12.3285 5.1320
L11.9285 5.1320
" />
<path d="M12.1285 5.1320
L12.1285 4.4320
" />
<path d="M12.1285 4.4320
L12.0618 4.5320
" />
<path d="M12.0618 4.5320
L11.9952 4.5987
" />
<path d="M11.9952 4.5987
L11.9285 4.6320
" />
<path d="M12.5952 4.4987
L12.6285 4.4653
" />
<path d="M12.6285 4.4653
L12.6952 4.4320
" />
<path d="M12.6952 4.4320
L12.8619 4.4320
" />
<path d="M12.8619 4.4320
L12.9285 4.4653
" />
<path d="M12.9285 4.4653
L12.9619 4.4987
" />
<path d="M12.9619 4.4987
L12.9952 4.5653
" />
<path d="M12.9952 4.5653
L12.9952 4.6320
" />
<path d="M12.9952 4.6320
L12.9619 4.7320
" />
<path d="M12.9619 4.7320
L12.5619 5.1320
" />
<path d="M12.5619 5.1320
L12.9952 5.1320
" />
<path d="M13.1952 4.4320
L13.4286 5.1320
" />
<path d="M13.4286 5.1320
L13.6619 4.4320
" />
</g><path d="M5.1419 6.0861
L2.6019 6.0861
" />
</g>
<g style="fill:none; 
stroke:#006464; stroke-width:0.1524; stroke-opacity:1; 
stroke-linecap:round; stroke-linejoin:round;">
<text x="5.6499" y="6.5861"
textLength="3.7334" font-size="1.3333" lengthAdjust="spacingAndGlyphs"
text-anchor="start" opacity="0" stroke-opacity="0">Vin+</text>
<g class="stroked-text"><desc>Vin+</desc>
<path d="M5.8453 5.5407
L6.1786 6.5407
" />
<path d="M6.1786 6.5407
L6.5120 5.5407
" />
<path d="M6.8452 6.5407
L6.8452 5.8740
" />
<path d="M6.8452 5.5407
L6.7976 5.5883
" />
<path d="M6.7976 5.5883
L6.8452 5.6359
" />
<path d="M6.8452 5.6359
L6.8929 5.5883
" />
<path d="M6.8929 5.5883
L6.8452 5.5407
" />
<path d="M6.8452 5.5407
L6.8452 5.6359
" />
<path d="M7.3214 5.8740
L7.3214 6.5407
" />
<path d="M7.3214 5.9692
L7.3691 5.9216
" />
<path d="M7.3691 5.9216
L7.4643 5.8740
" />
<path d="M7.4643 5.8740
L7.6072 5.8740
" />
<path d="M7.6072 5.8740
L7.7024 5.9216
" />
<path d="M7.7024 5.9216
L7.7500 6.0169
" />
<path d="M7.7500 6.0169
L7.7500 6.5407
" />
<path d="M8.2262 6.1597
L8.9882 6.1597
" />
<path d="M8.6072 6.5407
L8.6072 5.7788
" />
</g></g>
<g style="fill:none; 
stroke:#A90000; stroke-width:0.1524; stroke-opacity:1; 
stroke-linecap:round; stroke-linejoin:round;">
<text x="3.8719" y="5.8321"
textLength="1.2096" font-size="1.3333" lengthAdjust="spacingAndGlyphs"
text-anchor="middle" opacity="0" stroke-opacity="0">1</text>
<g class="stroked-text"><desc>1</desc>
<path d="M4.1576 5.7017
L3.5861 5.7017
" />
<path d="M3.8718 5.7017
L3.8718 4.7017
" />
<path d="M3.8718 4.7017
L3.7766 4.8445
" />
<path d="M3.7766 4.8445
L3.6814 4.9398
" />
<path d="M3.6814 4.9398
L3.5861 4.9874
" />
</g></g>
<g style="fill:none; 
stroke:#840000; stroke-width:0.1524; stroke-opacity:1; 
stroke-linecap:round; stroke-linejoin:round;">
<path d="M5.1419 11.1661
L2.6019 11.1661
" />
</g>
<g style="fill:none; 
stroke:#006464; stroke-width:0.1524; stroke-opacity:1; 
stroke-linecap:round; stroke-linejoin:round;">
<text x="5.6499" y="11.6661"
textLength="3.7334" font-size="1.3333" lengthAdjust="spacingAndGlyphs"
text-anchor="start" opacity="0" stroke-opacity="0">Vin-</text>
<g class="stroked-text"><desc>Vin-</desc>
<path d="M5.8453 10.6207
L6.1786 11.6207
" />
<path d="M6.1786 11.6207
L6.5120 10.6207
" />
<path d="M6.8452 11.6207
L6.8452 10.9540
" />
<path d="M6.8452 10.6207
L6.7976 10.6683
" />
<path d="M6.7976 10.6683
L6.8452 10.7159
" />
<path d="M6.8452 10.7159
L6.8929 10.6683
" />
<path d="M6.8929 10.6683
L6.8452 10.6207
" />
<path d="M6.8452 10.6207
L6.8452 10.7159
" />
<path d="M7.3214 10.9540
L7.3214 11.6207
" />
<path d="M7.3214 11.0492
L7.3691 11.0016
" />
<path d="M7.3691 11.0016
L7.4643 10.9540
" />
<path d="M7.4643 10.9540
L7.6072 10.9540
" />
<path d="M7.6072 10.9540
L7.7024 11.0016
" />
<path d="M7.7024 11.0016
L7.7500 11.0969
" />
<path d="M7.7500 11.0969
L7.7500 11.6207
" />
<path d="M8.2262 11.2397
L8.9882 11.2397
" />
</g></g>
<g style="fill:none; 
stroke:#A90000; stroke-width:0.1524; stroke-opacity:1; 
stroke-linecap:round; stroke-linejoin:round;">
<text x="3.8719" y="10.9121"
textLength="1.2096" font-size="1.3333" lengthAdjust="spacingAndGlyphs"
text-anchor="middle" opacity="0" stroke-opacity="0">2</text>
<g class="stroked-text"><desc>2</desc>
<path d="M3.5861 9.8769
L3.6337 9.8293
" />
<path d="M3.6337 9.8293
L3.7290 9.7817
" />
<path d="M3.7290 9.7817
L3.9671 9.7817
" />
<path d="M3.9671 9.7817
L4.0623 9.8293
" />
<path d="M4.0623 9.8293
L4.1099 9.8769
" />
<path d="M4.1099 9.8769
L4.1576 9.9721
" />
<path d="M4.1576 9.9721
L4.1576 10.0674
" />
<path d="M4.1576 10.0674
L4.1099 10.2102
" />
<path d="M4.1099 10.2102
L3.5385 10.7817
" />
<path d="M3.5385 10.7817
L4.1576 10.7817
" />
</g></g>
<g style="fill:none; 
stroke:#840000; stroke-width:0.1524; stroke-opacity:1; 
stroke-linecap:round; stroke-linejoin:round;">
<path d="M15.3019 6.0861
L17.8419 6.0861
" />
</g>
<g style="fill:none; 
stroke:#006464; stroke-width:0.1524; stroke-opacity:1; 
stroke-linecap:round; stroke-linejoin:round;">
<text x="14.7939" y="6.5861"
textLength="4.7334" font-size="1.3333" lengthAdjust="spacingAndGlyphs"
text-anchor="end" opacity="0" stroke-opacity="0">Vout+</text>
<g class="stroked-text"><desc>Vout+</desc>
<path d="M10.3127 5.5407
L10.6460 6.5407
" />
<path d="M10.6460 6.5407
L10.9794 5.5407
" />
<path d="M11.4555 6.5407
L11.3603 6.4931
" />
<path d="M11.3603 6.4931
L11.3126 6.4454
" />
<path d="M11.3126 6.4454
L11.2650 6.3502
" />
<path d="M11.2650 6.3502
L11.2650 6.0645
" />
<path d="M11.2650 6.0645
L11.3126 5.9692
" />
<path d="M11.3126 5.9692
L11.3603 5.9216
" />
<path d="M11.3603 5.9216
L11.4555 5.8740
" />
<path d="M11.4555 5.8740
L11.5984 5.8740
" />
<path d="M11.5984 5.8740
L11.6936 5.9216
" />
<path d="M11.6936 5.9216
L11.7412 5.9692
" />
<path d="M11.7412 5.9692
L11.7888 6.0645
" />
<path d="M11.7888 6.0645
L11.7888 6.3502
" />
<path d="M11.7888 6.3502
L11.7412 6.4454
" />
<path d="M11.7412 6.4454
L11.6936 6.4931
" />
<path d="M11.6936 6.4931
L11.5984 6.5407
" />
<path d="M11.5984 6.5407
L11.4555 6.5407
" />
<path d="M12.6460 5.8740
L12.6460 6.5407
" />
<path d="M12.2174 5.8740
L12.2174 6.3978
" />
<path d="M12.2174 6.3978
L12.2651 6.4931
" />
<path d="M12.2651 6.4931
L12.3603 6.5407
" />
<path d="M12.3603 6.5407
L12.5032 6.5407
" />
<path d="M12.5032 6.5407
L12.5984 6.4931
" />
<path d="M12.5984 6.4931
L12.6460 6.4454
" />
<path d="M12.9794 5.8740
L13.3603 5.8740
" />
<path d="M13.1222 5.5407
L13.1222 6.3978
" />
<path d="M13.1222 6.3978
L13.1699 6.4931
" />
<path d="M13.1699 6.4931
L13.2651 6.5407
" />
<path d="M13.2651 6.5407
L13.3603 6.5407
" />
<path d="M13.6936 6.1597
L14.4556 6.1597
" />
<path d="M14.0746 6.5407
L14.0746 5.7788
" />
</g></g>
<g style="fill:none; 
stroke:#A90000; stroke-width:0.1524; stroke-opacity:1; 
stroke-linecap:round; stroke-linejoin:round;">
<text x="16.5719" y="5.8321"
textLength="1.2096" font-size="1.3333" lengthAdjust="spacingAndGlyphs"
text-anchor="middle" opacity="0" stroke-opacity="0">3</text>
<g class="stroked-text"><desc>3</desc>
<path d="M16.2385 4.7017
L16.8576 4.7017
" />
<path d="M16.8576 4.7017
L16.5242 5.0826
" />
<path d="M16.5242 5.0826
L16.6671 5.0826
" />
<path d="M16.6671 5.0826
L16.7623 5.1302
" />
<path d="M16.7623 5.1302
L16.8099 5.1779
" />
<path d="M16.8099 5.1779
L16.8576 5.2731
" />
<path d="M16.8576 5.2731
L16.8576 5.5112
" />
<path d="M16.8576 5.5112
L16.8099 5.6064
" />
<path d="M16.8099 5.6064
L16.7623 5.6541
" />
<path d="M16.7623 5.6541
L16.6671 5.7017
" />
<path d="M16.6671 5.7017
L16.3814 5.7017
" />
<path d="M16.3814 5.7017
L16.2861 5.6541
" />
<path d="M16.2861 5.6541
L16.2385 5.6064
" />
</g></g>
<g style="fill:none; 
stroke:#840000; stroke-width:0.1524; stroke-opacity:1; 
stroke-linecap:round; stroke-linejoin:round;">
<path d="M15.3019 11.1661
L17.8419 11.1661
" />
</g>
<g style="fill:none; 
stroke:#006464; stroke-width:0.1524; stroke-opacity:1; 
stroke-linecap:round; stroke-linejoin:round;">
<text x="14.7939" y="11.6661"
textLength="4.7334" font-size="1.3333" lengthAdjust="spacingAndGlyphs"
text-anchor="end" opacity="0" stroke-opacity="0">Vout-</text>
<g class="stroked-text"><desc>Vout-</desc>
<path d="M10.3127 10.6207
L10.6460 11.6207
" />
<path d="M10.6460 11.6207
L10.9794 10.6207
" />
<path d="M11.4555 11.6207
L11.3603 11.5731
" />
<path d="M11.3603 11.5731
L11.3126 11.5254
" />
<path d="M11.3126 11.5254
L11.2650 11.4302
" />
<path d="M11.2650 11.4302
L11.2650 11.1445
" />
<path d="M11.2650 11.1445
L11.3126 11.0492
" />
<path d="M11.3126 11.0492
L11.3603 11.0016
" />
<path d="M11.3603 11.0016
L11.4555 10.9540
" />
<path d="M11.4555 10.9540
L11.5984 10.9540
" />
<path d="M11.5984 10.9540
L11.6936 11.0016
" />
<path d="M11.6936 11.0016
L11.7412 11.0492
" />
<path d="M11.7412 11.0492
L11.7888 11.1445
" />
<path d="M11.7888 11.1445
L11.7888 11.4302
" />
<path d="M11.7888 11.4302
L11.7412 11.5254
" />
<path d="M11.7412 11.5254
L11.6936 11.5731
" />
<path d="M11.6936 11.5731
L11.5984 11.6207
" />
<path d="M11.5984 11.6207
L11.4555 11.6207
" />
<path d="M12.6460 10.9540
L12.6460 11.6207
" />
<path d="M12.2174 10.9540
L12.2174 11.4778
" />
<path d="M12.2174 11.4778
L12.2651 11.5731
" />
<path d="M12.2651 11.5731
L12.3603 11.6207
" />
<path d="M12.3603 11.6207
L12.5032 11.6207
" />
<path d="M12.5032 11.6207
L12.5984 11.5731
" />
<path d="M12.5984 11.5731
L12.6460 11.5254
" />
<path d="M12.9794 10.9540
L13.3603 10.9540
" />
<path d="M13.1222 10.6207
L13.1222 11.4778
" />
<path d="M13.1222 11.4778
L13.1699 11.5731
" />
<path d="M13.1699 11.5731
L13.2651 11.6207
" />
<path d="M13.2651 11.6207
L13.3603 11.6207
" />
<path d="M13.6936 11.2397
L14.4556 11.2397
" />
</g></g>
<g style="fill:none; 
stroke:#A90000; stroke-width:0.1524; stroke-opacity:1; 
stroke-linecap:round; stroke-linejoin:round;">
<text x="16.5719" y="10.9121"
textLength="1.2096" font-size="1.3333" lengthAdjust="spacingAndGlyphs"
text-anchor="middle" opacity="0" stroke-opacity="0">4</text>
<g class="stroked-text"><desc>4</desc>
<path d="M16.7623 10.1150
L16.7623 10.7817
" />
<path d="M16.5242 9.7341
L16.2861 10.4483
" />
<path d="M16.2861 10.4483
L16.9052 10.4483
" />
</g></g>
<g style="fill:none; 
stroke:#006464; stroke-width:0.1524; stroke-opacity:1; 
stroke-linecap:round; stroke-linejoin:round;">
<text x="5.1419" y="2.9111"
textLength="3.7713" font-size="1.6933" lengthAdjust="spacingAndGlyphs"
text-anchor="start" opacity="0" stroke-opacity="0">PS?</text>
<g class="stroked-text"><desc>PS?</desc>
<path d="M5.5444 2.8556
L5.5444 1.5856
" />
<path d="M5.5444 1.5856
L6.0282 1.5856
" />
<path d="M6.0282 1.5856
L6.1492 1.6461
" />
<path d="M6.1492 1.6461
L6.2097 1.7066
" />
<path d="M6.2097 1.7066
L6.2701 1.8275
" />
<path d="M6.2701 1.8275
L6.2701 2.0090
" />
<path d="M6.2701 2.0090
L6.2097 2.1299
" />
<path d="M6.2097 2.1299
L6.1492 2.1904
" />
<path d="M6.1492 2.1904
L6.0282 2.2509
" />
<path d="M6.0282 2.2509
L5.5444 2.2509
" />
<path d="M6.7540 2.7952
L6.9354 2.8556
" />
<path d="M6.9354 2.8556
L7.2378 2.8556
" />
<path d="M7.2378 2.8556
L7.3587 2.7952
" />
<path d="M7.3587 2.7952
L7.4192 2.7347
" />
<path d="M7.4192 2.7347
L7.4797 2.6137
" />
<path d="M7.4797 2.6137
L7.4797 2.4928
" />
<path d="M7.4797 2.4928
L7.4192 2.3718
" />
<path d="M7.4192 2.3718
L7.3587 2.3113
" />
<path d="M7.3587 2.3113
L7.2378 2.2509
" />
<path d="M7.2378 2.2509
L6.9959 2.1904
" />
<path d="M6.9959 2.1904
L6.8749 2.1299
" />
<path d="M6.8749 2.1299
L6.8144 2.0694
" />
<path d="M6.8144 2.0694
L6.7540 1.9485
" />
<path d="M6.7540 1.9485
L6.7540 1.8275
" />
<path d="M6.7540 1.8275
L6.8144 1.7066
" />
<path d="M6.8144 1.7066
L6.8749 1.6461
" />
<path d="M6.8749 1.6461
L6.9959 1.5856
" />
<path d="M6.9959 1.5856
L7.2982 1.5856
" />
<path d="M7.2982 1.5856
L7.4797 1.6461
" />
<path d="M8.2054 2.7347
L8.2658 2.7952
" />
<path d="M8.2658 2.7952
L8.2054 2.8556
" />
<path d="M8.2054 2.8556
L8.1449 2.7952
" />
<path d="M8.1449 2.7952
L8.2054 2.7347
" />
<path d="M8.2054 2.7347
L8.2054 2.8556
" />
<path d="M7.9635 1.6461
L8.0844 1.5856
" />
<path d="M8.0844 1.5856
L8.3868 1.5856
" />
<path d="M8.3868 1.5856
L8.5077 1.6461
" />
<path d="M8.5077 1.6461
L8.5682 1.7671
" />
<path d="M8.5682 1.7671
L8.5682 1.8880
" />
<path d="M8.5682 1.8880
L8.5077 2.0090
" />
<path d="M8.5077 2.0090
L8.4473 2.0694
" />
<path d="M8.4473 2.0694
L8.3263 2.1299
" />
<path d="M8.3263 2.1299
L8.2658 2.1904
" />
<path d="M8.2658 2.1904
L8.2054 2.3113
" />
<path d="M8.2054 2.3113
L8.2054 2.3718
" />
</g><text x="10.2219" y="2.9111"
textLength="14.2335" font-size="1.6933" lengthAdjust="spacingAndGlyphs"
text-anchor="start" opacity="0" stroke-opacity="0">B0512S-1WR3</text>
<g class="stroked-text"><desc>B0512S-1WR3</desc>
<path d="M11.0478 2.1904
L11.2292 2.2509
" />
<path d="M11.2292 2.2509
L11.2897 2.3113
" />
<path d="M11.2897 2.3113
L11.3501 2.4323
" />
<path d="M11.3501 2.4323
L11.3501 2.6137
" />
<path d="M11.3501 2.6137
L11.2897 2.7347
" />
<path d="M11.2897 2.7347
L11.2292 2.7952
" />
<path d="M11.2292 2.7952
L11.1082 2.8556
" />
<path d="M11.1082 2.8556
L10.6244 2.8556
" />
<path d="M10.6244 2.8556
L10.6244 1.5856
" />
<path d="M10.6244 1.5856
L11.0478 1.5856
" />
<path d="M11.0478 1.5856
L11.1687 1.6461
" />
<path d="M11.1687 1.6461
L11.2292 1.7066
" />
<path d="M11.2292 1.7066
L11.2897 1.8275
" />
<path d="M11.2897 1.8275
L11.2897 1.9485
" />
<path d="M11.2897 1.9485
L11.2292 2.0694
" />
<path d="M11.2292 2.0694
L11.1687 2.1299
" />
<path d="M11.1687 2.1299
L11.0478 2.1904
" />
<path d="M11.0478 2.1904
L10.6244 2.1904
" />
<path d="M12.1363 1.5856
L12.2573 1.5856
" />
<path d="M12.2573 1.5856
L12.3782 1.6461
" />
<path d="M12.3782 1.6461
L12.4387 1.7066
" />
<path d="M12.4387 1.7066
L12.4992 1.8275
" />
<path d="M12.4992 1.8275
L12.5597 2.0694
" />
<path d="M12.5597 2.0694
L12.5597 2.3718
" />
<path d="M12.5597 2.3718
L12.4992 2.6137
" />
<path d="M12.4992 2.6137
L12.4387 2.7347
" />
<path d="M12.4387 2.7347
L12.3782 2.7952
" />
<path d="M12.3782 2.7952
L12.2573 2.8556
" />
<path d="M12.2573 2.8556
L12.1363 2.8556
" />
<path d="M12.1363 2.8556
L12.0154 2.7952
" />
<path d="M12.0154 2.7952
L11.9549 2.7347
" />
<path d="M11.9549 2.7347
L11.8944 2.6137
" />
<path d="M11.8944 2.6137
L11.8340 2.3718
" />
<path d="M11.8340 2.3718
L11.8340 2.0694
" />
<path d="M11.8340 2.0694
L11.8944 1.8275
" />
<path d="M11.8944 1.8275
L11.9549 1.7066
" />
<path d="M11.9549 1.7066
L12.0154 1.6461
" />
<path d="M12.0154 1.6461
L12.1363 1.5856
" />
<path d="M13.7087 1.5856
L13.1039 1.5856
" />
<path d="M13.1039 1.5856
L13.0435 2.1904
" />
<path d="M13.0435 2.1904
L13.1039 2.1299
" />
<path d="M13.1039 2.1299
L13.2249 2.0694
" />
<path d="M13.2249 2.0694
L13.5273 2.0694
" />
<path d="M13.5273 2.0694
L13.6482 2.1299
" />
<path d="M13.6482 2.1299
L13.7087 2.1904
" />
<path d="M13.7087 2.1904
L13.7692 2.3113
" />
<path d="M13.7692 2.3113
L13.7692 2.6137
" />
<path d="M13.7692 2.6137
L13.7087 2.7347
" />
<path d="M13.7087 2.7347
L13.6482 2.7952
" />
<path d="M13.6482 2.7952
L13.5273 2.8556
" />
<path d="M13.5273 2.8556
L13.2249 2.8556
" />
<path d="M13.2249 2.8556
L13.1039 2.7952
" />
<path d="M13.1039 2.7952
L13.0435 2.7347
" />
<path d="M14.9787 2.8556
L14.2530 2.8556
" />
<path d="M14.6158 2.8556
L14.6158 1.5856
" />
<path d="M14.6158 1.5856
L14.4949 1.7671
" />
<path d="M14.4949 1.7671
L14.3739 1.8880
" />
<path d="M14.3739 1.8880
L14.2530 1.9485
" />
<path d="M15.4625 1.7066
L15.5229 1.6461
" />
<path d="M15.5229 1.6461
L15.6439 1.5856
" />
<path d="M15.6439 1.5856
L15.9463 1.5856
" />
<path d="M15.9463 1.5856
L16.0672 1.6461
" />
<path d="M16.0672 1.6461
L16.1277 1.7066
" />
<path d="M16.1277 1.7066
L16.1882 1.8275
" />
<path d="M16.1882 1.8275
L16.1882 1.9485
" />
<path d="M16.1882 1.9485
L16.1277 2.1299
" />
<path d="M16.1277 2.1299
L15.4020 2.8556
" />
<path d="M15.4020 2.8556
L16.1882 2.8556
" />
<path d="M16.6720 2.7952
L16.8534 2.8556
" />
<path d="M16.8534 2.8556
L17.1558 2.8556
" />
<path d="M17.1558 2.8556
L17.2767 2.7952
" />
<path d="M17.2767 2.7952
L17.3372 2.7347
" />
<path d="M17.3372 2.7347
L17.3977 2.6137
" />
<path d="M17.3977 2.6137
L17.3977 2.4928
" />
<path d="M17.3977 2.4928
L17.3372 2.3718
" />
<path d="M17.3372 2.3718
L17.2767 2.3113
" />
<path d="M17.2767 2.3113
L17.1558 2.2509
" />
<path d="M17.1558 2.2509
L16.9139 2.1904
" />
<path d="M16.9139 2.1904
L16.7929 2.1299
" />
<path d="M16.7929 2.1299
L16.7324 2.0694
" />
<path d="M16.7324 2.0694
L16.6720 1.9485
" />
<path d="M16.6720 1.9485
L16.6720 1.8275
" />
<path d="M16.6720 1.8275
L16.7324 1.7066
" />
<path d="M16.7324 1.7066
L16.7929 1.6461
" />
<path d="M16.7929 1.6461
L16.9139 1.5856
" />
<path d="M16.9139 1.5856
L17.2162 1.5856
" />
<path d="M17.2162 1.5856
L17.3977 1.6461
" />
<path d="M17.9419 2.3718
L18.9096 2.3718
" />
<path d="M20.1796 2.8556
L19.4539 2.8556
" />
<path d="M19.8167 2.8556
L19.8167 1.5856
" />
<path d="M19.8167 1.5856
L19.6958 1.7671
" />
<path d="M19.6958 1.7671
L19.5748 1.8880
" />
<path d="M19.5748 1.8880
L19.4539 1.9485
" />
<path d="M20.6029 1.5856
L20.9053 2.8556
" />
<path d="M20.9053 2.8556
L21.1472 1.9485
" />
<path d="M21.1472 1.9485
L21.3891 2.8556
" />
<path d="M21.3891 2.8556
L21.6915 1.5856
" />
<path d="M22.9009 2.8556
L22.4776 2.2509
" />
<path d="M22.1752 2.8556
L22.1752 1.5856
" />
<path d="M22.1752 1.5856
L22.6590 1.5856
" />
<path d="M22.6590 1.5856
L22.7800 1.6461
" />
<path d="M22.7800 1.6461
L22.8405 1.7066
" />
<path d="M22.8405 1.7066
L22.9009 1.8275
" />
<path d="M22.9009 1.8275
L22.9009 2.0090
" />
<path d="M22.9009 2.0090
L22.8405 2.1299
" />
<path d="M22.8405 2.1299
L22.7800 2.1904
" />
<path d="M22.7800 2.1904
L22.6590 2.2509
" />
<path d="M22.6590 2.2509
L22.1752 2.2509
" />
<path d="M23.3243 1.5856
L24.1105 1.5856
" />
<path d="M24.1105 1.5856
L23.6871 2.0694
" />
<path d="M23.6871 2.0694
L23.8686 2.0694
" />
<path d="M23.8686 2.0694
L23.9895 2.1299
" />
<path d="M23.9895 2.1299
L24.0500 2.1904
" />
<path d="M24.0500 2.1904
L24.1105 2.3113
" />
<path d="M24.1105 2.3113
L24.1105 2.6137
" />
<path d="M24.1105 2.6137
L24.0500 2.7347
" />
<path d="M24.0500 2.7347
L23.9895 2.7952
" />
<path d="M23.9895 2.7952
L23.8686 2.8556
" />
<path d="M23.8686 2.8556
L23.5057 2.8556
" />
<path d="M23.5057 2.8556
L23.3848 2.7952
" />
<path d="M23.3848 2.7952
L23.3243 2.7347
" />
</g></g> 
</svg>
