<?xml version="1.0" standalone="no"?>
 <!DOCTYPE svg PUBLIC "-//W3C//DTD SVG 1.1//EN" 
 "http://www.w3.org/Graphics/SVG/1.1/DTD/svg11.dtd"> 
<svg
  xmlns:svg="http://www.w3.org/2000/svg"
  xmlns="http://www.w3.org/2000/svg"
  xmlns:xlink="http://www.w3.org/1999/xlink"
  xmlns:inkscape="http://www.inkscape.org/namespaces/inkscape"
  version="1.1"
  width="37.6174mm" height="43.8150mm" viewBox="0.0000 0.0000 37.6174 43.8150">
<title>SVG Image created as RP2040_Zero_unit1.svg date 2026-04-18T16:47:41 </title>
  <desc>Image generated by Eeschema-SVG </desc>
<g style="fill:#000000; fill-opacity:1.0000;stroke:#000000; stroke-opacity:1.0000;
stroke-linecap:round; stroke-linejoin:round;"
 transform="translate(0 0) scale(1 1)">
</g>
<g style="fill:#FFFFC2; fill-opacity:1.0000; stroke:none;">
<rect x="6.443100" y="7.937500" width="20.320000" height="25.400000" rx="0.000000" />
</g>
<g style="fill:none; 
stroke:#840000; stroke-width:0.2540; stroke-opacity:1; 
stroke-linecap:round; stroke-linejoin:round;">
<rect x="6.443100" y="7.937500" width="20.320000" height="25.400000" rx="0.000000" />
</g>
<g style="fill:none; 
stroke:#840000; stroke-width:0.1524; stroke-opacity:1; 
stroke-linecap:round; stroke-linejoin:round;">
<text x="16.6031" y="6.8135"
textLength="7.5353" font-size="1.0666" lengthAdjust="spacingAndGlyphs"
text-anchor="middle" opacity="0" stroke-opacity="0">USB-C side</text>
<g class="stroked-text"><desc>USB-C side</desc>
<path d="M13.2698 5.9755
L13.1888 6.6232
" />
<path d="M13.1888 6.6232
L13.2174 6.6994
" />
<path d="M13.2174 6.6994
L13.2507 6.7375
" />
<path d="M13.2507 6.7375
L13.3221 6.7755
" />
<path d="M13.3221 6.7755
L13.4745 6.7755
" />
<path d="M13.4745 6.7755
L13.5555 6.7375
" />
<path d="M13.5555 6.7375
L13.5983 6.6994
" />
<path d="M13.5983 6.6994
L13.6460 6.6232
" />
<path d="M13.6460 6.6232
L13.7269 5.9755
" />
<path d="M13.9745 6.7375
L14.0841 6.7755
" />
<path d="M14.0841 6.7755
L14.2745 6.7755
" />
<path d="M14.2745 6.7755
L14.3555 6.7375
" />
<path d="M14.3555 6.7375
L14.3983 6.6994
" />
<path d="M14.3983 6.6994
L14.4460 6.6232
" />
<path d="M14.4460 6.6232
L14.4555 6.5470
" />
<path d="M14.4555 6.5470
L14.4269 6.4708
" />
<path d="M14.4269 6.4708
L14.3936 6.4327
" />
<path d="M14.3936 6.4327
L14.3222 6.3946
" />
<path d="M14.3222 6.3946
L14.1745 6.3565
" />
<path d="M14.1745 6.3565
L14.1031 6.3184
" />
<path d="M14.1031 6.3184
L14.0698 6.2803
" />
<path d="M14.0698 6.2803
L14.0412 6.2041
" />
<path d="M14.0412 6.2041
L14.0507 6.1279
" />
<path d="M14.0507 6.1279
L14.0983 6.0517
" />
<path d="M14.0983 6.0517
L14.1412 6.0136
" />
<path d="M14.1412 6.0136
L14.2222 5.9755
" />
<path d="M14.2222 5.9755
L14.4126 5.9755
" />
<path d="M14.4126 5.9755
L14.5222 6.0136
" />
<path d="M15.0888 6.3565
L15.1983 6.3946
" />
<path d="M15.1983 6.3946
L15.2317 6.4327
" />
<path d="M15.2317 6.4327
L15.2602 6.5089
" />
<path d="M15.2602 6.5089
L15.2460 6.6232
" />
<path d="M15.2460 6.6232
L15.1983 6.6994
" />
<path d="M15.1983 6.6994
L15.1555 6.7375
" />
<path d="M15.1555 6.7375
L15.0745 6.7755
" />
<path d="M15.0745 6.7755
L14.7698 6.7755
" />
<path d="M14.7698 6.7755
L14.8698 5.9755
" />
<path d="M14.8698 5.9755
L15.1364 5.9755
" />
<path d="M15.1364 5.9755
L15.2079 6.0136
" />
<path d="M15.2079 6.0136
L15.2412 6.0517
" />
<path d="M15.2412 6.0517
L15.2698 6.1279
" />
<path d="M15.2698 6.1279
L15.2602 6.2041
" />
<path d="M15.2602 6.2041
L15.2126 6.2803
" />
<path d="M15.2126 6.2803
L15.1698 6.3184
" />
<path d="M15.1698 6.3184
L15.0888 6.3565
" />
<path d="M15.0888 6.3565
L14.8221 6.3565
" />
<path d="M15.6079 6.4708
L16.2174 6.4708
" />
<path d="M17.0269 6.6994
L16.9841 6.7375
" />
<path d="M16.9841 6.7375
L16.8650 6.7755
" />
<path d="M16.8650 6.7755
L16.7888 6.7755
" />
<path d="M16.7888 6.7755
L16.6793 6.7375
" />
<path d="M16.6793 6.7375
L16.6126 6.6613
" />
<path d="M16.6126 6.6613
L16.5841 6.5851
" />
<path d="M16.5841 6.5851
L16.5650 6.4327
" />
<path d="M16.5650 6.4327
L16.5793 6.3184
" />
<path d="M16.5793 6.3184
L16.6365 6.1660
" />
<path d="M16.6365 6.1660
L16.6841 6.0898
" />
<path d="M16.6841 6.0898
L16.7698 6.0136
" />
<path d="M16.7698 6.0136
L16.8888 5.9755
" />
<path d="M16.8888 5.9755
L16.9650 5.9755
" />
<path d="M16.9650 5.9755
L17.0746 6.0136
" />
<path d="M17.0746 6.0136
L17.1079 6.0517
" />
<path d="M17.9364 6.7375
L18.0079 6.7755
" />
<path d="M18.0079 6.7755
L18.1602 6.7755
" />
<path d="M18.1602 6.7755
L18.2412 6.7375
" />
<path d="M18.2412 6.7375
L18.2888 6.6613
" />
<path d="M18.2888 6.6613
L18.2936 6.6232
" />
<path d="M18.2936 6.6232
L18.2650 6.5470
" />
<path d="M18.2650 6.5470
L18.1936 6.5089
" />
<path d="M18.1936 6.5089
L18.0793 6.5089
" />
<path d="M18.0793 6.5089
L18.0079 6.4708
" />
<path d="M18.0079 6.4708
L17.9793 6.3946
" />
<path d="M17.9793 6.3946
L17.9841 6.3565
" />
<path d="M17.9841 6.3565
L18.0317 6.2803
" />
<path d="M18.0317 6.2803
L18.1126 6.2422
" />
<path d="M18.1126 6.2422
L18.2269 6.2422
" />
<path d="M18.2269 6.2422
L18.2983 6.2803
" />
<path d="M18.6174 6.7755
L18.6840 6.2422
" />
<path d="M18.7174 5.9755
L18.6745 6.0136
" />
<path d="M18.6745 6.0136
L18.7078 6.0517
" />
<path d="M18.7078 6.0517
L18.7507 6.0136
" />
<path d="M18.7507 6.0136
L18.7174 5.9755
" />
<path d="M18.7174 5.9755
L18.7078 6.0517
" />
<path d="M19.3412 6.7755
L19.4412 5.9755
" />
<path d="M19.3460 6.7375
L19.2650 6.7755
" />
<path d="M19.2650 6.7755
L19.1127 6.7755
" />
<path d="M19.1127 6.7755
L19.0412 6.7375
" />
<path d="M19.0412 6.7375
L19.0079 6.6994
" />
<path d="M19.0079 6.6994
L18.9793 6.6232
" />
<path d="M18.9793 6.6232
L19.0079 6.3946
" />
<path d="M19.0079 6.3946
L19.0555 6.3184
" />
<path d="M19.0555 6.3184
L19.0984 6.2803
" />
<path d="M19.0984 6.2803
L19.1793 6.2422
" />
<path d="M19.1793 6.2422
L19.3317 6.2422
" />
<path d="M19.3317 6.2422
L19.4031 6.2803
" />
<path d="M20.0317 6.7375
L19.9507 6.7755
" />
<path d="M19.9507 6.7755
L19.7984 6.7755
" />
<path d="M19.7984 6.7755
L19.7269 6.7375
" />
<path d="M19.7269 6.7375
L19.6984 6.6613
" />
<path d="M19.6984 6.6613
L19.7365 6.3565
" />
<path d="M19.7365 6.3565
L19.7841 6.2803
" />
<path d="M19.7841 6.2803
L19.8650 6.2422
" />
<path d="M19.8650 6.2422
L20.0174 6.2422
" />
<path d="M20.0174 6.2422
L20.0888 6.2803
" />
<path d="M20.0888 6.2803
L20.1174 6.3565
" />
<path d="M20.1174 6.3565
L20.1079 6.4327
" />
<path d="M20.1079 6.4327
L19.7174 6.5089
" />
</g></g>
<g style="fill:none; 
stroke:#840000; stroke-width:0.2000; stroke-opacity:1; 
stroke-linecap:round; stroke-linejoin:round;">
<text x="16.6031" y="9.9615"
textLength="10.7810" font-size="1.3333" lengthAdjust="spacingAndGlyphs"
text-anchor="middle" opacity="0" stroke-opacity="0">RP2040-Zero</text>
<g class="stroked-text"><desc>RP2040-Zero</desc>
<path d="M12.2221 9.9137
L11.8887 9.4375
" />
<path d="M11.6506 9.9137
L11.6506 8.9137
" />
<path d="M11.6506 8.9137
L12.0316 8.9137
" />
<path d="M12.0316 8.9137
L12.1268 8.9613
" />
<path d="M12.1268 8.9613
L12.1745 9.0089
" />
<path d="M12.1745 9.0089
L12.2221 9.1041
" />
<path d="M12.2221 9.1041
L12.2221 9.2470
" />
<path d="M12.2221 9.2470
L12.1745 9.3422
" />
<path d="M12.1745 9.3422
L12.1268 9.3899
" />
<path d="M12.1268 9.3899
L12.0316 9.4375
" />
<path d="M12.0316 9.4375
L11.6506 9.4375
" />
<path d="M12.6506 9.9137
L12.6506 8.9137
" />
<path d="M12.6506 8.9137
L13.0316 8.9137
" />
<path d="M13.0316 8.9137
L13.1268 8.9613
" />
<path d="M13.1268 8.9613
L13.1745 9.0089
" />
<path d="M13.1745 9.0089
L13.2221 9.1041
" />
<path d="M13.2221 9.1041
L13.2221 9.2470
" />
<path d="M13.2221 9.2470
L13.1745 9.3422
" />
<path d="M13.1745 9.3422
L13.1268 9.3899
" />
<path d="M13.1268 9.3899
L13.0316 9.4375
" />
<path d="M13.0316 9.4375
L12.6506 9.4375
" />
<path d="M13.6030 9.0089
L13.6506 8.9613
" />
<path d="M13.6506 8.9613
L13.7459 8.9137
" />
<path d="M13.7459 8.9137
L13.9840 8.9137
" />
<path d="M13.9840 8.9137
L14.0792 8.9613
" />
<path d="M14.0792 8.9613
L14.1268 9.0089
" />
<path d="M14.1268 9.0089
L14.1745 9.1041
" />
<path d="M14.1745 9.1041
L14.1745 9.1994
" />
<path d="M14.1745 9.1994
L14.1268 9.3422
" />
<path d="M14.1268 9.3422
L13.5554 9.9137
" />
<path d="M13.5554 9.9137
L14.1745 9.9137
" />
<path d="M14.7935 8.9137
L14.8888 8.9137
" />
<path d="M14.8888 8.9137
L14.9840 8.9613
" />
<path d="M14.9840 8.9613
L15.0316 9.0089
" />
<path d="M15.0316 9.0089
L15.0792 9.1041
" />
<path d="M15.0792 9.1041
L15.1269 9.2946
" />
<path d="M15.1269 9.2946
L15.1269 9.5327
" />
<path d="M15.1269 9.5327
L15.0792 9.7232
" />
<path d="M15.0792 9.7232
L15.0316 9.8184
" />
<path d="M15.0316 9.8184
L14.9840 9.8661
" />
<path d="M14.9840 9.8661
L14.8888 9.9137
" />
<path d="M14.8888 9.9137
L14.7935 9.9137
" />
<path d="M14.7935 9.9137
L14.6983 9.8661
" />
<path d="M14.6983 9.8661
L14.6507 9.8184
" />
<path d="M14.6507 9.8184
L14.6030 9.7232
" />
<path d="M14.6030 9.7232
L14.5554 9.5327
" />
<path d="M14.5554 9.5327
L14.5554 9.2946
" />
<path d="M14.5554 9.2946
L14.6030 9.1041
" />
<path d="M14.6030 9.1041
L14.6507 9.0089
" />
<path d="M14.6507 9.0089
L14.6983 8.9613
" />
<path d="M14.6983 8.9613
L14.7935 8.9137
" />
<path d="M15.9840 9.2470
L15.9840 9.9137
" />
<path d="M15.7459 8.8661
L15.5078 9.5803
" />
<path d="M15.5078 9.5803
L16.1269 9.5803
" />
<path d="M16.6983 8.9137
L16.7936 8.9137
" />
<path d="M16.7936 8.9137
L16.8888 8.9613
" />
<path d="M16.8888 8.9613
L16.9364 9.0089
" />
<path d="M16.9364 9.0089
L16.9840 9.1041
" />
<path d="M16.9840 9.1041
L17.0317 9.2946
" />
<path d="M17.0317 9.2946
L17.0317 9.5327
" />
<path d="M17.0317 9.5327
L16.9840 9.7232
" />
<path d="M16.9840 9.7232
L16.9364 9.8184
" />
<path d="M16.9364 9.8184
L16.8888 9.8661
" />
<path d="M16.8888 9.8661
L16.7936 9.9137
" />
<path d="M16.7936 9.9137
L16.6983 9.9137
" />
<path d="M16.6983 9.9137
L16.6031 9.8661
" />
<path d="M16.6031 9.8661
L16.5555 9.8184
" />
<path d="M16.5555 9.8184
L16.5078 9.7232
" />
<path d="M16.5078 9.7232
L16.4602 9.5327
" />
<path d="M16.4602 9.5327
L16.4602 9.2946
" />
<path d="M16.4602 9.2946
L16.5078 9.1041
" />
<path d="M16.5078 9.1041
L16.5555 9.0089
" />
<path d="M16.5555 9.0089
L16.6031 8.9613
" />
<path d="M16.6031 8.9613
L16.6983 8.9137
" />
<path d="M17.4602 9.5327
L18.2222 9.5327
" />
<path d="M18.6031 8.9137
L19.2698 8.9137
" />
<path d="M19.2698 8.9137
L18.6031 9.9137
" />
<path d="M18.6031 9.9137
L19.2698 9.9137
" />
<path d="M20.0317 9.8661
L19.9365 9.9137
" />
<path d="M19.9365 9.9137
L19.7460 9.9137
" />
<path d="M19.7460 9.9137
L19.6507 9.8661
" />
<path d="M19.6507 9.8661
L19.6031 9.7708
" />
<path d="M19.6031 9.7708
L19.6031 9.3899
" />
<path d="M19.6031 9.3899
L19.6507 9.2946
" />
<path d="M19.6507 9.2946
L19.7460 9.2470
" />
<path d="M19.7460 9.2470
L19.9365 9.2470
" />
<path d="M19.9365 9.2470
L20.0317 9.2946
" />
<path d="M20.0317 9.2946
L20.0793 9.3899
" />
<path d="M20.0793 9.3899
L20.0793 9.4851
" />
<path d="M20.0793 9.4851
L19.6031 9.5803
" />
<path d="M20.5078 9.9137
L20.5078 9.2470
" />
<path d="M20.5078 9.4375
L20.5555 9.3422
" />
<path d="M20.5555 9.3422
L20.6031 9.2946
" />
<path d="M20.6031 9.2946
L20.6983 9.2470
" />
<path d="M20.6983 9.2470
L20.7936 9.2470
" />
<path d="M21.2697 9.9137
L21.1745 9.8661
" />
<path d="M21.1745 9.8661
L21.1268 9.8184
" />
<path d="M21.1268 9.8184
L21.0792 9.7232
" />
<path d="M21.0792 9.7232
L21.0792 9.4375
" />
<path d="M21.0792 9.4375
L21.1268 9.3422
" />
<path d="M21.1268 9.3422
L21.1745 9.2946
" />
<path d="M21.1745 9.2946
L21.2697 9.2470
" />
<path d="M21.2697 9.2470
L21.4126 9.2470
" />
<path d="M21.4126 9.2470
L21.5078 9.2946
" />
<path d="M21.5078 9.2946
L21.5554 9.3422
" />
<path d="M21.5554 9.3422
L21.6030 9.4375
" />
<path d="M21.6030 9.4375
L21.6030 9.7232
" />
<path d="M21.6030 9.7232
L21.5554 9.8184
" />
<path d="M21.5554 9.8184
L21.5078 9.8661
" />
<path d="M21.5078 9.8661
L21.4126 9.9137
" />
<path d="M21.4126 9.9137
L21.2697 9.9137
" />
</g></g>
<g style="fill:none; 
stroke:#840000; stroke-width:0.1524; stroke-opacity:1; 
stroke-linecap:round; stroke-linejoin:round;">
<path d="M6.4431 15.5575
L3.9031 15.5575
" />
</g>
<g style="fill:none; 
stroke:#A90000; stroke-width:0.1524; stroke-opacity:1; 
stroke-linecap:round; stroke-linejoin:round;">
<text x="5.1731" y="15.3035"
textLength="3.0191" font-size="1.3333" lengthAdjust="spacingAndGlyphs"
text-anchor="middle" opacity="0" stroke-opacity="0">3V3</text>
<g class="stroked-text"><desc>3V3</desc>
<path d="M3.9350 14.1731
L4.5541 14.1731
" />
<path d="M4.5541 14.1731
L4.2207 14.5540
" />
<path d="M4.2207 14.5540
L4.3636 14.5540
" />
<path d="M4.3636 14.5540
L4.4588 14.6016
" />
<path d="M4.4588 14.6016
L4.5064 14.6493
" />
<path d="M4.5064 14.6493
L4.5541 14.7445
" />
<path d="M4.5541 14.7445
L4.5541 14.9826
" />
<path d="M4.5541 14.9826
L4.5064 15.0778
" />
<path d="M4.5064 15.0778
L4.4588 15.1255
" />
<path d="M4.4588 15.1255
L4.3636 15.1731
" />
<path d="M4.3636 15.1731
L4.0779 15.1731
" />
<path d="M4.0779 15.1731
L3.9826 15.1255
" />
<path d="M3.9826 15.1255
L3.9350 15.0778
" />
<path d="M4.8398 14.1731
L5.1731 15.1731
" />
<path d="M5.1731 15.1731
L5.5065 14.1731
" />
<path d="M5.7445 14.1731
L6.3636 14.1731
" />
<path d="M6.3636 14.1731
L6.0302 14.5540
" />
<path d="M6.0302 14.5540
L6.1731 14.5540
" />
<path d="M6.1731 14.5540
L6.2683 14.6016
" />
<path d="M6.2683 14.6016
L6.3159 14.6493
" />
<path d="M6.3159 14.6493
L6.3636 14.7445
" />
<path d="M6.3636 14.7445
L6.3636 14.9826
" />
<path d="M6.3636 14.9826
L6.3159 15.0778
" />
<path d="M6.3159 15.0778
L6.2683 15.1255
" />
<path d="M6.2683 15.1255
L6.1731 15.1731
" />
<path d="M6.1731 15.1731
L5.8874 15.1731
" />
<path d="M5.8874 15.1731
L5.7921 15.1255
" />
<path d="M5.7921 15.1255
L5.7445 15.0778
" />
</g></g>
<g style="fill:none; 
stroke:#840000; stroke-width:0.1524; stroke-opacity:1; 
stroke-linecap:round; stroke-linejoin:round;">
<path d="M6.4431 10.4775
L3.9031 10.4775
" />
</g>
<g style="fill:none; 
stroke:#A90000; stroke-width:0.1524; stroke-opacity:1; 
stroke-linecap:round; stroke-linejoin:round;">
<text x="5.1731" y="10.2235"
textLength="2.0667" font-size="1.3333" lengthAdjust="spacingAndGlyphs"
text-anchor="middle" opacity="0" stroke-opacity="0">5V</text>
<g class="stroked-text"><desc>5V</desc>
<path d="M4.9826 9.0931
L4.5064 9.0931
" />
<path d="M4.5064 9.0931
L4.4588 9.5693
" />
<path d="M4.4588 9.5693
L4.5064 9.5216
" />
<path d="M4.5064 9.5216
L4.6017 9.4740
" />
<path d="M4.6017 9.4740
L4.8398 9.4740
" />
<path d="M4.8398 9.4740
L4.9350 9.5216
" />
<path d="M4.9350 9.5216
L4.9826 9.5693
" />
<path d="M4.9826 9.5693
L5.0303 9.6645
" />
<path d="M5.0303 9.6645
L5.0303 9.9026
" />
<path d="M5.0303 9.9026
L4.9826 9.9978
" />
<path d="M4.9826 9.9978
L4.9350 10.0455
" />
<path d="M4.9350 10.0455
L4.8398 10.0931
" />
<path d="M4.8398 10.0931
L4.6017 10.0931
" />
<path d="M4.6017 10.0931
L4.5064 10.0455
" />
<path d="M4.5064 10.0455
L4.4588 9.9978
" />
<path d="M5.3160 9.0931
L5.6493 10.0931
" />
<path d="M5.6493 10.0931
L5.9827 9.0931
" />
</g></g>
<g style="fill:none; 
stroke:#840000; stroke-width:0.1524; stroke-opacity:1; 
stroke-linecap:round; stroke-linejoin:round;">
<path d="M6.4431 13.0175
L3.9031 13.0175
" />
</g>
<g style="fill:none; 
stroke:#A90000; stroke-width:0.1524; stroke-opacity:1; 
stroke-linecap:round; stroke-linejoin:round;">
<text x="5.1731" y="12.7635"
textLength="3.3048" font-size="1.3333" lengthAdjust="spacingAndGlyphs"
text-anchor="middle" opacity="0" stroke-opacity="0">GND</text>
<g class="stroked-text"><desc>GND</desc>
<path d="M4.4112 11.6807
L4.3159 11.6331
" />
<path d="M4.3159 11.6331
L4.1731 11.6331
" />
<path d="M4.1731 11.6331
L4.0302 11.6807
" />
<path d="M4.0302 11.6807
L3.9350 11.7759
" />
<path d="M3.9350 11.7759
L3.8873 11.8712
" />
<path d="M3.8873 11.8712
L3.8397 12.0616
" />
<path d="M3.8397 12.0616
L3.8397 12.2045
" />
<path d="M3.8397 12.2045
L3.8873 12.3950
" />
<path d="M3.8873 12.3950
L3.9350 12.4902
" />
<path d="M3.9350 12.4902
L4.0302 12.5855
" />
<path d="M4.0302 12.5855
L4.1731 12.6331
" />
<path d="M4.1731 12.6331
L4.2683 12.6331
" />
<path d="M4.2683 12.6331
L4.4112 12.5855
" />
<path d="M4.4112 12.5855
L4.4588 12.5378
" />
<path d="M4.4588 12.5378
L4.4588 12.2045
" />
<path d="M4.4588 12.2045
L4.2683 12.2045
" />
<path d="M4.8873 12.6331
L4.8873 11.6331
" />
<path d="M4.8873 11.6331
L5.4588 12.6331
" />
<path d="M5.4588 12.6331
L5.4588 11.6331
" />
<path d="M5.9349 12.6331
L5.9349 11.6331
" />
<path d="M5.9349 11.6331
L6.1730 11.6331
" />
<path d="M6.1730 11.6331
L6.3159 11.6807
" />
<path d="M6.3159 11.6807
L6.4111 11.7759
" />
<path d="M6.4111 11.7759
L6.4588 11.8712
" />
<path d="M6.4588 11.8712
L6.5064 12.0616
" />
<path d="M6.5064 12.0616
L6.5064 12.2045
" />
<path d="M6.5064 12.2045
L6.4588 12.3950
" />
<path d="M6.4588 12.3950
L6.4111 12.4902
" />
<path d="M6.4111 12.4902
L6.3159 12.5855
" />
<path d="M6.3159 12.5855
L6.1730 12.6331
" />
<path d="M6.1730 12.6331
L5.9349 12.6331
" />
</g></g>
<g style="fill:none; 
stroke:#840000; stroke-width:0.1524; stroke-opacity:1; 
stroke-linecap:round; stroke-linejoin:round;">
<path d="M26.7631 10.4775
L29.3031 10.4775
" />
</g>
<g style="fill:none; 
stroke:#A90000; stroke-width:0.1524; stroke-opacity:1; 
stroke-linecap:round; stroke-linejoin:round;">
<text x="28.0331" y="10.2235"
textLength="3.2096" font-size="1.3333" lengthAdjust="spacingAndGlyphs"
text-anchor="middle" opacity="0" stroke-opacity="0">GP0</text>
<g class="stroked-text"><desc>GP0</desc>
<path d="M27.3188 9.1407
L27.2235 9.0931
" />
<path d="M27.2235 9.0931
L27.0807 9.0931
" />
<path d="M27.0807 9.0931
L26.9378 9.1407
" />
<path d="M26.9378 9.1407
L26.8426 9.2359
" />
<path d="M26.8426 9.2359
L26.7949 9.3312
" />
<path d="M26.7949 9.3312
L26.7473 9.5216
" />
<path d="M26.7473 9.5216
L26.7473 9.6645
" />
<path d="M26.7473 9.6645
L26.7949 9.8550
" />
<path d="M26.7949 9.8550
L26.8426 9.9502
" />
<path d="M26.8426 9.9502
L26.9378 10.0455
" />
<path d="M26.9378 10.0455
L27.0807 10.0931
" />
<path d="M27.0807 10.0931
L27.1759 10.0931
" />
<path d="M27.1759 10.0931
L27.3188 10.0455
" />
<path d="M27.3188 10.0455
L27.3664 9.9978
" />
<path d="M27.3664 9.9978
L27.3664 9.6645
" />
<path d="M27.3664 9.6645
L27.1759 9.6645
" />
<path d="M27.7949 10.0931
L27.7949 9.0931
" />
<path d="M27.7949 9.0931
L28.1759 9.0931
" />
<path d="M28.1759 9.0931
L28.2711 9.1407
" />
<path d="M28.2711 9.1407
L28.3188 9.1883
" />
<path d="M28.3188 9.1883
L28.3664 9.2835
" />
<path d="M28.3664 9.2835
L28.3664 9.4264
" />
<path d="M28.3664 9.4264
L28.3188 9.5216
" />
<path d="M28.3188 9.5216
L28.2711 9.5693
" />
<path d="M28.2711 9.5693
L28.1759 9.6169
" />
<path d="M28.1759 9.6169
L27.7949 9.6169
" />
<path d="M28.9854 9.0931
L29.0807 9.0931
" />
<path d="M29.0807 9.0931
L29.1759 9.1407
" />
<path d="M29.1759 9.1407
L29.2235 9.1883
" />
<path d="M29.2235 9.1883
L29.2711 9.2835
" />
<path d="M29.2711 9.2835
L29.3188 9.4740
" />
<path d="M29.3188 9.4740
L29.3188 9.7121
" />
<path d="M29.3188 9.7121
L29.2711 9.9026
" />
<path d="M29.2711 9.9026
L29.2235 9.9978
" />
<path d="M29.2235 9.9978
L29.1759 10.0455
" />
<path d="M29.1759 10.0455
L29.0807 10.0931
" />
<path d="M29.0807 10.0931
L28.9854 10.0931
" />
<path d="M28.9854 10.0931
L28.8902 10.0455
" />
<path d="M28.8902 10.0455
L28.8426 9.9978
" />
<path d="M28.8426 9.9978
L28.7949 9.9026
" />
<path d="M28.7949 9.9026
L28.7473 9.7121
" />
<path d="M28.7473 9.7121
L28.7473 9.4740
" />
<path d="M28.7473 9.4740
L28.7949 9.2835
" />
<path d="M28.7949 9.2835
L28.8426 9.1883
" />
<path d="M28.8426 9.1883
L28.8902 9.1407
" />
<path d="M28.8902 9.1407
L28.9854 9.0931
" />
</g></g>
<g style="fill:none; 
stroke:#840000; stroke-width:0.1524; stroke-opacity:1; 
stroke-linecap:round; stroke-linejoin:round;">
<path d="M26.7631 13.0175
L29.3031 13.0175
" />
</g>
<g style="fill:none; 
stroke:#A90000; stroke-width:0.1524; stroke-opacity:1; 
stroke-linecap:round; stroke-linejoin:round;">
<text x="28.0331" y="12.7635"
textLength="3.2096" font-size="1.3333" lengthAdjust="spacingAndGlyphs"
text-anchor="middle" opacity="0" stroke-opacity="0">GP1</text>
<g class="stroked-text"><desc>GP1</desc>
<path d="M27.3188 11.6807
L27.2235 11.6331
" />
<path d="M27.2235 11.6331
L27.0807 11.6331
" />
<path d="M27.0807 11.6331
L26.9378 11.6807
" />
<path d="M26.9378 11.6807
L26.8426 11.7759
" />
<path d="M26.8426 11.7759
L26.7949 11.8712
" />
<path d="M26.7949 11.8712
L26.7473 12.0616
" />
<path d="M26.7473 12.0616
L26.7473 12.2045
" />
<path d="M26.7473 12.2045
L26.7949 12.3950
" />
<path d="M26.7949 12.3950
L26.8426 12.4902
" />
<path d="M26.8426 12.4902
L26.9378 12.5855
" />
<path d="M26.9378 12.5855
L27.0807 12.6331
" />
<path d="M27.0807 12.6331
L27.1759 12.6331
" />
<path d="M27.1759 12.6331
L27.3188 12.5855
" />
<path d="M27.3188 12.5855
L27.3664 12.5378
" />
<path d="M27.3664 12.5378
L27.3664 12.2045
" />
<path d="M27.3664 12.2045
L27.1759 12.2045
" />
<path d="M27.7949 12.6331
L27.7949 11.6331
" />
<path d="M27.7949 11.6331
L28.1759 11.6331
" />
<path d="M28.1759 11.6331
L28.2711 11.6807
" />
<path d="M28.2711 11.6807
L28.3188 11.7283
" />
<path d="M28.3188 11.7283
L28.3664 11.8235
" />
<path d="M28.3664 11.8235
L28.3664 11.9664
" />
<path d="M28.3664 11.9664
L28.3188 12.0616
" />
<path d="M28.3188 12.0616
L28.2711 12.1093
" />
<path d="M28.2711 12.1093
L28.1759 12.1569
" />
<path d="M28.1759 12.1569
L27.7949 12.1569
" />
<path d="M29.3188 12.6331
L28.7473 12.6331
" />
<path d="M29.0330 12.6331
L29.0330 11.6331
" />
<path d="M29.0330 11.6331
L28.9378 11.7759
" />
<path d="M28.9378 11.7759
L28.8426 11.8712
" />
<path d="M28.8426 11.8712
L28.7473 11.9188
" />
</g></g>
<g style="fill:none; 
stroke:#840000; stroke-width:0.1524; stroke-opacity:1; 
stroke-linecap:round; stroke-linejoin:round;">
<path d="M26.7631 15.5575
L29.3031 15.5575
" />
</g>
<g style="fill:none; 
stroke:#A90000; stroke-width:0.1524; stroke-opacity:1; 
stroke-linecap:round; stroke-linejoin:round;">
<text x="28.0331" y="15.3035"
textLength="3.2096" font-size="1.3333" lengthAdjust="spacingAndGlyphs"
text-anchor="middle" opacity="0" stroke-opacity="0">GP2</text>
<g class="stroked-text"><desc>GP2</desc>
<path d="M27.3188 14.2207
L27.2235 14.1731
" />
<path d="M27.2235 14.1731
L27.0807 14.1731
" />
<path d="M27.0807 14.1731
L26.9378 14.2207
" />
<path d="M26.9378 14.2207
L26.8426 14.3159
" />
<path d="M26.8426 14.3159
L26.7949 14.4112
" />
<path d="M26.7949 14.4112
L26.7473 14.6016
" />
<path d="M26.7473 14.6016
L26.7473 14.7445
" />
<path d="M26.7473 14.7445
L26.7949 14.9350
" />
<path d="M26.7949 14.9350
L26.8426 15.0302
" />
<path d="M26.8426 15.0302
L26.9378 15.1255
" />
<path d="M26.9378 15.1255
L27.0807 15.1731
" />
<path d="M27.0807 15.1731
L27.1759 15.1731
" />
<path d="M27.1759 15.1731
L27.3188 15.1255
" />
<path d="M27.3188 15.1255
L27.3664 15.0778
" />
<path d="M27.3664 15.0778
L27.3664 14.7445
" />
<path d="M27.3664 14.7445
L27.1759 14.7445
" />
<path d="M27.7949 15.1731
L27.7949 14.1731
" />
<path d="M27.7949 14.1731
L28.1759 14.1731
" />
<path d="M28.1759 14.1731
L28.2711 14.2207
" />
<path d="M28.2711 14.2207
L28.3188 14.2683
" />
<path d="M28.3188 14.2683
L28.3664 14.3635
" />
<path d="M28.3664 14.3635
L28.3664 14.5064
" />
<path d="M28.3664 14.5064
L28.3188 14.6016
" />
<path d="M28.3188 14.6016
L28.2711 14.6493
" />
<path d="M28.2711 14.6493
L28.1759 14.6969
" />
<path d="M28.1759 14.6969
L27.7949 14.6969
" />
<path d="M28.7473 14.2683
L28.7949 14.2207
" />
<path d="M28.7949 14.2207
L28.8902 14.1731
" />
<path d="M28.8902 14.1731
L29.1283 14.1731
" />
<path d="M29.1283 14.1731
L29.2235 14.2207
" />
<path d="M29.2235 14.2207
L29.2711 14.2683
" />
<path d="M29.2711 14.2683
L29.3188 14.3635
" />
<path d="M29.3188 14.3635
L29.3188 14.4588
" />
<path d="M29.3188 14.4588
L29.2711 14.6016
" />
<path d="M29.2711 14.6016
L28.6997 15.1731
" />
<path d="M28.6997 15.1731
L29.3188 15.1731
" />
</g></g>
<g style="fill:none; 
stroke:#840000; stroke-width:0.1524; stroke-opacity:1; 
stroke-linecap:round; stroke-linejoin:round;">
<path d="M26.7631 18.0975
L29.3031 18.0975
" />
</g>
<g style="fill:none; 
stroke:#A90000; stroke-width:0.1524; stroke-opacity:1; 
stroke-linecap:round; stroke-linejoin:round;">
<text x="28.0331" y="17.8435"
textLength="3.2096" font-size="1.3333" lengthAdjust="spacingAndGlyphs"
text-anchor="middle" opacity="0" stroke-opacity="0">GP3</text>
<g class="stroked-text"><desc>GP3</desc>
<path d="M27.3188 16.7607
L27.2235 16.7131
" />
<path d="M27.2235 16.7131
L27.0807 16.7131
" />
<path d="M27.0807 16.7131
L26.9378 16.7607
" />
<path d="M26.9378 16.7607
L26.8426 16.8559
" />
<path d="M26.8426 16.8559
L26.7949 16.9512
" />
<path d="M26.7949 16.9512
L26.7473 17.1416
" />
<path d="M26.7473 17.1416
L26.7473 17.2845
" />
<path d="M26.7473 17.2845
L26.7949 17.4750
" />
<path d="M26.7949 17.4750
L26.8426 17.5702
" />
<path d="M26.8426 17.5702
L26.9378 17.6655
" />
<path d="M26.9378 17.6655
L27.0807 17.7131
" />
<path d="M27.0807 17.7131
L27.1759 17.7131
" />
<path d="M27.1759 17.7131
L27.3188 17.6655
" />
<path d="M27.3188 17.6655
L27.3664 17.6178
" />
<path d="M27.3664 17.6178
L27.3664 17.2845
" />
<path d="M27.3664 17.2845
L27.1759 17.2845
" />
<path d="M27.7949 17.7131
L27.7949 16.7131
" />
<path d="M27.7949 16.7131
L28.1759 16.7131
" />
<path d="M28.1759 16.7131
L28.2711 16.7607
" />
<path d="M28.2711 16.7607
L28.3188 16.8083
" />
<path d="M28.3188 16.8083
L28.3664 16.9035
" />
<path d="M28.3664 16.9035
L28.3664 17.0464
" />
<path d="M28.3664 17.0464
L28.3188 17.1416
" />
<path d="M28.3188 17.1416
L28.2711 17.1893
" />
<path d="M28.2711 17.1893
L28.1759 17.2369
" />
<path d="M28.1759 17.2369
L27.7949 17.2369
" />
<path d="M28.6997 16.7131
L29.3188 16.7131
" />
<path d="M29.3188 16.7131
L28.9854 17.0940
" />
<path d="M28.9854 17.0940
L29.1283 17.0940
" />
<path d="M29.1283 17.0940
L29.2235 17.1416
" />
<path d="M29.2235 17.1416
L29.2711 17.1893
" />
<path d="M29.2711 17.1893
L29.3188 17.2845
" />
<path d="M29.3188 17.2845
L29.3188 17.5226
" />
<path d="M29.3188 17.5226
L29.2711 17.6178
" />
<path d="M29.2711 17.6178
L29.2235 17.6655
" />
<path d="M29.2235 17.6655
L29.1283 17.7131
" />
<path d="M29.1283 17.7131
L28.8426 17.7131
" />
<path d="M28.8426 17.7131
L28.7473 17.6655
" />
<path d="M28.7473 17.6655
L28.6997 17.6178
" />
</g></g>
<g style="fill:none; 
stroke:#840000; stroke-width:0.1524; stroke-opacity:1; 
stroke-linecap:round; stroke-linejoin:round;">
<path d="M26.7631 20.6375
L29.3031 20.6375
" />
</g>
<g style="fill:none; 
stroke:#A90000; stroke-width:0.1524; stroke-opacity:1; 
stroke-linecap:round; stroke-linejoin:round;">
<text x="28.0331" y="20.3835"
textLength="3.2096" font-size="1.3333" lengthAdjust="spacingAndGlyphs"
text-anchor="middle" opacity="0" stroke-opacity="0">GP4</text>
<g class="stroked-text"><desc>GP4</desc>
<path d="M27.3188 19.3007
L27.2235 19.2531
" />
<path d="M27.2235 19.2531
L27.0807 19.2531
" />
<path d="M27.0807 19.2531
L26.9378 19.3007
" />
<path d="M26.9378 19.3007
L26.8426 19.3959
" />
<path d="M26.8426 19.3959
L26.7949 19.4912
" />
<path d="M26.7949 19.4912
L26.7473 19.6816
" />
<path d="M26.7473 19.6816
L26.7473 19.8245
" />
<path d="M26.7473 19.8245
L26.7949 20.0150
" />
<path d="M26.7949 20.0150
L26.8426 20.1102
" />
<path d="M26.8426 20.1102
L26.9378 20.2055
" />
<path d="M26.9378 20.2055
L27.0807 20.2531
" />
<path d="M27.0807 20.2531
L27.1759 20.2531
" />
<path d="M27.1759 20.2531
L27.3188 20.2055
" />
<path d="M27.3188 20.2055
L27.3664 20.1578
" />
<path d="M27.3664 20.1578
L27.3664 19.8245
" />
<path d="M27.3664 19.8245
L27.1759 19.8245
" />
<path d="M27.7949 20.2531
L27.7949 19.2531
" />
<path d="M27.7949 19.2531
L28.1759 19.2531
" />
<path d="M28.1759 19.2531
L28.2711 19.3007
" />
<path d="M28.2711 19.3007
L28.3188 19.3483
" />
<path d="M28.3188 19.3483
L28.3664 19.4435
" />
<path d="M28.3664 19.4435
L28.3664 19.5864
" />
<path d="M28.3664 19.5864
L28.3188 19.6816
" />
<path d="M28.3188 19.6816
L28.2711 19.7293
" />
<path d="M28.2711 19.7293
L28.1759 19.7769
" />
<path d="M28.1759 19.7769
L27.7949 19.7769
" />
<path d="M29.2235 19.5864
L29.2235 20.2531
" />
<path d="M28.9854 19.2055
L28.7473 19.9197
" />
<path d="M28.7473 19.9197
L29.3664 19.9197
" />
</g></g>
<g style="fill:none; 
stroke:#840000; stroke-width:0.1524; stroke-opacity:1; 
stroke-linecap:round; stroke-linejoin:round;">
<path d="M26.7631 23.1775
L29.3031 23.1775
" />
</g>
<g style="fill:none; 
stroke:#A90000; stroke-width:0.1524; stroke-opacity:1; 
stroke-linecap:round; stroke-linejoin:round;">
<text x="28.0331" y="22.9235"
textLength="3.2096" font-size="1.3333" lengthAdjust="spacingAndGlyphs"
text-anchor="middle" opacity="0" stroke-opacity="0">GP5</text>
<g class="stroked-text"><desc>GP5</desc>
<path d="M27.3188 21.8407
L27.2235 21.7931
" />
<path d="M27.2235 21.7931
L27.0807 21.7931
" />
<path d="M27.0807 21.7931
L26.9378 21.8407
" />
<path d="M26.9378 21.8407
L26.8426 21.9359
" />
<path d="M26.8426 21.9359
L26.7949 22.0312
" />
<path d="M26.7949 22.0312
L26.7473 22.2216
" />
<path d="M26.7473 22.2216
L26.7473 22.3645
" />
<path d="M26.7473 22.3645
L26.7949 22.5550
" />
<path d="M26.7949 22.5550
L26.8426 22.6502
" />
<path d="M26.8426 22.6502
L26.9378 22.7455
" />
<path d="M26.9378 22.7455
L27.0807 22.7931
" />
<path d="M27.0807 22.7931
L27.1759 22.7931
" />
<path d="M27.1759 22.7931
L27.3188 22.7455
" />
<path d="M27.3188 22.7455
L27.3664 22.6978
" />
<path d="M27.3664 22.6978
L27.3664 22.3645
" />
<path d="M27.3664 22.3645
L27.1759 22.3645
" />
<path d="M27.7949 22.7931
L27.7949 21.7931
" />
<path d="M27.7949 21.7931
L28.1759 21.7931
" />
<path d="M28.1759 21.7931
L28.2711 21.8407
" />
<path d="M28.2711 21.8407
L28.3188 21.8883
" />
<path d="M28.3188 21.8883
L28.3664 21.9835
" />
<path d="M28.3664 21.9835
L28.3664 22.1264
" />
<path d="M28.3664 22.1264
L28.3188 22.2216
" />
<path d="M28.3188 22.2216
L28.2711 22.2693
" />
<path d="M28.2711 22.2693
L28.1759 22.3169
" />
<path d="M28.1759 22.3169
L27.7949 22.3169
" />
<path d="M29.2711 21.7931
L28.7949 21.7931
" />
<path d="M28.7949 21.7931
L28.7473 22.2693
" />
<path d="M28.7473 22.2693
L28.7949 22.2216
" />
<path d="M28.7949 22.2216
L28.8902 22.1740
" />
<path d="M28.8902 22.1740
L29.1283 22.1740
" />
<path d="M29.1283 22.1740
L29.2235 22.2216
" />
<path d="M29.2235 22.2216
L29.2711 22.2693
" />
<path d="M29.2711 22.2693
L29.3188 22.3645
" />
<path d="M29.3188 22.3645
L29.3188 22.6026
" />
<path d="M29.3188 22.6026
L29.2711 22.6978
" />
<path d="M29.2711 22.6978
L29.2235 22.7455
" />
<path d="M29.2235 22.7455
L29.1283 22.7931
" />
<path d="M29.1283 22.7931
L28.8902 22.7931
" />
<path d="M28.8902 22.7931
L28.7949 22.7455
" />
<path d="M28.7949 22.7455
L28.7473 22.6978
" />
</g></g>
<g style="fill:none; 
stroke:#840000; stroke-width:0.1524; stroke-opacity:1; 
stroke-linecap:round; stroke-linejoin:round;">
<path d="M26.7631 25.7175
L29.3031 25.7175
" />
</g>
<g style="fill:none; 
stroke:#A90000; stroke-width:0.1524; stroke-opacity:1; 
stroke-linecap:round; stroke-linejoin:round;">
<text x="28.0331" y="25.4635"
textLength="3.2096" font-size="1.3333" lengthAdjust="spacingAndGlyphs"
text-anchor="middle" opacity="0" stroke-opacity="0">GP6</text>
<g class="stroked-text"><desc>GP6</desc>
<path d="M27.3188 24.3807
L27.2235 24.3331
" />
<path d="M27.2235 24.3331
L27.0807 24.3331
" />
<path d="M27.0807 24.3331
L26.9378 24.3807
" />
<path d="M26.9378 24.3807
L26.8426 24.4759
" />
<path d="M26.8426 24.4759
L26.7949 24.5712
" />
<path d="M26.7949 24.5712
L26.7473 24.7616
" />
<path d="M26.7473 24.7616
L26.7473 24.9045
" />
<path d="M26.7473 24.9045
L26.7949 25.0950
" />
<path d="M26.7949 25.0950
L26.8426 25.1902
" />
<path d="M26.8426 25.1902
L26.9378 25.2855
" />
<path d="M26.9378 25.2855
L27.0807 25.3331
" />
<path d="M27.0807 25.3331
L27.1759 25.3331
" />
<path d="M27.1759 25.3331
L27.3188 25.2855
" />
<path d="M27.3188 25.2855
L27.3664 25.2378
" />
<path d="M27.3664 25.2378
L27.3664 24.9045
" />
<path d="M27.3664 24.9045
L27.1759 24.9045
" />
<path d="M27.7949 25.3331
L27.7949 24.3331
" />
<path d="M27.7949 24.3331
L28.1759 24.3331
" />
<path d="M28.1759 24.3331
L28.2711 24.3807
" />
<path d="M28.2711 24.3807
L28.3188 24.4283
" />
<path d="M28.3188 24.4283
L28.3664 24.5235
" />
<path d="M28.3664 24.5235
L28.3664 24.6664
" />
<path d="M28.3664 24.6664
L28.3188 24.7616
" />
<path d="M28.3188 24.7616
L28.2711 24.8093
" />
<path d="M28.2711 24.8093
L28.1759 24.8569
" />
<path d="M28.1759 24.8569
L27.7949 24.8569
" />
<path d="M29.2235 24.3331
L29.0330 24.3331
" />
<path d="M29.0330 24.3331
L28.9378 24.3807
" />
<path d="M28.9378 24.3807
L28.8902 24.4283
" />
<path d="M28.8902 24.4283
L28.7949 24.5712
" />
<path d="M28.7949 24.5712
L28.7473 24.7616
" />
<path d="M28.7473 24.7616
L28.7473 25.1426
" />
<path d="M28.7473 25.1426
L28.7949 25.2378
" />
<path d="M28.7949 25.2378
L28.8426 25.2855
" />
<path d="M28.8426 25.2855
L28.9378 25.3331
" />
<path d="M28.9378 25.3331
L29.1283 25.3331
" />
<path d="M29.1283 25.3331
L29.2235 25.2855
" />
<path d="M29.2235 25.2855
L29.2711 25.2378
" />
<path d="M29.2711 25.2378
L29.3188 25.1426
" />
<path d="M29.3188 25.1426
L29.3188 24.9045
" />
<path d="M29.3188 24.9045
L29.2711 24.8093
" />
<path d="M29.2711 24.8093
L29.2235 24.7616
" />
<path d="M29.2235 24.7616
L29.1283 24.7140
" />
<path d="M29.1283 24.7140
L28.9378 24.7140
" />
<path d="M28.9378 24.7140
L28.8426 24.7616
" />
<path d="M28.8426 24.7616
L28.7949 24.8093
" />
<path d="M28.7949 24.8093
L28.7473 24.9045
" />
</g></g>
<g style="fill:none; 
stroke:#840000; stroke-width:0.1524; stroke-opacity:1; 
stroke-linecap:round; stroke-linejoin:round;">
<path d="M26.7631 28.2575
L29.3031 28.2575
" />
</g>
<g style="fill:none; 
stroke:#A90000; stroke-width:0.1524; stroke-opacity:1; 
stroke-linecap:round; stroke-linejoin:round;">
<text x="28.0331" y="28.0035"
textLength="3.2096" font-size="1.3333" lengthAdjust="spacingAndGlyphs"
text-anchor="middle" opacity="0" stroke-opacity="0">GP7</text>
<g class="stroked-text"><desc>GP7</desc>
<path d="M27.3188 26.9207
L27.2235 26.8731
" />
<path d="M27.2235 26.8731
L27.0807 26.8731
" />
<path d="M27.0807 26.8731
L26.9378 26.9207
" />
<path d="M26.9378 26.9207
L26.8426 27.0159
" />
<path d="M26.8426 27.0159
L26.7949 27.1112
" />
<path d="M26.7949 27.1112
L26.7473 27.3016
" />
<path d="M26.7473 27.3016
L26.7473 27.4445
" />
<path d="M26.7473 27.4445
L26.7949 27.6350
" />
<path d="M26.7949 27.6350
L26.8426 27.7302
" />
<path d="M26.8426 27.7302
L26.9378 27.8255
" />
<path d="M26.9378 27.8255
L27.0807 27.8731
" />
<path d="M27.0807 27.8731
L27.1759 27.8731
" />
<path d="M27.1759 27.8731
L27.3188 27.8255
" />
<path d="M27.3188 27.8255
L27.3664 27.7778
" />
<path d="M27.3664 27.7778
L27.3664 27.4445
" />
<path d="M27.3664 27.4445
L27.1759 27.4445
" />
<path d="M27.7949 27.8731
L27.7949 26.8731
" />
<path d="M27.7949 26.8731
L28.1759 26.8731
" />
<path d="M28.1759 26.8731
L28.2711 26.9207
" />
<path d="M28.2711 26.9207
L28.3188 26.9683
" />
<path d="M28.3188 26.9683
L28.3664 27.0635
" />
<path d="M28.3664 27.0635
L28.3664 27.2064
" />
<path d="M28.3664 27.2064
L28.3188 27.3016
" />
<path d="M28.3188 27.3016
L28.2711 27.3493
" />
<path d="M28.2711 27.3493
L28.1759 27.3969
" />
<path d="M28.1759 27.3969
L27.7949 27.3969
" />
<path d="M28.6997 26.8731
L29.3664 26.8731
" />
<path d="M29.3664 26.8731
L28.9378 27.8731
" />
</g></g>
<g style="fill:none; 
stroke:#840000; stroke-width:0.1524; stroke-opacity:1; 
stroke-linecap:round; stroke-linejoin:round;">
<path d="M26.7631 30.7975
L29.3031 30.7975
" />
</g>
<g style="fill:none; 
stroke:#A90000; stroke-width:0.1524; stroke-opacity:1; 
stroke-linecap:round; stroke-linejoin:round;">
<text x="28.0331" y="30.5435"
textLength="3.2096" font-size="1.3333" lengthAdjust="spacingAndGlyphs"
text-anchor="middle" opacity="0" stroke-opacity="0">GP8</text>
<g class="stroked-text"><desc>GP8</desc>
<path d="M27.3188 29.4607
L27.2235 29.4131
" />
<path d="M27.2235 29.4131
L27.0807 29.4131
" />
<path d="M27.0807 29.4131
L26.9378 29.4607
" />
<path d="M26.9378 29.4607
L26.8426 29.5559
" />
<path d="M26.8426 29.5559
L26.7949 29.6512
" />
<path d="M26.7949 29.6512
L26.7473 29.8416
" />
<path d="M26.7473 29.8416
L26.7473 29.9845
" />
<path d="M26.7473 29.9845
L26.7949 30.1750
" />
<path d="M26.7949 30.1750
L26.8426 30.2702
" />
<path d="M26.8426 30.2702
L26.9378 30.3655
" />
<path d="M26.9378 30.3655
L27.0807 30.4131
" />
<path d="M27.0807 30.4131
L27.1759 30.4131
" />
<path d="M27.1759 30.4131
L27.3188 30.3655
" />
<path d="M27.3188 30.3655
L27.3664 30.3178
" />
<path d="M27.3664 30.3178
L27.3664 29.9845
" />
<path d="M27.3664 29.9845
L27.1759 29.9845
" />
<path d="M27.7949 30.4131
L27.7949 29.4131
" />
<path d="M27.7949 29.4131
L28.1759 29.4131
" />
<path d="M28.1759 29.4131
L28.2711 29.4607
" />
<path d="M28.2711 29.4607
L28.3188 29.5083
" />
<path d="M28.3188 29.5083
L28.3664 29.6035
" />
<path d="M28.3664 29.6035
L28.3664 29.7464
" />
<path d="M28.3664 29.7464
L28.3188 29.8416
" />
<path d="M28.3188 29.8416
L28.2711 29.8893
" />
<path d="M28.2711 29.8893
L28.1759 29.9369
" />
<path d="M28.1759 29.9369
L27.7949 29.9369
" />
<path d="M28.9378 29.8416
L28.8426 29.7940
" />
<path d="M28.8426 29.7940
L28.7949 29.7464
" />
<path d="M28.7949 29.7464
L28.7473 29.6512
" />
<path d="M28.7473 29.6512
L28.7473 29.6035
" />
<path d="M28.7473 29.6035
L28.7949 29.5083
" />
<path d="M28.7949 29.5083
L28.8426 29.4607
" />
<path d="M28.8426 29.4607
L28.9378 29.4131
" />
<path d="M28.9378 29.4131
L29.1283 29.4131
" />
<path d="M29.1283 29.4131
L29.2235 29.4607
" />
<path d="M29.2235 29.4607
L29.2711 29.5083
" />
<path d="M29.2711 29.5083
L29.3188 29.6035
" />
<path d="M29.3188 29.6035
L29.3188 29.6512
" />
<path d="M29.3188 29.6512
L29.2711 29.7464
" />
<path d="M29.2711 29.7464
L29.2235 29.7940
" />
<path d="M29.2235 29.7940
L29.1283 29.8416
" />
<path d="M29.1283 29.8416
L28.9378 29.8416
" />
<path d="M28.9378 29.8416
L28.8426 29.8893
" />
<path d="M28.8426 29.8893
L28.7949 29.9369
" />
<path d="M28.7949 29.9369
L28.7473 30.0321
" />
<path d="M28.7473 30.0321
L28.7473 30.2226
" />
<path d="M28.7473 30.2226
L28.7949 30.3178
" />
<path d="M28.7949 30.3178
L28.8426 30.3655
" />
<path d="M28.8426 30.3655
L28.9378 30.4131
" />
<path d="M28.9378 30.4131
L29.1283 30.4131
" />
<path d="M29.1283 30.4131
L29.2235 30.3655
" />
<path d="M29.2235 30.3655
L29.2711 30.3178
" />
<path d="M29.2711 30.3178
L29.3188 30.2226
" />
<path d="M29.3188 30.2226
L29.3188 30.0321
" />
<path d="M29.3188 30.0321
L29.2711 29.9369
" />
<path d="M29.2711 29.9369
L29.2235 29.8893
" />
<path d="M29.2235 29.8893
L29.1283 29.8416
" />
</g></g>
<g style="fill:none; 
stroke:#840000; stroke-width:0.1524; stroke-opacity:1; 
stroke-linecap:round; stroke-linejoin:round;">
<path d="M21.6831 33.3375
L21.6831 35.8775
" />
</g>
<g style="fill:none; 
stroke:#A90000; stroke-width:0.1524; stroke-opacity:1; 
stroke-linecap:round; stroke-linejoin:round;">
<g transform="rotate(-90.000000 21.4291 34.6075)">
<text x="21.4291" y="34.6075"
textLength="3.2096" font-size="1.3333" lengthAdjust="spacingAndGlyphs"
text-anchor="middle" opacity="0" stroke-opacity="0">GP9</text>
</g>
<g class="stroked-text"><desc>GP9</desc>
<path d="M20.3463 35.3217
L20.2987 35.4170
" />
<path d="M20.2987 35.4170
L20.2987 35.5598
" />
<path d="M20.2987 35.5598
L20.3463 35.7027
" />
<path d="M20.3463 35.7027
L20.4415 35.7979
" />
<path d="M20.4415 35.7979
L20.5368 35.8456
" />
<path d="M20.5368 35.8456
L20.7272 35.8932
" />
<path d="M20.7272 35.8932
L20.8701 35.8932
" />
<path d="M20.8701 35.8932
L21.0606 35.8456
" />
<path d="M21.0606 35.8456
L21.1558 35.7979
" />
<path d="M21.1558 35.7979
L21.2511 35.7027
" />
<path d="M21.2511 35.7027
L21.2987 35.5598
" />
<path d="M21.2987 35.5598
L21.2987 35.4646
" />
<path d="M21.2987 35.4646
L21.2511 35.3217
" />
<path d="M21.2511 35.3217
L21.2034 35.2741
" />
<path d="M21.2034 35.2741
L20.8701 35.2741
" />
<path d="M20.8701 35.2741
L20.8701 35.4646
" />
<path d="M21.2987 34.8456
L20.2987 34.8456
" />
<path d="M20.2987 34.8456
L20.2987 34.4646
" />
<path d="M20.2987 34.4646
L20.3463 34.3694
" />
<path d="M20.3463 34.3694
L20.3939 34.3217
" />
<path d="M20.3939 34.3217
L20.4891 34.2741
" />
<path d="M20.4891 34.2741
L20.6320 34.2741
" />
<path d="M20.6320 34.2741
L20.7272 34.3217
" />
<path d="M20.7272 34.3217
L20.7749 34.3694
" />
<path d="M20.7749 34.3694
L20.8225 34.4646
" />
<path d="M20.8225 34.4646
L20.8225 34.8456
" />
<path d="M21.2987 33.7979
L21.2987 33.6075
" />
<path d="M21.2987 33.6075
L21.2511 33.5122
" />
<path d="M21.2511 33.5122
L21.2034 33.4646
" />
<path d="M21.2034 33.4646
L21.0606 33.3694
" />
<path d="M21.0606 33.3694
L20.8701 33.3217
" />
<path d="M20.8701 33.3217
L20.4891 33.3217
" />
<path d="M20.4891 33.3217
L20.3939 33.3694
" />
<path d="M20.3939 33.3694
L20.3463 33.4170
" />
<path d="M20.3463 33.4170
L20.2987 33.5122
" />
<path d="M20.2987 33.5122
L20.2987 33.7027
" />
<path d="M20.2987 33.7027
L20.3463 33.7979
" />
<path d="M20.3463 33.7979
L20.3939 33.8456
" />
<path d="M20.3939 33.8456
L20.4891 33.8932
" />
<path d="M20.4891 33.8932
L20.7272 33.8932
" />
<path d="M20.7272 33.8932
L20.8225 33.8456
" />
<path d="M20.8225 33.8456
L20.8701 33.7979
" />
<path d="M20.8701 33.7979
L20.9177 33.7027
" />
<path d="M20.9177 33.7027
L20.9177 33.5122
" />
<path d="M20.9177 33.5122
L20.8701 33.4170
" />
<path d="M20.8701 33.4170
L20.8225 33.3694
" />
<path d="M20.8225 33.3694
L20.7272 33.3217
" />
</g></g>
<g style="fill:none; 
stroke:#840000; stroke-width:0.1524; stroke-opacity:1; 
stroke-linecap:round; stroke-linejoin:round;">
<path d="M19.1431 33.3375
L19.1431 35.8775
" />
</g>
<g style="fill:none; 
stroke:#A90000; stroke-width:0.1524; stroke-opacity:1; 
stroke-linecap:round; stroke-linejoin:round;">
<g transform="rotate(-90.000000 18.8891 34.6075)">
<text x="18.8891" y="34.6075"
textLength="4.1620" font-size="1.3333" lengthAdjust="spacingAndGlyphs"
text-anchor="middle" opacity="0" stroke-opacity="0">GP10</text>
</g>
<g class="stroked-text"><desc>GP10</desc>
<path d="M17.8063 35.7979
L17.7587 35.8932
" />
<path d="M17.7587 35.8932
L17.7587 36.0360
" />
<path d="M17.7587 36.0360
L17.8063 36.1789
" />
<path d="M17.8063 36.1789
L17.9015 36.2741
" />
<path d="M17.9015 36.2741
L17.9968 36.3218
" />
<path d="M17.9968 36.3218
L18.1872 36.3694
" />
<path d="M18.1872 36.3694
L18.3301 36.3694
" />
<path d="M18.3301 36.3694
L18.5206 36.3218
" />
<path d="M18.5206 36.3218
L18.6158 36.2741
" />
<path d="M18.6158 36.2741
L18.7111 36.1789
" />
<path d="M18.7111 36.1789
L18.7587 36.0360
" />
<path d="M18.7587 36.0360
L18.7587 35.9408
" />
<path d="M18.7587 35.9408
L18.7111 35.7979
" />
<path d="M18.7111 35.7979
L18.6634 35.7503
" />
<path d="M18.6634 35.7503
L18.3301 35.7503
" />
<path d="M18.3301 35.7503
L18.3301 35.9408
" />
<path d="M18.7587 35.3218
L17.7587 35.3218
" />
<path d="M17.7587 35.3218
L17.7587 34.9408
" />
<path d="M17.7587 34.9408
L17.8063 34.8456
" />
<path d="M17.8063 34.8456
L17.8539 34.7979
" />
<path d="M17.8539 34.7979
L17.9491 34.7503
" />
<path d="M17.9491 34.7503
L18.0920 34.7503
" />
<path d="M18.0920 34.7503
L18.1872 34.7979
" />
<path d="M18.1872 34.7979
L18.2349 34.8456
" />
<path d="M18.2349 34.8456
L18.2825 34.9408
" />
<path d="M18.2825 34.9408
L18.2825 35.3218
" />
<path d="M18.7587 33.7979
L18.7587 34.3694
" />
<path d="M18.7587 34.0837
L17.7587 34.0837
" />
<path d="M17.7587 34.0837
L17.9015 34.1789
" />
<path d="M17.9015 34.1789
L17.9968 34.2741
" />
<path d="M17.9968 34.2741
L18.0444 34.3694
" />
<path d="M17.7587 33.1789
L17.7587 33.0836
" />
<path d="M17.7587 33.0836
L17.8063 32.9884
" />
<path d="M17.8063 32.9884
L17.8539 32.9408
" />
<path d="M17.8539 32.9408
L17.9491 32.8932
" />
<path d="M17.9491 32.8932
L18.1396 32.8455
" />
<path d="M18.1396 32.8455
L18.3777 32.8455
" />
<path d="M18.3777 32.8455
L18.5682 32.8932
" />
<path d="M18.5682 32.8932
L18.6634 32.9408
" />
<path d="M18.6634 32.9408
L18.7111 32.9884
" />
<path d="M18.7111 32.9884
L18.7587 33.0836
" />
<path d="M18.7587 33.0836
L18.7587 33.1789
" />
<path d="M18.7587 33.1789
L18.7111 33.2741
" />
<path d="M18.7111 33.2741
L18.6634 33.3217
" />
<path d="M18.6634 33.3217
L18.5682 33.3694
" />
<path d="M18.5682 33.3694
L18.3777 33.4170
" />
<path d="M18.3777 33.4170
L18.1396 33.4170
" />
<path d="M18.1396 33.4170
L17.9491 33.3694
" />
<path d="M17.9491 33.3694
L17.8539 33.3217
" />
<path d="M17.8539 33.3217
L17.8063 33.2741
" />
<path d="M17.8063 33.2741
L17.7587 33.1789
" />
</g></g>
<g style="fill:none; 
stroke:#840000; stroke-width:0.1524; stroke-opacity:1; 
stroke-linecap:round; stroke-linejoin:round;">
<path d="M16.6031 33.3375
L16.6031 35.8775
" />
</g>
<g style="fill:none; 
stroke:#A90000; stroke-width:0.1524; stroke-opacity:1; 
stroke-linecap:round; stroke-linejoin:round;">
<g transform="rotate(-90.000000 16.3491 34.6075)">
<text x="16.3491" y="34.6075"
textLength="4.1620" font-size="1.3333" lengthAdjust="spacingAndGlyphs"
text-anchor="middle" opacity="0" stroke-opacity="0">GP11</text>
</g>
<g class="stroked-text"><desc>GP11</desc>
<path d="M15.2663 35.7979
L15.2187 35.8932
" />
<path d="M15.2187 35.8932
L15.2187 36.0360
" />
<path d="M15.2187 36.0360
L15.2663 36.1789
" />
<path d="M15.2663 36.1789
L15.3615 36.2741
" />
<path d="M15.3615 36.2741
L15.4568 36.3218
" />
<path d="M15.4568 36.3218
L15.6472 36.3694
" />
<path d="M15.6472 36.3694
L15.7901 36.3694
" />
<path d="M15.7901 36.3694
L15.9806 36.3218
" />
<path d="M15.9806 36.3218
L16.0758 36.2741
" />
<path d="M16.0758 36.2741
L16.1711 36.1789
" />
<path d="M16.1711 36.1789
L16.2187 36.0360
" />
<path d="M16.2187 36.0360
L16.2187 35.9408
" />
<path d="M16.2187 35.9408
L16.1711 35.7979
" />
<path d="M16.1711 35.7979
L16.1234 35.7503
" />
<path d="M16.1234 35.7503
L15.7901 35.7503
" />
<path d="M15.7901 35.7503
L15.7901 35.9408
" />
<path d="M16.2187 35.3218
L15.2187 35.3218
" />
<path d="M15.2187 35.3218
L15.2187 34.9408
" />
<path d="M15.2187 34.9408
L15.2663 34.8456
" />
<path d="M15.2663 34.8456
L15.3139 34.7979
" />
<path d="M15.3139 34.7979
L15.4091 34.7503
" />
<path d="M15.4091 34.7503
L15.5520 34.7503
" />
<path d="M15.5520 34.7503
L15.6472 34.7979
" />
<path d="M15.6472 34.7979
L15.6949 34.8456
" />
<path d="M15.6949 34.8456
L15.7425 34.9408
" />
<path d="M15.7425 34.9408
L15.7425 35.3218
" />
<path d="M16.2187 33.7979
L16.2187 34.3694
" />
<path d="M16.2187 34.0837
L15.2187 34.0837
" />
<path d="M15.2187 34.0837
L15.3615 34.1789
" />
<path d="M15.3615 34.1789
L15.4568 34.2741
" />
<path d="M15.4568 34.2741
L15.5044 34.3694
" />
<path d="M16.2187 32.8455
L16.2187 33.4170
" />
<path d="M16.2187 33.1313
L15.2187 33.1313
" />
<path d="M15.2187 33.1313
L15.3615 33.2265
" />
<path d="M15.3615 33.2265
L15.4568 33.3217
" />
<path d="M15.4568 33.3217
L15.5044 33.4170
" />
</g></g>
<g style="fill:none; 
stroke:#840000; stroke-width:0.1524; stroke-opacity:1; 
stroke-linecap:round; stroke-linejoin:round;">
<path d="M14.0631 33.3375
L14.0631 35.8775
" />
</g>
<g style="fill:none; 
stroke:#A90000; stroke-width:0.1524; stroke-opacity:1; 
stroke-linecap:round; stroke-linejoin:round;">
<g transform="rotate(-90.000000 13.8091 34.6075)">
<text x="13.8091" y="34.6075"
textLength="4.1620" font-size="1.3333" lengthAdjust="spacingAndGlyphs"
text-anchor="middle" opacity="0" stroke-opacity="0">GP12</text>
</g>
<g class="stroked-text"><desc>GP12</desc>
<path d="M12.7263 35.7979
L12.6787 35.8932
" />
<path d="M12.6787 35.8932
L12.6787 36.0360
" />
<path d="M12.6787 36.0360
L12.7263 36.1789
" />
<path d="M12.7263 36.1789
L12.8215 36.2741
" />
<path d="M12.8215 36.2741
L12.9168 36.3218
" />
<path d="M12.9168 36.3218
L13.1072 36.3694
" />
<path d="M13.1072 36.3694
L13.2501 36.3694
" />
<path d="M13.2501 36.3694
L13.4406 36.3218
" />
<path d="M13.4406 36.3218
L13.5358 36.2741
" />
<path d="M13.5358 36.2741
L13.6311 36.1789
" />
<path d="M13.6311 36.1789
L13.6787 36.0360
" />
<path d="M13.6787 36.0360
L13.6787 35.9408
" />
<path d="M13.6787 35.9408
L13.6311 35.7979
" />
<path d="M13.6311 35.7979
L13.5834 35.7503
" />
<path d="M13.5834 35.7503
L13.2501 35.7503
" />
<path d="M13.2501 35.7503
L13.2501 35.9408
" />
<path d="M13.6787 35.3218
L12.6787 35.3218
" />
<path d="M12.6787 35.3218
L12.6787 34.9408
" />
<path d="M12.6787 34.9408
L12.7263 34.8456
" />
<path d="M12.7263 34.8456
L12.7739 34.7979
" />
<path d="M12.7739 34.7979
L12.8691 34.7503
" />
<path d="M12.8691 34.7503
L13.0120 34.7503
" />
<path d="M13.0120 34.7503
L13.1072 34.7979
" />
<path d="M13.1072 34.7979
L13.1549 34.8456
" />
<path d="M13.1549 34.8456
L13.2025 34.9408
" />
<path d="M13.2025 34.9408
L13.2025 35.3218
" />
<path d="M13.6787 33.7979
L13.6787 34.3694
" />
<path d="M13.6787 34.0837
L12.6787 34.0837
" />
<path d="M12.6787 34.0837
L12.8215 34.1789
" />
<path d="M12.8215 34.1789
L12.9168 34.2741
" />
<path d="M12.9168 34.2741
L12.9644 34.3694
" />
<path d="M12.7739 33.4170
L12.7263 33.3694
" />
<path d="M12.7263 33.3694
L12.6787 33.2741
" />
<path d="M12.6787 33.2741
L12.6787 33.0360
" />
<path d="M12.6787 33.0360
L12.7263 32.9408
" />
<path d="M12.7263 32.9408
L12.7739 32.8932
" />
<path d="M12.7739 32.8932
L12.8691 32.8455
" />
<path d="M12.8691 32.8455
L12.9644 32.8455
" />
<path d="M12.9644 32.8455
L13.1072 32.8932
" />
<path d="M13.1072 32.8932
L13.6787 33.4646
" />
<path d="M13.6787 33.4646
L13.6787 32.8455
" />
</g></g>
<g style="fill:none; 
stroke:#840000; stroke-width:0.1524; stroke-opacity:1; 
stroke-linecap:round; stroke-linejoin:round;">
<path d="M11.5231 33.3375
L11.5231 35.8775
" />
</g>
<g style="fill:none; 
stroke:#A90000; stroke-width:0.1524; stroke-opacity:1; 
stroke-linecap:round; stroke-linejoin:round;">
<g transform="rotate(-90.000000 11.2691 34.6075)">
<text x="11.2691" y="34.6075"
textLength="4.1620" font-size="1.3333" lengthAdjust="spacingAndGlyphs"
text-anchor="middle" opacity="0" stroke-opacity="0">GP13</text>
</g>
<g class="stroked-text"><desc>GP13</desc>
<path d="M10.1863 35.7979
L10.1387 35.8932
" />
<path d="M10.1387 35.8932
L10.1387 36.0360
" />
<path d="M10.1387 36.0360
L10.1863 36.1789
" />
<path d="M10.1863 36.1789
L10.2815 36.2741
" />
<path d="M10.2815 36.2741
L10.3768 36.3218
" />
<path d="M10.3768 36.3218
L10.5672 36.3694
" />
<path d="M10.5672 36.3694
L10.7101 36.3694
" />
<path d="M10.7101 36.3694
L10.9006 36.3218
" />
<path d="M10.9006 36.3218
L10.9958 36.2741
" />
<path d="M10.9958 36.2741
L11.0911 36.1789
" />
<path d="M11.0911 36.1789
L11.1387 36.0360
" />
<path d="M11.1387 36.0360
L11.1387 35.9408
" />
<path d="M11.1387 35.9408
L11.0911 35.7979
" />
<path d="M11.0911 35.7979
L11.0434 35.7503
" />
<path d="M11.0434 35.7503
L10.7101 35.7503
" />
<path d="M10.7101 35.7503
L10.7101 35.9408
" />
<path d="M11.1387 35.3218
L10.1387 35.3218
" />
<path d="M10.1387 35.3218
L10.1387 34.9408
" />
<path d="M10.1387 34.9408
L10.1863 34.8456
" />
<path d="M10.1863 34.8456
L10.2339 34.7979
" />
<path d="M10.2339 34.7979
L10.3291 34.7503
" />
<path d="M10.3291 34.7503
L10.4720 34.7503
" />
<path d="M10.4720 34.7503
L10.5672 34.7979
" />
<path d="M10.5672 34.7979
L10.6149 34.8456
" />
<path d="M10.6149 34.8456
L10.6625 34.9408
" />
<path d="M10.6625 34.9408
L10.6625 35.3218
" />
<path d="M11.1387 33.7979
L11.1387 34.3694
" />
<path d="M11.1387 34.0837
L10.1387 34.0837
" />
<path d="M10.1387 34.0837
L10.2815 34.1789
" />
<path d="M10.2815 34.1789
L10.3768 34.2741
" />
<path d="M10.3768 34.2741
L10.4244 34.3694
" />
<path d="M10.1387 33.4646
L10.1387 32.8455
" />
<path d="M10.1387 32.8455
L10.5196 33.1789
" />
<path d="M10.5196 33.1789
L10.5196 33.0360
" />
<path d="M10.5196 33.0360
L10.5672 32.9408
" />
<path d="M10.5672 32.9408
L10.6149 32.8932
" />
<path d="M10.6149 32.8932
L10.7101 32.8455
" />
<path d="M10.7101 32.8455
L10.9482 32.8455
" />
<path d="M10.9482 32.8455
L11.0434 32.8932
" />
<path d="M11.0434 32.8932
L11.0911 32.9408
" />
<path d="M11.0911 32.9408
L11.1387 33.0360
" />
<path d="M11.1387 33.0360
L11.1387 33.3217
" />
<path d="M11.1387 33.3217
L11.0911 33.4170
" />
<path d="M11.0911 33.4170
L11.0434 33.4646
" />
</g></g>
<g style="fill:none; 
stroke:#840000; stroke-width:0.1524; stroke-opacity:1; 
stroke-linecap:round; stroke-linejoin:round;">
<path d="M6.4431 30.7975
L3.9031 30.7975
" />
</g>
<g style="fill:none; 
stroke:#A90000; stroke-width:0.1524; stroke-opacity:1; 
stroke-linecap:round; stroke-linejoin:round;">
<text x="5.1731" y="30.5435"
textLength="4.1620" font-size="1.3333" lengthAdjust="spacingAndGlyphs"
text-anchor="middle" opacity="0" stroke-opacity="0">GP14</text>
<g class="stroked-text"><desc>GP14</desc>
<path d="M3.9826 29.4607
L3.8873 29.4131
" />
<path d="M3.8873 29.4131
L3.7445 29.4131
" />
<path d="M3.7445 29.4131
L3.6016 29.4607
" />
<path d="M3.6016 29.4607
L3.5064 29.5559
" />
<path d="M3.5064 29.5559
L3.4587 29.6512
" />
<path d="M3.4587 29.6512
L3.4111 29.8416
" />
<path d="M3.4111 29.8416
L3.4111 29.9845
" />
<path d="M3.4111 29.9845
L3.4587 30.1750
" />
<path d="M3.4587 30.1750
L3.5064 30.2702
" />
<path d="M3.5064 30.2702
L3.6016 30.3655
" />
<path d="M3.6016 30.3655
L3.7445 30.4131
" />
<path d="M3.7445 30.4131
L3.8397 30.4131
" />
<path d="M3.8397 30.4131
L3.9826 30.3655
" />
<path d="M3.9826 30.3655
L4.0302 30.3178
" />
<path d="M4.0302 30.3178
L4.0302 29.9845
" />
<path d="M4.0302 29.9845
L3.8397 29.9845
" />
<path d="M4.4587 30.4131
L4.4587 29.4131
" />
<path d="M4.4587 29.4131
L4.8397 29.4131
" />
<path d="M4.8397 29.4131
L4.9349 29.4607
" />
<path d="M4.9349 29.4607
L4.9826 29.5083
" />
<path d="M4.9826 29.5083
L5.0302 29.6035
" />
<path d="M5.0302 29.6035
L5.0302 29.7464
" />
<path d="M5.0302 29.7464
L4.9826 29.8416
" />
<path d="M4.9826 29.8416
L4.9349 29.8893
" />
<path d="M4.9349 29.8893
L4.8397 29.9369
" />
<path d="M4.8397 29.9369
L4.4587 29.9369
" />
<path d="M5.9826 30.4131
L5.4111 30.4131
" />
<path d="M5.6968 30.4131
L5.6968 29.4131
" />
<path d="M5.6968 29.4131
L5.6016 29.5559
" />
<path d="M5.6016 29.5559
L5.5064 29.6512
" />
<path d="M5.5064 29.6512
L5.4111 29.6988
" />
<path d="M6.8397 29.7464
L6.8397 30.4131
" />
<path d="M6.6016 29.3655
L6.3635 30.0797
" />
<path d="M6.3635 30.0797
L6.9826 30.0797
" />
</g></g>
<g style="fill:none; 
stroke:#840000; stroke-width:0.1524; stroke-opacity:1; 
stroke-linecap:round; stroke-linejoin:round;">
<path d="M6.4431 28.2575
L3.9031 28.2575
" />
</g>
<g style="fill:none; 
stroke:#A90000; stroke-width:0.1524; stroke-opacity:1; 
stroke-linecap:round; stroke-linejoin:round;">
<text x="5.1731" y="28.0035"
textLength="4.1620" font-size="1.3333" lengthAdjust="spacingAndGlyphs"
text-anchor="middle" opacity="0" stroke-opacity="0">GP15</text>
<g class="stroked-text"><desc>GP15</desc>
<path d="M3.9826 26.9207
L3.8873 26.8731
" />
<path d="M3.8873 26.8731
L3.7445 26.8731
" />
<path d="M3.7445 26.8731
L3.6016 26.9207
" />
<path d="M3.6016 26.9207
L3.5064 27.0159
" />
<path d="M3.5064 27.0159
L3.4587 27.1112
" />
<path d="M3.4587 27.1112
L3.4111 27.3016
" />
<path d="M3.4111 27.3016
L3.4111 27.4445
" />
<path d="M3.4111 27.4445
L3.4587 27.6350
" />
<path d="M3.4587 27.6350
L3.5064 27.7302
" />
<path d="M3.5064 27.7302
L3.6016 27.8255
" />
<path d="M3.6016 27.8255
L3.7445 27.8731
" />
<path d="M3.7445 27.8731
L3.8397 27.8731
" />
<path d="M3.8397 27.8731
L3.9826 27.8255
" />
<path d="M3.9826 27.8255
L4.0302 27.7778
" />
<path d="M4.0302 27.7778
L4.0302 27.4445
" />
<path d="M4.0302 27.4445
L3.8397 27.4445
" />
<path d="M4.4587 27.8731
L4.4587 26.8731
" />
<path d="M4.4587 26.8731
L4.8397 26.8731
" />
<path d="M4.8397 26.8731
L4.9349 26.9207
" />
<path d="M4.9349 26.9207
L4.9826 26.9683
" />
<path d="M4.9826 26.9683
L5.0302 27.0635
" />
<path d="M5.0302 27.0635
L5.0302 27.2064
" />
<path d="M5.0302 27.2064
L4.9826 27.3016
" />
<path d="M4.9826 27.3016
L4.9349 27.3493
" />
<path d="M4.9349 27.3493
L4.8397 27.3969
" />
<path d="M4.8397 27.3969
L4.4587 27.3969
" />
<path d="M5.9826 27.8731
L5.4111 27.8731
" />
<path d="M5.6968 27.8731
L5.6968 26.8731
" />
<path d="M5.6968 26.8731
L5.6016 27.0159
" />
<path d="M5.6016 27.0159
L5.5064 27.1112
" />
<path d="M5.5064 27.1112
L5.4111 27.1588
" />
<path d="M6.8873 26.8731
L6.4111 26.8731
" />
<path d="M6.4111 26.8731
L6.3635 27.3493
" />
<path d="M6.3635 27.3493
L6.4111 27.3016
" />
<path d="M6.4111 27.3016
L6.5064 27.2540
" />
<path d="M6.5064 27.2540
L6.7445 27.2540
" />
<path d="M6.7445 27.2540
L6.8397 27.3016
" />
<path d="M6.8397 27.3016
L6.8873 27.3493
" />
<path d="M6.8873 27.3493
L6.9350 27.4445
" />
<path d="M6.9350 27.4445
L6.9350 27.6826
" />
<path d="M6.9350 27.6826
L6.8873 27.7778
" />
<path d="M6.8873 27.7778
L6.8397 27.8255
" />
<path d="M6.8397 27.8255
L6.7445 27.8731
" />
<path d="M6.7445 27.8731
L6.5064 27.8731
" />
<path d="M6.5064 27.8731
L6.4111 27.8255
" />
<path d="M6.4111 27.8255
L6.3635 27.7778
" />
</g></g>
<g style="fill:none; 
stroke:#840000; stroke-width:0.1524; stroke-opacity:1; 
stroke-linecap:round; stroke-linejoin:round;">
<path d="M6.4431 25.7175
L3.9031 25.7175
" />
</g>
<g style="fill:none; 
stroke:#A90000; stroke-width:0.1524; stroke-opacity:1; 
stroke-linecap:round; stroke-linejoin:round;">
<text x="5.1731" y="25.4635"
textLength="4.1620" font-size="1.3333" lengthAdjust="spacingAndGlyphs"
text-anchor="middle" opacity="0" stroke-opacity="0">GP26</text>
<g class="stroked-text"><desc>GP26</desc>
<path d="M3.9826 24.3807
L3.8873 24.3331
" />
<path d="M3.8873 24.3331
L3.7445 24.3331
" />
<path d="M3.7445 24.3331
L3.6016 24.3807
" />
<path d="M3.6016 24.3807
L3.5064 24.4759
" />
<path d="M3.5064 24.4759
L3.4587 24.5712
" />
<path d="M3.4587 24.5712
L3.4111 24.7616
" />
<path d="M3.4111 24.7616
L3.4111 24.9045
" />
<path d="M3.4111 24.9045
L3.4587 25.0950
" />
<path d="M3.4587 25.0950
L3.5064 25.1902
" />
<path d="M3.5064 25.1902
L3.6016 25.2855
" />
<path d="M3.6016 25.2855
L3.7445 25.3331
" />
<path d="M3.7445 25.3331
L3.8397 25.3331
" />
<path d="M3.8397 25.3331
L3.9826 25.2855
" />
<path d="M3.9826 25.2855
L4.0302 25.2378
" />
<path d="M4.0302 25.2378
L4.0302 24.9045
" />
<path d="M4.0302 24.9045
L3.8397 24.9045
" />
<path d="M4.4587 25.3331
L4.4587 24.3331
" />
<path d="M4.4587 24.3331
L4.8397 24.3331
" />
<path d="M4.8397 24.3331
L4.9349 24.3807
" />
<path d="M4.9349 24.3807
L4.9826 24.4283
" />
<path d="M4.9826 24.4283
L5.0302 24.5235
" />
<path d="M5.0302 24.5235
L5.0302 24.6664
" />
<path d="M5.0302 24.6664
L4.9826 24.7616
" />
<path d="M4.9826 24.7616
L4.9349 24.8093
" />
<path d="M4.9349 24.8093
L4.8397 24.8569
" />
<path d="M4.8397 24.8569
L4.4587 24.8569
" />
<path d="M5.4111 24.4283
L5.4587 24.3807
" />
<path d="M5.4587 24.3807
L5.5540 24.3331
" />
<path d="M5.5540 24.3331
L5.7921 24.3331
" />
<path d="M5.7921 24.3331
L5.8873 24.3807
" />
<path d="M5.8873 24.3807
L5.9349 24.4283
" />
<path d="M5.9349 24.4283
L5.9826 24.5235
" />
<path d="M5.9826 24.5235
L5.9826 24.6188
" />
<path d="M5.9826 24.6188
L5.9349 24.7616
" />
<path d="M5.9349 24.7616
L5.3635 25.3331
" />
<path d="M5.3635 25.3331
L5.9826 25.3331
" />
<path d="M6.8397 24.3331
L6.6492 24.3331
" />
<path d="M6.6492 24.3331
L6.5540 24.3807
" />
<path d="M6.5540 24.3807
L6.5064 24.4283
" />
<path d="M6.5064 24.4283
L6.4111 24.5712
" />
<path d="M6.4111 24.5712
L6.3635 24.7616
" />
<path d="M6.3635 24.7616
L6.3635 25.1426
" />
<path d="M6.3635 25.1426
L6.4111 25.2378
" />
<path d="M6.4111 25.2378
L6.4588 25.2855
" />
<path d="M6.4588 25.2855
L6.5540 25.3331
" />
<path d="M6.5540 25.3331
L6.7445 25.3331
" />
<path d="M6.7445 25.3331
L6.8397 25.2855
" />
<path d="M6.8397 25.2855
L6.8873 25.2378
" />
<path d="M6.8873 25.2378
L6.9350 25.1426
" />
<path d="M6.9350 25.1426
L6.9350 24.9045
" />
<path d="M6.9350 24.9045
L6.8873 24.8093
" />
<path d="M6.8873 24.8093
L6.8397 24.7616
" />
<path d="M6.8397 24.7616
L6.7445 24.7140
" />
<path d="M6.7445 24.7140
L6.5540 24.7140
" />
<path d="M6.5540 24.7140
L6.4588 24.7616
" />
<path d="M6.4588 24.7616
L6.4111 24.8093
" />
<path d="M6.4111 24.8093
L6.3635 24.9045
" />
</g></g>
<g style="fill:none; 
stroke:#840000; stroke-width:0.1524; stroke-opacity:1; 
stroke-linecap:round; stroke-linejoin:round;">
<path d="M6.4431 23.1775
L3.9031 23.1775
" />
</g>
<g style="fill:none; 
stroke:#A90000; stroke-width:0.1524; stroke-opacity:1; 
stroke-linecap:round; stroke-linejoin:round;">
<text x="5.1731" y="22.9235"
textLength="4.1620" font-size="1.3333" lengthAdjust="spacingAndGlyphs"
text-anchor="middle" opacity="0" stroke-opacity="0">GP27</text>
<g class="stroked-text"><desc>GP27</desc>
<path d="M3.9826 21.8407
L3.8873 21.7931
" />
<path d="M3.8873 21.7931
L3.7445 21.7931
" />
<path d="M3.7445 21.7931
L3.6016 21.8407
" />
<path d="M3.6016 21.8407
L3.5064 21.9359
" />
<path d="M3.5064 21.9359
L3.4587 22.0312
" />
<path d="M3.4587 22.0312
L3.4111 22.2216
" />
<path d="M3.4111 22.2216
L3.4111 22.3645
" />
<path d="M3.4111 22.3645
L3.4587 22.5550
" />
<path d="M3.4587 22.5550
L3.5064 22.6502
" />
<path d="M3.5064 22.6502
L3.6016 22.7455
" />
<path d="M3.6016 22.7455
L3.7445 22.7931
" />
<path d="M3.7445 22.7931
L3.8397 22.7931
" />
<path d="M3.8397 22.7931
L3.9826 22.7455
" />
<path d="M3.9826 22.7455
L4.0302 22.6978
" />
<path d="M4.0302 22.6978
L4.0302 22.3645
" />
<path d="M4.0302 22.3645
L3.8397 22.3645
" />
<path d="M4.4587 22.7931
L4.4587 21.7931
" />
<path d="M4.4587 21.7931
L4.8397 21.7931
" />
<path d="M4.8397 21.7931
L4.9349 21.8407
" />
<path d="M4.9349 21.8407
L4.9826 21.8883
" />
<path d="M4.9826 21.8883
L5.0302 21.9835
" />
<path d="M5.0302 21.9835
L5.0302 22.1264
" />
<path d="M5.0302 22.1264
L4.9826 22.2216
" />
<path d="M4.9826 22.2216
L4.9349 22.2693
" />
<path d="M4.9349 22.2693
L4.8397 22.3169
" />
<path d="M4.8397 22.3169
L4.4587 22.3169
" />
<path d="M5.4111 21.8883
L5.4587 21.8407
" />
<path d="M5.4587 21.8407
L5.5540 21.7931
" />
<path d="M5.5540 21.7931
L5.7921 21.7931
" />
<path d="M5.7921 21.7931
L5.8873 21.8407
" />
<path d="M5.8873 21.8407
L5.9349 21.8883
" />
<path d="M5.9349 21.8883
L5.9826 21.9835
" />
<path d="M5.9826 21.9835
L5.9826 22.0788
" />
<path d="M5.9826 22.0788
L5.9349 22.2216
" />
<path d="M5.9349 22.2216
L5.3635 22.7931
" />
<path d="M5.3635 22.7931
L5.9826 22.7931
" />
<path d="M6.3159 21.7931
L6.9826 21.7931
" />
<path d="M6.9826 21.7931
L6.5540 22.7931
" />
</g></g>
<g style="fill:none; 
stroke:#840000; stroke-width:0.1524; stroke-opacity:1; 
stroke-linecap:round; stroke-linejoin:round;">
<path d="M6.4431 20.6375
L3.9031 20.6375
" />
</g>
<g style="fill:none; 
stroke:#A90000; stroke-width:0.1524; stroke-opacity:1; 
stroke-linecap:round; stroke-linejoin:round;">
<text x="5.1731" y="20.3835"
textLength="4.1620" font-size="1.3333" lengthAdjust="spacingAndGlyphs"
text-anchor="middle" opacity="0" stroke-opacity="0">GP28</text>
<g class="stroked-text"><desc>GP28</desc>
<path d="M3.9826 19.3007
L3.8873 19.2531
" />
<path d="M3.8873 19.2531
L3.7445 19.2531
" />
<path d="M3.7445 19.2531
L3.6016 19.3007
" />
<path d="M3.6016 19.3007
L3.5064 19.3959
" />
<path d="M3.5064 19.3959
L3.4587 19.4912
" />
<path d="M3.4587 19.4912
L3.4111 19.6816
" />
<path d="M3.4111 19.6816
L3.4111 19.8245
" />
<path d="M3.4111 19.8245
L3.4587 20.0150
" />
<path d="M3.4587 20.0150
L3.5064 20.1102
" />
<path d="M3.5064 20.1102
L3.6016 20.2055
" />
<path d="M3.6016 20.2055
L3.7445 20.2531
" />
<path d="M3.7445 20.2531
L3.8397 20.2531
" />
<path d="M3.8397 20.2531
L3.9826 20.2055
" />
<path d="M3.9826 20.2055
L4.0302 20.1578
" />
<path d="M4.0302 20.1578
L4.0302 19.8245
" />
<path d="M4.0302 19.8245
L3.8397 19.8245
" />
<path d="M4.4587 20.2531
L4.4587 19.2531
" />
<path d="M4.4587 19.2531
L4.8397 19.2531
" />
<path d="M4.8397 19.2531
L4.9349 19.3007
" />
<path d="M4.9349 19.3007
L4.9826 19.3483
" />
<path d="M4.9826 19.3483
L5.0302 19.4435
" />
<path d="M5.0302 19.4435
L5.0302 19.5864
" />
<path d="M5.0302 19.5864
L4.9826 19.6816
" />
<path d="M4.9826 19.6816
L4.9349 19.7293
" />
<path d="M4.9349 19.7293
L4.8397 19.7769
" />
<path d="M4.8397 19.7769
L4.4587 19.7769
" />
<path d="M5.4111 19.3483
L5.4587 19.3007
" />
<path d="M5.4587 19.3007
L5.5540 19.2531
" />
<path d="M5.5540 19.2531
L5.7921 19.2531
" />
<path d="M5.7921 19.2531
L5.8873 19.3007
" />
<path d="M5.8873 19.3007
L5.9349 19.3483
" />
<path d="M5.9349 19.3483
L5.9826 19.4435
" />
<path d="M5.9826 19.4435
L5.9826 19.5388
" />
<path d="M5.9826 19.5388
L5.9349 19.6816
" />
<path d="M5.9349 19.6816
L5.3635 20.2531
" />
<path d="M5.3635 20.2531
L5.9826 20.2531
" />
<path d="M6.5540 19.6816
L6.4588 19.6340
" />
<path d="M6.4588 19.6340
L6.4111 19.5864
" />
<path d="M6.4111 19.5864
L6.3635 19.4912
" />
<path d="M6.3635 19.4912
L6.3635 19.4435
" />
<path d="M6.3635 19.4435
L6.4111 19.3483
" />
<path d="M6.4111 19.3483
L6.4588 19.3007
" />
<path d="M6.4588 19.3007
L6.5540 19.2531
" />
<path d="M6.5540 19.2531
L6.7445 19.2531
" />
<path d="M6.7445 19.2531
L6.8397 19.3007
" />
<path d="M6.8397 19.3007
L6.8873 19.3483
" />
<path d="M6.8873 19.3483
L6.9350 19.4435
" />
<path d="M6.9350 19.4435
L6.9350 19.4912
" />
<path d="M6.9350 19.4912
L6.8873 19.5864
" />
<path d="M6.8873 19.5864
L6.8397 19.6340
" />
<path d="M6.8397 19.6340
L6.7445 19.6816
" />
<path d="M6.7445 19.6816
L6.5540 19.6816
" />
<path d="M6.5540 19.6816
L6.4588 19.7293
" />
<path d="M6.4588 19.7293
L6.4111 19.7769
" />
<path d="M6.4111 19.7769
L6.3635 19.8721
" />
<path d="M6.3635 19.8721
L6.3635 20.0626
" />
<path d="M6.3635 20.0626
L6.4111 20.1578
" />
<path d="M6.4111 20.1578
L6.4588 20.2055
" />
<path d="M6.4588 20.2055
L6.5540 20.2531
" />
<path d="M6.5540 20.2531
L6.7445 20.2531
" />
<path d="M6.7445 20.2531
L6.8397 20.2055
" />
<path d="M6.8397 20.2055
L6.8873 20.1578
" />
<path d="M6.8873 20.1578
L6.9350 20.0626
" />
<path d="M6.9350 20.0626
L6.9350 19.8721
" />
<path d="M6.9350 19.8721
L6.8873 19.7769
" />
<path d="M6.8873 19.7769
L6.8397 19.7293
" />
<path d="M6.8397 19.7293
L6.7445 19.6816
" />
</g></g>
<g style="fill:none; 
stroke:#840000; stroke-width:0.1524; stroke-opacity:1; 
stroke-linecap:round; stroke-linejoin:round;">
<path d="M6.4431 18.0975
L3.9031 18.0975
" />
</g>
<g style="fill:none; 
stroke:#A90000; stroke-width:0.1524; stroke-opacity:1; 
stroke-linecap:round; stroke-linejoin:round;">
<text x="5.1731" y="17.8435"
textLength="4.1620" font-size="1.3333" lengthAdjust="spacingAndGlyphs"
text-anchor="middle" opacity="0" stroke-opacity="0">GP29</text>
<g class="stroked-text"><desc>GP29</desc>
<path d="M3.9826 16.7607
L3.8873 16.7131
" />
<path d="M3.8873 16.7131
L3.7445 16.7131
" />
<path d="M3.7445 16.7131
L3.6016 16.7607
" />
<path d="M3.6016 16.7607
L3.5064 16.8559
" />
<path d="M3.5064 16.8559
L3.4587 16.9512
" />
<path d="M3.4587 16.9512
L3.4111 17.1416
" />
<path d="M3.4111 17.1416
L3.4111 17.2845
" />
<path d="M3.4111 17.2845
L3.4587 17.4750
" />
<path d="M3.4587 17.4750
L3.5064 17.5702
" />
<path d="M3.5064 17.5702
L3.6016 17.6655
" />
<path d="M3.6016 17.6655
L3.7445 17.7131
" />
<path d="M3.7445 17.7131
L3.8397 17.7131
" />
<path d="M3.8397 17.7131
L3.9826 17.6655
" />
<path d="M3.9826 17.6655
L4.0302 17.6178
" />
<path d="M4.0302 17.6178
L4.0302 17.2845
" />
<path d="M4.0302 17.2845
L3.8397 17.2845
" />
<path d="M4.4587 17.7131
L4.4587 16.7131
" />
<path d="M4.4587 16.7131
L4.8397 16.7131
" />
<path d="M4.8397 16.7131
L4.9349 16.7607
" />
<path d="M4.9349 16.7607
L4.9826 16.8083
" />
<path d="M4.9826 16.8083
L5.0302 16.9035
" />
<path d="M5.0302 16.9035
L5.0302 17.0464
" />
<path d="M5.0302 17.0464
L4.9826 17.1416
" />
<path d="M4.9826 17.1416
L4.9349 17.1893
" />
<path d="M4.9349 17.1893
L4.8397 17.2369
" />
<path d="M4.8397 17.2369
L4.4587 17.2369
" />
<path d="M5.4111 16.8083
L5.4587 16.7607
" />
<path d="M5.4587 16.7607
L5.5540 16.7131
" />
<path d="M5.5540 16.7131
L5.7921 16.7131
" />
<path d="M5.7921 16.7131
L5.8873 16.7607
" />
<path d="M5.8873 16.7607
L5.9349 16.8083
" />
<path d="M5.9349 16.8083
L5.9826 16.9035
" />
<path d="M5.9826 16.9035
L5.9826 16.9988
" />
<path d="M5.9826 16.9988
L5.9349 17.1416
" />
<path d="M5.9349 17.1416
L5.3635 17.7131
" />
<path d="M5.3635 17.7131
L5.9826 17.7131
" />
<path d="M6.4588 17.7131
L6.6492 17.7131
" />
<path d="M6.6492 17.7131
L6.7445 17.6655
" />
<path d="M6.7445 17.6655
L6.7921 17.6178
" />
<path d="M6.7921 17.6178
L6.8873 17.4750
" />
<path d="M6.8873 17.4750
L6.9350 17.2845
" />
<path d="M6.9350 17.2845
L6.9350 16.9035
" />
<path d="M6.9350 16.9035
L6.8873 16.8083
" />
<path d="M6.8873 16.8083
L6.8397 16.7607
" />
<path d="M6.8397 16.7607
L6.7445 16.7131
" />
<path d="M6.7445 16.7131
L6.5540 16.7131
" />
<path d="M6.5540 16.7131
L6.4588 16.7607
" />
<path d="M6.4588 16.7607
L6.4111 16.8083
" />
<path d="M6.4111 16.8083
L6.3635 16.9035
" />
<path d="M6.3635 16.9035
L6.3635 17.1416
" />
<path d="M6.3635 17.1416
L6.4111 17.2369
" />
<path d="M6.4111 17.2369
L6.4588 17.2845
" />
<path d="M6.4588 17.2845
L6.5540 17.3321
" />
<path d="M6.5540 17.3321
L6.7445 17.3321
" />
<path d="M6.7445 17.3321
L6.8397 17.2845
" />
<path d="M6.8397 17.2845
L6.8873 17.2369
" />
<path d="M6.8873 17.2369
L6.9350 17.1416
" />
</g></g>
<g style="fill:none; 
stroke:#006464; stroke-width:0.1524; stroke-opacity:1; 
stroke-linecap:round; stroke-linejoin:round;">
<text x="6.4431" y="5.3975"
textLength="2.3804" font-size="1.6933" lengthAdjust="spacingAndGlyphs"
text-anchor="start" opacity="0" stroke-opacity="0">A?</text>
<g class="stroked-text"><desc>A?</desc>
<path d="M6.7852 4.8712
L7.3899 4.8712
" />
<path d="M6.6642 5.2340
L7.0875 3.9640
" />
<path d="M7.0875 3.9640
L7.5109 5.2340
" />
<path d="M8.1157 5.1131
L8.1761 5.1736
" />
<path d="M8.1761 5.1736
L8.1157 5.2340
" />
<path d="M8.1157 5.2340
L8.0552 5.1736
" />
<path d="M8.0552 5.1736
L8.1157 5.1131
" />
<path d="M8.1157 5.1131
L8.1157 5.2340
" />
<path d="M7.8738 4.0245
L7.9947 3.9640
" />
<path d="M7.9947 3.9640
L8.2971 3.9640
" />
<path d="M8.2971 3.9640
L8.4180 4.0245
" />
<path d="M8.4180 4.0245
L8.4785 4.1455
" />
<path d="M8.4785 4.1455
L8.4785 4.2664
" />
<path d="M8.4785 4.2664
L8.4180 4.3874
" />
<path d="M8.4180 4.3874
L8.3576 4.4478
" />
<path d="M8.3576 4.4478
L8.2366 4.5083
" />
<path d="M8.2366 4.5083
L8.1761 4.5688
" />
<path d="M8.1761 4.5688
L8.1157 4.6897
" />
<path d="M8.1157 4.6897
L8.1157 4.7502
" />
</g><text x="21.6831" y="39.6875"
textLength="12.7821" font-size="1.6933" lengthAdjust="spacingAndGlyphs"
text-anchor="start" opacity="0" stroke-opacity="0">RP2040_Zero</text>
<g class="stroked-text"><desc>RP2040_Zero</desc>
<path d="M22.8113 39.7399
L22.3880 39.1352
" />
<path d="M22.0856 39.7399
L22.0856 38.4699
" />
<path d="M22.0856 38.4699
L22.5694 38.4699
" />
<path d="M22.5694 38.4699
L22.6904 38.5304
" />
<path d="M22.6904 38.5304
L22.7509 38.5909
" />
<path d="M22.7509 38.5909
L22.8113 38.7118
" />
<path d="M22.8113 38.7118
L22.8113 38.8933
" />
<path d="M22.8113 38.8933
L22.7509 39.0142
" />
<path d="M22.7509 39.0142
L22.6904 39.0747
" />
<path d="M22.6904 39.0747
L22.5694 39.1352
" />
<path d="M22.5694 39.1352
L22.0856 39.1352
" />
<path d="M23.3556 39.7399
L23.3556 38.4699
" />
<path d="M23.3556 38.4699
L23.8394 38.4699
" />
<path d="M23.8394 38.4699
L23.9604 38.5304
" />
<path d="M23.9604 38.5304
L24.0209 38.5909
" />
<path d="M24.0209 38.5909
L24.0813 38.7118
" />
<path d="M24.0813 38.7118
L24.0813 38.8933
" />
<path d="M24.0813 38.8933
L24.0209 39.0142
" />
<path d="M24.0209 39.0142
L23.9604 39.0747
" />
<path d="M23.9604 39.0747
L23.8394 39.1352
" />
<path d="M23.8394 39.1352
L23.3556 39.1352
" />
<path d="M24.5652 38.5909
L24.6256 38.5304
" />
<path d="M24.6256 38.5304
L24.7466 38.4699
" />
<path d="M24.7466 38.4699
L25.0490 38.4699
" />
<path d="M25.0490 38.4699
L25.1699 38.5304
" />
<path d="M25.1699 38.5304
L25.2304 38.5909
" />
<path d="M25.2304 38.5909
L25.2909 38.7118
" />
<path d="M25.2909 38.7118
L25.2909 38.8328
" />
<path d="M25.2909 38.8328
L25.2304 39.0142
" />
<path d="M25.2304 39.0142
L24.5047 39.7399
" />
<path d="M24.5047 39.7399
L25.2909 39.7399
" />
<path d="M26.0770 38.4699
L26.1980 38.4699
" />
<path d="M26.1980 38.4699
L26.3189 38.5304
" />
<path d="M26.3189 38.5304
L26.3794 38.5909
" />
<path d="M26.3794 38.5909
L26.4399 38.7118
" />
<path d="M26.4399 38.7118
L26.5004 38.9537
" />
<path d="M26.5004 38.9537
L26.5004 39.2561
" />
<path d="M26.5004 39.2561
L26.4399 39.4980
" />
<path d="M26.4399 39.4980
L26.3794 39.6190
" />
<path d="M26.3794 39.6190
L26.3189 39.6795
" />
<path d="M26.3189 39.6795
L26.1980 39.7399
" />
<path d="M26.1980 39.7399
L26.0770 39.7399
" />
<path d="M26.0770 39.7399
L25.9561 39.6795
" />
<path d="M25.9561 39.6795
L25.8956 39.6190
" />
<path d="M25.8956 39.6190
L25.8351 39.4980
" />
<path d="M25.8351 39.4980
L25.7747 39.2561
" />
<path d="M25.7747 39.2561
L25.7747 38.9537
" />
<path d="M25.7747 38.9537
L25.8351 38.7118
" />
<path d="M25.8351 38.7118
L25.8956 38.5909
" />
<path d="M25.8956 38.5909
L25.9561 38.5304
" />
<path d="M25.9561 38.5304
L26.0770 38.4699
" />
<path d="M27.5889 38.8933
L27.5889 39.7399
" />
<path d="M27.2865 38.4095
L26.9842 39.3166
" />
<path d="M26.9842 39.3166
L27.7703 39.3166
" />
<path d="M28.4960 38.4699
L28.6170 38.4699
" />
<path d="M28.6170 38.4699
L28.7379 38.5304
" />
<path d="M28.7379 38.5304
L28.7984 38.5909
" />
<path d="M28.7984 38.5909
L28.8589 38.7118
" />
<path d="M28.8589 38.7118
L28.9194 38.9537
" />
<path d="M28.9194 38.9537
L28.9194 39.2561
" />
<path d="M28.9194 39.2561
L28.8589 39.4980
" />
<path d="M28.8589 39.4980
L28.7984 39.6190
" />
<path d="M28.7984 39.6190
L28.7379 39.6795
" />
<path d="M28.7379 39.6795
L28.6170 39.7399
" />
<path d="M28.6170 39.7399
L28.4960 39.7399
" />
<path d="M28.4960 39.7399
L28.3751 39.6795
" />
<path d="M28.3751 39.6795
L28.3146 39.6190
" />
<path d="M28.3146 39.6190
L28.2541 39.4980
" />
<path d="M28.2541 39.4980
L28.1937 39.2561
" />
<path d="M28.1937 39.2561
L28.1937 38.9537
" />
<path d="M28.1937 38.9537
L28.2541 38.7118
" />
<path d="M28.2541 38.7118
L28.3146 38.5909
" />
<path d="M28.3146 38.5909
L28.3751 38.5304
" />
<path d="M28.3751 38.5304
L28.4960 38.4699
" />
<path d="M29.1613 39.8609
L30.1289 39.8609
" />
<path d="M30.3103 38.4699
L31.1569 38.4699
" />
<path d="M31.1569 38.4699
L30.3103 39.7399
" />
<path d="M30.3103 39.7399
L31.1569 39.7399
" />
<path d="M32.1245 39.6795
L32.0036 39.7399
" />
<path d="M32.0036 39.7399
L31.7617 39.7399
" />
<path d="M31.7617 39.7399
L31.6407 39.6795
" />
<path d="M31.6407 39.6795
L31.5803 39.5585
" />
<path d="M31.5803 39.5585
L31.5803 39.0747
" />
<path d="M31.5803 39.0747
L31.6407 38.9537
" />
<path d="M31.6407 38.9537
L31.7617 38.8933
" />
<path d="M31.7617 38.8933
L32.0036 38.8933
" />
<path d="M32.0036 38.8933
L32.1245 38.9537
" />
<path d="M32.1245 38.9537
L32.1850 39.0747
" />
<path d="M32.1850 39.0747
L32.1850 39.1956
" />
<path d="M32.1850 39.1956
L31.5803 39.3166
" />
<path d="M32.7293 39.7399
L32.7293 38.8933
" />
<path d="M32.7293 39.1352
L32.7898 39.0142
" />
<path d="M32.7898 39.0142
L32.8503 38.9537
" />
<path d="M32.8503 38.9537
L32.9712 38.8933
" />
<path d="M32.9712 38.8933
L33.0922 38.8933
" />
<path d="M33.6970 39.7399
L33.5760 39.6795
" />
<path d="M33.5760 39.6795
L33.5155 39.6190
" />
<path d="M33.5155 39.6190
L33.4551 39.4980
" />
<path d="M33.4551 39.4980
L33.4551 39.1352
" />
<path d="M33.4551 39.1352
L33.5155 39.0142
" />
<path d="M33.5155 39.0142
L33.5760 38.9537
" />
<path d="M33.5760 38.9537
L33.6970 38.8933
" />
<path d="M33.6970 38.8933
L33.8784 38.8933
" />
<path d="M33.8784 38.8933
L33.9993 38.9537
" />
<path d="M33.9993 38.9537
L34.0598 39.0142
" />
<path d="M34.0598 39.0142
L34.1203 39.1352
" />
<path d="M34.1203 39.1352
L34.1203 39.4980
" />
<path d="M34.1203 39.4980
L34.0598 39.6190
" />
<path d="M34.0598 39.6190
L33.9993 39.6795
" />
<path d="M33.9993 39.6795
L33.8784 39.7399
" />
<path d="M33.8784 39.7399
L33.6970 39.7399
" />
</g></g> 
</svg>
