<?xml version="1.0" standalone="no"?>
 <!DOCTYPE svg PUBLIC "-//W3C//DTD SVG 1.1//EN" 
 "http://www.w3.org/Graphics/SVG/1.1/DTD/svg11.dtd"> 
<svg
  xmlns:svg="http://www.w3.org/2000/svg"
  xmlns="http://www.w3.org/2000/svg"
  xmlns:xlink="http://www.w3.org/1999/xlink"
  xmlns:inkscape="http://www.inkscape.org/namespaces/inkscape"
  version="1.1"
  width="25.2984mm" height="18.1356mm" viewBox="0.0000 0.0000 25.2984 18.1356">
<title>SVG Image created as UCC5304_unit1.svg date 2026-04-18T16:47:41 </title>
  <desc>Image generated by Eeschema-SVG </desc>
<g style="fill:#000000; fill-opacity:1.0000;stroke:#000000; stroke-opacity:1.0000;
stroke-linecap:round; stroke-linejoin:round;"
 transform="translate(0 0) scale(1 1)">
</g>
<g style="fill:#FFFFC2; fill-opacity:1.0000; stroke:none;">
<rect x="5.029200" y="3.800100" width="15.240000" height="12.700000" rx="0.000000" />
</g>
<g style="fill:none; 
stroke:#840000; stroke-width:0.2540; stroke-opacity:1; 
stroke-linecap:round; stroke-linejoin:round;">
<rect x="5.029200" y="3.800100" width="15.240000" height="12.700000" rx="0.000000" />
<path style="fill:none; 
stroke:#840000; stroke-width:0.1524; stroke-opacity:1; 
stroke-linecap:round; stroke-linejoin:round;stroke-dasharray:1.6764,0.6096;fill:none"
d="M 12.6492,3.8001
12.6492,16.5001
" /> 
</g>
<g style="fill:none; 
stroke:#840000; stroke-width:0.1524; stroke-opacity:1; 
stroke-linecap:round; stroke-linejoin:round;">
<text x="12.6492" y="5.4701"
textLength="2.2782" font-size="1.0666" lengthAdjust="spacingAndGlyphs"
text-anchor="middle" opacity="0" stroke-opacity="0">ISO</text>
<g class="stroked-text"><desc>ISO</desc>
<path d="M11.8491 5.4321
L11.8491 4.6321
" />
<path d="M12.1920 5.3941
L12.3063 5.4321
" />
<path d="M12.3063 5.4321
L12.4968 5.4321
" />
<path d="M12.4968 5.4321
L12.5730 5.3941
" />
<path d="M12.5730 5.3941
L12.6111 5.3560
" />
<path d="M12.6111 5.3560
L12.6492 5.2798
" />
<path d="M12.6492 5.2798
L12.6492 5.2036
" />
<path d="M12.6492 5.2036
L12.6111 5.1274
" />
<path d="M12.6111 5.1274
L12.5730 5.0893
" />
<path d="M12.5730 5.0893
L12.4968 5.0512
" />
<path d="M12.4968 5.0512
L12.3444 5.0131
" />
<path d="M12.3444 5.0131
L12.2682 4.9750
" />
<path d="M12.2682 4.9750
L12.2301 4.9369
" />
<path d="M12.2301 4.9369
L12.1920 4.8607
" />
<path d="M12.1920 4.8607
L12.1920 4.7845
" />
<path d="M12.1920 4.7845
L12.2301 4.7083
" />
<path d="M12.2301 4.7083
L12.2682 4.6702
" />
<path d="M12.2682 4.6702
L12.3444 4.6321
" />
<path d="M12.3444 4.6321
L12.5349 4.6321
" />
<path d="M12.5349 4.6321
L12.6492 4.6702
" />
<path d="M13.1444 4.6321
L13.2968 4.6321
" />
<path d="M13.2968 4.6321
L13.3730 4.6702
" />
<path d="M13.3730 4.6702
L13.4492 4.7464
" />
<path d="M13.4492 4.7464
L13.4873 4.8988
" />
<path d="M13.4873 4.8988
L13.4873 5.1655
" />
<path d="M13.4873 5.1655
L13.4492 5.3179
" />
<path d="M13.4492 5.3179
L13.3730 5.3941
" />
<path d="M13.3730 5.3941
L13.2968 5.4321
" />
<path d="M13.2968 5.4321
L13.1444 5.4321
" />
<path d="M13.1444 5.4321
L13.0682 5.3941
" />
<path d="M13.0682 5.3941
L12.9920 5.3179
" />
<path d="M12.9920 5.3179
L12.9539 5.1655
" />
<path d="M12.9539 5.1655
L12.9539 4.8988
" />
<path d="M12.9539 4.8988
L12.9920 4.7464
" />
<path d="M12.9920 4.7464
L13.0682 4.6702
" />
<path d="M13.0682 4.6702
L13.1444 4.6321
" />
</g><path d="M5.0292 6.3401
L2.4892 6.3401
" />
</g>
<g style="fill:none; 
stroke:#006464; stroke-width:0.1524; stroke-opacity:1; 
stroke-linecap:round; stroke-linejoin:round;">
<text x="5.5372" y="6.8401"
textLength="1.7810" font-size="1.3333" lengthAdjust="spacingAndGlyphs"
text-anchor="start" opacity="0" stroke-opacity="0">IN</text>
<g class="stroked-text"><desc>IN</desc>
<path d="M5.8754 6.7947
L5.8754 5.7947
" />
<path d="M6.3516 6.7947
L6.3516 5.7947
" />
<path d="M6.3516 5.7947
L6.9231 6.7947
" />
<path d="M6.9231 6.7947
L6.9231 5.7947
" />
</g></g>
<g style="fill:none; 
stroke:#A90000; stroke-width:0.1524; stroke-opacity:1; 
stroke-linecap:round; stroke-linejoin:round;">
<text x="3.7592" y="6.0861"
textLength="1.2096" font-size="1.3333" lengthAdjust="spacingAndGlyphs"
text-anchor="middle" opacity="0" stroke-opacity="0">1</text>
<g class="stroked-text"><desc>1</desc>
<path d="M4.0449 5.9557
L3.4734 5.9557
" />
<path d="M3.7591 5.9557
L3.7591 4.9557
" />
<path d="M3.7591 4.9557
L3.6639 5.0985
" />
<path d="M3.6639 5.0985
L3.5687 5.1938
" />
<path d="M3.5687 5.1938
L3.4734 5.2414
" />
</g></g>
<g style="fill:none; 
stroke:#840000; stroke-width:0.1524; stroke-opacity:1; 
stroke-linecap:round; stroke-linejoin:round;">
<path d="M5.0292 8.8801
L2.4892 8.8801
" />
</g>
<g style="fill:none; 
stroke:#006464; stroke-width:0.1524; stroke-opacity:1; 
stroke-linecap:round; stroke-linejoin:round;">
<text x="5.5372" y="9.3801"
textLength="3.5905" font-size="1.3333" lengthAdjust="spacingAndGlyphs"
text-anchor="start" opacity="0" stroke-opacity="0">VCCI</text>
<g class="stroked-text"><desc>VCCI</desc>
<path d="M5.7326 8.3347
L6.0659 9.3347
" />
<path d="M6.0659 9.3347
L6.3993 8.3347
" />
<path d="M7.3040 9.2394
L7.2564 9.2871
" />
<path d="M7.2564 9.2871
L7.1135 9.3347
" />
<path d="M7.1135 9.3347
L7.0183 9.3347
" />
<path d="M7.0183 9.3347
L6.8754 9.2871
" />
<path d="M6.8754 9.2871
L6.7802 9.1918
" />
<path d="M6.7802 9.1918
L6.7325 9.0966
" />
<path d="M6.7325 9.0966
L6.6849 8.9061
" />
<path d="M6.6849 8.9061
L6.6849 8.7632
" />
<path d="M6.6849 8.7632
L6.7325 8.5728
" />
<path d="M6.7325 8.5728
L6.7802 8.4775
" />
<path d="M6.7802 8.4775
L6.8754 8.3823
" />
<path d="M6.8754 8.3823
L7.0183 8.3347
" />
<path d="M7.0183 8.3347
L7.1135 8.3347
" />
<path d="M7.1135 8.3347
L7.2564 8.3823
" />
<path d="M7.2564 8.3823
L7.3040 8.4299
" />
<path d="M8.3040 9.2394
L8.2564 9.2871
" />
<path d="M8.2564 9.2871
L8.1135 9.3347
" />
<path d="M8.1135 9.3347
L8.0183 9.3347
" />
<path d="M8.0183 9.3347
L7.8754 9.2871
" />
<path d="M7.8754 9.2871
L7.7802 9.1918
" />
<path d="M7.7802 9.1918
L7.7325 9.0966
" />
<path d="M7.7325 9.0966
L7.6849 8.9061
" />
<path d="M7.6849 8.9061
L7.6849 8.7632
" />
<path d="M7.6849 8.7632
L7.7325 8.5728
" />
<path d="M7.7325 8.5728
L7.7802 8.4775
" />
<path d="M7.7802 8.4775
L7.8754 8.3823
" />
<path d="M7.8754 8.3823
L8.0183 8.3347
" />
<path d="M8.0183 8.3347
L8.1135 8.3347
" />
<path d="M8.1135 8.3347
L8.2564 8.3823
" />
<path d="M8.2564 8.3823
L8.3040 8.4299
" />
<path d="M8.7325 9.3347
L8.7325 8.3347
" />
</g></g>
<g style="fill:none; 
stroke:#A90000; stroke-width:0.1524; stroke-opacity:1; 
stroke-linecap:round; stroke-linejoin:round;">
<text x="3.7592" y="8.6261"
textLength="1.2096" font-size="1.3333" lengthAdjust="spacingAndGlyphs"
text-anchor="middle" opacity="0" stroke-opacity="0">2</text>
<g class="stroked-text"><desc>2</desc>
<path d="M3.4734 7.5909
L3.5210 7.5433
" />
<path d="M3.5210 7.5433
L3.6163 7.4957
" />
<path d="M3.6163 7.4957
L3.8544 7.4957
" />
<path d="M3.8544 7.4957
L3.9496 7.5433
" />
<path d="M3.9496 7.5433
L3.9972 7.5909
" />
<path d="M3.9972 7.5909
L4.0449 7.6861
" />
<path d="M4.0449 7.6861
L4.0449 7.7814
" />
<path d="M4.0449 7.7814
L3.9972 7.9242
" />
<path d="M3.9972 7.9242
L3.4258 8.4957
" />
<path d="M3.4258 8.4957
L4.0449 8.4957
" />
</g></g>
<g style="fill:none; 
stroke:#840000; stroke-width:0.1524; stroke-opacity:1; 
stroke-linecap:round; stroke-linejoin:round;">
<path d="M5.0292 11.4201
L2.4892 11.4201
" />
</g>
<g style="fill:none; 
stroke:#006464; stroke-width:0.1524; stroke-opacity:1; 
stroke-linecap:round; stroke-linejoin:round;">
<text x="5.5372" y="11.9201"
textLength="3.5905" font-size="1.3333" lengthAdjust="spacingAndGlyphs"
text-anchor="start" opacity="0" stroke-opacity="0">VCCI</text>
<g class="stroked-text"><desc>VCCI</desc>
<path d="M5.7326 10.8747
L6.0659 11.8747
" />
<path d="M6.0659 11.8747
L6.3993 10.8747
" />
<path d="M7.3040 11.7794
L7.2564 11.8271
" />
<path d="M7.2564 11.8271
L7.1135 11.8747
" />
<path d="M7.1135 11.8747
L7.0183 11.8747
" />
<path d="M7.0183 11.8747
L6.8754 11.8271
" />
<path d="M6.8754 11.8271
L6.7802 11.7318
" />
<path d="M6.7802 11.7318
L6.7325 11.6366
" />
<path d="M6.7325 11.6366
L6.6849 11.4461
" />
<path d="M6.6849 11.4461
L6.6849 11.3032
" />
<path d="M6.6849 11.3032
L6.7325 11.1128
" />
<path d="M6.7325 11.1128
L6.7802 11.0175
" />
<path d="M6.7802 11.0175
L6.8754 10.9223
" />
<path d="M6.8754 10.9223
L7.0183 10.8747
" />
<path d="M7.0183 10.8747
L7.1135 10.8747
" />
<path d="M7.1135 10.8747
L7.2564 10.9223
" />
<path d="M7.2564 10.9223
L7.3040 10.9699
" />
<path d="M8.3040 11.7794
L8.2564 11.8271
" />
<path d="M8.2564 11.8271
L8.1135 11.8747
" />
<path d="M8.1135 11.8747
L8.0183 11.8747
" />
<path d="M8.0183 11.8747
L7.8754 11.8271
" />
<path d="M7.8754 11.8271
L7.7802 11.7318
" />
<path d="M7.7802 11.7318
L7.7325 11.6366
" />
<path d="M7.7325 11.6366
L7.6849 11.4461
" />
<path d="M7.6849 11.4461
L7.6849 11.3032
" />
<path d="M7.6849 11.3032
L7.7325 11.1128
" />
<path d="M7.7325 11.1128
L7.7802 11.0175
" />
<path d="M7.7802 11.0175
L7.8754 10.9223
" />
<path d="M7.8754 10.9223
L8.0183 10.8747
" />
<path d="M8.0183 10.8747
L8.1135 10.8747
" />
<path d="M8.1135 10.8747
L8.2564 10.9223
" />
<path d="M8.2564 10.9223
L8.3040 10.9699
" />
<path d="M8.7325 11.8747
L8.7325 10.8747
" />
</g></g>
<g style="fill:none; 
stroke:#A90000; stroke-width:0.1524; stroke-opacity:1; 
stroke-linecap:round; stroke-linejoin:round;">
<text x="3.7592" y="11.1661"
textLength="1.2096" font-size="1.3333" lengthAdjust="spacingAndGlyphs"
text-anchor="middle" opacity="0" stroke-opacity="0">3</text>
<g class="stroked-text"><desc>3</desc>
<path d="M3.4258 10.0357
L4.0449 10.0357
" />
<path d="M4.0449 10.0357
L3.7115 10.4166
" />
<path d="M3.7115 10.4166
L3.8544 10.4166
" />
<path d="M3.8544 10.4166
L3.9496 10.4642
" />
<path d="M3.9496 10.4642
L3.9972 10.5119
" />
<path d="M3.9972 10.5119
L4.0449 10.6071
" />
<path d="M4.0449 10.6071
L4.0449 10.8452
" />
<path d="M4.0449 10.8452
L3.9972 10.9404
" />
<path d="M3.9972 10.9404
L3.9496 10.9881
" />
<path d="M3.9496 10.9881
L3.8544 11.0357
" />
<path d="M3.8544 11.0357
L3.5687 11.0357
" />
<path d="M3.5687 11.0357
L3.4734 10.9881
" />
<path d="M3.4734 10.9881
L3.4258 10.9404
" />
</g></g>
<g style="fill:none; 
stroke:#840000; stroke-width:0.1524; stroke-opacity:1; 
stroke-linecap:round; stroke-linejoin:round;">
<path d="M5.0292 13.9601
L2.4892 13.9601
" />
</g>
<g style="fill:none; 
stroke:#006464; stroke-width:0.1524; stroke-opacity:1; 
stroke-linecap:round; stroke-linejoin:round;">
<text x="5.5372" y="14.4601"
textLength="3.3048" font-size="1.3333" lengthAdjust="spacingAndGlyphs"
text-anchor="start" opacity="0" stroke-opacity="0">GND</text>
<g class="stroked-text"><desc>GND</desc>
<path d="M6.3993 13.4623
L6.3040 13.4147
" />
<path d="M6.3040 13.4147
L6.1612 13.4147
" />
<path d="M6.1612 13.4147
L6.0183 13.4623
" />
<path d="M6.0183 13.4623
L5.9231 13.5575
" />
<path d="M5.9231 13.5575
L5.8754 13.6528
" />
<path d="M5.8754 13.6528
L5.8278 13.8432
" />
<path d="M5.8278 13.8432
L5.8278 13.9861
" />
<path d="M5.8278 13.9861
L5.8754 14.1766
" />
<path d="M5.8754 14.1766
L5.9231 14.2718
" />
<path d="M5.9231 14.2718
L6.0183 14.3671
" />
<path d="M6.0183 14.3671
L6.1612 14.4147
" />
<path d="M6.1612 14.4147
L6.2564 14.4147
" />
<path d="M6.2564 14.4147
L6.3993 14.3671
" />
<path d="M6.3993 14.3671
L6.4469 14.3194
" />
<path d="M6.4469 14.3194
L6.4469 13.9861
" />
<path d="M6.4469 13.9861
L6.2564 13.9861
" />
<path d="M6.8754 14.4147
L6.8754 13.4147
" />
<path d="M6.8754 13.4147
L7.4469 14.4147
" />
<path d="M7.4469 14.4147
L7.4469 13.4147
" />
<path d="M7.9230 14.4147
L7.9230 13.4147
" />
<path d="M7.9230 13.4147
L8.1611 13.4147
" />
<path d="M8.1611 13.4147
L8.3040 13.4623
" />
<path d="M8.3040 13.4623
L8.3992 13.5575
" />
<path d="M8.3992 13.5575
L8.4469 13.6528
" />
<path d="M8.4469 13.6528
L8.4945 13.8432
" />
<path d="M8.4945 13.8432
L8.4945 13.9861
" />
<path d="M8.4945 13.9861
L8.4469 14.1766
" />
<path d="M8.4469 14.1766
L8.3992 14.2718
" />
<path d="M8.3992 14.2718
L8.3040 14.3671
" />
<path d="M8.3040 14.3671
L8.1611 14.4147
" />
<path d="M8.1611 14.4147
L7.9230 14.4147
" />
</g></g>
<g style="fill:none; 
stroke:#A90000; stroke-width:0.1524; stroke-opacity:1; 
stroke-linecap:round; stroke-linejoin:round;">
<text x="3.7592" y="13.7061"
textLength="1.2096" font-size="1.3333" lengthAdjust="spacingAndGlyphs"
text-anchor="middle" opacity="0" stroke-opacity="0">4</text>
<g class="stroked-text"><desc>4</desc>
<path d="M3.9496 12.9090
L3.9496 13.5757
" />
<path d="M3.7115 12.5281
L3.4734 13.2423
" />
<path d="M3.4734 13.2423
L4.0925 13.2423
" />
</g></g>
<g style="fill:none; 
stroke:#840000; stroke-width:0.1524; stroke-opacity:1; 
stroke-linecap:round; stroke-linejoin:round;">
<path d="M20.2692 13.9601
L22.8092 13.9601
" />
</g>
<g style="fill:none; 
stroke:#006464; stroke-width:0.1524; stroke-opacity:1; 
stroke-linecap:round; stroke-linejoin:round;">
<text x="19.7612" y="14.4601"
textLength="3.0191" font-size="1.3333" lengthAdjust="spacingAndGlyphs"
text-anchor="end" opacity="0" stroke-opacity="0">VSS</text>
<g class="stroked-text"><desc>VSS</desc>
<path d="M16.9943 13.4147
L17.3276 14.4147
" />
<path d="M17.3276 14.4147
L17.6610 13.4147
" />
<path d="M17.9466 14.3671
L18.0895 14.4147
" />
<path d="M18.0895 14.4147
L18.3276 14.4147
" />
<path d="M18.3276 14.4147
L18.4228 14.3671
" />
<path d="M18.4228 14.3671
L18.4704 14.3194
" />
<path d="M18.4704 14.3194
L18.5181 14.2242
" />
<path d="M18.5181 14.2242
L18.5181 14.1290
" />
<path d="M18.5181 14.1290
L18.4704 14.0337
" />
<path d="M18.4704 14.0337
L18.4228 13.9861
" />
<path d="M18.4228 13.9861
L18.3276 13.9385
" />
<path d="M18.3276 13.9385
L18.1371 13.8909
" />
<path d="M18.1371 13.8909
L18.0419 13.8432
" />
<path d="M18.0419 13.8432
L17.9942 13.7956
" />
<path d="M17.9942 13.7956
L17.9466 13.7004
" />
<path d="M17.9466 13.7004
L17.9466 13.6051
" />
<path d="M17.9466 13.6051
L17.9942 13.5099
" />
<path d="M17.9942 13.5099
L18.0419 13.4623
" />
<path d="M18.0419 13.4623
L18.1371 13.4147
" />
<path d="M18.1371 13.4147
L18.3752 13.4147
" />
<path d="M18.3752 13.4147
L18.5181 13.4623
" />
<path d="M18.8990 14.3671
L19.0419 14.4147
" />
<path d="M19.0419 14.4147
L19.2800 14.4147
" />
<path d="M19.2800 14.4147
L19.3752 14.3671
" />
<path d="M19.3752 14.3671
L19.4228 14.3194
" />
<path d="M19.4228 14.3194
L19.4705 14.2242
" />
<path d="M19.4705 14.2242
L19.4705 14.1290
" />
<path d="M19.4705 14.1290
L19.4228 14.0337
" />
<path d="M19.4228 14.0337
L19.3752 13.9861
" />
<path d="M19.3752 13.9861
L19.2800 13.9385
" />
<path d="M19.2800 13.9385
L19.0895 13.8909
" />
<path d="M19.0895 13.8909
L18.9943 13.8432
" />
<path d="M18.9943 13.8432
L18.9466 13.7956
" />
<path d="M18.9466 13.7956
L18.8990 13.7004
" />
<path d="M18.8990 13.7004
L18.8990 13.6051
" />
<path d="M18.8990 13.6051
L18.9466 13.5099
" />
<path d="M18.9466 13.5099
L18.9943 13.4623
" />
<path d="M18.9943 13.4623
L19.0895 13.4147
" />
<path d="M19.0895 13.4147
L19.3276 13.4147
" />
<path d="M19.3276 13.4147
L19.4705 13.4623
" />
</g></g>
<g style="fill:none; 
stroke:#A90000; stroke-width:0.1524; stroke-opacity:1; 
stroke-linecap:round; stroke-linejoin:round;">
<text x="21.5392" y="13.7061"
textLength="1.2096" font-size="1.3333" lengthAdjust="spacingAndGlyphs"
text-anchor="middle" opacity="0" stroke-opacity="0">5</text>
<g class="stroked-text"><desc>5</desc>
<path d="M21.7772 12.5757
L21.3010 12.5757
" />
<path d="M21.3010 12.5757
L21.2534 13.0519
" />
<path d="M21.2534 13.0519
L21.3010 13.0042
" />
<path d="M21.3010 13.0042
L21.3963 12.9566
" />
<path d="M21.3963 12.9566
L21.6344 12.9566
" />
<path d="M21.6344 12.9566
L21.7296 13.0042
" />
<path d="M21.7296 13.0042
L21.7772 13.0519
" />
<path d="M21.7772 13.0519
L21.8249 13.1471
" />
<path d="M21.8249 13.1471
L21.8249 13.3852
" />
<path d="M21.8249 13.3852
L21.7772 13.4804
" />
<path d="M21.7772 13.4804
L21.7296 13.5281
" />
<path d="M21.7296 13.5281
L21.6344 13.5757
" />
<path d="M21.6344 13.5757
L21.3963 13.5757
" />
<path d="M21.3963 13.5757
L21.3010 13.5281
" />
<path d="M21.3010 13.5281
L21.2534 13.4804
" />
</g></g>
<g style="fill:none; 
stroke:#840000; stroke-width:0.1524; stroke-opacity:1; 
stroke-linecap:round; stroke-linejoin:round;">
<path d="M20.2692 11.4201
L22.8092 11.4201
" />
</g>
<g style="fill:none; 
stroke:#006464; stroke-width:0.1524; stroke-opacity:1; 
stroke-linecap:round; stroke-linejoin:round;">
<text x="19.7612" y="11.9201"
textLength="3.0191" font-size="1.3333" lengthAdjust="spacingAndGlyphs"
text-anchor="end" opacity="0" stroke-opacity="0">VSS</text>
<g class="stroked-text"><desc>VSS</desc>
<path d="M16.9943 10.8747
L17.3276 11.8747
" />
<path d="M17.3276 11.8747
L17.6610 10.8747
" />
<path d="M17.9466 11.8271
L18.0895 11.8747
" />
<path d="M18.0895 11.8747
L18.3276 11.8747
" />
<path d="M18.3276 11.8747
L18.4228 11.8271
" />
<path d="M18.4228 11.8271
L18.4704 11.7794
" />
<path d="M18.4704 11.7794
L18.5181 11.6842
" />
<path d="M18.5181 11.6842
L18.5181 11.5890
" />
<path d="M18.5181 11.5890
L18.4704 11.4937
" />
<path d="M18.4704 11.4937
L18.4228 11.4461
" />
<path d="M18.4228 11.4461
L18.3276 11.3985
" />
<path d="M18.3276 11.3985
L18.1371 11.3509
" />
<path d="M18.1371 11.3509
L18.0419 11.3032
" />
<path d="M18.0419 11.3032
L17.9942 11.2556
" />
<path d="M17.9942 11.2556
L17.9466 11.1604
" />
<path d="M17.9466 11.1604
L17.9466 11.0651
" />
<path d="M17.9466 11.0651
L17.9942 10.9699
" />
<path d="M17.9942 10.9699
L18.0419 10.9223
" />
<path d="M18.0419 10.9223
L18.1371 10.8747
" />
<path d="M18.1371 10.8747
L18.3752 10.8747
" />
<path d="M18.3752 10.8747
L18.5181 10.9223
" />
<path d="M18.8990 11.8271
L19.0419 11.8747
" />
<path d="M19.0419 11.8747
L19.2800 11.8747
" />
<path d="M19.2800 11.8747
L19.3752 11.8271
" />
<path d="M19.3752 11.8271
L19.4228 11.7794
" />
<path d="M19.4228 11.7794
L19.4705 11.6842
" />
<path d="M19.4705 11.6842
L19.4705 11.5890
" />
<path d="M19.4705 11.5890
L19.4228 11.4937
" />
<path d="M19.4228 11.4937
L19.3752 11.4461
" />
<path d="M19.3752 11.4461
L19.2800 11.3985
" />
<path d="M19.2800 11.3985
L19.0895 11.3509
" />
<path d="M19.0895 11.3509
L18.9943 11.3032
" />
<path d="M18.9943 11.3032
L18.9466 11.2556
" />
<path d="M18.9466 11.2556
L18.8990 11.1604
" />
<path d="M18.8990 11.1604
L18.8990 11.0651
" />
<path d="M18.8990 11.0651
L18.9466 10.9699
" />
<path d="M18.9466 10.9699
L18.9943 10.9223
" />
<path d="M18.9943 10.9223
L19.0895 10.8747
" />
<path d="M19.0895 10.8747
L19.3276 10.8747
" />
<path d="M19.3276 10.8747
L19.4705 10.9223
" />
</g></g>
<g style="fill:none; 
stroke:#A90000; stroke-width:0.1524; stroke-opacity:1; 
stroke-linecap:round; stroke-linejoin:round;">
<text x="21.5392" y="11.1661"
textLength="1.2096" font-size="1.3333" lengthAdjust="spacingAndGlyphs"
text-anchor="middle" opacity="0" stroke-opacity="0">6</text>
<g class="stroked-text"><desc>6</desc>
<path d="M21.7296 10.0357
L21.5391 10.0357
" />
<path d="M21.5391 10.0357
L21.4439 10.0833
" />
<path d="M21.4439 10.0833
L21.3963 10.1309
" />
<path d="M21.3963 10.1309
L21.3010 10.2738
" />
<path d="M21.3010 10.2738
L21.2534 10.4642
" />
<path d="M21.2534 10.4642
L21.2534 10.8452
" />
<path d="M21.2534 10.8452
L21.3010 10.9404
" />
<path d="M21.3010 10.9404
L21.3487 10.9881
" />
<path d="M21.3487 10.9881
L21.4439 11.0357
" />
<path d="M21.4439 11.0357
L21.6344 11.0357
" />
<path d="M21.6344 11.0357
L21.7296 10.9881
" />
<path d="M21.7296 10.9881
L21.7772 10.9404
" />
<path d="M21.7772 10.9404
L21.8249 10.8452
" />
<path d="M21.8249 10.8452
L21.8249 10.6071
" />
<path d="M21.8249 10.6071
L21.7772 10.5119
" />
<path d="M21.7772 10.5119
L21.7296 10.4642
" />
<path d="M21.7296 10.4642
L21.6344 10.4166
" />
<path d="M21.6344 10.4166
L21.4439 10.4166
" />
<path d="M21.4439 10.4166
L21.3487 10.4642
" />
<path d="M21.3487 10.4642
L21.3010 10.5119
" />
<path d="M21.3010 10.5119
L21.2534 10.6071
" />
</g></g>
<g style="fill:none; 
stroke:#840000; stroke-width:0.1524; stroke-opacity:1; 
stroke-linecap:round; stroke-linejoin:round;">
<path d="M20.2692 8.8801
L22.8092 8.8801
" />
</g>
<g style="fill:none; 
stroke:#006464; stroke-width:0.1524; stroke-opacity:1; 
stroke-linecap:round; stroke-linejoin:round;">
<text x="19.7612" y="9.3801"
textLength="3.1143" font-size="1.3333" lengthAdjust="spacingAndGlyphs"
text-anchor="end" opacity="0" stroke-opacity="0">OUT</text>
<g class="stroked-text"><desc>OUT</desc>
<path d="M17.2324 8.3347
L17.4229 8.3347
" />
<path d="M17.4229 8.3347
L17.5181 8.3823
" />
<path d="M17.5181 8.3823
L17.6134 8.4775
" />
<path d="M17.6134 8.4775
L17.6610 8.6680
" />
<path d="M17.6610 8.6680
L17.6610 9.0013
" />
<path d="M17.6610 9.0013
L17.6134 9.1918
" />
<path d="M17.6134 9.1918
L17.5181 9.2871
" />
<path d="M17.5181 9.2871
L17.4229 9.3347
" />
<path d="M17.4229 9.3347
L17.2324 9.3347
" />
<path d="M17.2324 9.3347
L17.1372 9.2871
" />
<path d="M17.1372 9.2871
L17.0419 9.1918
" />
<path d="M17.0419 9.1918
L16.9943 9.0013
" />
<path d="M16.9943 9.0013
L16.9943 8.6680
" />
<path d="M16.9943 8.6680
L17.0419 8.4775
" />
<path d="M17.0419 8.4775
L17.1372 8.3823
" />
<path d="M17.1372 8.3823
L17.2324 8.3347
" />
<path d="M18.0895 8.3347
L18.0895 9.1442
" />
<path d="M18.0895 9.1442
L18.1372 9.2394
" />
<path d="M18.1372 9.2394
L18.1848 9.2871
" />
<path d="M18.1848 9.2871
L18.2800 9.3347
" />
<path d="M18.2800 9.3347
L18.4705 9.3347
" />
<path d="M18.4705 9.3347
L18.5657 9.2871
" />
<path d="M18.5657 9.2871
L18.6134 9.2394
" />
<path d="M18.6134 9.2394
L18.6610 9.1442
" />
<path d="M18.6610 9.1442
L18.6610 8.3347
" />
<path d="M18.9943 8.3347
L19.5657 8.3347
" />
<path d="M19.2800 9.3347
L19.2800 8.3347
" />
</g></g>
<g style="fill:none; 
stroke:#A90000; stroke-width:0.1524; stroke-opacity:1; 
stroke-linecap:round; stroke-linejoin:round;">
<text x="21.5392" y="8.6261"
textLength="1.2096" font-size="1.3333" lengthAdjust="spacingAndGlyphs"
text-anchor="middle" opacity="0" stroke-opacity="0">7</text>
<g class="stroked-text"><desc>7</desc>
<path d="M21.2058 7.4957
L21.8725 7.4957
" />
<path d="M21.8725 7.4957
L21.4439 8.4957
" />
</g></g>
<g style="fill:none; 
stroke:#840000; stroke-width:0.1524; stroke-opacity:1; 
stroke-linecap:round; stroke-linejoin:round;">
<path d="M20.2692 6.3401
L22.8092 6.3401
" />
</g>
<g style="fill:none; 
stroke:#006464; stroke-width:0.1524; stroke-opacity:1; 
stroke-linecap:round; stroke-linejoin:round;">
<text x="19.7612" y="6.8401"
textLength="3.1143" font-size="1.3333" lengthAdjust="spacingAndGlyphs"
text-anchor="end" opacity="0" stroke-opacity="0">VDD</text>
<g class="stroked-text"><desc>VDD</desc>
<path d="M16.8991 5.7947
L17.2324 6.7947
" />
<path d="M17.2324 6.7947
L17.5658 5.7947
" />
<path d="M17.8990 6.7947
L17.8990 5.7947
" />
<path d="M17.8990 5.7947
L18.1371 5.7947
" />
<path d="M18.1371 5.7947
L18.2800 5.8423
" />
<path d="M18.2800 5.8423
L18.3752 5.9375
" />
<path d="M18.3752 5.9375
L18.4229 6.0328
" />
<path d="M18.4229 6.0328
L18.4705 6.2232
" />
<path d="M18.4705 6.2232
L18.4705 6.3661
" />
<path d="M18.4705 6.3661
L18.4229 6.5566
" />
<path d="M18.4229 6.5566
L18.3752 6.6518
" />
<path d="M18.3752 6.6518
L18.2800 6.7471
" />
<path d="M18.2800 6.7471
L18.1371 6.7947
" />
<path d="M18.1371 6.7947
L17.8990 6.7947
" />
<path d="M18.8990 6.7947
L18.8990 5.7947
" />
<path d="M18.8990 5.7947
L19.1371 5.7947
" />
<path d="M19.1371 5.7947
L19.2800 5.8423
" />
<path d="M19.2800 5.8423
L19.3752 5.9375
" />
<path d="M19.3752 5.9375
L19.4229 6.0328
" />
<path d="M19.4229 6.0328
L19.4705 6.2232
" />
<path d="M19.4705 6.2232
L19.4705 6.3661
" />
<path d="M19.4705 6.3661
L19.4229 6.5566
" />
<path d="M19.4229 6.5566
L19.3752 6.6518
" />
<path d="M19.3752 6.6518
L19.2800 6.7471
" />
<path d="M19.2800 6.7471
L19.1371 6.7947
" />
<path d="M19.1371 6.7947
L18.8990 6.7947
" />
</g></g>
<g style="fill:none; 
stroke:#A90000; stroke-width:0.1524; stroke-opacity:1; 
stroke-linecap:round; stroke-linejoin:round;">
<text x="21.5392" y="6.0861"
textLength="1.2096" font-size="1.3333" lengthAdjust="spacingAndGlyphs"
text-anchor="middle" opacity="0" stroke-opacity="0">8</text>
<g class="stroked-text"><desc>8</desc>
<path d="M21.4439 5.3842
L21.3487 5.3366
" />
<path d="M21.3487 5.3366
L21.3010 5.2890
" />
<path d="M21.3010 5.2890
L21.2534 5.1938
" />
<path d="M21.2534 5.1938
L21.2534 5.1461
" />
<path d="M21.2534 5.1461
L21.3010 5.0509
" />
<path d="M21.3010 5.0509
L21.3487 5.0033
" />
<path d="M21.3487 5.0033
L21.4439 4.9557
" />
<path d="M21.4439 4.9557
L21.6344 4.9557
" />
<path d="M21.6344 4.9557
L21.7296 5.0033
" />
<path d="M21.7296 5.0033
L21.7772 5.0509
" />
<path d="M21.7772 5.0509
L21.8249 5.1461
" />
<path d="M21.8249 5.1461
L21.8249 5.1938
" />
<path d="M21.8249 5.1938
L21.7772 5.2890
" />
<path d="M21.7772 5.2890
L21.7296 5.3366
" />
<path d="M21.7296 5.3366
L21.6344 5.3842
" />
<path d="M21.6344 5.3842
L21.4439 5.3842
" />
<path d="M21.4439 5.3842
L21.3487 5.4319
" />
<path d="M21.3487 5.4319
L21.3010 5.4795
" />
<path d="M21.3010 5.4795
L21.2534 5.5747
" />
<path d="M21.2534 5.5747
L21.2534 5.7652
" />
<path d="M21.2534 5.7652
L21.3010 5.8604
" />
<path d="M21.3010 5.8604
L21.3487 5.9081
" />
<path d="M21.3487 5.9081
L21.4439 5.9557
" />
<path d="M21.4439 5.9557
L21.6344 5.9557
" />
<path d="M21.6344 5.9557
L21.7296 5.9081
" />
<path d="M21.7296 5.9081
L21.7772 5.8604
" />
<path d="M21.7772 5.8604
L21.8249 5.7652
" />
<path d="M21.8249 5.7652
L21.8249 5.5747
" />
<path d="M21.8249 5.5747
L21.7772 5.4795
" />
<path d="M21.7772 5.4795
L21.7296 5.4319
" />
<path d="M21.7296 5.4319
L21.6344 5.3842
" />
</g></g>
<g style="fill:none; 
stroke:#006464; stroke-width:0.1524; stroke-opacity:1; 
stroke-linecap:round; stroke-linejoin:round;">
<text x="5.0292" y="3.1651"
textLength="2.6223" font-size="1.6933" lengthAdjust="spacingAndGlyphs"
text-anchor="start" opacity="0" stroke-opacity="0">U?</text>
<g class="stroked-text"><desc>U?</desc>
<path d="M5.4317 1.8396
L5.4317 2.8677
" />
<path d="M5.4317 2.8677
L5.4922 2.9887
" />
<path d="M5.4922 2.9887
L5.5527 3.0492
" />
<path d="M5.5527 3.0492
L5.6736 3.1096
" />
<path d="M5.6736 3.1096
L5.9155 3.1096
" />
<path d="M5.9155 3.1096
L6.0365 3.0492
" />
<path d="M6.0365 3.0492
L6.0970 2.9887
" />
<path d="M6.0970 2.9887
L6.1574 2.8677
" />
<path d="M6.1574 2.8677
L6.1574 1.8396
" />
<path d="M6.9437 2.9887
L7.0041 3.0492
" />
<path d="M7.0041 3.0492
L6.9437 3.1096
" />
<path d="M6.9437 3.1096
L6.8832 3.0492
" />
<path d="M6.8832 3.0492
L6.9437 2.9887
" />
<path d="M6.9437 2.9887
L6.9437 3.1096
" />
<path d="M6.7018 1.9001
L6.8227 1.8396
" />
<path d="M6.8227 1.8396
L7.1251 1.8396
" />
<path d="M7.1251 1.8396
L7.2460 1.9001
" />
<path d="M7.2460 1.9001
L7.3065 2.0211
" />
<path d="M7.3065 2.0211
L7.3065 2.1420
" />
<path d="M7.3065 2.1420
L7.2460 2.2630
" />
<path d="M7.2460 2.2630
L7.1856 2.3234
" />
<path d="M7.1856 2.3234
L7.0646 2.3839
" />
<path d="M7.0646 2.3839
L7.0041 2.4444
" />
<path d="M7.0041 2.4444
L6.9437 2.5653
" />
<path d="M6.9437 2.5653
L6.9437 2.6258
" />
</g><text x="12.6492" y="3.1651"
textLength="8.9117" font-size="1.6933" lengthAdjust="spacingAndGlyphs"
text-anchor="start" opacity="0" stroke-opacity="0">UCC5304</text>
<g class="stroked-text"><desc>UCC5304</desc>
<path d="M13.0517 1.8396
L13.0517 2.8677
" />
<path d="M13.0517 2.8677
L13.1122 2.9887
" />
<path d="M13.1122 2.9887
L13.1727 3.0492
" />
<path d="M13.1727 3.0492
L13.2936 3.1096
" />
<path d="M13.2936 3.1096
L13.5355 3.1096
" />
<path d="M13.5355 3.1096
L13.6565 3.0492
" />
<path d="M13.6565 3.0492
L13.7170 2.9887
" />
<path d="M13.7170 2.9887
L13.7774 2.8677
" />
<path d="M13.7774 2.8677
L13.7774 1.8396
" />
<path d="M15.1079 2.9887
L15.0475 3.0492
" />
<path d="M15.0475 3.0492
L14.8660 3.1096
" />
<path d="M14.8660 3.1096
L14.7451 3.1096
" />
<path d="M14.7451 3.1096
L14.5637 3.0492
" />
<path d="M14.5637 3.0492
L14.4427 2.9282
" />
<path d="M14.4427 2.9282
L14.3822 2.8072
" />
<path d="M14.3822 2.8072
L14.3218 2.5653
" />
<path d="M14.3218 2.5653
L14.3218 2.3839
" />
<path d="M14.3218 2.3839
L14.3822 2.1420
" />
<path d="M14.3822 2.1420
L14.4427 2.0211
" />
<path d="M14.4427 2.0211
L14.5637 1.9001
" />
<path d="M14.5637 1.9001
L14.7451 1.8396
" />
<path d="M14.7451 1.8396
L14.8660 1.8396
" />
<path d="M14.8660 1.8396
L15.0475 1.9001
" />
<path d="M15.0475 1.9001
L15.1079 1.9606
" />
<path d="M16.3779 2.9887
L16.3175 3.0492
" />
<path d="M16.3175 3.0492
L16.1360 3.1096
" />
<path d="M16.1360 3.1096
L16.0151 3.1096
" />
<path d="M16.0151 3.1096
L15.8337 3.0492
" />
<path d="M15.8337 3.0492
L15.7127 2.9282
" />
<path d="M15.7127 2.9282
L15.6522 2.8072
" />
<path d="M15.6522 2.8072
L15.5918 2.5653
" />
<path d="M15.5918 2.5653
L15.5918 2.3839
" />
<path d="M15.5918 2.3839
L15.6522 2.1420
" />
<path d="M15.6522 2.1420
L15.7127 2.0211
" />
<path d="M15.7127 2.0211
L15.8337 1.9001
" />
<path d="M15.8337 1.9001
L16.0151 1.8396
" />
<path d="M16.0151 1.8396
L16.1360 1.8396
" />
<path d="M16.1360 1.8396
L16.3175 1.9001
" />
<path d="M16.3175 1.9001
L16.3779 1.9606
" />
<path d="M17.5270 1.8396
L16.9222 1.8396
" />
<path d="M16.9222 1.8396
L16.8618 2.4444
" />
<path d="M16.8618 2.4444
L16.9222 2.3839
" />
<path d="M16.9222 2.3839
L17.0432 2.3234
" />
<path d="M17.0432 2.3234
L17.3456 2.3234
" />
<path d="M17.3456 2.3234
L17.4665 2.3839
" />
<path d="M17.4665 2.3839
L17.5270 2.4444
" />
<path d="M17.5270 2.4444
L17.5875 2.5653
" />
<path d="M17.5875 2.5653
L17.5875 2.8677
" />
<path d="M17.5875 2.8677
L17.5270 2.9887
" />
<path d="M17.5270 2.9887
L17.4665 3.0492
" />
<path d="M17.4665 3.0492
L17.3456 3.1096
" />
<path d="M17.3456 3.1096
L17.0432 3.1096
" />
<path d="M17.0432 3.1096
L16.9222 3.0492
" />
<path d="M16.9222 3.0492
L16.8618 2.9887
" />
<path d="M18.0108 1.8396
L18.7970 1.8396
" />
<path d="M18.7970 1.8396
L18.3736 2.3234
" />
<path d="M18.3736 2.3234
L18.5551 2.3234
" />
<path d="M18.5551 2.3234
L18.6760 2.3839
" />
<path d="M18.6760 2.3839
L18.7365 2.4444
" />
<path d="M18.7365 2.4444
L18.7970 2.5653
" />
<path d="M18.7970 2.5653
L18.7970 2.8677
" />
<path d="M18.7970 2.8677
L18.7365 2.9887
" />
<path d="M18.7365 2.9887
L18.6760 3.0492
" />
<path d="M18.6760 3.0492
L18.5551 3.1096
" />
<path d="M18.5551 3.1096
L18.1922 3.1096
" />
<path d="M18.1922 3.1096
L18.0713 3.0492
" />
<path d="M18.0713 3.0492
L18.0108 2.9887
" />
<path d="M19.5831 1.8396
L19.7041 1.8396
" />
<path d="M19.7041 1.8396
L19.8250 1.9001
" />
<path d="M19.8250 1.9001
L19.8855 1.9606
" />
<path d="M19.8855 1.9606
L19.9460 2.0815
" />
<path d="M19.9460 2.0815
L20.0065 2.3234
" />
<path d="M20.0065 2.3234
L20.0065 2.6258
" />
<path d="M20.0065 2.6258
L19.9460 2.8677
" />
<path d="M19.9460 2.8677
L19.8855 2.9887
" />
<path d="M19.8855 2.9887
L19.8250 3.0492
" />
<path d="M19.8250 3.0492
L19.7041 3.1096
" />
<path d="M19.7041 3.1096
L19.5831 3.1096
" />
<path d="M19.5831 3.1096
L19.4622 3.0492
" />
<path d="M19.4622 3.0492
L19.4017 2.9887
" />
<path d="M19.4017 2.9887
L19.3412 2.8677
" />
<path d="M19.3412 2.8677
L19.2808 2.6258
" />
<path d="M19.2808 2.6258
L19.2808 2.3234
" />
<path d="M19.2808 2.3234
L19.3412 2.0815
" />
<path d="M19.3412 2.0815
L19.4017 1.9606
" />
<path d="M19.4017 1.9606
L19.4622 1.9001
" />
<path d="M19.4622 1.9001
L19.5831 1.8396
" />
<path d="M21.0950 2.2630
L21.0950 3.1096
" />
<path d="M20.7926 1.7792
L20.4903 2.6863
" />
<path d="M20.4903 2.6863
L21.2764 2.6863
" />
</g></g> 
</svg>
