%TF.GenerationSoftware,KiCad,Pcbnew,10.0.1*%
%TF.CreationDate,2026-04-20T13:03:52-04:00*%
%TF.ProjectId,switching_circuit_v2,73776974-6368-4696-9e67-5f6369726375,rev?*%
%TF.SameCoordinates,Original*%
%TF.FileFunction,Legend,Top*%
%TF.FilePolarity,Positive*%
%FSLAX46Y46*%
G04 Gerber Fmt 4.6, Leading zero omitted, Abs format (unit mm)*
G04 Created by KiCad (PCBNEW 10.0.1) date 2026-04-20 13:03:52*
%MOMM*%
%LPD*%
G01*
G04 APERTURE LIST*
G04 Aperture macros list*
%AMRoundRect*
0 Rectangle with rounded corners*
0 $1 Rounding radius*
0 $2 $3 $4 $5 $6 $7 $8 $9 X,Y pos of 4 corners*
0 Add a 4 corners polygon primitive as box body*
4,1,4,$2,$3,$4,$5,$6,$7,$8,$9,$2,$3,0*
0 Add four circle primitives for the rounded corners*
1,1,$1+$1,$2,$3*
1,1,$1+$1,$4,$5*
1,1,$1+$1,$6,$7*
1,1,$1+$1,$8,$9*
0 Add four rect primitives between the rounded corners*
20,1,$1+$1,$2,$3,$4,$5,0*
20,1,$1+$1,$4,$5,$6,$7,0*
20,1,$1+$1,$6,$7,$8,$9,0*
20,1,$1+$1,$8,$9,$2,$3,0*%
G04 Aperture macros list end*
%ADD10C,0.150000*%
%ADD11C,0.120000*%
%ADD12C,0.375000*%
%ADD13C,1.700000*%
%ADD14R,1.700000X1.700000*%
%ADD15RoundRect,0.250000X-0.262500X-0.450000X0.262500X-0.450000X0.262500X0.450000X-0.262500X0.450000X0*%
%ADD16RoundRect,0.150000X-0.150000X0.587500X-0.150000X-0.587500X0.150000X-0.587500X0.150000X0.587500X0*%
%ADD17RoundRect,0.225000X-0.225000X-0.250000X0.225000X-0.250000X0.225000X0.250000X-0.225000X0.250000X0*%
%ADD18RoundRect,0.075000X0.650000X0.075000X-0.650000X0.075000X-0.650000X-0.075000X0.650000X-0.075000X0*%
%ADD19RoundRect,0.150000X-0.875000X-0.150000X0.875000X-0.150000X0.875000X0.150000X-0.875000X0.150000X0*%
%ADD20RoundRect,0.225000X-0.250000X0.225000X-0.250000X-0.225000X0.250000X-0.225000X0.250000X0.225000X0*%
%ADD21RoundRect,0.218750X-0.256250X0.218750X-0.256250X-0.218750X0.256250X-0.218750X0.256250X0.218750X0*%
%ADD22RoundRect,0.200000X0.200000X0.275000X-0.200000X0.275000X-0.200000X-0.275000X0.200000X-0.275000X0*%
%ADD23C,1.500000*%
%ADD24RoundRect,0.200000X-0.200000X-0.275000X0.200000X-0.275000X0.200000X0.275000X-0.200000X0.275000X0*%
%ADD25RoundRect,0.218750X-0.218750X-0.256250X0.218750X-0.256250X0.218750X0.256250X-0.218750X0.256250X0*%
%ADD26RoundRect,0.218750X0.218750X0.256250X-0.218750X0.256250X-0.218750X-0.256250X0.218750X-0.256250X0*%
%ADD27RoundRect,0.250000X1.050000X-1.050000X1.050000X1.050000X-1.050000X1.050000X-1.050000X-1.050000X0*%
%ADD28C,2.600000*%
%ADD29C,2.500000*%
%ADD30RoundRect,0.075000X-0.650000X-0.075000X0.650000X-0.075000X0.650000X0.075000X-0.650000X0.075000X0*%
%ADD31RoundRect,0.225000X0.225000X0.250000X-0.225000X0.250000X-0.225000X-0.250000X0.225000X-0.250000X0*%
%ADD32RoundRect,0.250000X0.250000X0.475000X-0.250000X0.475000X-0.250000X-0.475000X0.250000X-0.475000X0*%
%ADD33RoundRect,0.250000X-1.000000X-0.900000X1.000000X-0.900000X1.000000X0.900000X-1.000000X0.900000X0*%
%ADD34RoundRect,0.200000X-0.275000X0.200000X-0.275000X-0.200000X0.275000X-0.200000X0.275000X0.200000X0*%
%ADD35RoundRect,0.250000X1.450000X-0.312500X1.450000X0.312500X-1.450000X0.312500X-1.450000X-0.312500X0*%
%ADD36RoundRect,0.250000X-0.725000X0.600000X-0.725000X-0.600000X0.725000X-0.600000X0.725000X0.600000X0*%
%ADD37O,1.950000X1.700000*%
%ADD38RoundRect,0.150000X-0.587500X-0.150000X0.587500X-0.150000X0.587500X0.150000X-0.587500X0.150000X0*%
%ADD39RoundRect,0.250000X0.725000X-0.600000X0.725000X0.600000X-0.725000X0.600000X-0.725000X-0.600000X0*%
%ADD40RoundRect,0.250000X-1.050000X1.050000X-1.050000X-1.050000X1.050000X-1.050000X1.050000X1.050000X0*%
%ADD41RoundRect,0.250000X-1.425000X0.362500X-1.425000X-0.362500X1.425000X-0.362500X1.425000X0.362500X0*%
%ADD42RoundRect,0.250000X1.425000X-0.362500X1.425000X0.362500X-1.425000X0.362500X-1.425000X-0.362500X0*%
G04 APERTURE END LIST*
D10*
X204355616Y-102068867D02*
X204831806Y-102068867D01*
X204260378Y-102354582D02*
X204593711Y-101354582D01*
X204593711Y-101354582D02*
X204927044Y-102354582D01*
X205784187Y-102354582D02*
X205212759Y-102354582D01*
X205498473Y-102354582D02*
X205498473Y-101354582D01*
X205498473Y-101354582D02*
X205403235Y-101497439D01*
X205403235Y-101497439D02*
X205307997Y-101592677D01*
X205307997Y-101592677D02*
X205212759Y-101640296D01*
D11*
X203165140Y-111963618D02*
X203165140Y-112611237D01*
X203165140Y-112611237D02*
X203203235Y-112687427D01*
X203203235Y-112687427D02*
X203241330Y-112725523D01*
X203241330Y-112725523D02*
X203317521Y-112763618D01*
X203317521Y-112763618D02*
X203469902Y-112763618D01*
X203469902Y-112763618D02*
X203546092Y-112725523D01*
X203546092Y-112725523D02*
X203584187Y-112687427D01*
X203584187Y-112687427D02*
X203622283Y-112611237D01*
X203622283Y-112611237D02*
X203622283Y-111963618D01*
X203965139Y-112725523D02*
X204079425Y-112763618D01*
X204079425Y-112763618D02*
X204269901Y-112763618D01*
X204269901Y-112763618D02*
X204346092Y-112725523D01*
X204346092Y-112725523D02*
X204384187Y-112687427D01*
X204384187Y-112687427D02*
X204422282Y-112611237D01*
X204422282Y-112611237D02*
X204422282Y-112535046D01*
X204422282Y-112535046D02*
X204384187Y-112458856D01*
X204384187Y-112458856D02*
X204346092Y-112420761D01*
X204346092Y-112420761D02*
X204269901Y-112382665D01*
X204269901Y-112382665D02*
X204117520Y-112344570D01*
X204117520Y-112344570D02*
X204041330Y-112306475D01*
X204041330Y-112306475D02*
X204003235Y-112268380D01*
X204003235Y-112268380D02*
X203965139Y-112192189D01*
X203965139Y-112192189D02*
X203965139Y-112115999D01*
X203965139Y-112115999D02*
X204003235Y-112039808D01*
X204003235Y-112039808D02*
X204041330Y-112001713D01*
X204041330Y-112001713D02*
X204117520Y-111963618D01*
X204117520Y-111963618D02*
X204307997Y-111963618D01*
X204307997Y-111963618D02*
X204422282Y-112001713D01*
X205031806Y-112344570D02*
X205146092Y-112382665D01*
X205146092Y-112382665D02*
X205184187Y-112420761D01*
X205184187Y-112420761D02*
X205222283Y-112496951D01*
X205222283Y-112496951D02*
X205222283Y-112611237D01*
X205222283Y-112611237D02*
X205184187Y-112687427D01*
X205184187Y-112687427D02*
X205146092Y-112725523D01*
X205146092Y-112725523D02*
X205069902Y-112763618D01*
X205069902Y-112763618D02*
X204765140Y-112763618D01*
X204765140Y-112763618D02*
X204765140Y-111963618D01*
X204765140Y-111963618D02*
X205031806Y-111963618D01*
X205031806Y-111963618D02*
X205107997Y-112001713D01*
X205107997Y-112001713D02*
X205146092Y-112039808D01*
X205146092Y-112039808D02*
X205184187Y-112115999D01*
X205184187Y-112115999D02*
X205184187Y-112192189D01*
X205184187Y-112192189D02*
X205146092Y-112268380D01*
X205146092Y-112268380D02*
X205107997Y-112306475D01*
X205107997Y-112306475D02*
X205031806Y-112344570D01*
X205031806Y-112344570D02*
X204765140Y-112344570D01*
X205565140Y-112458856D02*
X206174664Y-112458856D01*
X207012759Y-112687427D02*
X206974663Y-112725523D01*
X206974663Y-112725523D02*
X206860378Y-112763618D01*
X206860378Y-112763618D02*
X206784187Y-112763618D01*
X206784187Y-112763618D02*
X206669901Y-112725523D01*
X206669901Y-112725523D02*
X206593711Y-112649332D01*
X206593711Y-112649332D02*
X206555616Y-112573142D01*
X206555616Y-112573142D02*
X206517520Y-112420761D01*
X206517520Y-112420761D02*
X206517520Y-112306475D01*
X206517520Y-112306475D02*
X206555616Y-112154094D01*
X206555616Y-112154094D02*
X206593711Y-112077903D01*
X206593711Y-112077903D02*
X206669901Y-112001713D01*
X206669901Y-112001713D02*
X206784187Y-111963618D01*
X206784187Y-111963618D02*
X206860378Y-111963618D01*
X206860378Y-111963618D02*
X206974663Y-112001713D01*
X206974663Y-112001713D02*
X207012759Y-112039808D01*
X185627979Y-83293294D02*
X185170836Y-83293294D01*
X185399408Y-83293294D02*
X185399408Y-82493294D01*
X185399408Y-82493294D02*
X185323217Y-82607579D01*
X185323217Y-82607579D02*
X185247027Y-82683770D01*
X185247027Y-82683770D02*
X185170836Y-82721865D01*
X185932741Y-82569484D02*
X185970837Y-82531389D01*
X185970837Y-82531389D02*
X186047027Y-82493294D01*
X186047027Y-82493294D02*
X186237503Y-82493294D01*
X186237503Y-82493294D02*
X186313694Y-82531389D01*
X186313694Y-82531389D02*
X186351789Y-82569484D01*
X186351789Y-82569484D02*
X186389884Y-82645675D01*
X186389884Y-82645675D02*
X186389884Y-82721865D01*
X186389884Y-82721865D02*
X186351789Y-82836151D01*
X186351789Y-82836151D02*
X185894646Y-83293294D01*
X185894646Y-83293294D02*
X186389884Y-83293294D01*
X186618456Y-82493294D02*
X186885123Y-83293294D01*
X186885123Y-83293294D02*
X187151789Y-82493294D01*
X180890837Y-82493294D02*
X180509885Y-82493294D01*
X180509885Y-82493294D02*
X180471789Y-82874246D01*
X180471789Y-82874246D02*
X180509885Y-82836151D01*
X180509885Y-82836151D02*
X180586075Y-82798056D01*
X180586075Y-82798056D02*
X180776551Y-82798056D01*
X180776551Y-82798056D02*
X180852742Y-82836151D01*
X180852742Y-82836151D02*
X180890837Y-82874246D01*
X180890837Y-82874246D02*
X180928932Y-82950437D01*
X180928932Y-82950437D02*
X180928932Y-83140913D01*
X180928932Y-83140913D02*
X180890837Y-83217103D01*
X180890837Y-83217103D02*
X180852742Y-83255199D01*
X180852742Y-83255199D02*
X180776551Y-83293294D01*
X180776551Y-83293294D02*
X180586075Y-83293294D01*
X180586075Y-83293294D02*
X180509885Y-83255199D01*
X180509885Y-83255199D02*
X180471789Y-83217103D01*
X181157504Y-82493294D02*
X181424171Y-83293294D01*
X181424171Y-83293294D02*
X181690837Y-82493294D01*
D10*
X170553031Y-81632963D02*
X169553031Y-81632963D01*
X169553031Y-81632963D02*
X169553031Y-81252011D01*
X169553031Y-81252011D02*
X169600650Y-81156773D01*
X169600650Y-81156773D02*
X169648269Y-81109154D01*
X169648269Y-81109154D02*
X169743507Y-81061535D01*
X169743507Y-81061535D02*
X169886364Y-81061535D01*
X169886364Y-81061535D02*
X169981602Y-81109154D01*
X169981602Y-81109154D02*
X170029221Y-81156773D01*
X170029221Y-81156773D02*
X170076840Y-81252011D01*
X170076840Y-81252011D02*
X170076840Y-81632963D01*
X169553031Y-80442487D02*
X169553031Y-80252011D01*
X169553031Y-80252011D02*
X169600650Y-80156773D01*
X169600650Y-80156773D02*
X169695888Y-80061535D01*
X169695888Y-80061535D02*
X169886364Y-80013916D01*
X169886364Y-80013916D02*
X170219697Y-80013916D01*
X170219697Y-80013916D02*
X170410173Y-80061535D01*
X170410173Y-80061535D02*
X170505412Y-80156773D01*
X170505412Y-80156773D02*
X170553031Y-80252011D01*
X170553031Y-80252011D02*
X170553031Y-80442487D01*
X170553031Y-80442487D02*
X170505412Y-80537725D01*
X170505412Y-80537725D02*
X170410173Y-80632963D01*
X170410173Y-80632963D02*
X170219697Y-80680582D01*
X170219697Y-80680582D02*
X169886364Y-80680582D01*
X169886364Y-80680582D02*
X169695888Y-80632963D01*
X169695888Y-80632963D02*
X169600650Y-80537725D01*
X169600650Y-80537725D02*
X169553031Y-80442487D01*
X169553031Y-79680582D02*
X170553031Y-79442487D01*
X170553031Y-79442487D02*
X169838745Y-79252011D01*
X169838745Y-79252011D02*
X170553031Y-79061535D01*
X170553031Y-79061535D02*
X169553031Y-78823440D01*
X170029221Y-78442487D02*
X170029221Y-78109154D01*
X170553031Y-77966297D02*
X170553031Y-78442487D01*
X170553031Y-78442487D02*
X169553031Y-78442487D01*
X169553031Y-78442487D02*
X169553031Y-77966297D01*
X170553031Y-76966297D02*
X170076840Y-77299630D01*
X170553031Y-77537725D02*
X169553031Y-77537725D01*
X169553031Y-77537725D02*
X169553031Y-77156773D01*
X169553031Y-77156773D02*
X169600650Y-77061535D01*
X169600650Y-77061535D02*
X169648269Y-77013916D01*
X169648269Y-77013916D02*
X169743507Y-76966297D01*
X169743507Y-76966297D02*
X169886364Y-76966297D01*
X169886364Y-76966297D02*
X169981602Y-77013916D01*
X169981602Y-77013916D02*
X170029221Y-77061535D01*
X170029221Y-77061535D02*
X170076840Y-77156773D01*
X170076840Y-77156773D02*
X170076840Y-77537725D01*
X198338037Y-117859168D02*
X198338037Y-117287740D01*
X199338037Y-117573454D02*
X198338037Y-117573454D01*
X199338037Y-116954406D02*
X198338037Y-116954406D01*
X198338037Y-116954406D02*
X198338037Y-116573454D01*
X198338037Y-116573454D02*
X198385656Y-116478216D01*
X198385656Y-116478216D02*
X198433275Y-116430597D01*
X198433275Y-116430597D02*
X198528513Y-116382978D01*
X198528513Y-116382978D02*
X198671370Y-116382978D01*
X198671370Y-116382978D02*
X198766608Y-116430597D01*
X198766608Y-116430597D02*
X198814227Y-116478216D01*
X198814227Y-116478216D02*
X198861846Y-116573454D01*
X198861846Y-116573454D02*
X198861846Y-116954406D01*
X198433275Y-116002025D02*
X198385656Y-115954406D01*
X198385656Y-115954406D02*
X198338037Y-115859168D01*
X198338037Y-115859168D02*
X198338037Y-115621073D01*
X198338037Y-115621073D02*
X198385656Y-115525835D01*
X198385656Y-115525835D02*
X198433275Y-115478216D01*
X198433275Y-115478216D02*
X198528513Y-115430597D01*
X198528513Y-115430597D02*
X198623751Y-115430597D01*
X198623751Y-115430597D02*
X198766608Y-115478216D01*
X198766608Y-115478216D02*
X199338037Y-116049644D01*
X199338037Y-116049644D02*
X199338037Y-115430597D01*
X215596444Y-86144842D02*
X215120254Y-86144842D01*
X215120254Y-86144842D02*
X215120254Y-85144842D01*
X215929778Y-85621032D02*
X216263111Y-85621032D01*
X216405968Y-86144842D02*
X215929778Y-86144842D01*
X215929778Y-86144842D02*
X215929778Y-85144842D01*
X215929778Y-85144842D02*
X216405968Y-85144842D01*
X216834540Y-86144842D02*
X216834540Y-85144842D01*
X216834540Y-85144842D02*
X217072635Y-85144842D01*
X217072635Y-85144842D02*
X217215492Y-85192461D01*
X217215492Y-85192461D02*
X217310730Y-85287699D01*
X217310730Y-85287699D02*
X217358349Y-85382937D01*
X217358349Y-85382937D02*
X217405968Y-85573413D01*
X217405968Y-85573413D02*
X217405968Y-85716270D01*
X217405968Y-85716270D02*
X217358349Y-85906746D01*
X217358349Y-85906746D02*
X217310730Y-86001984D01*
X217310730Y-86001984D02*
X217215492Y-86097223D01*
X217215492Y-86097223D02*
X217072635Y-86144842D01*
X217072635Y-86144842D02*
X216834540Y-86144842D01*
X217596445Y-86240080D02*
X218358349Y-86240080D01*
X218596445Y-86144842D02*
X218596445Y-85144842D01*
X218596445Y-85144842D02*
X218977397Y-85144842D01*
X218977397Y-85144842D02*
X219072635Y-85192461D01*
X219072635Y-85192461D02*
X219120254Y-85240080D01*
X219120254Y-85240080D02*
X219167873Y-85335318D01*
X219167873Y-85335318D02*
X219167873Y-85478175D01*
X219167873Y-85478175D02*
X219120254Y-85573413D01*
X219120254Y-85573413D02*
X219072635Y-85621032D01*
X219072635Y-85621032D02*
X218977397Y-85668651D01*
X218977397Y-85668651D02*
X218596445Y-85668651D01*
X219548826Y-85240080D02*
X219596445Y-85192461D01*
X219596445Y-85192461D02*
X219691683Y-85144842D01*
X219691683Y-85144842D02*
X219929778Y-85144842D01*
X219929778Y-85144842D02*
X220025016Y-85192461D01*
X220025016Y-85192461D02*
X220072635Y-85240080D01*
X220072635Y-85240080D02*
X220120254Y-85335318D01*
X220120254Y-85335318D02*
X220120254Y-85430556D01*
X220120254Y-85430556D02*
X220072635Y-85573413D01*
X220072635Y-85573413D02*
X219501207Y-86144842D01*
X219501207Y-86144842D02*
X220120254Y-86144842D01*
X216338037Y-117859168D02*
X216338037Y-117287740D01*
X217338037Y-117573454D02*
X216338037Y-117573454D01*
X217338037Y-116954406D02*
X216338037Y-116954406D01*
X216338037Y-116954406D02*
X216338037Y-116573454D01*
X216338037Y-116573454D02*
X216385656Y-116478216D01*
X216385656Y-116478216D02*
X216433275Y-116430597D01*
X216433275Y-116430597D02*
X216528513Y-116382978D01*
X216528513Y-116382978D02*
X216671370Y-116382978D01*
X216671370Y-116382978D02*
X216766608Y-116430597D01*
X216766608Y-116430597D02*
X216814227Y-116478216D01*
X216814227Y-116478216D02*
X216861846Y-116573454D01*
X216861846Y-116573454D02*
X216861846Y-116954406D01*
X216766608Y-115811549D02*
X216718989Y-115906787D01*
X216718989Y-115906787D02*
X216671370Y-115954406D01*
X216671370Y-115954406D02*
X216576132Y-116002025D01*
X216576132Y-116002025D02*
X216528513Y-116002025D01*
X216528513Y-116002025D02*
X216433275Y-115954406D01*
X216433275Y-115954406D02*
X216385656Y-115906787D01*
X216385656Y-115906787D02*
X216338037Y-115811549D01*
X216338037Y-115811549D02*
X216338037Y-115621073D01*
X216338037Y-115621073D02*
X216385656Y-115525835D01*
X216385656Y-115525835D02*
X216433275Y-115478216D01*
X216433275Y-115478216D02*
X216528513Y-115430597D01*
X216528513Y-115430597D02*
X216576132Y-115430597D01*
X216576132Y-115430597D02*
X216671370Y-115478216D01*
X216671370Y-115478216D02*
X216718989Y-115525835D01*
X216718989Y-115525835D02*
X216766608Y-115621073D01*
X216766608Y-115621073D02*
X216766608Y-115811549D01*
X216766608Y-115811549D02*
X216814227Y-115906787D01*
X216814227Y-115906787D02*
X216861846Y-115954406D01*
X216861846Y-115954406D02*
X216957084Y-116002025D01*
X216957084Y-116002025D02*
X217147560Y-116002025D01*
X217147560Y-116002025D02*
X217242798Y-115954406D01*
X217242798Y-115954406D02*
X217290418Y-115906787D01*
X217290418Y-115906787D02*
X217338037Y-115811549D01*
X217338037Y-115811549D02*
X217338037Y-115621073D01*
X217338037Y-115621073D02*
X217290418Y-115525835D01*
X217290418Y-115525835D02*
X217242798Y-115478216D01*
X217242798Y-115478216D02*
X217147560Y-115430597D01*
X217147560Y-115430597D02*
X216957084Y-115430597D01*
X216957084Y-115430597D02*
X216861846Y-115478216D01*
X216861846Y-115478216D02*
X216814227Y-115525835D01*
X216814227Y-115525835D02*
X216766608Y-115621073D01*
X201336037Y-117859168D02*
X201336037Y-117287740D01*
X202336037Y-117573454D02*
X201336037Y-117573454D01*
X202336037Y-116954406D02*
X201336037Y-116954406D01*
X201336037Y-116954406D02*
X201336037Y-116573454D01*
X201336037Y-116573454D02*
X201383656Y-116478216D01*
X201383656Y-116478216D02*
X201431275Y-116430597D01*
X201431275Y-116430597D02*
X201526513Y-116382978D01*
X201526513Y-116382978D02*
X201669370Y-116382978D01*
X201669370Y-116382978D02*
X201764608Y-116430597D01*
X201764608Y-116430597D02*
X201812227Y-116478216D01*
X201812227Y-116478216D02*
X201859846Y-116573454D01*
X201859846Y-116573454D02*
X201859846Y-116954406D01*
X201336037Y-116049644D02*
X201336037Y-115430597D01*
X201336037Y-115430597D02*
X201716989Y-115763930D01*
X201716989Y-115763930D02*
X201716989Y-115621073D01*
X201716989Y-115621073D02*
X201764608Y-115525835D01*
X201764608Y-115525835D02*
X201812227Y-115478216D01*
X201812227Y-115478216D02*
X201907465Y-115430597D01*
X201907465Y-115430597D02*
X202145560Y-115430597D01*
X202145560Y-115430597D02*
X202240798Y-115478216D01*
X202240798Y-115478216D02*
X202288418Y-115525835D01*
X202288418Y-115525835D02*
X202336037Y-115621073D01*
X202336037Y-115621073D02*
X202336037Y-115906787D01*
X202336037Y-115906787D02*
X202288418Y-116002025D01*
X202288418Y-116002025D02*
X202240798Y-116049644D01*
X213338037Y-117859168D02*
X213338037Y-117287740D01*
X214338037Y-117573454D02*
X213338037Y-117573454D01*
X214338037Y-116954406D02*
X213338037Y-116954406D01*
X213338037Y-116954406D02*
X213338037Y-116573454D01*
X213338037Y-116573454D02*
X213385656Y-116478216D01*
X213385656Y-116478216D02*
X213433275Y-116430597D01*
X213433275Y-116430597D02*
X213528513Y-116382978D01*
X213528513Y-116382978D02*
X213671370Y-116382978D01*
X213671370Y-116382978D02*
X213766608Y-116430597D01*
X213766608Y-116430597D02*
X213814227Y-116478216D01*
X213814227Y-116478216D02*
X213861846Y-116573454D01*
X213861846Y-116573454D02*
X213861846Y-116954406D01*
X213338037Y-116049644D02*
X213338037Y-115382978D01*
X213338037Y-115382978D02*
X214338037Y-115811549D01*
X215987184Y-107236170D02*
X215510994Y-107236170D01*
X215510994Y-107236170D02*
X215510994Y-106236170D01*
X216320518Y-106712360D02*
X216653851Y-106712360D01*
X216796708Y-107236170D02*
X216320518Y-107236170D01*
X216320518Y-107236170D02*
X216320518Y-106236170D01*
X216320518Y-106236170D02*
X216796708Y-106236170D01*
X217225280Y-107236170D02*
X217225280Y-106236170D01*
X217225280Y-106236170D02*
X217463375Y-106236170D01*
X217463375Y-106236170D02*
X217606232Y-106283789D01*
X217606232Y-106283789D02*
X217701470Y-106379027D01*
X217701470Y-106379027D02*
X217749089Y-106474265D01*
X217749089Y-106474265D02*
X217796708Y-106664741D01*
X217796708Y-106664741D02*
X217796708Y-106807598D01*
X217796708Y-106807598D02*
X217749089Y-106998074D01*
X217749089Y-106998074D02*
X217701470Y-107093312D01*
X217701470Y-107093312D02*
X217606232Y-107188551D01*
X217606232Y-107188551D02*
X217463375Y-107236170D01*
X217463375Y-107236170D02*
X217225280Y-107236170D01*
X217987185Y-107331408D02*
X218749089Y-107331408D01*
X218987185Y-107236170D02*
X218987185Y-106236170D01*
X218987185Y-106236170D02*
X219558613Y-107236170D01*
X219558613Y-107236170D02*
X219558613Y-106236170D01*
X219987185Y-106331408D02*
X220034804Y-106283789D01*
X220034804Y-106283789D02*
X220130042Y-106236170D01*
X220130042Y-106236170D02*
X220368137Y-106236170D01*
X220368137Y-106236170D02*
X220463375Y-106283789D01*
X220463375Y-106283789D02*
X220510994Y-106331408D01*
X220510994Y-106331408D02*
X220558613Y-106426646D01*
X220558613Y-106426646D02*
X220558613Y-106521884D01*
X220558613Y-106521884D02*
X220510994Y-106664741D01*
X220510994Y-106664741D02*
X219939566Y-107236170D01*
X219939566Y-107236170D02*
X220558613Y-107236170D01*
X207338037Y-117859168D02*
X207338037Y-117287740D01*
X208338037Y-117573454D02*
X207338037Y-117573454D01*
X208338037Y-116954406D02*
X207338037Y-116954406D01*
X207338037Y-116954406D02*
X207338037Y-116573454D01*
X207338037Y-116573454D02*
X207385656Y-116478216D01*
X207385656Y-116478216D02*
X207433275Y-116430597D01*
X207433275Y-116430597D02*
X207528513Y-116382978D01*
X207528513Y-116382978D02*
X207671370Y-116382978D01*
X207671370Y-116382978D02*
X207766608Y-116430597D01*
X207766608Y-116430597D02*
X207814227Y-116478216D01*
X207814227Y-116478216D02*
X207861846Y-116573454D01*
X207861846Y-116573454D02*
X207861846Y-116954406D01*
X207338037Y-115478216D02*
X207338037Y-115954406D01*
X207338037Y-115954406D02*
X207814227Y-116002025D01*
X207814227Y-116002025D02*
X207766608Y-115954406D01*
X207766608Y-115954406D02*
X207718989Y-115859168D01*
X207718989Y-115859168D02*
X207718989Y-115621073D01*
X207718989Y-115621073D02*
X207766608Y-115525835D01*
X207766608Y-115525835D02*
X207814227Y-115478216D01*
X207814227Y-115478216D02*
X207909465Y-115430597D01*
X207909465Y-115430597D02*
X208147560Y-115430597D01*
X208147560Y-115430597D02*
X208242798Y-115478216D01*
X208242798Y-115478216D02*
X208290418Y-115525835D01*
X208290418Y-115525835D02*
X208338037Y-115621073D01*
X208338037Y-115621073D02*
X208338037Y-115859168D01*
X208338037Y-115859168D02*
X208290418Y-115954406D01*
X208290418Y-115954406D02*
X208242798Y-116002025D01*
X204338037Y-117859168D02*
X204338037Y-117287740D01*
X205338037Y-117573454D02*
X204338037Y-117573454D01*
X205338037Y-116954406D02*
X204338037Y-116954406D01*
X204338037Y-116954406D02*
X204338037Y-116573454D01*
X204338037Y-116573454D02*
X204385656Y-116478216D01*
X204385656Y-116478216D02*
X204433275Y-116430597D01*
X204433275Y-116430597D02*
X204528513Y-116382978D01*
X204528513Y-116382978D02*
X204671370Y-116382978D01*
X204671370Y-116382978D02*
X204766608Y-116430597D01*
X204766608Y-116430597D02*
X204814227Y-116478216D01*
X204814227Y-116478216D02*
X204861846Y-116573454D01*
X204861846Y-116573454D02*
X204861846Y-116954406D01*
X204671370Y-115525835D02*
X205338037Y-115525835D01*
X204290418Y-115763930D02*
X205004703Y-116002025D01*
X205004703Y-116002025D02*
X205004703Y-115382978D01*
X190359408Y-107158591D02*
X189883218Y-107158591D01*
X189883218Y-107158591D02*
X189883218Y-106158591D01*
X190692742Y-106634781D02*
X191026075Y-106634781D01*
X191168932Y-107158591D02*
X190692742Y-107158591D01*
X190692742Y-107158591D02*
X190692742Y-106158591D01*
X190692742Y-106158591D02*
X191168932Y-106158591D01*
X191597504Y-107158591D02*
X191597504Y-106158591D01*
X191597504Y-106158591D02*
X191835599Y-106158591D01*
X191835599Y-106158591D02*
X191978456Y-106206210D01*
X191978456Y-106206210D02*
X192073694Y-106301448D01*
X192073694Y-106301448D02*
X192121313Y-106396686D01*
X192121313Y-106396686D02*
X192168932Y-106587162D01*
X192168932Y-106587162D02*
X192168932Y-106730019D01*
X192168932Y-106730019D02*
X192121313Y-106920495D01*
X192121313Y-106920495D02*
X192073694Y-107015733D01*
X192073694Y-107015733D02*
X191978456Y-107110972D01*
X191978456Y-107110972D02*
X191835599Y-107158591D01*
X191835599Y-107158591D02*
X191597504Y-107158591D01*
X192359409Y-107253829D02*
X193121313Y-107253829D01*
X193359409Y-107158591D02*
X193359409Y-106158591D01*
X193359409Y-106158591D02*
X193930837Y-107158591D01*
X193930837Y-107158591D02*
X193930837Y-106158591D01*
X194930837Y-107158591D02*
X194359409Y-107158591D01*
X194645123Y-107158591D02*
X194645123Y-106158591D01*
X194645123Y-106158591D02*
X194549885Y-106301448D01*
X194549885Y-106301448D02*
X194454647Y-106396686D01*
X194454647Y-106396686D02*
X194359409Y-106444305D01*
X210338037Y-117859168D02*
X210338037Y-117287740D01*
X211338037Y-117573454D02*
X210338037Y-117573454D01*
X211338037Y-116954406D02*
X210338037Y-116954406D01*
X210338037Y-116954406D02*
X210338037Y-116573454D01*
X210338037Y-116573454D02*
X210385656Y-116478216D01*
X210385656Y-116478216D02*
X210433275Y-116430597D01*
X210433275Y-116430597D02*
X210528513Y-116382978D01*
X210528513Y-116382978D02*
X210671370Y-116382978D01*
X210671370Y-116382978D02*
X210766608Y-116430597D01*
X210766608Y-116430597D02*
X210814227Y-116478216D01*
X210814227Y-116478216D02*
X210861846Y-116573454D01*
X210861846Y-116573454D02*
X210861846Y-116954406D01*
X210338037Y-115525835D02*
X210338037Y-115716311D01*
X210338037Y-115716311D02*
X210385656Y-115811549D01*
X210385656Y-115811549D02*
X210433275Y-115859168D01*
X210433275Y-115859168D02*
X210576132Y-115954406D01*
X210576132Y-115954406D02*
X210766608Y-116002025D01*
X210766608Y-116002025D02*
X211147560Y-116002025D01*
X211147560Y-116002025D02*
X211242798Y-115954406D01*
X211242798Y-115954406D02*
X211290418Y-115906787D01*
X211290418Y-115906787D02*
X211338037Y-115811549D01*
X211338037Y-115811549D02*
X211338037Y-115621073D01*
X211338037Y-115621073D02*
X211290418Y-115525835D01*
X211290418Y-115525835D02*
X211242798Y-115478216D01*
X211242798Y-115478216D02*
X211147560Y-115430597D01*
X211147560Y-115430597D02*
X210909465Y-115430597D01*
X210909465Y-115430597D02*
X210814227Y-115478216D01*
X210814227Y-115478216D02*
X210766608Y-115525835D01*
X210766608Y-115525835D02*
X210718989Y-115621073D01*
X210718989Y-115621073D02*
X210718989Y-115811549D01*
X210718989Y-115811549D02*
X210766608Y-115906787D01*
X210766608Y-115906787D02*
X210814227Y-115954406D01*
X210814227Y-115954406D02*
X210909465Y-116002025D01*
X195338037Y-117859168D02*
X195338037Y-117287740D01*
X196338037Y-117573454D02*
X195338037Y-117573454D01*
X196338037Y-116954406D02*
X195338037Y-116954406D01*
X195338037Y-116954406D02*
X195338037Y-116573454D01*
X195338037Y-116573454D02*
X195385656Y-116478216D01*
X195385656Y-116478216D02*
X195433275Y-116430597D01*
X195433275Y-116430597D02*
X195528513Y-116382978D01*
X195528513Y-116382978D02*
X195671370Y-116382978D01*
X195671370Y-116382978D02*
X195766608Y-116430597D01*
X195766608Y-116430597D02*
X195814227Y-116478216D01*
X195814227Y-116478216D02*
X195861846Y-116573454D01*
X195861846Y-116573454D02*
X195861846Y-116954406D01*
X196338037Y-115430597D02*
X196338037Y-116002025D01*
X196338037Y-115716311D02*
X195338037Y-115716311D01*
X195338037Y-115716311D02*
X195480894Y-115811549D01*
X195480894Y-115811549D02*
X195576132Y-115906787D01*
X195576132Y-115906787D02*
X195623751Y-116002025D01*
X167339166Y-82490759D02*
X167339166Y-83205044D01*
X167339166Y-83205044D02*
X167291547Y-83347901D01*
X167291547Y-83347901D02*
X167196309Y-83443140D01*
X167196309Y-83443140D02*
X167053452Y-83490759D01*
X167053452Y-83490759D02*
X166958214Y-83490759D01*
X168339166Y-83490759D02*
X167767738Y-83490759D01*
X168053452Y-83490759D02*
X168053452Y-82490759D01*
X168053452Y-82490759D02*
X167958214Y-82633616D01*
X167958214Y-82633616D02*
X167862976Y-82728854D01*
X167862976Y-82728854D02*
X167767738Y-82776473D01*
D11*
X224686813Y-82493294D02*
X224305861Y-82493294D01*
X224305861Y-82493294D02*
X224267765Y-82874246D01*
X224267765Y-82874246D02*
X224305861Y-82836151D01*
X224305861Y-82836151D02*
X224382051Y-82798056D01*
X224382051Y-82798056D02*
X224572527Y-82798056D01*
X224572527Y-82798056D02*
X224648718Y-82836151D01*
X224648718Y-82836151D02*
X224686813Y-82874246D01*
X224686813Y-82874246D02*
X224724908Y-82950437D01*
X224724908Y-82950437D02*
X224724908Y-83140913D01*
X224724908Y-83140913D02*
X224686813Y-83217103D01*
X224686813Y-83217103D02*
X224648718Y-83255199D01*
X224648718Y-83255199D02*
X224572527Y-83293294D01*
X224572527Y-83293294D02*
X224382051Y-83293294D01*
X224382051Y-83293294D02*
X224305861Y-83255199D01*
X224305861Y-83255199D02*
X224267765Y-83217103D01*
X224953480Y-82493294D02*
X225220147Y-83293294D01*
X225220147Y-83293294D02*
X225486813Y-82493294D01*
X229423955Y-83293294D02*
X228966812Y-83293294D01*
X229195384Y-83293294D02*
X229195384Y-82493294D01*
X229195384Y-82493294D02*
X229119193Y-82607579D01*
X229119193Y-82607579D02*
X229043003Y-82683770D01*
X229043003Y-82683770D02*
X228966812Y-82721865D01*
X229728717Y-82569484D02*
X229766813Y-82531389D01*
X229766813Y-82531389D02*
X229843003Y-82493294D01*
X229843003Y-82493294D02*
X230033479Y-82493294D01*
X230033479Y-82493294D02*
X230109670Y-82531389D01*
X230109670Y-82531389D02*
X230147765Y-82569484D01*
X230147765Y-82569484D02*
X230185860Y-82645675D01*
X230185860Y-82645675D02*
X230185860Y-82721865D01*
X230185860Y-82721865D02*
X230147765Y-82836151D01*
X230147765Y-82836151D02*
X229690622Y-83293294D01*
X229690622Y-83293294D02*
X230185860Y-83293294D01*
X230414432Y-82493294D02*
X230681099Y-83293294D01*
X230681099Y-83293294D02*
X230947765Y-82493294D01*
D10*
X191022987Y-86312494D02*
X190546797Y-86312494D01*
X190546797Y-86312494D02*
X190546797Y-85312494D01*
X191356321Y-85788684D02*
X191689654Y-85788684D01*
X191832511Y-86312494D02*
X191356321Y-86312494D01*
X191356321Y-86312494D02*
X191356321Y-85312494D01*
X191356321Y-85312494D02*
X191832511Y-85312494D01*
X192261083Y-86312494D02*
X192261083Y-85312494D01*
X192261083Y-85312494D02*
X192499178Y-85312494D01*
X192499178Y-85312494D02*
X192642035Y-85360113D01*
X192642035Y-85360113D02*
X192737273Y-85455351D01*
X192737273Y-85455351D02*
X192784892Y-85550589D01*
X192784892Y-85550589D02*
X192832511Y-85741065D01*
X192832511Y-85741065D02*
X192832511Y-85883922D01*
X192832511Y-85883922D02*
X192784892Y-86074398D01*
X192784892Y-86074398D02*
X192737273Y-86169636D01*
X192737273Y-86169636D02*
X192642035Y-86264875D01*
X192642035Y-86264875D02*
X192499178Y-86312494D01*
X192499178Y-86312494D02*
X192261083Y-86312494D01*
X193022988Y-86407732D02*
X193784892Y-86407732D01*
X194022988Y-86312494D02*
X194022988Y-85312494D01*
X194022988Y-85312494D02*
X194403940Y-85312494D01*
X194403940Y-85312494D02*
X194499178Y-85360113D01*
X194499178Y-85360113D02*
X194546797Y-85407732D01*
X194546797Y-85407732D02*
X194594416Y-85502970D01*
X194594416Y-85502970D02*
X194594416Y-85645827D01*
X194594416Y-85645827D02*
X194546797Y-85741065D01*
X194546797Y-85741065D02*
X194499178Y-85788684D01*
X194499178Y-85788684D02*
X194403940Y-85836303D01*
X194403940Y-85836303D02*
X194022988Y-85836303D01*
X195546797Y-86312494D02*
X194975369Y-86312494D01*
X195261083Y-86312494D02*
X195261083Y-85312494D01*
X195261083Y-85312494D02*
X195165845Y-85455351D01*
X195165845Y-85455351D02*
X195070607Y-85550589D01*
X195070607Y-85550589D02*
X194975369Y-85598208D01*
%TO.C,A1*%
X196069902Y-90149763D02*
X214069902Y-90149763D01*
X196069902Y-113649763D02*
X196069902Y-90149763D01*
X214069902Y-90149763D02*
X214069902Y-113649763D01*
X214069902Y-113649763D02*
X196069902Y-113649763D01*
D12*
X215057402Y-112059763D02*
G75*
G02*
X214682402Y-112059763I-187500J0D01*
G01*
X214682402Y-112059763D02*
G75*
G02*
X215057402Y-112059763I187500J0D01*
G01*
%TO.C,PS1*%
X178270718Y-85429439D02*
G75*
G02*
X177895718Y-85429439I-187500J0D01*
G01*
X177895718Y-85429439D02*
G75*
G02*
X178270718Y-85429439I187500J0D01*
G01*
D10*
X189333218Y-90179439D02*
X177833218Y-90179439D01*
X189333218Y-83679439D02*
X189333218Y-90179439D01*
X177833218Y-90179439D02*
X177833218Y-83679439D01*
X177833218Y-83679439D02*
X189333218Y-83679439D01*
%TO.C,R_CYC_GND1*%
D11*
X167772936Y-109035000D02*
X168227064Y-109035000D01*
X167772936Y-107565000D02*
X168227064Y-107565000D01*
%TO.C,Q1*%
X192063218Y-76621939D02*
X191733218Y-76861939D01*
X191733218Y-76381939D01*
X192063218Y-76621939D01*
G36*
X192063218Y-76621939D02*
G01*
X191733218Y-76861939D01*
X191733218Y-76381939D01*
X192063218Y-76621939D01*
G37*
X193243218Y-78681939D02*
X192243218Y-78681939D01*
X193243218Y-77161939D02*
X193243218Y-78681939D01*
X193193218Y-77161939D02*
X193243218Y-77161939D01*
X191293218Y-77161939D02*
X192073218Y-77161939D01*
X191123218Y-78681939D02*
X190123218Y-78681939D01*
X190123218Y-78681939D02*
X190123218Y-77161939D01*
X190123218Y-77161939D02*
X190173218Y-77161939D01*
%TO.C,C_INA_N1*%
X184259420Y-100690000D02*
X184540580Y-100690000D01*
X184259420Y-101710000D02*
X184540580Y-101710000D01*
%TO.C,U_INA_P1*%
X184190000Y-92990000D02*
X187410000Y-92990000D01*
X184190000Y-93190000D02*
X184190000Y-92990000D01*
X184190000Y-96210000D02*
X184190000Y-96010000D01*
X187410000Y-92990000D02*
X187410000Y-93190000D01*
X187410000Y-96010000D02*
X187410000Y-96210000D01*
X187410000Y-96210000D02*
X184190000Y-96210000D01*
X188200000Y-96340000D02*
X187720000Y-96340000D01*
X187960000Y-96010000D01*
X188200000Y-96340000D01*
G36*
X188200000Y-96340000D02*
G01*
X187720000Y-96340000D01*
X187960000Y-96010000D01*
X188200000Y-96340000D01*
G37*
%TO.C,U_INA_N1*%
X188200000Y-105443772D02*
X187720000Y-105443772D01*
X187960000Y-105113772D01*
X188200000Y-105443772D01*
G36*
X188200000Y-105443772D02*
G01*
X187720000Y-105443772D01*
X187960000Y-105113772D01*
X188200000Y-105443772D01*
G37*
X187410000Y-105313772D02*
X184190000Y-105313772D01*
X187410000Y-105113772D02*
X187410000Y-105313772D01*
X187410000Y-102093772D02*
X187410000Y-102293772D01*
X184190000Y-105313772D02*
X184190000Y-105113772D01*
X184190000Y-102293772D02*
X184190000Y-102093772D01*
X184190000Y-102093772D02*
X187410000Y-102093772D01*
%TO.C,C_INA_P1*%
X184259420Y-91590000D02*
X184540580Y-91590000D01*
X184259420Y-92610000D02*
X184540580Y-92610000D01*
%TO.C,U1*%
D12*
X178020718Y-74079439D02*
G75*
G02*
X177645718Y-74079439I-187500J0D01*
G01*
X177645718Y-74079439D02*
G75*
G02*
X178020718Y-74079439I187500J0D01*
G01*
D11*
X187593218Y-81834439D02*
X179873218Y-81834439D01*
X187593218Y-70134439D02*
X187593218Y-81834439D01*
X179873218Y-81834439D02*
X179873218Y-70134439D01*
X179873218Y-70134439D02*
X187593218Y-70134439D01*
%TO.C,C_VCCI_U1*%
X176073218Y-76063859D02*
X176073218Y-76345019D01*
X177093218Y-76063859D02*
X177093218Y-76345019D01*
%TO.C,POWER*%
X167933212Y-77838440D02*
X167933212Y-80123440D01*
X169403212Y-77838440D02*
X167933212Y-77838440D01*
X169403212Y-80123440D02*
X169403212Y-77838440D01*
%TO.C,R_ALERT1*%
X216982160Y-103877263D02*
X216507644Y-103877263D01*
X216982160Y-104922263D02*
X216507644Y-104922263D01*
%TO.C,TP2*%
X199833218Y-119597264D02*
G75*
G02*
X197933218Y-119597264I-950000J0D01*
G01*
X197933218Y-119597264D02*
G75*
G02*
X199833218Y-119597264I950000J0D01*
G01*
%TO.C,U4*%
X223289194Y-109353772D02*
X231009194Y-109353772D01*
X223289194Y-121053772D02*
X223289194Y-109353772D01*
X231009194Y-109353772D02*
X231009194Y-121053772D01*
X231009194Y-121053772D02*
X223289194Y-121053772D01*
D12*
X221436694Y-113298772D02*
G75*
G02*
X221061694Y-113298772I-187500J0D01*
G01*
X221061694Y-113298772D02*
G75*
G02*
X221436694Y-113298772I187500J0D01*
G01*
%TO.C,R_RP1*%
D11*
X174562742Y-96622500D02*
X175037258Y-96622500D01*
X174562742Y-95577500D02*
X175037258Y-95577500D01*
%TO.C,LED_P2*%
X216111445Y-86955023D02*
X216111445Y-88425023D01*
X216111445Y-88425023D02*
X218396445Y-88425023D01*
X218396445Y-86955023D02*
X216111445Y-86955023D01*
%TO.C,TP8*%
X217833218Y-119597264D02*
G75*
G02*
X215933218Y-119597264I-950000J0D01*
G01*
X215933218Y-119597264D02*
G75*
G02*
X217833218Y-119597264I950000J0D01*
G01*
%TO.C,Rgpd_2*%
X235611452Y-80399439D02*
X235136936Y-80399439D01*
X235611452Y-81444439D02*
X235136936Y-81444439D01*
%TO.C,TP3*%
X202833218Y-119597264D02*
G75*
G02*
X200933218Y-119597264I-950000J0D01*
G01*
X200933218Y-119597264D02*
G75*
G02*
X202833218Y-119597264I950000J0D01*
G01*
%TO.C,R_G_U1*%
X191445960Y-74399439D02*
X191920476Y-74399439D01*
X191445960Y-75444439D02*
X191920476Y-75444439D01*
%TO.C,D_LED_N1*%
X191782797Y-109438772D02*
X194067797Y-109438772D01*
X194067797Y-107968772D02*
X191782797Y-107968772D01*
X194067797Y-109438772D02*
X194067797Y-107968772D01*
%TO.C,J2*%
X234788483Y-84255940D02*
X244828483Y-84255940D01*
X234788483Y-104815940D02*
X234788483Y-84255940D01*
X237808483Y-104815940D02*
X237808483Y-84255940D01*
X242708483Y-104815940D02*
X242708483Y-84255940D01*
X244208483Y-104815940D02*
X244208483Y-84255940D01*
X244828483Y-84255940D02*
X244828483Y-101855940D01*
X244828483Y-102455940D02*
X244828483Y-104815940D01*
X244828483Y-104815940D02*
X234788483Y-104815940D01*
X245438483Y-102595940D02*
X244828483Y-102155940D01*
X245438483Y-101715940D01*
X245438483Y-102595940D01*
G36*
X245438483Y-102595940D02*
G01*
X244828483Y-102155940D01*
X245438483Y-101715940D01*
X245438483Y-102595940D01*
G37*
%TO.C,TP7*%
X214833218Y-119597264D02*
G75*
G02*
X212933218Y-119597264I-950000J0D01*
G01*
X212933218Y-119597264D02*
G75*
G02*
X214833218Y-119597264I950000J0D01*
G01*
%TO.C,C_VCCI_U3*%
X176073218Y-115738192D02*
X176073218Y-116019352D01*
X177093218Y-115738192D02*
X177093218Y-116019352D01*
%TO.C,U_INA_N2*%
X223233037Y-102690000D02*
X226453037Y-102690000D01*
X223233037Y-102890000D02*
X223233037Y-102690000D01*
X223233037Y-105910000D02*
X223233037Y-105710000D01*
X226453037Y-102690000D02*
X226453037Y-102890000D01*
X226453037Y-105710000D02*
X226453037Y-105910000D01*
X226453037Y-105910000D02*
X223233037Y-105910000D01*
X222683037Y-102890000D02*
X222443037Y-102560000D01*
X222923037Y-102560000D01*
X222683037Y-102890000D01*
G36*
X222683037Y-102890000D02*
G01*
X222443037Y-102560000D01*
X222923037Y-102560000D01*
X222683037Y-102890000D01*
G37*
%TO.C,R_G_U3*%
X191495960Y-114181272D02*
X191970476Y-114181272D01*
X191495960Y-115226272D02*
X191970476Y-115226272D01*
%TO.C,C_B2*%
X174940580Y-90390000D02*
X174659420Y-90390000D01*
X174940580Y-91410000D02*
X174659420Y-91410000D01*
%TO.C,C_VCCI_U4*%
X219289194Y-115698192D02*
X219289194Y-115979352D01*
X220309194Y-115698192D02*
X220309194Y-115979352D01*
%TO.C,C_B1*%
X175061252Y-88265000D02*
X174538748Y-88265000D01*
X175061252Y-89735000D02*
X174538748Y-89735000D01*
%TO.C,LED_N2*%
X216398218Y-108105851D02*
X216398218Y-109575851D01*
X216398218Y-109575851D02*
X218683218Y-109575851D01*
X218683218Y-108105851D02*
X216398218Y-108105851D01*
%TO.C,C_INA_N2*%
X226305275Y-107293932D02*
X226024115Y-107293932D01*
X226305275Y-106273932D02*
X226024115Y-106273932D01*
%TO.C,TP5*%
X208833218Y-119597264D02*
G75*
G02*
X206933218Y-119597264I-950000J0D01*
G01*
X206933218Y-119597264D02*
G75*
G02*
X208833218Y-119597264I950000J0D01*
G01*
%TO.C,Q2*%
X233639194Y-77161939D02*
X233689194Y-77161939D01*
X233639194Y-78681939D02*
X233639194Y-77161939D01*
X234639194Y-78681939D02*
X233639194Y-78681939D01*
X234809194Y-77161939D02*
X235589194Y-77161939D01*
X236709194Y-77161939D02*
X236759194Y-77161939D01*
X236759194Y-77161939D02*
X236759194Y-78681939D01*
X236759194Y-78681939D02*
X235759194Y-78681939D01*
X235579194Y-76621939D02*
X235249194Y-76861939D01*
X235249194Y-76381939D01*
X235579194Y-76621939D01*
G36*
X235579194Y-76621939D02*
G01*
X235249194Y-76861939D01*
X235249194Y-76381939D01*
X235579194Y-76621939D01*
G37*
%TO.C,R_G_U2*%
X234961936Y-74399439D02*
X235436452Y-74399439D01*
X234961936Y-75444439D02*
X235436452Y-75444439D01*
%TO.C,Rgpd_3*%
X191795476Y-120181272D02*
X191320960Y-120181272D01*
X191795476Y-121226272D02*
X191320960Y-121226272D01*
%TO.C,U_INA_P2*%
X223233037Y-93690000D02*
X226453037Y-93690000D01*
X223233037Y-93890000D02*
X223233037Y-93690000D01*
X223233037Y-96910000D02*
X223233037Y-96710000D01*
X226453037Y-93690000D02*
X226453037Y-93890000D01*
X226453037Y-96710000D02*
X226453037Y-96910000D01*
X226453037Y-96910000D02*
X223233037Y-96910000D01*
X222683037Y-93890000D02*
X222443037Y-93560000D01*
X222923037Y-93560000D01*
X222683037Y-93890000D01*
G36*
X222683037Y-93890000D02*
G01*
X222443037Y-93560000D01*
X222923037Y-93560000D01*
X222683037Y-93890000D01*
G37*
%TO.C,D_TVS1*%
X170005897Y-106048146D02*
X170005897Y-110348146D01*
X170005897Y-106048146D02*
X175815897Y-106048146D01*
X170005897Y-110348146D02*
X175815897Y-110348146D01*
%TO.C,R_G_U4*%
X235411936Y-114181272D02*
X235886452Y-114181272D01*
X235411936Y-115226272D02*
X235886452Y-115226272D01*
%TO.C,R_LED_P1*%
X193222746Y-89280175D02*
X192748230Y-89280175D01*
X193222746Y-90325175D02*
X192748230Y-90325175D01*
%TO.C,TP4*%
X205833218Y-119597264D02*
G75*
G02*
X203933218Y-119597264I-950000J0D01*
G01*
X203933218Y-119597264D02*
G75*
G02*
X205833218Y-119597264I950000J0D01*
G01*
%TO.C,R_LED_PWR1*%
X166145712Y-79048682D02*
X166145712Y-79523198D01*
X167190712Y-79048682D02*
X167190712Y-79523198D01*
%TO.C,U2*%
X223289194Y-70134439D02*
X231009194Y-70134439D01*
X223289194Y-81834439D02*
X223289194Y-70134439D01*
X231009194Y-70134439D02*
X231009194Y-81834439D01*
X231009194Y-81834439D02*
X223289194Y-81834439D01*
D12*
X221436694Y-74079439D02*
G75*
G02*
X221061694Y-74079439I-187500J0D01*
G01*
X221061694Y-74079439D02*
G75*
G02*
X221436694Y-74079439I187500J0D01*
G01*
%TO.C,Rgpd_1*%
D11*
X191920476Y-80336939D02*
X191445960Y-80336939D01*
X191920476Y-81381939D02*
X191445960Y-81381939D01*
%TO.C,F1*%
X172993910Y-101512089D02*
X172993910Y-98739585D01*
X176413910Y-101512089D02*
X176413910Y-98739585D01*
%TO.C,R_SCL1*%
X193332644Y-93877263D02*
X193807160Y-93877263D01*
X193332644Y-94922263D02*
X193807160Y-94922263D01*
%TO.C,R_SDA1*%
X193332644Y-96377263D02*
X193807160Y-96377263D01*
X193332644Y-97422263D02*
X193807160Y-97422263D01*
%TO.C,C_VCCI_U2*%
X219139194Y-76788859D02*
X219139194Y-77070019D01*
X220159194Y-76788859D02*
X220159194Y-77070019D01*
%TO.C,C_INA_P2*%
X226340580Y-98293932D02*
X226059420Y-98293932D01*
X226340580Y-97273932D02*
X226059420Y-97273932D01*
%TO.C,Q3*%
X190173218Y-116943772D02*
X190223218Y-116943772D01*
X190173218Y-118463772D02*
X190173218Y-116943772D01*
X191173218Y-118463772D02*
X190173218Y-118463772D01*
X191343218Y-116943772D02*
X192123218Y-116943772D01*
X193243218Y-116943772D02*
X193293218Y-116943772D01*
X193293218Y-116943772D02*
X193293218Y-118463772D01*
X193293218Y-118463772D02*
X192293218Y-118463772D01*
X192113218Y-116403772D02*
X191783218Y-116643772D01*
X191783218Y-116163772D01*
X192113218Y-116403772D01*
G36*
X192113218Y-116403772D02*
G01*
X191783218Y-116643772D01*
X191783218Y-116163772D01*
X192113218Y-116403772D01*
G37*
%TO.C,U3*%
X179873218Y-109353772D02*
X187593218Y-109353772D01*
X179873218Y-121053772D02*
X179873218Y-109353772D01*
X187593218Y-109353772D02*
X187593218Y-121053772D01*
X187593218Y-121053772D02*
X179873218Y-121053772D01*
D12*
X178020718Y-113298772D02*
G75*
G02*
X177645718Y-113298772I-187500J0D01*
G01*
X177645718Y-113298772D02*
G75*
G02*
X178020718Y-113298772I187500J0D01*
G01*
%TO.C,LED_N1*%
D11*
X192932555Y-110181272D02*
X192458039Y-110181272D01*
X192932555Y-111226272D02*
X192458039Y-111226272D01*
%TO.C,TP6*%
X211833218Y-119597264D02*
G75*
G02*
X209933218Y-119597264I-950000J0D01*
G01*
X209933218Y-119597264D02*
G75*
G02*
X211833218Y-119597264I950000J0D01*
G01*
%TO.C,J3*%
X198288788Y-70235256D02*
X198288788Y-77035256D01*
X198288788Y-83835256D02*
X198288788Y-77035256D01*
X201238788Y-69485256D02*
X201238788Y-70235256D01*
X201238788Y-70235256D02*
X198288788Y-70235256D01*
X201238788Y-83835256D02*
X198288788Y-83835256D01*
X201238788Y-84585256D02*
X201238788Y-83835256D01*
X203788788Y-69185256D02*
X202538788Y-69185256D01*
X203788788Y-70435256D02*
X203788788Y-69185256D01*
X202738788Y-69485256D02*
X203488788Y-69485256D01*
X203488788Y-71285256D01*
X202738788Y-71285256D01*
X202738788Y-69485256D01*
X202738788Y-72785256D02*
X203488788Y-72785256D01*
X203488788Y-81285256D01*
X202738788Y-81285256D01*
X202738788Y-72785256D01*
X202738788Y-82785256D02*
X203488788Y-82785256D01*
X203488788Y-84585256D01*
X202738788Y-84585256D01*
X202738788Y-82785256D01*
X197528788Y-69475256D02*
X203498788Y-69475256D01*
X203498788Y-84595256D01*
X197528788Y-84595256D01*
X197528788Y-69475256D01*
%TO.C,TP1*%
X196833218Y-119597264D02*
G75*
G02*
X194933218Y-119597264I-950000J0D01*
G01*
X194933218Y-119597264D02*
G75*
G02*
X196833218Y-119597264I950000J0D01*
G01*
%TO.C,Rgpd_4*%
X235886452Y-120181272D02*
X235411936Y-120181272D01*
X235886452Y-121226272D02*
X235411936Y-121226272D01*
%TO.C,R_LED_P2*%
X217359187Y-89167523D02*
X217833703Y-89167523D01*
X217359187Y-90212523D02*
X217833703Y-90212523D01*
%TO.C,R_LED_N2*%
X217608460Y-110318351D02*
X218082976Y-110318351D01*
X217608460Y-111363351D02*
X218082976Y-111363351D01*
%TO.C,Q_RP1*%
X176022500Y-91940000D02*
X176022500Y-92940000D01*
X174502500Y-91940000D02*
X176022500Y-91940000D01*
X174502500Y-91990000D02*
X174502500Y-91940000D01*
X174502500Y-93890000D02*
X174502500Y-93110000D01*
X176022500Y-94060000D02*
X176022500Y-95060000D01*
X176022500Y-95060000D02*
X174502500Y-95060000D01*
X174502500Y-95060000D02*
X174502500Y-95010000D01*
X174202500Y-93450000D02*
X173722500Y-93450000D01*
X173962500Y-93120000D01*
X174202500Y-93450000D01*
G36*
X174202500Y-93450000D02*
G01*
X173722500Y-93450000D01*
X173962500Y-93120000D01*
X174202500Y-93450000D01*
G37*
%TO.C,J4*%
X206972473Y-81084439D02*
X206972473Y-82334439D01*
X206972473Y-82334439D02*
X208222473Y-82334439D01*
X209522473Y-69434439D02*
X209522473Y-70184439D01*
X209522473Y-70184439D02*
X212472473Y-70184439D01*
X209522473Y-81284439D02*
X212472473Y-81284439D01*
X209522473Y-82034439D02*
X209522473Y-81284439D01*
X212472473Y-70184439D02*
X212472473Y-75734439D01*
X212472473Y-81284439D02*
X212472473Y-75734439D01*
X207262473Y-69424439D02*
X213232473Y-69424439D01*
X213232473Y-82044439D01*
X207262473Y-82044439D01*
X207262473Y-69424439D01*
X207272473Y-69434439D02*
X208022473Y-69434439D01*
X208022473Y-71234439D01*
X207272473Y-71234439D01*
X207272473Y-69434439D01*
X207272473Y-72734439D02*
X208022473Y-72734439D01*
X208022473Y-78734439D01*
X207272473Y-78734439D01*
X207272473Y-72734439D01*
X207272473Y-80234439D02*
X208022473Y-80234439D01*
X208022473Y-82034439D01*
X207272473Y-82034439D01*
X207272473Y-80234439D01*
%TO.C,J1*%
X162280000Y-84255940D02*
X172320000Y-84255940D01*
X162280000Y-86615940D02*
X162280000Y-84255940D01*
X162280000Y-104815940D02*
X162280000Y-87215940D01*
X162900000Y-84255940D02*
X162900000Y-104815940D01*
X164400000Y-84255940D02*
X164400000Y-104815940D01*
X169300000Y-84255940D02*
X169300000Y-104815940D01*
X172320000Y-84255940D02*
X172320000Y-104815940D01*
X172320000Y-104815940D02*
X162280000Y-104815940D01*
X162280000Y-86915940D02*
X161670000Y-87355940D01*
X161670000Y-86475940D01*
X162280000Y-86915940D01*
G36*
X162280000Y-86915940D02*
G01*
X161670000Y-87355940D01*
X161670000Y-86475940D01*
X162280000Y-86915940D01*
G37*
%TO.C,Q4*%
X234089194Y-116943772D02*
X234139194Y-116943772D01*
X234089194Y-118463772D02*
X234089194Y-116943772D01*
X235089194Y-118463772D02*
X234089194Y-118463772D01*
X235259194Y-116943772D02*
X236039194Y-116943772D01*
X237159194Y-116943772D02*
X237209194Y-116943772D01*
X237209194Y-116943772D02*
X237209194Y-118463772D01*
X237209194Y-118463772D02*
X236209194Y-118463772D01*
X236029194Y-116403772D02*
X235699194Y-116643772D01*
X235699194Y-116163772D01*
X236029194Y-116403772D01*
G36*
X236029194Y-116403772D02*
G01*
X235699194Y-116643772D01*
X235699194Y-116163772D01*
X236029194Y-116403772D01*
G37*
%TO.C,PS2*%
D10*
X221629194Y-83679439D02*
X233129194Y-83679439D01*
X221629194Y-90179439D02*
X221629194Y-83679439D01*
X233129194Y-83679439D02*
X233129194Y-90179439D01*
X233129194Y-90179439D02*
X221629194Y-90179439D01*
D12*
X222066694Y-85429439D02*
G75*
G02*
X221691694Y-85429439I-187500J0D01*
G01*
X221691694Y-85429439D02*
G75*
G02*
X222066694Y-85429439I187500J0D01*
G01*
%TO.C,LED_P1*%
D11*
X192222988Y-88537675D02*
X194507988Y-88537675D01*
X194507988Y-87067675D02*
X192222988Y-87067675D01*
X194507988Y-88537675D02*
X194507988Y-87067675D01*
%TO.C,R_SH_N2*%
X232053037Y-102306868D02*
X232053037Y-106660996D01*
X228633037Y-102306868D02*
X228633037Y-106660996D01*
%TO.C,R_SH_N1*%
X182110000Y-105977064D02*
X182110000Y-101622936D01*
X178690000Y-105977064D02*
X178690000Y-101622936D01*
%TO.C,R_SH_P1*%
X182110000Y-97177064D02*
X182110000Y-92822936D01*
X178690000Y-97177064D02*
X178690000Y-92822936D01*
%TO.C,R_SH_P2*%
X232053037Y-93006868D02*
X232053037Y-97360996D01*
X228633037Y-93006868D02*
X228633037Y-97360996D01*
%TD*%
%LPC*%
D13*
%TO.C,A1*%
X212689902Y-106979763D03*
X212689902Y-112059763D03*
X212689902Y-109519763D03*
X197449902Y-112059763D03*
X197449902Y-109519763D03*
X197449902Y-106979763D03*
X197449902Y-104439763D03*
X197449902Y-101899763D03*
X197449902Y-99359763D03*
X197449902Y-96819763D03*
X197449902Y-94279763D03*
X197449902Y-91739763D03*
X199989902Y-90469763D03*
X202529902Y-90469763D03*
X205069902Y-90469763D03*
X207609902Y-90469763D03*
X210149902Y-90469763D03*
X212689902Y-91739763D03*
X212689902Y-94279763D03*
X212689902Y-96819763D03*
X212689902Y-99359763D03*
X212689902Y-101899763D03*
X212689902Y-104439763D03*
%TD*%
%TO.C,PS1*%
X187393218Y-86929439D03*
X184853218Y-86929439D03*
X182313218Y-86929439D03*
D14*
X179773218Y-86929439D03*
%TD*%
D15*
%TO.C,R_CYC_GND1*%
X168912500Y-108300000D03*
X167087500Y-108300000D03*
%TD*%
D16*
%TO.C,Q1*%
X191683218Y-78859439D03*
X190733218Y-76984439D03*
X192633218Y-76984439D03*
%TD*%
D17*
%TO.C,C_INA_N1*%
X185175000Y-101200000D03*
X183625000Y-101200000D03*
%TD*%
D18*
%TO.C,U_INA_P1*%
X187950000Y-95600000D03*
X187950000Y-95100000D03*
X187950000Y-94600000D03*
X187950000Y-94100000D03*
X187950000Y-93600000D03*
X183650000Y-93600000D03*
X183650000Y-94100000D03*
X183650000Y-94600000D03*
X183650000Y-95100000D03*
X183650000Y-95600000D03*
%TD*%
%TO.C,U_INA_N1*%
X183650000Y-104703772D03*
X183650000Y-104203772D03*
X183650000Y-103703772D03*
X183650000Y-103203772D03*
X183650000Y-102703772D03*
X187950000Y-102703772D03*
X187950000Y-103203772D03*
X187950000Y-103703772D03*
X187950000Y-104203772D03*
X187950000Y-104703772D03*
%TD*%
D17*
%TO.C,C_INA_P1*%
X185175000Y-92100000D03*
X183625000Y-92100000D03*
%TD*%
D19*
%TO.C,U1*%
X188383218Y-74079439D03*
X188383218Y-75349439D03*
X188383218Y-76619439D03*
X188383218Y-77889439D03*
X179083218Y-77889439D03*
X179083218Y-76619439D03*
X179083218Y-75349439D03*
X179083218Y-74079439D03*
%TD*%
D20*
%TO.C,C_VCCI_U1*%
X176583218Y-75429439D03*
X176583218Y-76979439D03*
%TD*%
D21*
%TO.C,POWER*%
X168668212Y-78535940D03*
X168668212Y-80110940D03*
%TD*%
D22*
%TO.C,R_ALERT1*%
X217569902Y-104399763D03*
X215919902Y-104399763D03*
%TD*%
D23*
%TO.C,TP2*%
X198883218Y-119597264D03*
%TD*%
D19*
%TO.C,U4*%
X222499194Y-113298772D03*
X222499194Y-114568772D03*
X222499194Y-115838772D03*
X222499194Y-117108772D03*
X231799194Y-117108772D03*
X231799194Y-115838772D03*
X231799194Y-114568772D03*
X231799194Y-113298772D03*
%TD*%
D24*
%TO.C,R_RP1*%
X173975000Y-96100000D03*
X175625000Y-96100000D03*
%TD*%
D25*
%TO.C,LED_P2*%
X216808945Y-87690023D03*
X218383945Y-87690023D03*
%TD*%
D23*
%TO.C,TP8*%
X216883218Y-119597264D03*
%TD*%
D22*
%TO.C,Rgpd_2*%
X236199194Y-80921939D03*
X234549194Y-80921939D03*
%TD*%
D23*
%TO.C,TP3*%
X201883218Y-119597264D03*
%TD*%
D24*
%TO.C,R_G_U1*%
X190858218Y-74921939D03*
X192508218Y-74921939D03*
%TD*%
D26*
%TO.C,D_LED_N1*%
X193370297Y-108703772D03*
X191795297Y-108703772D03*
%TD*%
D27*
%TO.C,J2*%
X240108483Y-102155940D03*
D28*
X240108483Y-97075940D03*
X240108483Y-91995940D03*
X240108483Y-86915940D03*
%TD*%
D23*
%TO.C,TP7*%
X213883218Y-119597264D03*
%TD*%
D20*
%TO.C,C_VCCI_U3*%
X176583218Y-115103772D03*
X176583218Y-116653772D03*
%TD*%
D29*
%TO.C,REF\u002A\u002A*%
X244000000Y-118500000D03*
%TD*%
D30*
%TO.C,U_INA_N2*%
X222693037Y-103300000D03*
X222693037Y-103800000D03*
X222693037Y-104300000D03*
X222693037Y-104800000D03*
X222693037Y-105300000D03*
X226993037Y-105300000D03*
X226993037Y-104800000D03*
X226993037Y-104300000D03*
X226993037Y-103800000D03*
X226993037Y-103300000D03*
%TD*%
D24*
%TO.C,R_G_U3*%
X190908218Y-114703772D03*
X192558218Y-114703772D03*
%TD*%
D31*
%TO.C,C_B2*%
X175575000Y-90900000D03*
X174025000Y-90900000D03*
%TD*%
D20*
%TO.C,C_VCCI_U4*%
X219799194Y-115063772D03*
X219799194Y-116613772D03*
%TD*%
D32*
%TO.C,C_B1*%
X175750000Y-89000000D03*
X173850000Y-89000000D03*
%TD*%
D25*
%TO.C,LED_N2*%
X217095718Y-108840851D03*
X218670718Y-108840851D03*
%TD*%
D31*
%TO.C,C_INA_N2*%
X226939695Y-106783932D03*
X225389695Y-106783932D03*
%TD*%
D23*
%TO.C,TP5*%
X207883218Y-119597264D03*
%TD*%
D16*
%TO.C,Q2*%
X236149194Y-76984439D03*
X234249194Y-76984439D03*
X235199194Y-78859439D03*
%TD*%
D24*
%TO.C,R_G_U2*%
X234374194Y-74921939D03*
X236024194Y-74921939D03*
%TD*%
D22*
%TO.C,Rgpd_3*%
X192383218Y-120703772D03*
X190733218Y-120703772D03*
%TD*%
D30*
%TO.C,U_INA_P2*%
X222693037Y-94300000D03*
X222693037Y-94800000D03*
X222693037Y-95300000D03*
X222693037Y-95800000D03*
X222693037Y-96300000D03*
X226993037Y-96300000D03*
X226993037Y-95800000D03*
X226993037Y-95300000D03*
X226993037Y-94800000D03*
X226993037Y-94300000D03*
%TD*%
D33*
%TO.C,D_TVS1*%
X171515897Y-108198146D03*
X175815897Y-108198146D03*
%TD*%
D24*
%TO.C,R_G_U4*%
X234824194Y-114703772D03*
X236474194Y-114703772D03*
%TD*%
D22*
%TO.C,R_LED_P1*%
X193810488Y-89802675D03*
X192160488Y-89802675D03*
%TD*%
D23*
%TO.C,TP4*%
X204883218Y-119597264D03*
%TD*%
D34*
%TO.C,R_LED_PWR1*%
X166668212Y-78460940D03*
X166668212Y-80110940D03*
%TD*%
D19*
%TO.C,U2*%
X222499194Y-74079439D03*
X222499194Y-75349439D03*
X222499194Y-76619439D03*
X222499194Y-77889439D03*
X231799194Y-77889439D03*
X231799194Y-76619439D03*
X231799194Y-75349439D03*
X231799194Y-74079439D03*
%TD*%
D22*
%TO.C,Rgpd_1*%
X192508218Y-80859439D03*
X190858218Y-80859439D03*
%TD*%
D35*
%TO.C,F1*%
X174703910Y-102263337D03*
X174703910Y-97988337D03*
%TD*%
D24*
%TO.C,R_SCL1*%
X192744902Y-94399763D03*
X194394902Y-94399763D03*
%TD*%
%TO.C,R_SDA1*%
X192744902Y-96899763D03*
X194394902Y-96899763D03*
%TD*%
D20*
%TO.C,C_VCCI_U2*%
X219649194Y-76154439D03*
X219649194Y-77704439D03*
%TD*%
D31*
%TO.C,C_INA_P2*%
X226975000Y-97783932D03*
X225425000Y-97783932D03*
%TD*%
D16*
%TO.C,Q3*%
X192683218Y-116766272D03*
X190783218Y-116766272D03*
X191733218Y-118641272D03*
%TD*%
D19*
%TO.C,U3*%
X179083218Y-113298772D03*
X179083218Y-114568772D03*
X179083218Y-115838772D03*
X179083218Y-117108772D03*
X188383218Y-117108772D03*
X188383218Y-115838772D03*
X188383218Y-114568772D03*
X188383218Y-113298772D03*
%TD*%
D22*
%TO.C,LED_N1*%
X193520297Y-110703772D03*
X191870297Y-110703772D03*
%TD*%
D23*
%TO.C,TP6*%
X210883218Y-119597264D03*
%TD*%
D36*
%TO.C,J3*%
X201038788Y-72035256D03*
D37*
X201038788Y-74535256D03*
X201038788Y-77035256D03*
X201038788Y-79535256D03*
X201038788Y-82035256D03*
%TD*%
D23*
%TO.C,TP1*%
X195883218Y-119597264D03*
%TD*%
D22*
%TO.C,Rgpd_4*%
X236474194Y-120703772D03*
X234824194Y-120703772D03*
%TD*%
D24*
%TO.C,R_LED_P2*%
X216771445Y-89690023D03*
X218421445Y-89690023D03*
%TD*%
%TO.C,R_LED_N2*%
X217020718Y-110840851D03*
X218670718Y-110840851D03*
%TD*%
D29*
%TO.C,REF\u002A\u002A*%
X164500000Y-71000000D03*
%TD*%
D38*
%TO.C,Q_RP1*%
X174325000Y-92550000D03*
X174325000Y-94450000D03*
X176200000Y-93500000D03*
%TD*%
D29*
%TO.C,REF\u002A\u002A*%
X244000000Y-71000000D03*
%TD*%
D39*
%TO.C,J4*%
X209722473Y-79484439D03*
D37*
X209722473Y-76984439D03*
X209722473Y-74484439D03*
X209722473Y-71984439D03*
%TD*%
D40*
%TO.C,J1*%
X167000000Y-86915940D03*
D28*
X167000000Y-91995940D03*
X167000000Y-97075940D03*
X167000000Y-102155940D03*
%TD*%
D16*
%TO.C,Q4*%
X236599194Y-116766272D03*
X234699194Y-116766272D03*
X235649194Y-118641272D03*
%TD*%
D14*
%TO.C,PS2*%
X223569194Y-86929439D03*
D13*
X226109194Y-86929439D03*
X228649194Y-86929439D03*
X231189194Y-86929439D03*
%TD*%
D26*
%TO.C,LED_P1*%
X193810488Y-87802675D03*
X192235488Y-87802675D03*
%TD*%
D29*
%TO.C,REF\u002A\u002A*%
X164500000Y-118500000D03*
%TD*%
D41*
%TO.C,R_SH_N2*%
X230343037Y-101521432D03*
X230343037Y-107446432D03*
%TD*%
D42*
%TO.C,R_SH_N1*%
X180400000Y-106762500D03*
X180400000Y-100837500D03*
%TD*%
%TO.C,R_SH_P1*%
X180400000Y-97962500D03*
X180400000Y-92037500D03*
%TD*%
D41*
%TO.C,R_SH_P2*%
X230343037Y-92221432D03*
X230343037Y-98146432D03*
%TD*%
%LPD*%
M02*
