%TF.GenerationSoftware,KiCad,Pcbnew,10.0.1*%
%TF.CreationDate,2026-04-20T13:05:13-04:00*%
%TF.ProjectId,switching_circuit_v2,73776974-6368-4696-9e67-5f6369726375,rev?*%
%TF.SameCoordinates,Original*%
%TF.FileFunction,Drillmap*%
%TF.FilePolarity,Positive*%
%FSLAX45Y45*%
G04 Gerber Fmt 4.5, Leading zero omitted, Abs format (unit mm)*
G04 Created by KiCad (PCBNEW 10.0.1) date 2026-04-20 13:05:13*
%MOMM*%
%LPD*%
G01*
G04 APERTURE LIST*
%ADD10C,0.150000*%
%ADD11C,0.200000*%
%ADD12C,0.100000*%
%ADD13C,0.130000*%
%ADD14C,0.250000*%
G04 APERTURE END LIST*
D10*
X16100000Y-7050000D02*
G75*
G02*
X16400000Y-6750000I300000J0D01*
G01*
X16100000Y-11900000D02*
X16100000Y-7050000D01*
X16400000Y-6750000D02*
X24450000Y-6750000D01*
X16400000Y-12200000D02*
G75*
G02*
X16100000Y-11900000I0J300000D01*
G01*
X24450000Y-6750000D02*
G75*
G02*
X24750000Y-7050000I0J-300000D01*
G01*
X24450000Y-12200000D02*
X16400000Y-12200000D01*
X24750000Y-7050000D02*
X24750000Y-11900000D01*
X24750000Y-11900000D02*
G75*
G02*
X24450000Y-12200000I-300000J0D01*
G01*
D11*
D12*
X16180000Y-7380000D02*
X16220000Y-7420000D01*
X16220000Y-7380000D02*
X16180000Y-7420000D01*
X16180000Y-7780000D02*
X16220000Y-7820000D01*
X16220000Y-7780000D02*
X16180000Y-7820000D01*
X16180000Y-8280000D02*
X16220000Y-8320000D01*
X16220000Y-8280000D02*
X16180000Y-8320000D01*
X16180000Y-10580000D02*
X16220000Y-10620000D01*
X16220000Y-10580000D02*
X16180000Y-10620000D01*
X16180000Y-10980000D02*
X16220000Y-11020000D01*
X16220000Y-10980000D02*
X16180000Y-11020000D01*
X16180000Y-11480000D02*
X16220000Y-11520000D01*
X16220000Y-11480000D02*
X16180000Y-11520000D01*
X16550000Y-8140000D02*
X16590000Y-8180000D01*
X16590000Y-8140000D02*
X16550000Y-8180000D01*
X16680000Y-12080000D02*
X16720000Y-12120000D01*
X16720000Y-12080000D02*
X16680000Y-12120000D01*
X16780000Y-6880000D02*
X16820000Y-6920000D01*
X16820000Y-6880000D02*
X16780000Y-6920000D01*
X17180000Y-12080000D02*
X17220000Y-12120000D01*
X17220000Y-12080000D02*
X17180000Y-12120000D01*
X17260000Y-8880000D02*
X17300000Y-8920000D01*
X17300000Y-8880000D02*
X17260000Y-8920000D01*
X17260000Y-9070000D02*
X17300000Y-9110000D01*
X17300000Y-9070000D02*
X17260000Y-9110000D01*
X17260000Y-9240000D02*
X17300000Y-9280000D01*
X17300000Y-9240000D02*
X17260000Y-9280000D01*
X17280000Y-6880000D02*
X17320000Y-6920000D01*
X17320000Y-6880000D02*
X17280000Y-6920000D01*
X17320000Y-10800000D02*
X17360000Y-10840000D01*
X17360000Y-10800000D02*
X17320000Y-10840000D01*
X17650000Y-9590000D02*
X17690000Y-9630000D01*
X17690000Y-9590000D02*
X17650000Y-9630000D01*
X17680000Y-12080000D02*
X17720000Y-12120000D01*
X17720000Y-12080000D02*
X17680000Y-12120000D01*
X17780000Y-6880000D02*
X17820000Y-6920000D01*
X17820000Y-6880000D02*
X17780000Y-6920000D01*
X18020000Y-9183750D02*
X18060000Y-9223750D01*
X18060000Y-9183750D02*
X18020000Y-9223750D01*
X18020000Y-10190000D02*
X18060000Y-10230000D01*
X18060000Y-10190000D02*
X18020000Y-10230000D01*
X18050000Y-7890000D02*
X18090000Y-7930000D01*
X18090000Y-7890000D02*
X18050000Y-7930000D01*
X18110000Y-8550000D02*
X18150000Y-8590000D01*
X18150000Y-8550000D02*
X18110000Y-8590000D01*
X18280000Y-6880000D02*
X18320000Y-6920000D01*
X18320000Y-6880000D02*
X18280000Y-6920000D01*
X18300000Y-9780000D02*
X18340000Y-9820000D01*
X18340000Y-9780000D02*
X18300000Y-9820000D01*
X18340000Y-10560000D02*
X18380000Y-10600000D01*
X18380000Y-10560000D02*
X18340000Y-10600000D01*
X18500000Y-9480000D02*
X18540000Y-9520000D01*
X18540000Y-9480000D02*
X18500000Y-9520000D01*
X18500000Y-10420000D02*
X18540000Y-10460000D01*
X18540000Y-10420000D02*
X18500000Y-10460000D01*
X18530000Y-10310000D02*
X18570000Y-10350000D01*
X18570000Y-10310000D02*
X18530000Y-10350000D01*
X18560000Y-9390000D02*
X18600000Y-9430000D01*
X18600000Y-9390000D02*
X18560000Y-9430000D01*
X18590000Y-9530000D02*
X18630000Y-9570000D01*
X18630000Y-9530000D02*
X18590000Y-9570000D01*
X18590000Y-10390000D02*
X18630000Y-10430000D01*
X18630000Y-10390000D02*
X18590000Y-10430000D01*
X18650000Y-7322500D02*
X18690000Y-7362500D01*
X18690000Y-7322500D02*
X18650000Y-7362500D01*
X18650000Y-7630000D02*
X18690000Y-7670000D01*
X18690000Y-7630000D02*
X18650000Y-7670000D01*
X18780000Y-6880000D02*
X18820000Y-6920000D01*
X18820000Y-6880000D02*
X18780000Y-6920000D01*
X18820000Y-11800000D02*
X18860000Y-11840000D01*
X18860000Y-11800000D02*
X18820000Y-11840000D01*
X18830000Y-12030000D02*
X18870000Y-12070000D01*
X18870000Y-12030000D02*
X18830000Y-12070000D01*
X18840000Y-10160000D02*
X18880000Y-10200000D01*
X18880000Y-10160000D02*
X18840000Y-10200000D01*
X18940000Y-10200000D02*
X18980000Y-10240000D01*
X18980000Y-10200000D02*
X18940000Y-10240000D01*
X18990000Y-11310000D02*
X19030000Y-11350000D01*
X19030000Y-11310000D02*
X18990000Y-11350000D01*
X19000000Y-10300000D02*
X19040000Y-10340000D01*
X19040000Y-10300000D02*
X19000000Y-10340000D01*
X19040000Y-11050000D02*
X19080000Y-11090000D01*
X19080000Y-11050000D02*
X19040000Y-11090000D01*
X19050000Y-9590000D02*
X19090000Y-9630000D01*
X19090000Y-9590000D02*
X19050000Y-9630000D01*
X19080000Y-8960000D02*
X19120000Y-9000000D01*
X19120000Y-8960000D02*
X19080000Y-9000000D01*
X19130000Y-9412500D02*
X19170000Y-9452500D01*
X19170000Y-9412500D02*
X19130000Y-9452500D01*
X19130000Y-9670000D02*
X19170000Y-9710000D01*
X19170000Y-9670000D02*
X19130000Y-9710000D01*
X19180000Y-11280000D02*
X19220000Y-11320000D01*
X19220000Y-11280000D02*
X19180000Y-11320000D01*
X19247500Y-7920000D02*
X19287500Y-7960000D01*
X19287500Y-7920000D02*
X19247500Y-7960000D01*
X19257500Y-11840000D02*
X19297500Y-11880000D01*
X19297500Y-11840000D02*
X19257500Y-11880000D01*
X19280000Y-6880000D02*
X19320000Y-6920000D01*
X19320000Y-6880000D02*
X19280000Y-6920000D01*
X19280000Y-11280000D02*
X19320000Y-11320000D01*
X19320000Y-11280000D02*
X19280000Y-11320000D01*
X19380000Y-11280000D02*
X19420000Y-11320000D01*
X19420000Y-11280000D02*
X19380000Y-11320000D01*
X19420000Y-9270000D02*
X19460000Y-9310000D01*
X19460000Y-9270000D02*
X19420000Y-9310000D01*
X19420000Y-9800000D02*
X19460000Y-9840000D01*
X19460000Y-9800000D02*
X19420000Y-9840000D01*
X19480000Y-7580000D02*
X19520000Y-7620000D01*
X19520000Y-7580000D02*
X19480000Y-7620000D01*
X19480000Y-7980000D02*
X19520000Y-8020000D01*
X19520000Y-7980000D02*
X19480000Y-8020000D01*
X19480000Y-8080000D02*
X19520000Y-8120000D01*
X19520000Y-8080000D02*
X19480000Y-8120000D01*
X19480000Y-11580000D02*
X19520000Y-11620000D01*
X19520000Y-11580000D02*
X19480000Y-11620000D01*
X19480000Y-11680000D02*
X19520000Y-11720000D01*
X19520000Y-11680000D02*
X19480000Y-11720000D01*
X19580000Y-7580000D02*
X19620000Y-7620000D01*
X19620000Y-7580000D02*
X19580000Y-7620000D01*
X19580000Y-7680000D02*
X19620000Y-7720000D01*
X19620000Y-7680000D02*
X19580000Y-7720000D01*
X19580000Y-8080000D02*
X19620000Y-8120000D01*
X19620000Y-8080000D02*
X19580000Y-8120000D01*
X19580000Y-11580000D02*
X19620000Y-11620000D01*
X19620000Y-11580000D02*
X19580000Y-11620000D01*
X19580000Y-11680000D02*
X19620000Y-11720000D01*
X19620000Y-11680000D02*
X19580000Y-11720000D01*
X19780000Y-6880000D02*
X19820000Y-6920000D01*
X19820000Y-6880000D02*
X19780000Y-6920000D01*
X20280000Y-6880000D02*
X20320000Y-6920000D01*
X20320000Y-6880000D02*
X20280000Y-6920000D01*
X20490000Y-9640000D02*
X20530000Y-9680000D01*
X20530000Y-9640000D02*
X20490000Y-9680000D01*
X20740000Y-9640000D02*
X20780000Y-9680000D01*
X20780000Y-9640000D02*
X20740000Y-9680000D01*
X20780000Y-6880000D02*
X20820000Y-6920000D01*
X20820000Y-6880000D02*
X20780000Y-6920000D01*
X20880000Y-10480000D02*
X20920000Y-10520000D01*
X20920000Y-10480000D02*
X20880000Y-10520000D01*
X20880000Y-10580000D02*
X20920000Y-10620000D01*
X20920000Y-10580000D02*
X20880000Y-10620000D01*
X20880000Y-10680000D02*
X20920000Y-10720000D01*
X20920000Y-10680000D02*
X20880000Y-10720000D01*
X20880000Y-10780000D02*
X20920000Y-10820000D01*
X20920000Y-10780000D02*
X20880000Y-10820000D01*
X20880000Y-10880000D02*
X20920000Y-10920000D01*
X20920000Y-10880000D02*
X20880000Y-10920000D01*
X20880000Y-10980000D02*
X20920000Y-11020000D01*
X20920000Y-10980000D02*
X20880000Y-11020000D01*
X20880000Y-11080000D02*
X20920000Y-11120000D01*
X20920000Y-11080000D02*
X20880000Y-11120000D01*
X20880000Y-11180000D02*
X20920000Y-11220000D01*
X20920000Y-11180000D02*
X20880000Y-11220000D01*
X20995503Y-9635503D02*
X21035503Y-9675503D01*
X21035503Y-9635503D02*
X20995503Y-9675503D01*
X21280000Y-6880000D02*
X21320000Y-6920000D01*
X21320000Y-6880000D02*
X21280000Y-6920000D01*
X21280000Y-11380000D02*
X21320000Y-11420000D01*
X21320000Y-11380000D02*
X21280000Y-11420000D01*
X21400000Y-10780000D02*
X21440000Y-10820000D01*
X21440000Y-10780000D02*
X21400000Y-10820000D01*
X21400000Y-10870000D02*
X21440000Y-10910000D01*
X21440000Y-10870000D02*
X21400000Y-10910000D01*
X21400000Y-10960000D02*
X21440000Y-11000000D01*
X21440000Y-10960000D02*
X21400000Y-11000000D01*
X21510000Y-11720000D02*
X21550000Y-11760000D01*
X21550000Y-11720000D02*
X21510000Y-11760000D01*
X21580000Y-12080000D02*
X21620000Y-12120000D01*
X21620000Y-12080000D02*
X21580000Y-12120000D01*
X21620000Y-11280000D02*
X21660000Y-11320000D01*
X21660000Y-11280000D02*
X21620000Y-11320000D01*
X21780000Y-6880000D02*
X21820000Y-6920000D01*
X21820000Y-6880000D02*
X21780000Y-6920000D01*
X21840000Y-10720000D02*
X21880000Y-10760000D01*
X21880000Y-10720000D02*
X21840000Y-10760000D01*
X21884498Y-10315503D02*
X21924498Y-10355503D01*
X21924498Y-10315503D02*
X21884498Y-10355503D01*
X21940000Y-11870000D02*
X21980000Y-11910000D01*
X21980000Y-11870000D02*
X21940000Y-11910000D01*
X21950941Y-9551833D02*
X21990941Y-9591833D01*
X21990941Y-9551833D02*
X21950941Y-9591833D01*
X21960000Y-8950000D02*
X22000000Y-8990000D01*
X22000000Y-8950000D02*
X21960000Y-8990000D01*
X21970000Y-9650000D02*
X22010000Y-9690000D01*
X22010000Y-9650000D02*
X21970000Y-9690000D01*
X22027500Y-9487500D02*
X22067500Y-9527500D01*
X22067500Y-9487500D02*
X22027500Y-9527500D01*
X22094498Y-10315503D02*
X22134498Y-10355503D01*
X22134498Y-10315503D02*
X22094498Y-10355503D01*
X22180000Y-12080000D02*
X22220000Y-12120000D01*
X22220000Y-12080000D02*
X22180000Y-12120000D01*
X22220000Y-8870000D02*
X22260000Y-8910000D01*
X22260000Y-8870000D02*
X22220000Y-8910000D01*
X22280000Y-6880000D02*
X22320000Y-6920000D01*
X22320000Y-6880000D02*
X22280000Y-6920000D01*
X22417500Y-7768944D02*
X22457500Y-7808944D01*
X22457500Y-7768944D02*
X22417500Y-7808944D01*
X22440000Y-9460000D02*
X22480000Y-9500000D01*
X22480000Y-9460000D02*
X22440000Y-9500000D01*
X22440000Y-11690000D02*
X22480000Y-11730000D01*
X22480000Y-11690000D02*
X22440000Y-11730000D01*
X22450000Y-10400000D02*
X22490000Y-10440000D01*
X22490000Y-10400000D02*
X22450000Y-10440000D01*
X22450000Y-10520000D02*
X22490000Y-10560000D01*
X22490000Y-10520000D02*
X22450000Y-10560000D01*
X22470000Y-9550000D02*
X22510000Y-9590000D01*
X22510000Y-9550000D02*
X22470000Y-9590000D01*
X22480000Y-8820000D02*
X22520000Y-8860000D01*
X22520000Y-8820000D02*
X22480000Y-8860000D01*
X22518969Y-10460000D02*
X22558969Y-10500000D01*
X22558969Y-10460000D02*
X22518969Y-10500000D01*
X22546872Y-9598893D02*
X22586872Y-9638893D01*
X22586872Y-9598893D02*
X22546872Y-9638893D01*
X22550000Y-9470000D02*
X22590000Y-9510000D01*
X22590000Y-9470000D02*
X22550000Y-9510000D01*
X22710000Y-8540000D02*
X22750000Y-8580000D01*
X22750000Y-8540000D02*
X22710000Y-8580000D01*
X22720000Y-8820000D02*
X22760000Y-8860000D01*
X22760000Y-8820000D02*
X22720000Y-8860000D01*
X22730000Y-9320000D02*
X22770000Y-9360000D01*
X22770000Y-9320000D02*
X22730000Y-9360000D01*
X22780000Y-6880000D02*
X22820000Y-6920000D01*
X22820000Y-6880000D02*
X22780000Y-6920000D01*
X22970000Y-11690000D02*
X23010000Y-11730000D01*
X23010000Y-11690000D02*
X22970000Y-11730000D01*
X22980000Y-7640000D02*
X23020000Y-7680000D01*
X23020000Y-7640000D02*
X22980000Y-7680000D01*
X23180000Y-7980000D02*
X23220000Y-8020000D01*
X23220000Y-7980000D02*
X23180000Y-8020000D01*
X23180000Y-8080000D02*
X23220000Y-8120000D01*
X23220000Y-8080000D02*
X23180000Y-8120000D01*
X23280000Y-6880000D02*
X23320000Y-6920000D01*
X23320000Y-6880000D02*
X23280000Y-6920000D01*
X23280000Y-12080000D02*
X23320000Y-12120000D01*
X23320000Y-12080000D02*
X23280000Y-12120000D01*
X23350000Y-11240000D02*
X23390000Y-11280000D01*
X23390000Y-11240000D02*
X23350000Y-11280000D01*
X23360000Y-7320000D02*
X23400000Y-7360000D01*
X23400000Y-7320000D02*
X23360000Y-7360000D01*
X23580000Y-7280000D02*
X23620000Y-7320000D01*
X23620000Y-7280000D02*
X23580000Y-7320000D01*
X23610000Y-7920000D02*
X23650000Y-7960000D01*
X23650000Y-7920000D02*
X23610000Y-7960000D01*
X23650000Y-11890000D02*
X23690000Y-11930000D01*
X23690000Y-11890000D02*
X23650000Y-11930000D01*
X23680000Y-7280000D02*
X23720000Y-7320000D01*
X23720000Y-7280000D02*
X23680000Y-7320000D01*
X23780000Y-6880000D02*
X23820000Y-6920000D01*
X23820000Y-6880000D02*
X23780000Y-6920000D01*
X23780000Y-7280000D02*
X23820000Y-7320000D01*
X23820000Y-7280000D02*
X23780000Y-7320000D01*
X23780000Y-11280000D02*
X23820000Y-11320000D01*
X23820000Y-11280000D02*
X23780000Y-11320000D01*
X23780000Y-12080000D02*
X23820000Y-12120000D01*
X23820000Y-12080000D02*
X23780000Y-12120000D01*
X23880000Y-7680000D02*
X23920000Y-7720000D01*
X23920000Y-7680000D02*
X23880000Y-7720000D01*
X23880000Y-7780000D02*
X23920000Y-7820000D01*
X23920000Y-7780000D02*
X23880000Y-7820000D01*
X23880000Y-11280000D02*
X23920000Y-11320000D01*
X23920000Y-11280000D02*
X23880000Y-11320000D01*
X23880000Y-11380000D02*
X23920000Y-11420000D01*
X23920000Y-11380000D02*
X23880000Y-11420000D01*
X23880000Y-11480000D02*
X23920000Y-11520000D01*
X23920000Y-11480000D02*
X23880000Y-11520000D01*
X23880000Y-11880000D02*
X23920000Y-11920000D01*
X23920000Y-11880000D02*
X23880000Y-11920000D01*
X23880000Y-11980000D02*
X23920000Y-12020000D01*
X23920000Y-11980000D02*
X23880000Y-12020000D01*
X23980000Y-7780000D02*
X24020000Y-7820000D01*
X24020000Y-7780000D02*
X23980000Y-7820000D01*
X23980000Y-11880000D02*
X24020000Y-11920000D01*
X24020000Y-11880000D02*
X23980000Y-11920000D01*
X24080000Y-12080000D02*
X24120000Y-12120000D01*
X24120000Y-12080000D02*
X24080000Y-12120000D01*
X24580000Y-7580000D02*
X24620000Y-7620000D01*
X24620000Y-7580000D02*
X24580000Y-7620000D01*
X24580000Y-8080000D02*
X24620000Y-8120000D01*
X24620000Y-8080000D02*
X24580000Y-8120000D01*
X24580000Y-8580000D02*
X24620000Y-8620000D01*
X24620000Y-8580000D02*
X24580000Y-8620000D01*
X24580000Y-9080000D02*
X24620000Y-9120000D01*
X24620000Y-9080000D02*
X24580000Y-9120000D01*
X24580000Y-9580000D02*
X24620000Y-9620000D01*
X24620000Y-9580000D02*
X24580000Y-9620000D01*
X24580000Y-10080000D02*
X24620000Y-10120000D01*
X24620000Y-10080000D02*
X24580000Y-10120000D01*
X24580000Y-10580000D02*
X24620000Y-10620000D01*
X24620000Y-10580000D02*
X24580000Y-10620000D01*
X24580000Y-11080000D02*
X24620000Y-11120000D01*
X24620000Y-11080000D02*
X24580000Y-11120000D01*
X24580000Y-11580000D02*
X24620000Y-11620000D01*
X24620000Y-11580000D02*
X24580000Y-11620000D01*
X20151379Y-7203526D02*
G75*
G02*
X20056379Y-7203526I-47500J0D01*
G01*
X20056379Y-7203526D02*
G75*
G02*
X20151379Y-7203526I47500J0D01*
G01*
X20151379Y-7453526D02*
G75*
G02*
X20056379Y-7453526I-47500J0D01*
G01*
X20056379Y-7453526D02*
G75*
G02*
X20151379Y-7453526I47500J0D01*
G01*
X20151379Y-7703526D02*
G75*
G02*
X20056379Y-7703526I-47500J0D01*
G01*
X20056379Y-7703526D02*
G75*
G02*
X20151379Y-7703526I47500J0D01*
G01*
X20151379Y-7953526D02*
G75*
G02*
X20056379Y-7953526I-47500J0D01*
G01*
X20056379Y-7953526D02*
G75*
G02*
X20151379Y-7953526I47500J0D01*
G01*
X20151379Y-8203526D02*
G75*
G02*
X20056379Y-8203526I-47500J0D01*
G01*
X20056379Y-8203526D02*
G75*
G02*
X20151379Y-8203526I47500J0D01*
G01*
X21019747Y-7198444D02*
G75*
G02*
X20924747Y-7198444I-47500J0D01*
G01*
X20924747Y-7198444D02*
G75*
G02*
X21019747Y-7198444I47500J0D01*
G01*
X21019747Y-7448444D02*
G75*
G02*
X20924747Y-7448444I-47500J0D01*
G01*
X20924747Y-7448444D02*
G75*
G02*
X21019747Y-7448444I47500J0D01*
G01*
X21019747Y-7698444D02*
G75*
G02*
X20924747Y-7698444I-47500J0D01*
G01*
X20924747Y-7698444D02*
G75*
G02*
X21019747Y-7698444I47500J0D01*
G01*
X21019747Y-7948444D02*
G75*
G02*
X20924747Y-7948444I-47500J0D01*
G01*
X20924747Y-7948444D02*
G75*
G02*
X21019747Y-7948444I47500J0D01*
G01*
X17977322Y-8642944D02*
X17977322Y-8742944D01*
X17927322Y-8692944D02*
X18027322Y-8692944D01*
X18231322Y-8642944D02*
X18231322Y-8742944D01*
X18181322Y-8692944D02*
X18281322Y-8692944D01*
X18485322Y-8642944D02*
X18485322Y-8742944D01*
X18435322Y-8692944D02*
X18535322Y-8692944D01*
X18739322Y-8642944D02*
X18739322Y-8742944D01*
X18689322Y-8692944D02*
X18789322Y-8692944D01*
X19744990Y-9123976D02*
X19744990Y-9223976D01*
X19694990Y-9173976D02*
X19794990Y-9173976D01*
X19744990Y-9377976D02*
X19744990Y-9477976D01*
X19694990Y-9427976D02*
X19794990Y-9427976D01*
X19744990Y-9631976D02*
X19744990Y-9731976D01*
X19694990Y-9681976D02*
X19794990Y-9681976D01*
X19744990Y-9885976D02*
X19744990Y-9985976D01*
X19694990Y-9935976D02*
X19794990Y-9935976D01*
X19744990Y-10139976D02*
X19744990Y-10239976D01*
X19694990Y-10189976D02*
X19794990Y-10189976D01*
X19744990Y-10393976D02*
X19744990Y-10493976D01*
X19694990Y-10443976D02*
X19794990Y-10443976D01*
X19744990Y-10647976D02*
X19744990Y-10747976D01*
X19694990Y-10697976D02*
X19794990Y-10697976D01*
X19744990Y-10901976D02*
X19744990Y-11001976D01*
X19694990Y-10951976D02*
X19794990Y-10951976D01*
X19744990Y-11155976D02*
X19744990Y-11255976D01*
X19694990Y-11205976D02*
X19794990Y-11205976D01*
X19998990Y-8996976D02*
X19998990Y-9096976D01*
X19948990Y-9046976D02*
X20048990Y-9046976D01*
X20252990Y-8996976D02*
X20252990Y-9096976D01*
X20202990Y-9046976D02*
X20302990Y-9046976D01*
X20506990Y-8996976D02*
X20506990Y-9096976D01*
X20456990Y-9046976D02*
X20556990Y-9046976D01*
X20760990Y-8996976D02*
X20760990Y-9096976D01*
X20710990Y-9046976D02*
X20810990Y-9046976D01*
X21014990Y-8996976D02*
X21014990Y-9096976D01*
X20964990Y-9046976D02*
X21064990Y-9046976D01*
X21268990Y-9123976D02*
X21268990Y-9223976D01*
X21218990Y-9173976D02*
X21318990Y-9173976D01*
X21268990Y-9377976D02*
X21268990Y-9477976D01*
X21218990Y-9427976D02*
X21318990Y-9427976D01*
X21268990Y-9631976D02*
X21268990Y-9731976D01*
X21218990Y-9681976D02*
X21318990Y-9681976D01*
X21268990Y-9885976D02*
X21268990Y-9985976D01*
X21218990Y-9935976D02*
X21318990Y-9935976D01*
X21268990Y-10139976D02*
X21268990Y-10239976D01*
X21218990Y-10189976D02*
X21318990Y-10189976D01*
X21268990Y-10393976D02*
X21268990Y-10493976D01*
X21218990Y-10443976D02*
X21318990Y-10443976D01*
X21268990Y-10647976D02*
X21268990Y-10747976D01*
X21218990Y-10697976D02*
X21318990Y-10697976D01*
X21268990Y-10901976D02*
X21268990Y-11001976D01*
X21218990Y-10951976D02*
X21318990Y-10951976D01*
X21268990Y-11155976D02*
X21268990Y-11255976D01*
X21218990Y-11205976D02*
X21318990Y-11205976D01*
X22356919Y-8642944D02*
X22356919Y-8742944D01*
X22306919Y-8692944D02*
X22406919Y-8692944D01*
X22610919Y-8642944D02*
X22610919Y-8742944D01*
X22560919Y-8692944D02*
X22660919Y-8692944D01*
X22864919Y-8642944D02*
X22864919Y-8742944D01*
X22814919Y-8692944D02*
X22914919Y-8692944D01*
X23118919Y-8642944D02*
X23118919Y-8742944D01*
X23068919Y-8692944D02*
X23168919Y-8692944D01*
D13*
X16745962Y-8737556D02*
X16745962Y-8645632D01*
X16654038Y-8645632D01*
X16654038Y-8737556D01*
X16745962Y-8737556D01*
X16745962Y-9245556D02*
X16745962Y-9153632D01*
X16654038Y-9153632D01*
X16654038Y-9245556D01*
X16745962Y-9245556D01*
X16745962Y-9753556D02*
X16745962Y-9661632D01*
X16654038Y-9661632D01*
X16654038Y-9753556D01*
X16745962Y-9753556D01*
X16745962Y-10261556D02*
X16745962Y-10169632D01*
X16654038Y-10169632D01*
X16654038Y-10261556D01*
X16745962Y-10261556D01*
X24056811Y-8737556D02*
X24056811Y-8645632D01*
X23964886Y-8645632D01*
X23964886Y-8737556D01*
X24056811Y-8737556D01*
X24056811Y-9245556D02*
X24056811Y-9153632D01*
X23964886Y-9153632D01*
X23964886Y-9245556D01*
X24056811Y-9245556D01*
X24056811Y-9753556D02*
X24056811Y-9661632D01*
X23964886Y-9661632D01*
X23964886Y-9753556D01*
X24056811Y-9753556D01*
X24056811Y-10261556D02*
X24056811Y-10169632D01*
X23964886Y-10169632D01*
X23964886Y-10261556D01*
X24056811Y-10261556D01*
D14*
X16450000Y-7225000D02*
X16575000Y-7100000D01*
X16450000Y-6975000D01*
X16325000Y-7100000D01*
X16450000Y-7225000D01*
X16450000Y-11975000D02*
X16575000Y-11850000D01*
X16450000Y-11725000D01*
X16325000Y-11850000D01*
X16450000Y-11975000D01*
X24400000Y-7225000D02*
X24525000Y-7100000D01*
X24400000Y-6975000D01*
X24275000Y-7100000D01*
X24400000Y-7225000D01*
X24400000Y-11975000D02*
X24525000Y-11850000D01*
X24400000Y-11725000D01*
X24275000Y-11850000D01*
X24400000Y-11975000D01*
D11*
X16353277Y-12518984D02*
X16353277Y-12318984D01*
X16353277Y-12318984D02*
X16400896Y-12318984D01*
X16400896Y-12318984D02*
X16429467Y-12328508D01*
X16429467Y-12328508D02*
X16448515Y-12347555D01*
X16448515Y-12347555D02*
X16458039Y-12366603D01*
X16458039Y-12366603D02*
X16467562Y-12404698D01*
X16467562Y-12404698D02*
X16467562Y-12433269D01*
X16467562Y-12433269D02*
X16458039Y-12471365D01*
X16458039Y-12471365D02*
X16448515Y-12490412D01*
X16448515Y-12490412D02*
X16429467Y-12509460D01*
X16429467Y-12509460D02*
X16400896Y-12518984D01*
X16400896Y-12518984D02*
X16353277Y-12518984D01*
X16553277Y-12518984D02*
X16553277Y-12385650D01*
X16553277Y-12423746D02*
X16562801Y-12404698D01*
X16562801Y-12404698D02*
X16572324Y-12395174D01*
X16572324Y-12395174D02*
X16591372Y-12385650D01*
X16591372Y-12385650D02*
X16610420Y-12385650D01*
X16677086Y-12518984D02*
X16677086Y-12385650D01*
X16677086Y-12318984D02*
X16667562Y-12328508D01*
X16667562Y-12328508D02*
X16677086Y-12338031D01*
X16677086Y-12338031D02*
X16686610Y-12328508D01*
X16686610Y-12328508D02*
X16677086Y-12318984D01*
X16677086Y-12318984D02*
X16677086Y-12338031D01*
X16800896Y-12518984D02*
X16781848Y-12509460D01*
X16781848Y-12509460D02*
X16772324Y-12490412D01*
X16772324Y-12490412D02*
X16772324Y-12318984D01*
X16905658Y-12518984D02*
X16886610Y-12509460D01*
X16886610Y-12509460D02*
X16877086Y-12490412D01*
X16877086Y-12490412D02*
X16877086Y-12318984D01*
X17134229Y-12518984D02*
X17134229Y-12318984D01*
X17134229Y-12318984D02*
X17200896Y-12461841D01*
X17200896Y-12461841D02*
X17267563Y-12318984D01*
X17267563Y-12318984D02*
X17267563Y-12518984D01*
X17448515Y-12518984D02*
X17448515Y-12414222D01*
X17448515Y-12414222D02*
X17438991Y-12395174D01*
X17438991Y-12395174D02*
X17419944Y-12385650D01*
X17419944Y-12385650D02*
X17381848Y-12385650D01*
X17381848Y-12385650D02*
X17362801Y-12395174D01*
X17448515Y-12509460D02*
X17429467Y-12518984D01*
X17429467Y-12518984D02*
X17381848Y-12518984D01*
X17381848Y-12518984D02*
X17362801Y-12509460D01*
X17362801Y-12509460D02*
X17353277Y-12490412D01*
X17353277Y-12490412D02*
X17353277Y-12471365D01*
X17353277Y-12471365D02*
X17362801Y-12452317D01*
X17362801Y-12452317D02*
X17381848Y-12442793D01*
X17381848Y-12442793D02*
X17429467Y-12442793D01*
X17429467Y-12442793D02*
X17448515Y-12433269D01*
X17543753Y-12385650D02*
X17543753Y-12585650D01*
X17543753Y-12395174D02*
X17562801Y-12385650D01*
X17562801Y-12385650D02*
X17600896Y-12385650D01*
X17600896Y-12385650D02*
X17619944Y-12395174D01*
X17619944Y-12395174D02*
X17629467Y-12404698D01*
X17629467Y-12404698D02*
X17638991Y-12423746D01*
X17638991Y-12423746D02*
X17638991Y-12480888D01*
X17638991Y-12480888D02*
X17629467Y-12499936D01*
X17629467Y-12499936D02*
X17619944Y-12509460D01*
X17619944Y-12509460D02*
X17600896Y-12518984D01*
X17600896Y-12518984D02*
X17562801Y-12518984D01*
X17562801Y-12518984D02*
X17543753Y-12509460D01*
X17724705Y-12499936D02*
X17734229Y-12509460D01*
X17734229Y-12509460D02*
X17724705Y-12518984D01*
X17724705Y-12518984D02*
X17715182Y-12509460D01*
X17715182Y-12509460D02*
X17724705Y-12499936D01*
X17724705Y-12499936D02*
X17724705Y-12518984D01*
X17724705Y-12395174D02*
X17734229Y-12404698D01*
X17734229Y-12404698D02*
X17724705Y-12414222D01*
X17724705Y-12414222D02*
X17715182Y-12404698D01*
X17715182Y-12404698D02*
X17724705Y-12395174D01*
X17724705Y-12395174D02*
X17724705Y-12414222D01*
D12*
X16052500Y-12827500D02*
X16092500Y-12867500D01*
X16092500Y-12827500D02*
X16052500Y-12867500D01*
D11*
X16391372Y-12738984D02*
X16410420Y-12738984D01*
X16410420Y-12738984D02*
X16429467Y-12748508D01*
X16429467Y-12748508D02*
X16438991Y-12758031D01*
X16438991Y-12758031D02*
X16448515Y-12777079D01*
X16448515Y-12777079D02*
X16458039Y-12815174D01*
X16458039Y-12815174D02*
X16458039Y-12862793D01*
X16458039Y-12862793D02*
X16448515Y-12900888D01*
X16448515Y-12900888D02*
X16438991Y-12919936D01*
X16438991Y-12919936D02*
X16429467Y-12929460D01*
X16429467Y-12929460D02*
X16410420Y-12938984D01*
X16410420Y-12938984D02*
X16391372Y-12938984D01*
X16391372Y-12938984D02*
X16372324Y-12929460D01*
X16372324Y-12929460D02*
X16362801Y-12919936D01*
X16362801Y-12919936D02*
X16353277Y-12900888D01*
X16353277Y-12900888D02*
X16343753Y-12862793D01*
X16343753Y-12862793D02*
X16343753Y-12815174D01*
X16343753Y-12815174D02*
X16353277Y-12777079D01*
X16353277Y-12777079D02*
X16362801Y-12758031D01*
X16362801Y-12758031D02*
X16372324Y-12748508D01*
X16372324Y-12748508D02*
X16391372Y-12738984D01*
X16543753Y-12919936D02*
X16553277Y-12929460D01*
X16553277Y-12929460D02*
X16543753Y-12938984D01*
X16543753Y-12938984D02*
X16534229Y-12929460D01*
X16534229Y-12929460D02*
X16543753Y-12919936D01*
X16543753Y-12919936D02*
X16543753Y-12938984D01*
X16724705Y-12805650D02*
X16724705Y-12938984D01*
X16677086Y-12729460D02*
X16629467Y-12872317D01*
X16629467Y-12872317D02*
X16753277Y-12872317D01*
X16867563Y-12738984D02*
X16886610Y-12738984D01*
X16886610Y-12738984D02*
X16905658Y-12748508D01*
X16905658Y-12748508D02*
X16915182Y-12758031D01*
X16915182Y-12758031D02*
X16924705Y-12777079D01*
X16924705Y-12777079D02*
X16934229Y-12815174D01*
X16934229Y-12815174D02*
X16934229Y-12862793D01*
X16934229Y-12862793D02*
X16924705Y-12900888D01*
X16924705Y-12900888D02*
X16915182Y-12919936D01*
X16915182Y-12919936D02*
X16905658Y-12929460D01*
X16905658Y-12929460D02*
X16886610Y-12938984D01*
X16886610Y-12938984D02*
X16867563Y-12938984D01*
X16867563Y-12938984D02*
X16848515Y-12929460D01*
X16848515Y-12929460D02*
X16838991Y-12919936D01*
X16838991Y-12919936D02*
X16829467Y-12900888D01*
X16829467Y-12900888D02*
X16819944Y-12862793D01*
X16819944Y-12862793D02*
X16819944Y-12815174D01*
X16819944Y-12815174D02*
X16829467Y-12777079D01*
X16829467Y-12777079D02*
X16838991Y-12758031D01*
X16838991Y-12758031D02*
X16848515Y-12748508D01*
X16848515Y-12748508D02*
X16867563Y-12738984D01*
X17058039Y-12738984D02*
X17077086Y-12738984D01*
X17077086Y-12738984D02*
X17096134Y-12748508D01*
X17096134Y-12748508D02*
X17105658Y-12758031D01*
X17105658Y-12758031D02*
X17115182Y-12777079D01*
X17115182Y-12777079D02*
X17124705Y-12815174D01*
X17124705Y-12815174D02*
X17124705Y-12862793D01*
X17124705Y-12862793D02*
X17115182Y-12900888D01*
X17115182Y-12900888D02*
X17105658Y-12919936D01*
X17105658Y-12919936D02*
X17096134Y-12929460D01*
X17096134Y-12929460D02*
X17077086Y-12938984D01*
X17077086Y-12938984D02*
X17058039Y-12938984D01*
X17058039Y-12938984D02*
X17038991Y-12929460D01*
X17038991Y-12929460D02*
X17029467Y-12919936D01*
X17029467Y-12919936D02*
X17019944Y-12900888D01*
X17019944Y-12900888D02*
X17010420Y-12862793D01*
X17010420Y-12862793D02*
X17010420Y-12815174D01*
X17010420Y-12815174D02*
X17019944Y-12777079D01*
X17019944Y-12777079D02*
X17029467Y-12758031D01*
X17029467Y-12758031D02*
X17038991Y-12748508D01*
X17038991Y-12748508D02*
X17058039Y-12738984D01*
X17210420Y-12938984D02*
X17210420Y-12805650D01*
X17210420Y-12824698D02*
X17219944Y-12815174D01*
X17219944Y-12815174D02*
X17238991Y-12805650D01*
X17238991Y-12805650D02*
X17267563Y-12805650D01*
X17267563Y-12805650D02*
X17286610Y-12815174D01*
X17286610Y-12815174D02*
X17296134Y-12834222D01*
X17296134Y-12834222D02*
X17296134Y-12938984D01*
X17296134Y-12834222D02*
X17305658Y-12815174D01*
X17305658Y-12815174D02*
X17324705Y-12805650D01*
X17324705Y-12805650D02*
X17353277Y-12805650D01*
X17353277Y-12805650D02*
X17372325Y-12815174D01*
X17372325Y-12815174D02*
X17381848Y-12834222D01*
X17381848Y-12834222D02*
X17381848Y-12938984D01*
X17477086Y-12938984D02*
X17477086Y-12805650D01*
X17477086Y-12824698D02*
X17486610Y-12815174D01*
X17486610Y-12815174D02*
X17505658Y-12805650D01*
X17505658Y-12805650D02*
X17534229Y-12805650D01*
X17534229Y-12805650D02*
X17553277Y-12815174D01*
X17553277Y-12815174D02*
X17562801Y-12834222D01*
X17562801Y-12834222D02*
X17562801Y-12938984D01*
X17562801Y-12834222D02*
X17572325Y-12815174D01*
X17572325Y-12815174D02*
X17591372Y-12805650D01*
X17591372Y-12805650D02*
X17619944Y-12805650D01*
X17619944Y-12805650D02*
X17638991Y-12815174D01*
X17638991Y-12815174D02*
X17648515Y-12834222D01*
X17648515Y-12834222D02*
X17648515Y-12938984D01*
X18038991Y-12729460D02*
X17867563Y-12986603D01*
X18296134Y-12738984D02*
X18315182Y-12738984D01*
X18315182Y-12738984D02*
X18334229Y-12748508D01*
X18334229Y-12748508D02*
X18343753Y-12758031D01*
X18343753Y-12758031D02*
X18353277Y-12777079D01*
X18353277Y-12777079D02*
X18362801Y-12815174D01*
X18362801Y-12815174D02*
X18362801Y-12862793D01*
X18362801Y-12862793D02*
X18353277Y-12900888D01*
X18353277Y-12900888D02*
X18343753Y-12919936D01*
X18343753Y-12919936D02*
X18334229Y-12929460D01*
X18334229Y-12929460D02*
X18315182Y-12938984D01*
X18315182Y-12938984D02*
X18296134Y-12938984D01*
X18296134Y-12938984D02*
X18277087Y-12929460D01*
X18277087Y-12929460D02*
X18267563Y-12919936D01*
X18267563Y-12919936D02*
X18258039Y-12900888D01*
X18258039Y-12900888D02*
X18248515Y-12862793D01*
X18248515Y-12862793D02*
X18248515Y-12815174D01*
X18248515Y-12815174D02*
X18258039Y-12777079D01*
X18258039Y-12777079D02*
X18267563Y-12758031D01*
X18267563Y-12758031D02*
X18277087Y-12748508D01*
X18277087Y-12748508D02*
X18296134Y-12738984D01*
X18448515Y-12919936D02*
X18458039Y-12929460D01*
X18458039Y-12929460D02*
X18448515Y-12938984D01*
X18448515Y-12938984D02*
X18438991Y-12929460D01*
X18438991Y-12929460D02*
X18448515Y-12919936D01*
X18448515Y-12919936D02*
X18448515Y-12938984D01*
X18581848Y-12738984D02*
X18600896Y-12738984D01*
X18600896Y-12738984D02*
X18619944Y-12748508D01*
X18619944Y-12748508D02*
X18629468Y-12758031D01*
X18629468Y-12758031D02*
X18638991Y-12777079D01*
X18638991Y-12777079D02*
X18648515Y-12815174D01*
X18648515Y-12815174D02*
X18648515Y-12862793D01*
X18648515Y-12862793D02*
X18638991Y-12900888D01*
X18638991Y-12900888D02*
X18629468Y-12919936D01*
X18629468Y-12919936D02*
X18619944Y-12929460D01*
X18619944Y-12929460D02*
X18600896Y-12938984D01*
X18600896Y-12938984D02*
X18581848Y-12938984D01*
X18581848Y-12938984D02*
X18562801Y-12929460D01*
X18562801Y-12929460D02*
X18553277Y-12919936D01*
X18553277Y-12919936D02*
X18543753Y-12900888D01*
X18543753Y-12900888D02*
X18534229Y-12862793D01*
X18534229Y-12862793D02*
X18534229Y-12815174D01*
X18534229Y-12815174D02*
X18543753Y-12777079D01*
X18543753Y-12777079D02*
X18553277Y-12758031D01*
X18553277Y-12758031D02*
X18562801Y-12748508D01*
X18562801Y-12748508D02*
X18581848Y-12738984D01*
X18838991Y-12938984D02*
X18724706Y-12938984D01*
X18781848Y-12938984D02*
X18781848Y-12738984D01*
X18781848Y-12738984D02*
X18762801Y-12767555D01*
X18762801Y-12767555D02*
X18743753Y-12786603D01*
X18743753Y-12786603D02*
X18724706Y-12796127D01*
X19019944Y-12738984D02*
X18924706Y-12738984D01*
X18924706Y-12738984D02*
X18915182Y-12834222D01*
X18915182Y-12834222D02*
X18924706Y-12824698D01*
X18924706Y-12824698D02*
X18943753Y-12815174D01*
X18943753Y-12815174D02*
X18991372Y-12815174D01*
X18991372Y-12815174D02*
X19010420Y-12824698D01*
X19010420Y-12824698D02*
X19019944Y-12834222D01*
X19019944Y-12834222D02*
X19029468Y-12853269D01*
X19029468Y-12853269D02*
X19029468Y-12900888D01*
X19029468Y-12900888D02*
X19019944Y-12919936D01*
X19019944Y-12919936D02*
X19010420Y-12929460D01*
X19010420Y-12929460D02*
X18991372Y-12938984D01*
X18991372Y-12938984D02*
X18943753Y-12938984D01*
X18943753Y-12938984D02*
X18924706Y-12929460D01*
X18924706Y-12929460D02*
X18915182Y-12919936D01*
X19096134Y-12738984D02*
X19229468Y-12738984D01*
X19229468Y-12738984D02*
X19143753Y-12938984D01*
X19296134Y-12738984D02*
X19296134Y-12777079D01*
X19372325Y-12738984D02*
X19372325Y-12777079D01*
X19667563Y-13015174D02*
X19658039Y-13005650D01*
X19658039Y-13005650D02*
X19638991Y-12977079D01*
X19638991Y-12977079D02*
X19629468Y-12958031D01*
X19629468Y-12958031D02*
X19619944Y-12929460D01*
X19619944Y-12929460D02*
X19610420Y-12881841D01*
X19610420Y-12881841D02*
X19610420Y-12843746D01*
X19610420Y-12843746D02*
X19619944Y-12796127D01*
X19619944Y-12796127D02*
X19629468Y-12767555D01*
X19629468Y-12767555D02*
X19638991Y-12748508D01*
X19638991Y-12748508D02*
X19658039Y-12719936D01*
X19658039Y-12719936D02*
X19667563Y-12710412D01*
X19848515Y-12938984D02*
X19734230Y-12938984D01*
X19791372Y-12938984D02*
X19791372Y-12738984D01*
X19791372Y-12738984D02*
X19772325Y-12767555D01*
X19772325Y-12767555D02*
X19753277Y-12786603D01*
X19753277Y-12786603D02*
X19734230Y-12796127D01*
X20019944Y-12805650D02*
X20019944Y-12938984D01*
X19972325Y-12729460D02*
X19924706Y-12872317D01*
X19924706Y-12872317D02*
X20048515Y-12872317D01*
X20210420Y-12738984D02*
X20172325Y-12738984D01*
X20172325Y-12738984D02*
X20153277Y-12748508D01*
X20153277Y-12748508D02*
X20143753Y-12758031D01*
X20143753Y-12758031D02*
X20124706Y-12786603D01*
X20124706Y-12786603D02*
X20115182Y-12824698D01*
X20115182Y-12824698D02*
X20115182Y-12900888D01*
X20115182Y-12900888D02*
X20124706Y-12919936D01*
X20124706Y-12919936D02*
X20134230Y-12929460D01*
X20134230Y-12929460D02*
X20153277Y-12938984D01*
X20153277Y-12938984D02*
X20191372Y-12938984D01*
X20191372Y-12938984D02*
X20210420Y-12929460D01*
X20210420Y-12929460D02*
X20219944Y-12919936D01*
X20219944Y-12919936D02*
X20229468Y-12900888D01*
X20229468Y-12900888D02*
X20229468Y-12853269D01*
X20229468Y-12853269D02*
X20219944Y-12834222D01*
X20219944Y-12834222D02*
X20210420Y-12824698D01*
X20210420Y-12824698D02*
X20191372Y-12815174D01*
X20191372Y-12815174D02*
X20153277Y-12815174D01*
X20153277Y-12815174D02*
X20134230Y-12824698D01*
X20134230Y-12824698D02*
X20124706Y-12834222D01*
X20124706Y-12834222D02*
X20115182Y-12853269D01*
X20467563Y-12938984D02*
X20467563Y-12738984D01*
X20553277Y-12938984D02*
X20553277Y-12834222D01*
X20553277Y-12834222D02*
X20543753Y-12815174D01*
X20543753Y-12815174D02*
X20524706Y-12805650D01*
X20524706Y-12805650D02*
X20496134Y-12805650D01*
X20496134Y-12805650D02*
X20477087Y-12815174D01*
X20477087Y-12815174D02*
X20467563Y-12824698D01*
X20677087Y-12938984D02*
X20658039Y-12929460D01*
X20658039Y-12929460D02*
X20648515Y-12919936D01*
X20648515Y-12919936D02*
X20638992Y-12900888D01*
X20638992Y-12900888D02*
X20638992Y-12843746D01*
X20638992Y-12843746D02*
X20648515Y-12824698D01*
X20648515Y-12824698D02*
X20658039Y-12815174D01*
X20658039Y-12815174D02*
X20677087Y-12805650D01*
X20677087Y-12805650D02*
X20705658Y-12805650D01*
X20705658Y-12805650D02*
X20724706Y-12815174D01*
X20724706Y-12815174D02*
X20734230Y-12824698D01*
X20734230Y-12824698D02*
X20743753Y-12843746D01*
X20743753Y-12843746D02*
X20743753Y-12900888D01*
X20743753Y-12900888D02*
X20734230Y-12919936D01*
X20734230Y-12919936D02*
X20724706Y-12929460D01*
X20724706Y-12929460D02*
X20705658Y-12938984D01*
X20705658Y-12938984D02*
X20677087Y-12938984D01*
X20858039Y-12938984D02*
X20838992Y-12929460D01*
X20838992Y-12929460D02*
X20829468Y-12910412D01*
X20829468Y-12910412D02*
X20829468Y-12738984D01*
X21010420Y-12929460D02*
X20991373Y-12938984D01*
X20991373Y-12938984D02*
X20953277Y-12938984D01*
X20953277Y-12938984D02*
X20934230Y-12929460D01*
X20934230Y-12929460D02*
X20924706Y-12910412D01*
X20924706Y-12910412D02*
X20924706Y-12834222D01*
X20924706Y-12834222D02*
X20934230Y-12815174D01*
X20934230Y-12815174D02*
X20953277Y-12805650D01*
X20953277Y-12805650D02*
X20991373Y-12805650D01*
X20991373Y-12805650D02*
X21010420Y-12815174D01*
X21010420Y-12815174D02*
X21019944Y-12834222D01*
X21019944Y-12834222D02*
X21019944Y-12853269D01*
X21019944Y-12853269D02*
X20924706Y-12872317D01*
X21096134Y-12929460D02*
X21115182Y-12938984D01*
X21115182Y-12938984D02*
X21153277Y-12938984D01*
X21153277Y-12938984D02*
X21172325Y-12929460D01*
X21172325Y-12929460D02*
X21181849Y-12910412D01*
X21181849Y-12910412D02*
X21181849Y-12900888D01*
X21181849Y-12900888D02*
X21172325Y-12881841D01*
X21172325Y-12881841D02*
X21153277Y-12872317D01*
X21153277Y-12872317D02*
X21124706Y-12872317D01*
X21124706Y-12872317D02*
X21105658Y-12862793D01*
X21105658Y-12862793D02*
X21096134Y-12843746D01*
X21096134Y-12843746D02*
X21096134Y-12834222D01*
X21096134Y-12834222D02*
X21105658Y-12815174D01*
X21105658Y-12815174D02*
X21124706Y-12805650D01*
X21124706Y-12805650D02*
X21153277Y-12805650D01*
X21153277Y-12805650D02*
X21172325Y-12815174D01*
X21248515Y-13015174D02*
X21258039Y-13005650D01*
X21258039Y-13005650D02*
X21277087Y-12977079D01*
X21277087Y-12977079D02*
X21286611Y-12958031D01*
X21286611Y-12958031D02*
X21296134Y-12929460D01*
X21296134Y-12929460D02*
X21305658Y-12881841D01*
X21305658Y-12881841D02*
X21305658Y-12843746D01*
X21305658Y-12843746D02*
X21296134Y-12796127D01*
X21296134Y-12796127D02*
X21286611Y-12767555D01*
X21286611Y-12767555D02*
X21277087Y-12748508D01*
X21277087Y-12748508D02*
X21258039Y-12719936D01*
X21258039Y-12719936D02*
X21248515Y-12710412D01*
D12*
X16092500Y-13111500D02*
G75*
G02*
X15997500Y-13111500I-47500J0D01*
G01*
X15997500Y-13111500D02*
G75*
G02*
X16092500Y-13111500I47500J0D01*
G01*
D11*
X16391372Y-13002984D02*
X16410420Y-13002984D01*
X16410420Y-13002984D02*
X16429467Y-13012508D01*
X16429467Y-13012508D02*
X16438991Y-13022031D01*
X16438991Y-13022031D02*
X16448515Y-13041079D01*
X16448515Y-13041079D02*
X16458039Y-13079174D01*
X16458039Y-13079174D02*
X16458039Y-13126793D01*
X16458039Y-13126793D02*
X16448515Y-13164888D01*
X16448515Y-13164888D02*
X16438991Y-13183936D01*
X16438991Y-13183936D02*
X16429467Y-13193460D01*
X16429467Y-13193460D02*
X16410420Y-13202984D01*
X16410420Y-13202984D02*
X16391372Y-13202984D01*
X16391372Y-13202984D02*
X16372324Y-13193460D01*
X16372324Y-13193460D02*
X16362801Y-13183936D01*
X16362801Y-13183936D02*
X16353277Y-13164888D01*
X16353277Y-13164888D02*
X16343753Y-13126793D01*
X16343753Y-13126793D02*
X16343753Y-13079174D01*
X16343753Y-13079174D02*
X16353277Y-13041079D01*
X16353277Y-13041079D02*
X16362801Y-13022031D01*
X16362801Y-13022031D02*
X16372324Y-13012508D01*
X16372324Y-13012508D02*
X16391372Y-13002984D01*
X16543753Y-13183936D02*
X16553277Y-13193460D01*
X16553277Y-13193460D02*
X16543753Y-13202984D01*
X16543753Y-13202984D02*
X16534229Y-13193460D01*
X16534229Y-13193460D02*
X16543753Y-13183936D01*
X16543753Y-13183936D02*
X16543753Y-13202984D01*
X16648515Y-13202984D02*
X16686610Y-13202984D01*
X16686610Y-13202984D02*
X16705658Y-13193460D01*
X16705658Y-13193460D02*
X16715182Y-13183936D01*
X16715182Y-13183936D02*
X16734229Y-13155365D01*
X16734229Y-13155365D02*
X16743753Y-13117269D01*
X16743753Y-13117269D02*
X16743753Y-13041079D01*
X16743753Y-13041079D02*
X16734229Y-13022031D01*
X16734229Y-13022031D02*
X16724705Y-13012508D01*
X16724705Y-13012508D02*
X16705658Y-13002984D01*
X16705658Y-13002984D02*
X16667562Y-13002984D01*
X16667562Y-13002984D02*
X16648515Y-13012508D01*
X16648515Y-13012508D02*
X16638991Y-13022031D01*
X16638991Y-13022031D02*
X16629467Y-13041079D01*
X16629467Y-13041079D02*
X16629467Y-13088698D01*
X16629467Y-13088698D02*
X16638991Y-13107746D01*
X16638991Y-13107746D02*
X16648515Y-13117269D01*
X16648515Y-13117269D02*
X16667562Y-13126793D01*
X16667562Y-13126793D02*
X16705658Y-13126793D01*
X16705658Y-13126793D02*
X16724705Y-13117269D01*
X16724705Y-13117269D02*
X16734229Y-13107746D01*
X16734229Y-13107746D02*
X16743753Y-13088698D01*
X16924705Y-13002984D02*
X16829467Y-13002984D01*
X16829467Y-13002984D02*
X16819944Y-13098222D01*
X16819944Y-13098222D02*
X16829467Y-13088698D01*
X16829467Y-13088698D02*
X16848515Y-13079174D01*
X16848515Y-13079174D02*
X16896134Y-13079174D01*
X16896134Y-13079174D02*
X16915182Y-13088698D01*
X16915182Y-13088698D02*
X16924705Y-13098222D01*
X16924705Y-13098222D02*
X16934229Y-13117269D01*
X16934229Y-13117269D02*
X16934229Y-13164888D01*
X16934229Y-13164888D02*
X16924705Y-13183936D01*
X16924705Y-13183936D02*
X16915182Y-13193460D01*
X16915182Y-13193460D02*
X16896134Y-13202984D01*
X16896134Y-13202984D02*
X16848515Y-13202984D01*
X16848515Y-13202984D02*
X16829467Y-13193460D01*
X16829467Y-13193460D02*
X16819944Y-13183936D01*
X17058039Y-13002984D02*
X17077086Y-13002984D01*
X17077086Y-13002984D02*
X17096134Y-13012508D01*
X17096134Y-13012508D02*
X17105658Y-13022031D01*
X17105658Y-13022031D02*
X17115182Y-13041079D01*
X17115182Y-13041079D02*
X17124705Y-13079174D01*
X17124705Y-13079174D02*
X17124705Y-13126793D01*
X17124705Y-13126793D02*
X17115182Y-13164888D01*
X17115182Y-13164888D02*
X17105658Y-13183936D01*
X17105658Y-13183936D02*
X17096134Y-13193460D01*
X17096134Y-13193460D02*
X17077086Y-13202984D01*
X17077086Y-13202984D02*
X17058039Y-13202984D01*
X17058039Y-13202984D02*
X17038991Y-13193460D01*
X17038991Y-13193460D02*
X17029467Y-13183936D01*
X17029467Y-13183936D02*
X17019944Y-13164888D01*
X17019944Y-13164888D02*
X17010420Y-13126793D01*
X17010420Y-13126793D02*
X17010420Y-13079174D01*
X17010420Y-13079174D02*
X17019944Y-13041079D01*
X17019944Y-13041079D02*
X17029467Y-13022031D01*
X17029467Y-13022031D02*
X17038991Y-13012508D01*
X17038991Y-13012508D02*
X17058039Y-13002984D01*
X17210420Y-13202984D02*
X17210420Y-13069650D01*
X17210420Y-13088698D02*
X17219944Y-13079174D01*
X17219944Y-13079174D02*
X17238991Y-13069650D01*
X17238991Y-13069650D02*
X17267563Y-13069650D01*
X17267563Y-13069650D02*
X17286610Y-13079174D01*
X17286610Y-13079174D02*
X17296134Y-13098222D01*
X17296134Y-13098222D02*
X17296134Y-13202984D01*
X17296134Y-13098222D02*
X17305658Y-13079174D01*
X17305658Y-13079174D02*
X17324705Y-13069650D01*
X17324705Y-13069650D02*
X17353277Y-13069650D01*
X17353277Y-13069650D02*
X17372325Y-13079174D01*
X17372325Y-13079174D02*
X17381848Y-13098222D01*
X17381848Y-13098222D02*
X17381848Y-13202984D01*
X17477086Y-13202984D02*
X17477086Y-13069650D01*
X17477086Y-13088698D02*
X17486610Y-13079174D01*
X17486610Y-13079174D02*
X17505658Y-13069650D01*
X17505658Y-13069650D02*
X17534229Y-13069650D01*
X17534229Y-13069650D02*
X17553277Y-13079174D01*
X17553277Y-13079174D02*
X17562801Y-13098222D01*
X17562801Y-13098222D02*
X17562801Y-13202984D01*
X17562801Y-13098222D02*
X17572325Y-13079174D01*
X17572325Y-13079174D02*
X17591372Y-13069650D01*
X17591372Y-13069650D02*
X17619944Y-13069650D01*
X17619944Y-13069650D02*
X17638991Y-13079174D01*
X17638991Y-13079174D02*
X17648515Y-13098222D01*
X17648515Y-13098222D02*
X17648515Y-13202984D01*
X18038991Y-12993460D02*
X17867563Y-13250603D01*
X18296134Y-13002984D02*
X18315182Y-13002984D01*
X18315182Y-13002984D02*
X18334229Y-13012508D01*
X18334229Y-13012508D02*
X18343753Y-13022031D01*
X18343753Y-13022031D02*
X18353277Y-13041079D01*
X18353277Y-13041079D02*
X18362801Y-13079174D01*
X18362801Y-13079174D02*
X18362801Y-13126793D01*
X18362801Y-13126793D02*
X18353277Y-13164888D01*
X18353277Y-13164888D02*
X18343753Y-13183936D01*
X18343753Y-13183936D02*
X18334229Y-13193460D01*
X18334229Y-13193460D02*
X18315182Y-13202984D01*
X18315182Y-13202984D02*
X18296134Y-13202984D01*
X18296134Y-13202984D02*
X18277087Y-13193460D01*
X18277087Y-13193460D02*
X18267563Y-13183936D01*
X18267563Y-13183936D02*
X18258039Y-13164888D01*
X18258039Y-13164888D02*
X18248515Y-13126793D01*
X18248515Y-13126793D02*
X18248515Y-13079174D01*
X18248515Y-13079174D02*
X18258039Y-13041079D01*
X18258039Y-13041079D02*
X18267563Y-13022031D01*
X18267563Y-13022031D02*
X18277087Y-13012508D01*
X18277087Y-13012508D02*
X18296134Y-13002984D01*
X18448515Y-13183936D02*
X18458039Y-13193460D01*
X18458039Y-13193460D02*
X18448515Y-13202984D01*
X18448515Y-13202984D02*
X18438991Y-13193460D01*
X18438991Y-13193460D02*
X18448515Y-13183936D01*
X18448515Y-13183936D02*
X18448515Y-13202984D01*
X18581848Y-13002984D02*
X18600896Y-13002984D01*
X18600896Y-13002984D02*
X18619944Y-13012508D01*
X18619944Y-13012508D02*
X18629468Y-13022031D01*
X18629468Y-13022031D02*
X18638991Y-13041079D01*
X18638991Y-13041079D02*
X18648515Y-13079174D01*
X18648515Y-13079174D02*
X18648515Y-13126793D01*
X18648515Y-13126793D02*
X18638991Y-13164888D01*
X18638991Y-13164888D02*
X18629468Y-13183936D01*
X18629468Y-13183936D02*
X18619944Y-13193460D01*
X18619944Y-13193460D02*
X18600896Y-13202984D01*
X18600896Y-13202984D02*
X18581848Y-13202984D01*
X18581848Y-13202984D02*
X18562801Y-13193460D01*
X18562801Y-13193460D02*
X18553277Y-13183936D01*
X18553277Y-13183936D02*
X18543753Y-13164888D01*
X18543753Y-13164888D02*
X18534229Y-13126793D01*
X18534229Y-13126793D02*
X18534229Y-13079174D01*
X18534229Y-13079174D02*
X18543753Y-13041079D01*
X18543753Y-13041079D02*
X18553277Y-13022031D01*
X18553277Y-13022031D02*
X18562801Y-13012508D01*
X18562801Y-13012508D02*
X18581848Y-13002984D01*
X18715182Y-13002984D02*
X18838991Y-13002984D01*
X18838991Y-13002984D02*
X18772325Y-13079174D01*
X18772325Y-13079174D02*
X18800896Y-13079174D01*
X18800896Y-13079174D02*
X18819944Y-13088698D01*
X18819944Y-13088698D02*
X18829468Y-13098222D01*
X18829468Y-13098222D02*
X18838991Y-13117269D01*
X18838991Y-13117269D02*
X18838991Y-13164888D01*
X18838991Y-13164888D02*
X18829468Y-13183936D01*
X18829468Y-13183936D02*
X18819944Y-13193460D01*
X18819944Y-13193460D02*
X18800896Y-13202984D01*
X18800896Y-13202984D02*
X18743753Y-13202984D01*
X18743753Y-13202984D02*
X18724706Y-13193460D01*
X18724706Y-13193460D02*
X18715182Y-13183936D01*
X18905658Y-13002984D02*
X19038991Y-13002984D01*
X19038991Y-13002984D02*
X18953277Y-13202984D01*
X19200896Y-13069650D02*
X19200896Y-13202984D01*
X19153277Y-12993460D02*
X19105658Y-13136317D01*
X19105658Y-13136317D02*
X19229468Y-13136317D01*
X19296134Y-13002984D02*
X19296134Y-13041079D01*
X19372325Y-13002984D02*
X19372325Y-13041079D01*
X19667563Y-13279174D02*
X19658039Y-13269650D01*
X19658039Y-13269650D02*
X19638991Y-13241079D01*
X19638991Y-13241079D02*
X19629468Y-13222031D01*
X19629468Y-13222031D02*
X19619944Y-13193460D01*
X19619944Y-13193460D02*
X19610420Y-13145841D01*
X19610420Y-13145841D02*
X19610420Y-13107746D01*
X19610420Y-13107746D02*
X19619944Y-13060127D01*
X19619944Y-13060127D02*
X19629468Y-13031555D01*
X19629468Y-13031555D02*
X19638991Y-13012508D01*
X19638991Y-13012508D02*
X19658039Y-12983936D01*
X19658039Y-12983936D02*
X19667563Y-12974412D01*
X19753277Y-13202984D02*
X19791372Y-13202984D01*
X19791372Y-13202984D02*
X19810420Y-13193460D01*
X19810420Y-13193460D02*
X19819944Y-13183936D01*
X19819944Y-13183936D02*
X19838991Y-13155365D01*
X19838991Y-13155365D02*
X19848515Y-13117269D01*
X19848515Y-13117269D02*
X19848515Y-13041079D01*
X19848515Y-13041079D02*
X19838991Y-13022031D01*
X19838991Y-13022031D02*
X19829468Y-13012508D01*
X19829468Y-13012508D02*
X19810420Y-13002984D01*
X19810420Y-13002984D02*
X19772325Y-13002984D01*
X19772325Y-13002984D02*
X19753277Y-13012508D01*
X19753277Y-13012508D02*
X19743753Y-13022031D01*
X19743753Y-13022031D02*
X19734230Y-13041079D01*
X19734230Y-13041079D02*
X19734230Y-13088698D01*
X19734230Y-13088698D02*
X19743753Y-13107746D01*
X19743753Y-13107746D02*
X19753277Y-13117269D01*
X19753277Y-13117269D02*
X19772325Y-13126793D01*
X19772325Y-13126793D02*
X19810420Y-13126793D01*
X19810420Y-13126793D02*
X19829468Y-13117269D01*
X19829468Y-13117269D02*
X19838991Y-13107746D01*
X19838991Y-13107746D02*
X19848515Y-13088698D01*
X20086611Y-13202984D02*
X20086611Y-13002984D01*
X20172325Y-13202984D02*
X20172325Y-13098222D01*
X20172325Y-13098222D02*
X20162801Y-13079174D01*
X20162801Y-13079174D02*
X20143753Y-13069650D01*
X20143753Y-13069650D02*
X20115182Y-13069650D01*
X20115182Y-13069650D02*
X20096134Y-13079174D01*
X20096134Y-13079174D02*
X20086611Y-13088698D01*
X20296134Y-13202984D02*
X20277087Y-13193460D01*
X20277087Y-13193460D02*
X20267563Y-13183936D01*
X20267563Y-13183936D02*
X20258039Y-13164888D01*
X20258039Y-13164888D02*
X20258039Y-13107746D01*
X20258039Y-13107746D02*
X20267563Y-13088698D01*
X20267563Y-13088698D02*
X20277087Y-13079174D01*
X20277087Y-13079174D02*
X20296134Y-13069650D01*
X20296134Y-13069650D02*
X20324706Y-13069650D01*
X20324706Y-13069650D02*
X20343753Y-13079174D01*
X20343753Y-13079174D02*
X20353277Y-13088698D01*
X20353277Y-13088698D02*
X20362801Y-13107746D01*
X20362801Y-13107746D02*
X20362801Y-13164888D01*
X20362801Y-13164888D02*
X20353277Y-13183936D01*
X20353277Y-13183936D02*
X20343753Y-13193460D01*
X20343753Y-13193460D02*
X20324706Y-13202984D01*
X20324706Y-13202984D02*
X20296134Y-13202984D01*
X20477087Y-13202984D02*
X20458039Y-13193460D01*
X20458039Y-13193460D02*
X20448515Y-13174412D01*
X20448515Y-13174412D02*
X20448515Y-13002984D01*
X20629468Y-13193460D02*
X20610420Y-13202984D01*
X20610420Y-13202984D02*
X20572325Y-13202984D01*
X20572325Y-13202984D02*
X20553277Y-13193460D01*
X20553277Y-13193460D02*
X20543753Y-13174412D01*
X20543753Y-13174412D02*
X20543753Y-13098222D01*
X20543753Y-13098222D02*
X20553277Y-13079174D01*
X20553277Y-13079174D02*
X20572325Y-13069650D01*
X20572325Y-13069650D02*
X20610420Y-13069650D01*
X20610420Y-13069650D02*
X20629468Y-13079174D01*
X20629468Y-13079174D02*
X20638992Y-13098222D01*
X20638992Y-13098222D02*
X20638992Y-13117269D01*
X20638992Y-13117269D02*
X20543753Y-13136317D01*
X20715182Y-13193460D02*
X20734230Y-13202984D01*
X20734230Y-13202984D02*
X20772325Y-13202984D01*
X20772325Y-13202984D02*
X20791373Y-13193460D01*
X20791373Y-13193460D02*
X20800896Y-13174412D01*
X20800896Y-13174412D02*
X20800896Y-13164888D01*
X20800896Y-13164888D02*
X20791373Y-13145841D01*
X20791373Y-13145841D02*
X20772325Y-13136317D01*
X20772325Y-13136317D02*
X20743753Y-13136317D01*
X20743753Y-13136317D02*
X20724706Y-13126793D01*
X20724706Y-13126793D02*
X20715182Y-13107746D01*
X20715182Y-13107746D02*
X20715182Y-13098222D01*
X20715182Y-13098222D02*
X20724706Y-13079174D01*
X20724706Y-13079174D02*
X20743753Y-13069650D01*
X20743753Y-13069650D02*
X20772325Y-13069650D01*
X20772325Y-13069650D02*
X20791373Y-13079174D01*
X20867563Y-13279174D02*
X20877087Y-13269650D01*
X20877087Y-13269650D02*
X20896134Y-13241079D01*
X20896134Y-13241079D02*
X20905658Y-13222031D01*
X20905658Y-13222031D02*
X20915182Y-13193460D01*
X20915182Y-13193460D02*
X20924706Y-13145841D01*
X20924706Y-13145841D02*
X20924706Y-13107746D01*
X20924706Y-13107746D02*
X20915182Y-13060127D01*
X20915182Y-13060127D02*
X20905658Y-13031555D01*
X20905658Y-13031555D02*
X20896134Y-13012508D01*
X20896134Y-13012508D02*
X20877087Y-12983936D01*
X20877087Y-12983936D02*
X20867563Y-12974412D01*
D12*
X16042500Y-13325500D02*
X16042500Y-13425500D01*
X15992500Y-13375500D02*
X16092500Y-13375500D01*
D11*
X16458039Y-13466984D02*
X16343753Y-13466984D01*
X16400896Y-13466984D02*
X16400896Y-13266984D01*
X16400896Y-13266984D02*
X16381848Y-13295555D01*
X16381848Y-13295555D02*
X16362801Y-13314603D01*
X16362801Y-13314603D02*
X16343753Y-13324127D01*
X16543753Y-13447936D02*
X16553277Y-13457460D01*
X16553277Y-13457460D02*
X16543753Y-13466984D01*
X16543753Y-13466984D02*
X16534229Y-13457460D01*
X16534229Y-13457460D02*
X16543753Y-13447936D01*
X16543753Y-13447936D02*
X16543753Y-13466984D01*
X16677086Y-13266984D02*
X16696134Y-13266984D01*
X16696134Y-13266984D02*
X16715182Y-13276508D01*
X16715182Y-13276508D02*
X16724705Y-13286031D01*
X16724705Y-13286031D02*
X16734229Y-13305079D01*
X16734229Y-13305079D02*
X16743753Y-13343174D01*
X16743753Y-13343174D02*
X16743753Y-13390793D01*
X16743753Y-13390793D02*
X16734229Y-13428888D01*
X16734229Y-13428888D02*
X16724705Y-13447936D01*
X16724705Y-13447936D02*
X16715182Y-13457460D01*
X16715182Y-13457460D02*
X16696134Y-13466984D01*
X16696134Y-13466984D02*
X16677086Y-13466984D01*
X16677086Y-13466984D02*
X16658039Y-13457460D01*
X16658039Y-13457460D02*
X16648515Y-13447936D01*
X16648515Y-13447936D02*
X16638991Y-13428888D01*
X16638991Y-13428888D02*
X16629467Y-13390793D01*
X16629467Y-13390793D02*
X16629467Y-13343174D01*
X16629467Y-13343174D02*
X16638991Y-13305079D01*
X16638991Y-13305079D02*
X16648515Y-13286031D01*
X16648515Y-13286031D02*
X16658039Y-13276508D01*
X16658039Y-13276508D02*
X16677086Y-13266984D01*
X16867563Y-13266984D02*
X16886610Y-13266984D01*
X16886610Y-13266984D02*
X16905658Y-13276508D01*
X16905658Y-13276508D02*
X16915182Y-13286031D01*
X16915182Y-13286031D02*
X16924705Y-13305079D01*
X16924705Y-13305079D02*
X16934229Y-13343174D01*
X16934229Y-13343174D02*
X16934229Y-13390793D01*
X16934229Y-13390793D02*
X16924705Y-13428888D01*
X16924705Y-13428888D02*
X16915182Y-13447936D01*
X16915182Y-13447936D02*
X16905658Y-13457460D01*
X16905658Y-13457460D02*
X16886610Y-13466984D01*
X16886610Y-13466984D02*
X16867563Y-13466984D01*
X16867563Y-13466984D02*
X16848515Y-13457460D01*
X16848515Y-13457460D02*
X16838991Y-13447936D01*
X16838991Y-13447936D02*
X16829467Y-13428888D01*
X16829467Y-13428888D02*
X16819944Y-13390793D01*
X16819944Y-13390793D02*
X16819944Y-13343174D01*
X16819944Y-13343174D02*
X16829467Y-13305079D01*
X16829467Y-13305079D02*
X16838991Y-13286031D01*
X16838991Y-13286031D02*
X16848515Y-13276508D01*
X16848515Y-13276508D02*
X16867563Y-13266984D01*
X17058039Y-13266984D02*
X17077086Y-13266984D01*
X17077086Y-13266984D02*
X17096134Y-13276508D01*
X17096134Y-13276508D02*
X17105658Y-13286031D01*
X17105658Y-13286031D02*
X17115182Y-13305079D01*
X17115182Y-13305079D02*
X17124705Y-13343174D01*
X17124705Y-13343174D02*
X17124705Y-13390793D01*
X17124705Y-13390793D02*
X17115182Y-13428888D01*
X17115182Y-13428888D02*
X17105658Y-13447936D01*
X17105658Y-13447936D02*
X17096134Y-13457460D01*
X17096134Y-13457460D02*
X17077086Y-13466984D01*
X17077086Y-13466984D02*
X17058039Y-13466984D01*
X17058039Y-13466984D02*
X17038991Y-13457460D01*
X17038991Y-13457460D02*
X17029467Y-13447936D01*
X17029467Y-13447936D02*
X17019944Y-13428888D01*
X17019944Y-13428888D02*
X17010420Y-13390793D01*
X17010420Y-13390793D02*
X17010420Y-13343174D01*
X17010420Y-13343174D02*
X17019944Y-13305079D01*
X17019944Y-13305079D02*
X17029467Y-13286031D01*
X17029467Y-13286031D02*
X17038991Y-13276508D01*
X17038991Y-13276508D02*
X17058039Y-13266984D01*
X17210420Y-13466984D02*
X17210420Y-13333650D01*
X17210420Y-13352698D02*
X17219944Y-13343174D01*
X17219944Y-13343174D02*
X17238991Y-13333650D01*
X17238991Y-13333650D02*
X17267563Y-13333650D01*
X17267563Y-13333650D02*
X17286610Y-13343174D01*
X17286610Y-13343174D02*
X17296134Y-13362222D01*
X17296134Y-13362222D02*
X17296134Y-13466984D01*
X17296134Y-13362222D02*
X17305658Y-13343174D01*
X17305658Y-13343174D02*
X17324705Y-13333650D01*
X17324705Y-13333650D02*
X17353277Y-13333650D01*
X17353277Y-13333650D02*
X17372325Y-13343174D01*
X17372325Y-13343174D02*
X17381848Y-13362222D01*
X17381848Y-13362222D02*
X17381848Y-13466984D01*
X17477086Y-13466984D02*
X17477086Y-13333650D01*
X17477086Y-13352698D02*
X17486610Y-13343174D01*
X17486610Y-13343174D02*
X17505658Y-13333650D01*
X17505658Y-13333650D02*
X17534229Y-13333650D01*
X17534229Y-13333650D02*
X17553277Y-13343174D01*
X17553277Y-13343174D02*
X17562801Y-13362222D01*
X17562801Y-13362222D02*
X17562801Y-13466984D01*
X17562801Y-13362222D02*
X17572325Y-13343174D01*
X17572325Y-13343174D02*
X17591372Y-13333650D01*
X17591372Y-13333650D02*
X17619944Y-13333650D01*
X17619944Y-13333650D02*
X17638991Y-13343174D01*
X17638991Y-13343174D02*
X17648515Y-13362222D01*
X17648515Y-13362222D02*
X17648515Y-13466984D01*
X18038991Y-13257460D02*
X17867563Y-13514603D01*
X18296134Y-13266984D02*
X18315182Y-13266984D01*
X18315182Y-13266984D02*
X18334229Y-13276508D01*
X18334229Y-13276508D02*
X18343753Y-13286031D01*
X18343753Y-13286031D02*
X18353277Y-13305079D01*
X18353277Y-13305079D02*
X18362801Y-13343174D01*
X18362801Y-13343174D02*
X18362801Y-13390793D01*
X18362801Y-13390793D02*
X18353277Y-13428888D01*
X18353277Y-13428888D02*
X18343753Y-13447936D01*
X18343753Y-13447936D02*
X18334229Y-13457460D01*
X18334229Y-13457460D02*
X18315182Y-13466984D01*
X18315182Y-13466984D02*
X18296134Y-13466984D01*
X18296134Y-13466984D02*
X18277087Y-13457460D01*
X18277087Y-13457460D02*
X18267563Y-13447936D01*
X18267563Y-13447936D02*
X18258039Y-13428888D01*
X18258039Y-13428888D02*
X18248515Y-13390793D01*
X18248515Y-13390793D02*
X18248515Y-13343174D01*
X18248515Y-13343174D02*
X18258039Y-13305079D01*
X18258039Y-13305079D02*
X18267563Y-13286031D01*
X18267563Y-13286031D02*
X18277087Y-13276508D01*
X18277087Y-13276508D02*
X18296134Y-13266984D01*
X18448515Y-13447936D02*
X18458039Y-13457460D01*
X18458039Y-13457460D02*
X18448515Y-13466984D01*
X18448515Y-13466984D02*
X18438991Y-13457460D01*
X18438991Y-13457460D02*
X18448515Y-13447936D01*
X18448515Y-13447936D02*
X18448515Y-13466984D01*
X18581848Y-13266984D02*
X18600896Y-13266984D01*
X18600896Y-13266984D02*
X18619944Y-13276508D01*
X18619944Y-13276508D02*
X18629468Y-13286031D01*
X18629468Y-13286031D02*
X18638991Y-13305079D01*
X18638991Y-13305079D02*
X18648515Y-13343174D01*
X18648515Y-13343174D02*
X18648515Y-13390793D01*
X18648515Y-13390793D02*
X18638991Y-13428888D01*
X18638991Y-13428888D02*
X18629468Y-13447936D01*
X18629468Y-13447936D02*
X18619944Y-13457460D01*
X18619944Y-13457460D02*
X18600896Y-13466984D01*
X18600896Y-13466984D02*
X18581848Y-13466984D01*
X18581848Y-13466984D02*
X18562801Y-13457460D01*
X18562801Y-13457460D02*
X18553277Y-13447936D01*
X18553277Y-13447936D02*
X18543753Y-13428888D01*
X18543753Y-13428888D02*
X18534229Y-13390793D01*
X18534229Y-13390793D02*
X18534229Y-13343174D01*
X18534229Y-13343174D02*
X18543753Y-13305079D01*
X18543753Y-13305079D02*
X18553277Y-13286031D01*
X18553277Y-13286031D02*
X18562801Y-13276508D01*
X18562801Y-13276508D02*
X18581848Y-13266984D01*
X18715182Y-13266984D02*
X18838991Y-13266984D01*
X18838991Y-13266984D02*
X18772325Y-13343174D01*
X18772325Y-13343174D02*
X18800896Y-13343174D01*
X18800896Y-13343174D02*
X18819944Y-13352698D01*
X18819944Y-13352698D02*
X18829468Y-13362222D01*
X18829468Y-13362222D02*
X18838991Y-13381269D01*
X18838991Y-13381269D02*
X18838991Y-13428888D01*
X18838991Y-13428888D02*
X18829468Y-13447936D01*
X18829468Y-13447936D02*
X18819944Y-13457460D01*
X18819944Y-13457460D02*
X18800896Y-13466984D01*
X18800896Y-13466984D02*
X18743753Y-13466984D01*
X18743753Y-13466984D02*
X18724706Y-13457460D01*
X18724706Y-13457460D02*
X18715182Y-13447936D01*
X18934229Y-13466984D02*
X18972325Y-13466984D01*
X18972325Y-13466984D02*
X18991372Y-13457460D01*
X18991372Y-13457460D02*
X19000896Y-13447936D01*
X19000896Y-13447936D02*
X19019944Y-13419365D01*
X19019944Y-13419365D02*
X19029468Y-13381269D01*
X19029468Y-13381269D02*
X19029468Y-13305079D01*
X19029468Y-13305079D02*
X19019944Y-13286031D01*
X19019944Y-13286031D02*
X19010420Y-13276508D01*
X19010420Y-13276508D02*
X18991372Y-13266984D01*
X18991372Y-13266984D02*
X18953277Y-13266984D01*
X18953277Y-13266984D02*
X18934229Y-13276508D01*
X18934229Y-13276508D02*
X18924706Y-13286031D01*
X18924706Y-13286031D02*
X18915182Y-13305079D01*
X18915182Y-13305079D02*
X18915182Y-13352698D01*
X18915182Y-13352698D02*
X18924706Y-13371746D01*
X18924706Y-13371746D02*
X18934229Y-13381269D01*
X18934229Y-13381269D02*
X18953277Y-13390793D01*
X18953277Y-13390793D02*
X18991372Y-13390793D01*
X18991372Y-13390793D02*
X19010420Y-13381269D01*
X19010420Y-13381269D02*
X19019944Y-13371746D01*
X19019944Y-13371746D02*
X19029468Y-13352698D01*
X19200896Y-13333650D02*
X19200896Y-13466984D01*
X19153277Y-13257460D02*
X19105658Y-13400317D01*
X19105658Y-13400317D02*
X19229468Y-13400317D01*
X19296134Y-13266984D02*
X19296134Y-13305079D01*
X19372325Y-13266984D02*
X19372325Y-13305079D01*
X19667563Y-13543174D02*
X19658039Y-13533650D01*
X19658039Y-13533650D02*
X19638991Y-13505079D01*
X19638991Y-13505079D02*
X19629468Y-13486031D01*
X19629468Y-13486031D02*
X19619944Y-13457460D01*
X19619944Y-13457460D02*
X19610420Y-13409841D01*
X19610420Y-13409841D02*
X19610420Y-13371746D01*
X19610420Y-13371746D02*
X19619944Y-13324127D01*
X19619944Y-13324127D02*
X19629468Y-13295555D01*
X19629468Y-13295555D02*
X19638991Y-13276508D01*
X19638991Y-13276508D02*
X19658039Y-13247936D01*
X19658039Y-13247936D02*
X19667563Y-13238412D01*
X19724706Y-13266984D02*
X19848515Y-13266984D01*
X19848515Y-13266984D02*
X19781849Y-13343174D01*
X19781849Y-13343174D02*
X19810420Y-13343174D01*
X19810420Y-13343174D02*
X19829468Y-13352698D01*
X19829468Y-13352698D02*
X19838991Y-13362222D01*
X19838991Y-13362222D02*
X19848515Y-13381269D01*
X19848515Y-13381269D02*
X19848515Y-13428888D01*
X19848515Y-13428888D02*
X19838991Y-13447936D01*
X19838991Y-13447936D02*
X19829468Y-13457460D01*
X19829468Y-13457460D02*
X19810420Y-13466984D01*
X19810420Y-13466984D02*
X19753277Y-13466984D01*
X19753277Y-13466984D02*
X19734230Y-13457460D01*
X19734230Y-13457460D02*
X19724706Y-13447936D01*
X20038991Y-13466984D02*
X19924706Y-13466984D01*
X19981849Y-13466984D02*
X19981849Y-13266984D01*
X19981849Y-13266984D02*
X19962801Y-13295555D01*
X19962801Y-13295555D02*
X19943753Y-13314603D01*
X19943753Y-13314603D02*
X19924706Y-13324127D01*
X20277087Y-13466984D02*
X20277087Y-13266984D01*
X20362801Y-13466984D02*
X20362801Y-13362222D01*
X20362801Y-13362222D02*
X20353277Y-13343174D01*
X20353277Y-13343174D02*
X20334230Y-13333650D01*
X20334230Y-13333650D02*
X20305658Y-13333650D01*
X20305658Y-13333650D02*
X20286611Y-13343174D01*
X20286611Y-13343174D02*
X20277087Y-13352698D01*
X20486611Y-13466984D02*
X20467563Y-13457460D01*
X20467563Y-13457460D02*
X20458039Y-13447936D01*
X20458039Y-13447936D02*
X20448515Y-13428888D01*
X20448515Y-13428888D02*
X20448515Y-13371746D01*
X20448515Y-13371746D02*
X20458039Y-13352698D01*
X20458039Y-13352698D02*
X20467563Y-13343174D01*
X20467563Y-13343174D02*
X20486611Y-13333650D01*
X20486611Y-13333650D02*
X20515182Y-13333650D01*
X20515182Y-13333650D02*
X20534230Y-13343174D01*
X20534230Y-13343174D02*
X20543753Y-13352698D01*
X20543753Y-13352698D02*
X20553277Y-13371746D01*
X20553277Y-13371746D02*
X20553277Y-13428888D01*
X20553277Y-13428888D02*
X20543753Y-13447936D01*
X20543753Y-13447936D02*
X20534230Y-13457460D01*
X20534230Y-13457460D02*
X20515182Y-13466984D01*
X20515182Y-13466984D02*
X20486611Y-13466984D01*
X20667563Y-13466984D02*
X20648515Y-13457460D01*
X20648515Y-13457460D02*
X20638992Y-13438412D01*
X20638992Y-13438412D02*
X20638992Y-13266984D01*
X20819944Y-13457460D02*
X20800896Y-13466984D01*
X20800896Y-13466984D02*
X20762801Y-13466984D01*
X20762801Y-13466984D02*
X20743753Y-13457460D01*
X20743753Y-13457460D02*
X20734230Y-13438412D01*
X20734230Y-13438412D02*
X20734230Y-13362222D01*
X20734230Y-13362222D02*
X20743753Y-13343174D01*
X20743753Y-13343174D02*
X20762801Y-13333650D01*
X20762801Y-13333650D02*
X20800896Y-13333650D01*
X20800896Y-13333650D02*
X20819944Y-13343174D01*
X20819944Y-13343174D02*
X20829468Y-13362222D01*
X20829468Y-13362222D02*
X20829468Y-13381269D01*
X20829468Y-13381269D02*
X20734230Y-13400317D01*
X20905658Y-13457460D02*
X20924706Y-13466984D01*
X20924706Y-13466984D02*
X20962801Y-13466984D01*
X20962801Y-13466984D02*
X20981849Y-13457460D01*
X20981849Y-13457460D02*
X20991373Y-13438412D01*
X20991373Y-13438412D02*
X20991373Y-13428888D01*
X20991373Y-13428888D02*
X20981849Y-13409841D01*
X20981849Y-13409841D02*
X20962801Y-13400317D01*
X20962801Y-13400317D02*
X20934230Y-13400317D01*
X20934230Y-13400317D02*
X20915182Y-13390793D01*
X20915182Y-13390793D02*
X20905658Y-13371746D01*
X20905658Y-13371746D02*
X20905658Y-13362222D01*
X20905658Y-13362222D02*
X20915182Y-13343174D01*
X20915182Y-13343174D02*
X20934230Y-13333650D01*
X20934230Y-13333650D02*
X20962801Y-13333650D01*
X20962801Y-13333650D02*
X20981849Y-13343174D01*
X21058039Y-13543174D02*
X21067563Y-13533650D01*
X21067563Y-13533650D02*
X21086611Y-13505079D01*
X21086611Y-13505079D02*
X21096134Y-13486031D01*
X21096134Y-13486031D02*
X21105658Y-13457460D01*
X21105658Y-13457460D02*
X21115182Y-13409841D01*
X21115182Y-13409841D02*
X21115182Y-13371746D01*
X21115182Y-13371746D02*
X21105658Y-13324127D01*
X21105658Y-13324127D02*
X21096134Y-13295555D01*
X21096134Y-13295555D02*
X21086611Y-13276508D01*
X21086611Y-13276508D02*
X21067563Y-13247936D01*
X21067563Y-13247936D02*
X21058039Y-13238412D01*
D13*
X16073462Y-13685462D02*
X16073462Y-13593538D01*
X15981538Y-13593538D01*
X15981538Y-13685462D01*
X16073462Y-13685462D01*
D11*
X16458039Y-13730984D02*
X16343753Y-13730984D01*
X16400896Y-13730984D02*
X16400896Y-13530984D01*
X16400896Y-13530984D02*
X16381848Y-13559555D01*
X16381848Y-13559555D02*
X16362801Y-13578603D01*
X16362801Y-13578603D02*
X16343753Y-13588127D01*
X16543753Y-13711936D02*
X16553277Y-13721460D01*
X16553277Y-13721460D02*
X16543753Y-13730984D01*
X16543753Y-13730984D02*
X16534229Y-13721460D01*
X16534229Y-13721460D02*
X16543753Y-13711936D01*
X16543753Y-13711936D02*
X16543753Y-13730984D01*
X16619943Y-13530984D02*
X16743753Y-13530984D01*
X16743753Y-13530984D02*
X16677086Y-13607174D01*
X16677086Y-13607174D02*
X16705658Y-13607174D01*
X16705658Y-13607174D02*
X16724705Y-13616698D01*
X16724705Y-13616698D02*
X16734229Y-13626222D01*
X16734229Y-13626222D02*
X16743753Y-13645269D01*
X16743753Y-13645269D02*
X16743753Y-13692888D01*
X16743753Y-13692888D02*
X16734229Y-13711936D01*
X16734229Y-13711936D02*
X16724705Y-13721460D01*
X16724705Y-13721460D02*
X16705658Y-13730984D01*
X16705658Y-13730984D02*
X16648515Y-13730984D01*
X16648515Y-13730984D02*
X16629467Y-13721460D01*
X16629467Y-13721460D02*
X16619943Y-13711936D01*
X16867563Y-13530984D02*
X16886610Y-13530984D01*
X16886610Y-13530984D02*
X16905658Y-13540508D01*
X16905658Y-13540508D02*
X16915182Y-13550031D01*
X16915182Y-13550031D02*
X16924705Y-13569079D01*
X16924705Y-13569079D02*
X16934229Y-13607174D01*
X16934229Y-13607174D02*
X16934229Y-13654793D01*
X16934229Y-13654793D02*
X16924705Y-13692888D01*
X16924705Y-13692888D02*
X16915182Y-13711936D01*
X16915182Y-13711936D02*
X16905658Y-13721460D01*
X16905658Y-13721460D02*
X16886610Y-13730984D01*
X16886610Y-13730984D02*
X16867563Y-13730984D01*
X16867563Y-13730984D02*
X16848515Y-13721460D01*
X16848515Y-13721460D02*
X16838991Y-13711936D01*
X16838991Y-13711936D02*
X16829467Y-13692888D01*
X16829467Y-13692888D02*
X16819944Y-13654793D01*
X16819944Y-13654793D02*
X16819944Y-13607174D01*
X16819944Y-13607174D02*
X16829467Y-13569079D01*
X16829467Y-13569079D02*
X16838991Y-13550031D01*
X16838991Y-13550031D02*
X16848515Y-13540508D01*
X16848515Y-13540508D02*
X16867563Y-13530984D01*
X17058039Y-13530984D02*
X17077086Y-13530984D01*
X17077086Y-13530984D02*
X17096134Y-13540508D01*
X17096134Y-13540508D02*
X17105658Y-13550031D01*
X17105658Y-13550031D02*
X17115182Y-13569079D01*
X17115182Y-13569079D02*
X17124705Y-13607174D01*
X17124705Y-13607174D02*
X17124705Y-13654793D01*
X17124705Y-13654793D02*
X17115182Y-13692888D01*
X17115182Y-13692888D02*
X17105658Y-13711936D01*
X17105658Y-13711936D02*
X17096134Y-13721460D01*
X17096134Y-13721460D02*
X17077086Y-13730984D01*
X17077086Y-13730984D02*
X17058039Y-13730984D01*
X17058039Y-13730984D02*
X17038991Y-13721460D01*
X17038991Y-13721460D02*
X17029467Y-13711936D01*
X17029467Y-13711936D02*
X17019944Y-13692888D01*
X17019944Y-13692888D02*
X17010420Y-13654793D01*
X17010420Y-13654793D02*
X17010420Y-13607174D01*
X17010420Y-13607174D02*
X17019944Y-13569079D01*
X17019944Y-13569079D02*
X17029467Y-13550031D01*
X17029467Y-13550031D02*
X17038991Y-13540508D01*
X17038991Y-13540508D02*
X17058039Y-13530984D01*
X17210420Y-13730984D02*
X17210420Y-13597650D01*
X17210420Y-13616698D02*
X17219944Y-13607174D01*
X17219944Y-13607174D02*
X17238991Y-13597650D01*
X17238991Y-13597650D02*
X17267563Y-13597650D01*
X17267563Y-13597650D02*
X17286610Y-13607174D01*
X17286610Y-13607174D02*
X17296134Y-13626222D01*
X17296134Y-13626222D02*
X17296134Y-13730984D01*
X17296134Y-13626222D02*
X17305658Y-13607174D01*
X17305658Y-13607174D02*
X17324705Y-13597650D01*
X17324705Y-13597650D02*
X17353277Y-13597650D01*
X17353277Y-13597650D02*
X17372325Y-13607174D01*
X17372325Y-13607174D02*
X17381848Y-13626222D01*
X17381848Y-13626222D02*
X17381848Y-13730984D01*
X17477086Y-13730984D02*
X17477086Y-13597650D01*
X17477086Y-13616698D02*
X17486610Y-13607174D01*
X17486610Y-13607174D02*
X17505658Y-13597650D01*
X17505658Y-13597650D02*
X17534229Y-13597650D01*
X17534229Y-13597650D02*
X17553277Y-13607174D01*
X17553277Y-13607174D02*
X17562801Y-13626222D01*
X17562801Y-13626222D02*
X17562801Y-13730984D01*
X17562801Y-13626222D02*
X17572325Y-13607174D01*
X17572325Y-13607174D02*
X17591372Y-13597650D01*
X17591372Y-13597650D02*
X17619944Y-13597650D01*
X17619944Y-13597650D02*
X17638991Y-13607174D01*
X17638991Y-13607174D02*
X17648515Y-13626222D01*
X17648515Y-13626222D02*
X17648515Y-13730984D01*
X18038991Y-13521460D02*
X17867563Y-13778603D01*
X18296134Y-13530984D02*
X18315182Y-13530984D01*
X18315182Y-13530984D02*
X18334229Y-13540508D01*
X18334229Y-13540508D02*
X18343753Y-13550031D01*
X18343753Y-13550031D02*
X18353277Y-13569079D01*
X18353277Y-13569079D02*
X18362801Y-13607174D01*
X18362801Y-13607174D02*
X18362801Y-13654793D01*
X18362801Y-13654793D02*
X18353277Y-13692888D01*
X18353277Y-13692888D02*
X18343753Y-13711936D01*
X18343753Y-13711936D02*
X18334229Y-13721460D01*
X18334229Y-13721460D02*
X18315182Y-13730984D01*
X18315182Y-13730984D02*
X18296134Y-13730984D01*
X18296134Y-13730984D02*
X18277087Y-13721460D01*
X18277087Y-13721460D02*
X18267563Y-13711936D01*
X18267563Y-13711936D02*
X18258039Y-13692888D01*
X18258039Y-13692888D02*
X18248515Y-13654793D01*
X18248515Y-13654793D02*
X18248515Y-13607174D01*
X18248515Y-13607174D02*
X18258039Y-13569079D01*
X18258039Y-13569079D02*
X18267563Y-13550031D01*
X18267563Y-13550031D02*
X18277087Y-13540508D01*
X18277087Y-13540508D02*
X18296134Y-13530984D01*
X18448515Y-13711936D02*
X18458039Y-13721460D01*
X18458039Y-13721460D02*
X18448515Y-13730984D01*
X18448515Y-13730984D02*
X18438991Y-13721460D01*
X18438991Y-13721460D02*
X18448515Y-13711936D01*
X18448515Y-13711936D02*
X18448515Y-13730984D01*
X18581848Y-13530984D02*
X18600896Y-13530984D01*
X18600896Y-13530984D02*
X18619944Y-13540508D01*
X18619944Y-13540508D02*
X18629468Y-13550031D01*
X18629468Y-13550031D02*
X18638991Y-13569079D01*
X18638991Y-13569079D02*
X18648515Y-13607174D01*
X18648515Y-13607174D02*
X18648515Y-13654793D01*
X18648515Y-13654793D02*
X18638991Y-13692888D01*
X18638991Y-13692888D02*
X18629468Y-13711936D01*
X18629468Y-13711936D02*
X18619944Y-13721460D01*
X18619944Y-13721460D02*
X18600896Y-13730984D01*
X18600896Y-13730984D02*
X18581848Y-13730984D01*
X18581848Y-13730984D02*
X18562801Y-13721460D01*
X18562801Y-13721460D02*
X18553277Y-13711936D01*
X18553277Y-13711936D02*
X18543753Y-13692888D01*
X18543753Y-13692888D02*
X18534229Y-13654793D01*
X18534229Y-13654793D02*
X18534229Y-13607174D01*
X18534229Y-13607174D02*
X18543753Y-13569079D01*
X18543753Y-13569079D02*
X18553277Y-13550031D01*
X18553277Y-13550031D02*
X18562801Y-13540508D01*
X18562801Y-13540508D02*
X18581848Y-13530984D01*
X18829468Y-13530984D02*
X18734229Y-13530984D01*
X18734229Y-13530984D02*
X18724706Y-13626222D01*
X18724706Y-13626222D02*
X18734229Y-13616698D01*
X18734229Y-13616698D02*
X18753277Y-13607174D01*
X18753277Y-13607174D02*
X18800896Y-13607174D01*
X18800896Y-13607174D02*
X18819944Y-13616698D01*
X18819944Y-13616698D02*
X18829468Y-13626222D01*
X18829468Y-13626222D02*
X18838991Y-13645269D01*
X18838991Y-13645269D02*
X18838991Y-13692888D01*
X18838991Y-13692888D02*
X18829468Y-13711936D01*
X18829468Y-13711936D02*
X18819944Y-13721460D01*
X18819944Y-13721460D02*
X18800896Y-13730984D01*
X18800896Y-13730984D02*
X18753277Y-13730984D01*
X18753277Y-13730984D02*
X18734229Y-13721460D01*
X18734229Y-13721460D02*
X18724706Y-13711936D01*
X19029468Y-13730984D02*
X18915182Y-13730984D01*
X18972325Y-13730984D02*
X18972325Y-13530984D01*
X18972325Y-13530984D02*
X18953277Y-13559555D01*
X18953277Y-13559555D02*
X18934229Y-13578603D01*
X18934229Y-13578603D02*
X18915182Y-13588127D01*
X19105658Y-13550031D02*
X19115182Y-13540508D01*
X19115182Y-13540508D02*
X19134229Y-13530984D01*
X19134229Y-13530984D02*
X19181849Y-13530984D01*
X19181849Y-13530984D02*
X19200896Y-13540508D01*
X19200896Y-13540508D02*
X19210420Y-13550031D01*
X19210420Y-13550031D02*
X19219944Y-13569079D01*
X19219944Y-13569079D02*
X19219944Y-13588127D01*
X19219944Y-13588127D02*
X19210420Y-13616698D01*
X19210420Y-13616698D02*
X19096134Y-13730984D01*
X19096134Y-13730984D02*
X19219944Y-13730984D01*
X19296134Y-13530984D02*
X19296134Y-13569079D01*
X19372325Y-13530984D02*
X19372325Y-13569079D01*
X19667563Y-13807174D02*
X19658039Y-13797650D01*
X19658039Y-13797650D02*
X19638991Y-13769079D01*
X19638991Y-13769079D02*
X19629468Y-13750031D01*
X19629468Y-13750031D02*
X19619944Y-13721460D01*
X19619944Y-13721460D02*
X19610420Y-13673841D01*
X19610420Y-13673841D02*
X19610420Y-13635746D01*
X19610420Y-13635746D02*
X19619944Y-13588127D01*
X19619944Y-13588127D02*
X19629468Y-13559555D01*
X19629468Y-13559555D02*
X19638991Y-13540508D01*
X19638991Y-13540508D02*
X19658039Y-13511936D01*
X19658039Y-13511936D02*
X19667563Y-13502412D01*
X19772325Y-13616698D02*
X19753277Y-13607174D01*
X19753277Y-13607174D02*
X19743753Y-13597650D01*
X19743753Y-13597650D02*
X19734230Y-13578603D01*
X19734230Y-13578603D02*
X19734230Y-13569079D01*
X19734230Y-13569079D02*
X19743753Y-13550031D01*
X19743753Y-13550031D02*
X19753277Y-13540508D01*
X19753277Y-13540508D02*
X19772325Y-13530984D01*
X19772325Y-13530984D02*
X19810420Y-13530984D01*
X19810420Y-13530984D02*
X19829468Y-13540508D01*
X19829468Y-13540508D02*
X19838991Y-13550031D01*
X19838991Y-13550031D02*
X19848515Y-13569079D01*
X19848515Y-13569079D02*
X19848515Y-13578603D01*
X19848515Y-13578603D02*
X19838991Y-13597650D01*
X19838991Y-13597650D02*
X19829468Y-13607174D01*
X19829468Y-13607174D02*
X19810420Y-13616698D01*
X19810420Y-13616698D02*
X19772325Y-13616698D01*
X19772325Y-13616698D02*
X19753277Y-13626222D01*
X19753277Y-13626222D02*
X19743753Y-13635746D01*
X19743753Y-13635746D02*
X19734230Y-13654793D01*
X19734230Y-13654793D02*
X19734230Y-13692888D01*
X19734230Y-13692888D02*
X19743753Y-13711936D01*
X19743753Y-13711936D02*
X19753277Y-13721460D01*
X19753277Y-13721460D02*
X19772325Y-13730984D01*
X19772325Y-13730984D02*
X19810420Y-13730984D01*
X19810420Y-13730984D02*
X19829468Y-13721460D01*
X19829468Y-13721460D02*
X19838991Y-13711936D01*
X19838991Y-13711936D02*
X19848515Y-13692888D01*
X19848515Y-13692888D02*
X19848515Y-13654793D01*
X19848515Y-13654793D02*
X19838991Y-13635746D01*
X19838991Y-13635746D02*
X19829468Y-13626222D01*
X19829468Y-13626222D02*
X19810420Y-13616698D01*
X20086611Y-13730984D02*
X20086611Y-13530984D01*
X20172325Y-13730984D02*
X20172325Y-13626222D01*
X20172325Y-13626222D02*
X20162801Y-13607174D01*
X20162801Y-13607174D02*
X20143753Y-13597650D01*
X20143753Y-13597650D02*
X20115182Y-13597650D01*
X20115182Y-13597650D02*
X20096134Y-13607174D01*
X20096134Y-13607174D02*
X20086611Y-13616698D01*
X20296134Y-13730984D02*
X20277087Y-13721460D01*
X20277087Y-13721460D02*
X20267563Y-13711936D01*
X20267563Y-13711936D02*
X20258039Y-13692888D01*
X20258039Y-13692888D02*
X20258039Y-13635746D01*
X20258039Y-13635746D02*
X20267563Y-13616698D01*
X20267563Y-13616698D02*
X20277087Y-13607174D01*
X20277087Y-13607174D02*
X20296134Y-13597650D01*
X20296134Y-13597650D02*
X20324706Y-13597650D01*
X20324706Y-13597650D02*
X20343753Y-13607174D01*
X20343753Y-13607174D02*
X20353277Y-13616698D01*
X20353277Y-13616698D02*
X20362801Y-13635746D01*
X20362801Y-13635746D02*
X20362801Y-13692888D01*
X20362801Y-13692888D02*
X20353277Y-13711936D01*
X20353277Y-13711936D02*
X20343753Y-13721460D01*
X20343753Y-13721460D02*
X20324706Y-13730984D01*
X20324706Y-13730984D02*
X20296134Y-13730984D01*
X20477087Y-13730984D02*
X20458039Y-13721460D01*
X20458039Y-13721460D02*
X20448515Y-13702412D01*
X20448515Y-13702412D02*
X20448515Y-13530984D01*
X20629468Y-13721460D02*
X20610420Y-13730984D01*
X20610420Y-13730984D02*
X20572325Y-13730984D01*
X20572325Y-13730984D02*
X20553277Y-13721460D01*
X20553277Y-13721460D02*
X20543753Y-13702412D01*
X20543753Y-13702412D02*
X20543753Y-13626222D01*
X20543753Y-13626222D02*
X20553277Y-13607174D01*
X20553277Y-13607174D02*
X20572325Y-13597650D01*
X20572325Y-13597650D02*
X20610420Y-13597650D01*
X20610420Y-13597650D02*
X20629468Y-13607174D01*
X20629468Y-13607174D02*
X20638992Y-13626222D01*
X20638992Y-13626222D02*
X20638992Y-13645269D01*
X20638992Y-13645269D02*
X20543753Y-13664317D01*
X20715182Y-13721460D02*
X20734230Y-13730984D01*
X20734230Y-13730984D02*
X20772325Y-13730984D01*
X20772325Y-13730984D02*
X20791373Y-13721460D01*
X20791373Y-13721460D02*
X20800896Y-13702412D01*
X20800896Y-13702412D02*
X20800896Y-13692888D01*
X20800896Y-13692888D02*
X20791373Y-13673841D01*
X20791373Y-13673841D02*
X20772325Y-13664317D01*
X20772325Y-13664317D02*
X20743753Y-13664317D01*
X20743753Y-13664317D02*
X20724706Y-13654793D01*
X20724706Y-13654793D02*
X20715182Y-13635746D01*
X20715182Y-13635746D02*
X20715182Y-13626222D01*
X20715182Y-13626222D02*
X20724706Y-13607174D01*
X20724706Y-13607174D02*
X20743753Y-13597650D01*
X20743753Y-13597650D02*
X20772325Y-13597650D01*
X20772325Y-13597650D02*
X20791373Y-13607174D01*
X20867563Y-13807174D02*
X20877087Y-13797650D01*
X20877087Y-13797650D02*
X20896134Y-13769079D01*
X20896134Y-13769079D02*
X20905658Y-13750031D01*
X20905658Y-13750031D02*
X20915182Y-13721460D01*
X20915182Y-13721460D02*
X20924706Y-13673841D01*
X20924706Y-13673841D02*
X20924706Y-13635746D01*
X20924706Y-13635746D02*
X20915182Y-13588127D01*
X20915182Y-13588127D02*
X20905658Y-13559555D01*
X20905658Y-13559555D02*
X20896134Y-13540508D01*
X20896134Y-13540508D02*
X20877087Y-13511936D01*
X20877087Y-13511936D02*
X20867563Y-13502412D01*
X15992500Y-14003500D02*
X16092500Y-13903500D01*
X15992500Y-13803500D01*
X15892500Y-13903500D01*
X15992500Y-14003500D01*
X16343753Y-13814031D02*
X16353277Y-13804508D01*
X16353277Y-13804508D02*
X16372324Y-13794984D01*
X16372324Y-13794984D02*
X16419943Y-13794984D01*
X16419943Y-13794984D02*
X16438991Y-13804508D01*
X16438991Y-13804508D02*
X16448515Y-13814031D01*
X16448515Y-13814031D02*
X16458039Y-13833079D01*
X16458039Y-13833079D02*
X16458039Y-13852127D01*
X16458039Y-13852127D02*
X16448515Y-13880698D01*
X16448515Y-13880698D02*
X16334229Y-13994984D01*
X16334229Y-13994984D02*
X16458039Y-13994984D01*
X16543753Y-13975936D02*
X16553277Y-13985460D01*
X16553277Y-13985460D02*
X16543753Y-13994984D01*
X16543753Y-13994984D02*
X16534229Y-13985460D01*
X16534229Y-13985460D02*
X16543753Y-13975936D01*
X16543753Y-13975936D02*
X16543753Y-13994984D01*
X16734229Y-13794984D02*
X16638991Y-13794984D01*
X16638991Y-13794984D02*
X16629467Y-13890222D01*
X16629467Y-13890222D02*
X16638991Y-13880698D01*
X16638991Y-13880698D02*
X16658039Y-13871174D01*
X16658039Y-13871174D02*
X16705658Y-13871174D01*
X16705658Y-13871174D02*
X16724705Y-13880698D01*
X16724705Y-13880698D02*
X16734229Y-13890222D01*
X16734229Y-13890222D02*
X16743753Y-13909269D01*
X16743753Y-13909269D02*
X16743753Y-13956888D01*
X16743753Y-13956888D02*
X16734229Y-13975936D01*
X16734229Y-13975936D02*
X16724705Y-13985460D01*
X16724705Y-13985460D02*
X16705658Y-13994984D01*
X16705658Y-13994984D02*
X16658039Y-13994984D01*
X16658039Y-13994984D02*
X16638991Y-13985460D01*
X16638991Y-13985460D02*
X16629467Y-13975936D01*
X16867563Y-13794984D02*
X16886610Y-13794984D01*
X16886610Y-13794984D02*
X16905658Y-13804508D01*
X16905658Y-13804508D02*
X16915182Y-13814031D01*
X16915182Y-13814031D02*
X16924705Y-13833079D01*
X16924705Y-13833079D02*
X16934229Y-13871174D01*
X16934229Y-13871174D02*
X16934229Y-13918793D01*
X16934229Y-13918793D02*
X16924705Y-13956888D01*
X16924705Y-13956888D02*
X16915182Y-13975936D01*
X16915182Y-13975936D02*
X16905658Y-13985460D01*
X16905658Y-13985460D02*
X16886610Y-13994984D01*
X16886610Y-13994984D02*
X16867563Y-13994984D01*
X16867563Y-13994984D02*
X16848515Y-13985460D01*
X16848515Y-13985460D02*
X16838991Y-13975936D01*
X16838991Y-13975936D02*
X16829467Y-13956888D01*
X16829467Y-13956888D02*
X16819944Y-13918793D01*
X16819944Y-13918793D02*
X16819944Y-13871174D01*
X16819944Y-13871174D02*
X16829467Y-13833079D01*
X16829467Y-13833079D02*
X16838991Y-13814031D01*
X16838991Y-13814031D02*
X16848515Y-13804508D01*
X16848515Y-13804508D02*
X16867563Y-13794984D01*
X17058039Y-13794984D02*
X17077086Y-13794984D01*
X17077086Y-13794984D02*
X17096134Y-13804508D01*
X17096134Y-13804508D02*
X17105658Y-13814031D01*
X17105658Y-13814031D02*
X17115182Y-13833079D01*
X17115182Y-13833079D02*
X17124705Y-13871174D01*
X17124705Y-13871174D02*
X17124705Y-13918793D01*
X17124705Y-13918793D02*
X17115182Y-13956888D01*
X17115182Y-13956888D02*
X17105658Y-13975936D01*
X17105658Y-13975936D02*
X17096134Y-13985460D01*
X17096134Y-13985460D02*
X17077086Y-13994984D01*
X17077086Y-13994984D02*
X17058039Y-13994984D01*
X17058039Y-13994984D02*
X17038991Y-13985460D01*
X17038991Y-13985460D02*
X17029467Y-13975936D01*
X17029467Y-13975936D02*
X17019944Y-13956888D01*
X17019944Y-13956888D02*
X17010420Y-13918793D01*
X17010420Y-13918793D02*
X17010420Y-13871174D01*
X17010420Y-13871174D02*
X17019944Y-13833079D01*
X17019944Y-13833079D02*
X17029467Y-13814031D01*
X17029467Y-13814031D02*
X17038991Y-13804508D01*
X17038991Y-13804508D02*
X17058039Y-13794984D01*
X17210420Y-13994984D02*
X17210420Y-13861650D01*
X17210420Y-13880698D02*
X17219944Y-13871174D01*
X17219944Y-13871174D02*
X17238991Y-13861650D01*
X17238991Y-13861650D02*
X17267563Y-13861650D01*
X17267563Y-13861650D02*
X17286610Y-13871174D01*
X17286610Y-13871174D02*
X17296134Y-13890222D01*
X17296134Y-13890222D02*
X17296134Y-13994984D01*
X17296134Y-13890222D02*
X17305658Y-13871174D01*
X17305658Y-13871174D02*
X17324705Y-13861650D01*
X17324705Y-13861650D02*
X17353277Y-13861650D01*
X17353277Y-13861650D02*
X17372325Y-13871174D01*
X17372325Y-13871174D02*
X17381848Y-13890222D01*
X17381848Y-13890222D02*
X17381848Y-13994984D01*
X17477086Y-13994984D02*
X17477086Y-13861650D01*
X17477086Y-13880698D02*
X17486610Y-13871174D01*
X17486610Y-13871174D02*
X17505658Y-13861650D01*
X17505658Y-13861650D02*
X17534229Y-13861650D01*
X17534229Y-13861650D02*
X17553277Y-13871174D01*
X17553277Y-13871174D02*
X17562801Y-13890222D01*
X17562801Y-13890222D02*
X17562801Y-13994984D01*
X17562801Y-13890222D02*
X17572325Y-13871174D01*
X17572325Y-13871174D02*
X17591372Y-13861650D01*
X17591372Y-13861650D02*
X17619944Y-13861650D01*
X17619944Y-13861650D02*
X17638991Y-13871174D01*
X17638991Y-13871174D02*
X17648515Y-13890222D01*
X17648515Y-13890222D02*
X17648515Y-13994984D01*
X18038991Y-13785460D02*
X17867563Y-14042603D01*
X18296134Y-13794984D02*
X18315182Y-13794984D01*
X18315182Y-13794984D02*
X18334229Y-13804508D01*
X18334229Y-13804508D02*
X18343753Y-13814031D01*
X18343753Y-13814031D02*
X18353277Y-13833079D01*
X18353277Y-13833079D02*
X18362801Y-13871174D01*
X18362801Y-13871174D02*
X18362801Y-13918793D01*
X18362801Y-13918793D02*
X18353277Y-13956888D01*
X18353277Y-13956888D02*
X18343753Y-13975936D01*
X18343753Y-13975936D02*
X18334229Y-13985460D01*
X18334229Y-13985460D02*
X18315182Y-13994984D01*
X18315182Y-13994984D02*
X18296134Y-13994984D01*
X18296134Y-13994984D02*
X18277087Y-13985460D01*
X18277087Y-13985460D02*
X18267563Y-13975936D01*
X18267563Y-13975936D02*
X18258039Y-13956888D01*
X18258039Y-13956888D02*
X18248515Y-13918793D01*
X18248515Y-13918793D02*
X18248515Y-13871174D01*
X18248515Y-13871174D02*
X18258039Y-13833079D01*
X18258039Y-13833079D02*
X18267563Y-13814031D01*
X18267563Y-13814031D02*
X18277087Y-13804508D01*
X18277087Y-13804508D02*
X18296134Y-13794984D01*
X18448515Y-13975936D02*
X18458039Y-13985460D01*
X18458039Y-13985460D02*
X18448515Y-13994984D01*
X18448515Y-13994984D02*
X18438991Y-13985460D01*
X18438991Y-13985460D02*
X18448515Y-13975936D01*
X18448515Y-13975936D02*
X18448515Y-13994984D01*
X18581848Y-13794984D02*
X18600896Y-13794984D01*
X18600896Y-13794984D02*
X18619944Y-13804508D01*
X18619944Y-13804508D02*
X18629468Y-13814031D01*
X18629468Y-13814031D02*
X18638991Y-13833079D01*
X18638991Y-13833079D02*
X18648515Y-13871174D01*
X18648515Y-13871174D02*
X18648515Y-13918793D01*
X18648515Y-13918793D02*
X18638991Y-13956888D01*
X18638991Y-13956888D02*
X18629468Y-13975936D01*
X18629468Y-13975936D02*
X18619944Y-13985460D01*
X18619944Y-13985460D02*
X18600896Y-13994984D01*
X18600896Y-13994984D02*
X18581848Y-13994984D01*
X18581848Y-13994984D02*
X18562801Y-13985460D01*
X18562801Y-13985460D02*
X18553277Y-13975936D01*
X18553277Y-13975936D02*
X18543753Y-13956888D01*
X18543753Y-13956888D02*
X18534229Y-13918793D01*
X18534229Y-13918793D02*
X18534229Y-13871174D01*
X18534229Y-13871174D02*
X18543753Y-13833079D01*
X18543753Y-13833079D02*
X18553277Y-13814031D01*
X18553277Y-13814031D02*
X18562801Y-13804508D01*
X18562801Y-13804508D02*
X18581848Y-13794984D01*
X18743753Y-13994984D02*
X18781848Y-13994984D01*
X18781848Y-13994984D02*
X18800896Y-13985460D01*
X18800896Y-13985460D02*
X18810420Y-13975936D01*
X18810420Y-13975936D02*
X18829468Y-13947365D01*
X18829468Y-13947365D02*
X18838991Y-13909269D01*
X18838991Y-13909269D02*
X18838991Y-13833079D01*
X18838991Y-13833079D02*
X18829468Y-13814031D01*
X18829468Y-13814031D02*
X18819944Y-13804508D01*
X18819944Y-13804508D02*
X18800896Y-13794984D01*
X18800896Y-13794984D02*
X18762801Y-13794984D01*
X18762801Y-13794984D02*
X18743753Y-13804508D01*
X18743753Y-13804508D02*
X18734229Y-13814031D01*
X18734229Y-13814031D02*
X18724706Y-13833079D01*
X18724706Y-13833079D02*
X18724706Y-13880698D01*
X18724706Y-13880698D02*
X18734229Y-13899746D01*
X18734229Y-13899746D02*
X18743753Y-13909269D01*
X18743753Y-13909269D02*
X18762801Y-13918793D01*
X18762801Y-13918793D02*
X18800896Y-13918793D01*
X18800896Y-13918793D02*
X18819944Y-13909269D01*
X18819944Y-13909269D02*
X18829468Y-13899746D01*
X18829468Y-13899746D02*
X18838991Y-13880698D01*
X18953277Y-13880698D02*
X18934229Y-13871174D01*
X18934229Y-13871174D02*
X18924706Y-13861650D01*
X18924706Y-13861650D02*
X18915182Y-13842603D01*
X18915182Y-13842603D02*
X18915182Y-13833079D01*
X18915182Y-13833079D02*
X18924706Y-13814031D01*
X18924706Y-13814031D02*
X18934229Y-13804508D01*
X18934229Y-13804508D02*
X18953277Y-13794984D01*
X18953277Y-13794984D02*
X18991372Y-13794984D01*
X18991372Y-13794984D02*
X19010420Y-13804508D01*
X19010420Y-13804508D02*
X19019944Y-13814031D01*
X19019944Y-13814031D02*
X19029468Y-13833079D01*
X19029468Y-13833079D02*
X19029468Y-13842603D01*
X19029468Y-13842603D02*
X19019944Y-13861650D01*
X19019944Y-13861650D02*
X19010420Y-13871174D01*
X19010420Y-13871174D02*
X18991372Y-13880698D01*
X18991372Y-13880698D02*
X18953277Y-13880698D01*
X18953277Y-13880698D02*
X18934229Y-13890222D01*
X18934229Y-13890222D02*
X18924706Y-13899746D01*
X18924706Y-13899746D02*
X18915182Y-13918793D01*
X18915182Y-13918793D02*
X18915182Y-13956888D01*
X18915182Y-13956888D02*
X18924706Y-13975936D01*
X18924706Y-13975936D02*
X18934229Y-13985460D01*
X18934229Y-13985460D02*
X18953277Y-13994984D01*
X18953277Y-13994984D02*
X18991372Y-13994984D01*
X18991372Y-13994984D02*
X19010420Y-13985460D01*
X19010420Y-13985460D02*
X19019944Y-13975936D01*
X19019944Y-13975936D02*
X19029468Y-13956888D01*
X19029468Y-13956888D02*
X19029468Y-13918793D01*
X19029468Y-13918793D02*
X19019944Y-13899746D01*
X19019944Y-13899746D02*
X19010420Y-13890222D01*
X19010420Y-13890222D02*
X18991372Y-13880698D01*
X19200896Y-13861650D02*
X19200896Y-13994984D01*
X19153277Y-13785460D02*
X19105658Y-13928317D01*
X19105658Y-13928317D02*
X19229468Y-13928317D01*
X19296134Y-13794984D02*
X19296134Y-13833079D01*
X19372325Y-13794984D02*
X19372325Y-13833079D01*
X19667563Y-14071174D02*
X19658039Y-14061650D01*
X19658039Y-14061650D02*
X19638991Y-14033079D01*
X19638991Y-14033079D02*
X19629468Y-14014031D01*
X19629468Y-14014031D02*
X19619944Y-13985460D01*
X19619944Y-13985460D02*
X19610420Y-13937841D01*
X19610420Y-13937841D02*
X19610420Y-13899746D01*
X19610420Y-13899746D02*
X19619944Y-13852127D01*
X19619944Y-13852127D02*
X19629468Y-13823555D01*
X19629468Y-13823555D02*
X19638991Y-13804508D01*
X19638991Y-13804508D02*
X19658039Y-13775936D01*
X19658039Y-13775936D02*
X19667563Y-13766412D01*
X19829468Y-13861650D02*
X19829468Y-13994984D01*
X19781849Y-13785460D02*
X19734230Y-13928317D01*
X19734230Y-13928317D02*
X19858039Y-13928317D01*
X20086611Y-13994984D02*
X20086611Y-13794984D01*
X20172325Y-13994984D02*
X20172325Y-13890222D01*
X20172325Y-13890222D02*
X20162801Y-13871174D01*
X20162801Y-13871174D02*
X20143753Y-13861650D01*
X20143753Y-13861650D02*
X20115182Y-13861650D01*
X20115182Y-13861650D02*
X20096134Y-13871174D01*
X20096134Y-13871174D02*
X20086611Y-13880698D01*
X20296134Y-13994984D02*
X20277087Y-13985460D01*
X20277087Y-13985460D02*
X20267563Y-13975936D01*
X20267563Y-13975936D02*
X20258039Y-13956888D01*
X20258039Y-13956888D02*
X20258039Y-13899746D01*
X20258039Y-13899746D02*
X20267563Y-13880698D01*
X20267563Y-13880698D02*
X20277087Y-13871174D01*
X20277087Y-13871174D02*
X20296134Y-13861650D01*
X20296134Y-13861650D02*
X20324706Y-13861650D01*
X20324706Y-13861650D02*
X20343753Y-13871174D01*
X20343753Y-13871174D02*
X20353277Y-13880698D01*
X20353277Y-13880698D02*
X20362801Y-13899746D01*
X20362801Y-13899746D02*
X20362801Y-13956888D01*
X20362801Y-13956888D02*
X20353277Y-13975936D01*
X20353277Y-13975936D02*
X20343753Y-13985460D01*
X20343753Y-13985460D02*
X20324706Y-13994984D01*
X20324706Y-13994984D02*
X20296134Y-13994984D01*
X20477087Y-13994984D02*
X20458039Y-13985460D01*
X20458039Y-13985460D02*
X20448515Y-13966412D01*
X20448515Y-13966412D02*
X20448515Y-13794984D01*
X20629468Y-13985460D02*
X20610420Y-13994984D01*
X20610420Y-13994984D02*
X20572325Y-13994984D01*
X20572325Y-13994984D02*
X20553277Y-13985460D01*
X20553277Y-13985460D02*
X20543753Y-13966412D01*
X20543753Y-13966412D02*
X20543753Y-13890222D01*
X20543753Y-13890222D02*
X20553277Y-13871174D01*
X20553277Y-13871174D02*
X20572325Y-13861650D01*
X20572325Y-13861650D02*
X20610420Y-13861650D01*
X20610420Y-13861650D02*
X20629468Y-13871174D01*
X20629468Y-13871174D02*
X20638992Y-13890222D01*
X20638992Y-13890222D02*
X20638992Y-13909269D01*
X20638992Y-13909269D02*
X20543753Y-13928317D01*
X20715182Y-13985460D02*
X20734230Y-13994984D01*
X20734230Y-13994984D02*
X20772325Y-13994984D01*
X20772325Y-13994984D02*
X20791373Y-13985460D01*
X20791373Y-13985460D02*
X20800896Y-13966412D01*
X20800896Y-13966412D02*
X20800896Y-13956888D01*
X20800896Y-13956888D02*
X20791373Y-13937841D01*
X20791373Y-13937841D02*
X20772325Y-13928317D01*
X20772325Y-13928317D02*
X20743753Y-13928317D01*
X20743753Y-13928317D02*
X20724706Y-13918793D01*
X20724706Y-13918793D02*
X20715182Y-13899746D01*
X20715182Y-13899746D02*
X20715182Y-13890222D01*
X20715182Y-13890222D02*
X20724706Y-13871174D01*
X20724706Y-13871174D02*
X20743753Y-13861650D01*
X20743753Y-13861650D02*
X20772325Y-13861650D01*
X20772325Y-13861650D02*
X20791373Y-13871174D01*
X20867563Y-14071174D02*
X20877087Y-14061650D01*
X20877087Y-14061650D02*
X20896134Y-14033079D01*
X20896134Y-14033079D02*
X20905658Y-14014031D01*
X20905658Y-14014031D02*
X20915182Y-13985460D01*
X20915182Y-13985460D02*
X20924706Y-13937841D01*
X20924706Y-13937841D02*
X20924706Y-13899746D01*
X20924706Y-13899746D02*
X20915182Y-13852127D01*
X20915182Y-13852127D02*
X20905658Y-13823555D01*
X20905658Y-13823555D02*
X20896134Y-13804508D01*
X20896134Y-13804508D02*
X20877087Y-13775936D01*
X20877087Y-13775936D02*
X20867563Y-13766412D01*
X21229468Y-14071174D02*
X21219944Y-14061650D01*
X21219944Y-14061650D02*
X21200896Y-14033079D01*
X21200896Y-14033079D02*
X21191373Y-14014031D01*
X21191373Y-14014031D02*
X21181849Y-13985460D01*
X21181849Y-13985460D02*
X21172325Y-13937841D01*
X21172325Y-13937841D02*
X21172325Y-13899746D01*
X21172325Y-13899746D02*
X21181849Y-13852127D01*
X21181849Y-13852127D02*
X21191373Y-13823555D01*
X21191373Y-13823555D02*
X21200896Y-13804508D01*
X21200896Y-13804508D02*
X21219944Y-13775936D01*
X21219944Y-13775936D02*
X21229468Y-13766412D01*
X21305658Y-13861650D02*
X21305658Y-13994984D01*
X21305658Y-13880698D02*
X21315182Y-13871174D01*
X21315182Y-13871174D02*
X21334230Y-13861650D01*
X21334230Y-13861650D02*
X21362801Y-13861650D01*
X21362801Y-13861650D02*
X21381849Y-13871174D01*
X21381849Y-13871174D02*
X21391373Y-13890222D01*
X21391373Y-13890222D02*
X21391373Y-13994984D01*
X21515182Y-13994984D02*
X21496134Y-13985460D01*
X21496134Y-13985460D02*
X21486611Y-13975936D01*
X21486611Y-13975936D02*
X21477087Y-13956888D01*
X21477087Y-13956888D02*
X21477087Y-13899746D01*
X21477087Y-13899746D02*
X21486611Y-13880698D01*
X21486611Y-13880698D02*
X21496134Y-13871174D01*
X21496134Y-13871174D02*
X21515182Y-13861650D01*
X21515182Y-13861650D02*
X21543754Y-13861650D01*
X21543754Y-13861650D02*
X21562801Y-13871174D01*
X21562801Y-13871174D02*
X21572325Y-13880698D01*
X21572325Y-13880698D02*
X21581849Y-13899746D01*
X21581849Y-13899746D02*
X21581849Y-13956888D01*
X21581849Y-13956888D02*
X21572325Y-13975936D01*
X21572325Y-13975936D02*
X21562801Y-13985460D01*
X21562801Y-13985460D02*
X21543754Y-13994984D01*
X21543754Y-13994984D02*
X21515182Y-13994984D01*
X21638992Y-13861650D02*
X21715182Y-13861650D01*
X21667563Y-13794984D02*
X21667563Y-13966412D01*
X21667563Y-13966412D02*
X21677087Y-13985460D01*
X21677087Y-13985460D02*
X21696134Y-13994984D01*
X21696134Y-13994984D02*
X21715182Y-13994984D01*
X21934230Y-13861650D02*
X21934230Y-14061650D01*
X21934230Y-13871174D02*
X21953277Y-13861650D01*
X21953277Y-13861650D02*
X21991373Y-13861650D01*
X21991373Y-13861650D02*
X22010420Y-13871174D01*
X22010420Y-13871174D02*
X22019944Y-13880698D01*
X22019944Y-13880698D02*
X22029468Y-13899746D01*
X22029468Y-13899746D02*
X22029468Y-13956888D01*
X22029468Y-13956888D02*
X22019944Y-13975936D01*
X22019944Y-13975936D02*
X22010420Y-13985460D01*
X22010420Y-13985460D02*
X21991373Y-13994984D01*
X21991373Y-13994984D02*
X21953277Y-13994984D01*
X21953277Y-13994984D02*
X21934230Y-13985460D01*
X22143754Y-13994984D02*
X22124706Y-13985460D01*
X22124706Y-13985460D02*
X22115182Y-13966412D01*
X22115182Y-13966412D02*
X22115182Y-13794984D01*
X22305658Y-13994984D02*
X22305658Y-13890222D01*
X22305658Y-13890222D02*
X22296135Y-13871174D01*
X22296135Y-13871174D02*
X22277087Y-13861650D01*
X22277087Y-13861650D02*
X22238992Y-13861650D01*
X22238992Y-13861650D02*
X22219944Y-13871174D01*
X22305658Y-13985460D02*
X22286611Y-13994984D01*
X22286611Y-13994984D02*
X22238992Y-13994984D01*
X22238992Y-13994984D02*
X22219944Y-13985460D01*
X22219944Y-13985460D02*
X22210420Y-13966412D01*
X22210420Y-13966412D02*
X22210420Y-13947365D01*
X22210420Y-13947365D02*
X22219944Y-13928317D01*
X22219944Y-13928317D02*
X22238992Y-13918793D01*
X22238992Y-13918793D02*
X22286611Y-13918793D01*
X22286611Y-13918793D02*
X22305658Y-13909269D01*
X22372325Y-13861650D02*
X22448515Y-13861650D01*
X22400896Y-13794984D02*
X22400896Y-13966412D01*
X22400896Y-13966412D02*
X22410420Y-13985460D01*
X22410420Y-13985460D02*
X22429468Y-13994984D01*
X22429468Y-13994984D02*
X22448515Y-13994984D01*
X22591373Y-13985460D02*
X22572325Y-13994984D01*
X22572325Y-13994984D02*
X22534230Y-13994984D01*
X22534230Y-13994984D02*
X22515182Y-13985460D01*
X22515182Y-13985460D02*
X22505658Y-13966412D01*
X22505658Y-13966412D02*
X22505658Y-13890222D01*
X22505658Y-13890222D02*
X22515182Y-13871174D01*
X22515182Y-13871174D02*
X22534230Y-13861650D01*
X22534230Y-13861650D02*
X22572325Y-13861650D01*
X22572325Y-13861650D02*
X22591373Y-13871174D01*
X22591373Y-13871174D02*
X22600896Y-13890222D01*
X22600896Y-13890222D02*
X22600896Y-13909269D01*
X22600896Y-13909269D02*
X22505658Y-13928317D01*
X22772325Y-13994984D02*
X22772325Y-13794984D01*
X22772325Y-13985460D02*
X22753277Y-13994984D01*
X22753277Y-13994984D02*
X22715182Y-13994984D01*
X22715182Y-13994984D02*
X22696134Y-13985460D01*
X22696134Y-13985460D02*
X22686611Y-13975936D01*
X22686611Y-13975936D02*
X22677087Y-13956888D01*
X22677087Y-13956888D02*
X22677087Y-13899746D01*
X22677087Y-13899746D02*
X22686611Y-13880698D01*
X22686611Y-13880698D02*
X22696134Y-13871174D01*
X22696134Y-13871174D02*
X22715182Y-13861650D01*
X22715182Y-13861650D02*
X22753277Y-13861650D01*
X22753277Y-13861650D02*
X22772325Y-13871174D01*
X22848515Y-14071174D02*
X22858039Y-14061650D01*
X22858039Y-14061650D02*
X22877087Y-14033079D01*
X22877087Y-14033079D02*
X22886611Y-14014031D01*
X22886611Y-14014031D02*
X22896134Y-13985460D01*
X22896134Y-13985460D02*
X22905658Y-13937841D01*
X22905658Y-13937841D02*
X22905658Y-13899746D01*
X22905658Y-13899746D02*
X22896134Y-13852127D01*
X22896134Y-13852127D02*
X22886611Y-13823555D01*
X22886611Y-13823555D02*
X22877087Y-13804508D01*
X22877087Y-13804508D02*
X22858039Y-13775936D01*
X22858039Y-13775936D02*
X22848515Y-13766412D01*
M02*
