%TF.GenerationSoftware,KiCad,Pcbnew,10.0.1*%
%TF.CreationDate,2026-04-20T13:03:52-04:00*%
%TF.ProjectId,switching_circuit_v2,73776974-6368-4696-9e67-5f6369726375,rev?*%
%TF.SameCoordinates,Original*%
%TF.FileFunction,Copper,L2,Bot*%
%TF.FilePolarity,Positive*%
%FSLAX46Y46*%
G04 Gerber Fmt 4.6, Leading zero omitted, Abs format (unit mm)*
G04 Created by KiCad (PCBNEW 10.0.1) date 2026-04-20 13:03:52*
%MOMM*%
%LPD*%
G01*
G04 APERTURE LIST*
G04 Aperture macros list*
%AMRoundRect*
0 Rectangle with rounded corners*
0 $1 Rounding radius*
0 $2 $3 $4 $5 $6 $7 $8 $9 X,Y pos of 4 corners*
0 Add a 4 corners polygon primitive as box body*
4,1,4,$2,$3,$4,$5,$6,$7,$8,$9,$2,$3,0*
0 Add four circle primitives for the rounded corners*
1,1,$1+$1,$2,$3*
1,1,$1+$1,$4,$5*
1,1,$1+$1,$6,$7*
1,1,$1+$1,$8,$9*
0 Add four rect primitives between the rounded corners*
20,1,$1+$1,$2,$3,$4,$5,0*
20,1,$1+$1,$4,$5,$6,$7,0*
20,1,$1+$1,$6,$7,$8,$9,0*
20,1,$1+$1,$8,$9,$2,$3,0*%
G04 Aperture macros list end*
%TA.AperFunction,ComponentPad*%
%ADD10C,1.700000*%
%TD*%
%TA.AperFunction,ComponentPad*%
%ADD11R,1.700000X1.700000*%
%TD*%
%TA.AperFunction,ComponentPad*%
%ADD12RoundRect,0.250000X1.050000X-1.050000X1.050000X1.050000X-1.050000X1.050000X-1.050000X-1.050000X0*%
%TD*%
%TA.AperFunction,ComponentPad*%
%ADD13C,2.600000*%
%TD*%
%TA.AperFunction,ComponentPad*%
%ADD14RoundRect,0.250000X-0.725000X0.600000X-0.725000X-0.600000X0.725000X-0.600000X0.725000X0.600000X0*%
%TD*%
%TA.AperFunction,ComponentPad*%
%ADD15O,1.950000X1.700000*%
%TD*%
%TA.AperFunction,ComponentPad*%
%ADD16RoundRect,0.250000X0.725000X-0.600000X0.725000X0.600000X-0.725000X0.600000X-0.725000X-0.600000X0*%
%TD*%
%TA.AperFunction,ComponentPad*%
%ADD17RoundRect,0.250000X-1.050000X1.050000X-1.050000X-1.050000X1.050000X-1.050000X1.050000X1.050000X0*%
%TD*%
%TA.AperFunction,SMDPad,CuDef*%
%ADD18RoundRect,0.225000X-0.225000X-0.250000X0.225000X-0.250000X0.225000X0.250000X-0.225000X0.250000X0*%
%TD*%
%TA.AperFunction,SMDPad,CuDef*%
%ADD19RoundRect,0.250000X-0.475000X0.250000X-0.475000X-0.250000X0.475000X-0.250000X0.475000X0.250000X0*%
%TD*%
%TA.AperFunction,SMDPad,CuDef*%
%ADD20RoundRect,0.225000X-0.250000X0.225000X-0.250000X-0.225000X0.250000X-0.225000X0.250000X0.225000X0*%
%TD*%
%TA.AperFunction,SMDPad,CuDef*%
%ADD21RoundRect,0.250000X-0.250000X-0.475000X0.250000X-0.475000X0.250000X0.475000X-0.250000X0.475000X0*%
%TD*%
%TA.AperFunction,ViaPad*%
%ADD22C,0.800000*%
%TD*%
%TA.AperFunction,Conductor*%
%ADD23C,0.500000*%
%TD*%
%TA.AperFunction,Conductor*%
%ADD24C,0.250000*%
%TD*%
%TA.AperFunction,Conductor*%
%ADD25C,0.200000*%
%TD*%
G04 APERTURE END LIST*
D10*
%TO.P,A1,3V3,3V3_3V3*%
%TO.N,+3V3*%
X212689902Y-106979763D03*
%TO.P,A1,5V,5V_5V*%
%TO.N,+5V*%
X212689902Y-112059763D03*
%TO.P,A1,GND,GND_GND*%
%TO.N,GND*%
X212689902Y-109519763D03*
%TO.P,A1,GP0,GP0_GP0*%
%TO.N,TP_GP0*%
X197449902Y-112059763D03*
%TO.P,A1,GP1,GP1_GP1*%
%TO.N,TP_GP1*%
X197449902Y-109519763D03*
%TO.P,A1,GP2,GP2_GP2*%
%TO.N,GATE_P1_IN*%
X197449902Y-106979763D03*
%TO.P,A1,GP3,GP3_GP3*%
%TO.N,GATE_P2_IN*%
X197449902Y-104439763D03*
%TO.P,A1,GP4,GP4_GP4*%
%TO.N,GATE_N1_IN*%
X197449902Y-101899763D03*
%TO.P,A1,GP5,GP5_GP5*%
%TO.N,GATE_N2_IN*%
X197449902Y-99359763D03*
%TO.P,A1,GP6,GP6_GP6*%
%TO.N,SDA*%
X197449902Y-96819763D03*
%TO.P,A1,GP7,GP7_GP7*%
%TO.N,SCL*%
X197449902Y-94279763D03*
%TO.P,A1,GP8,GP8_GP8*%
%TO.N,ENC_CLK*%
X197449902Y-91739763D03*
%TO.P,A1,GP9,GP9_GP9*%
%TO.N,ENC_DT*%
X199989902Y-90469763D03*
%TO.P,A1,GP10,GP10_GP10*%
%TO.N,ENC_SW*%
X202529902Y-90469763D03*
%TO.P,A1,GP11,GP11_GP11*%
%TO.N,TP_GP11*%
X205069902Y-90469763D03*
%TO.P,A1,GP12,GP12_GP12*%
%TO.N,TP_GP12*%
X207609902Y-90469763D03*
%TO.P,A1,GP13,GP13_GP13*%
%TO.N,TP_GP13*%
X210149902Y-90469763D03*
%TO.P,A1,GP14,GP14_GP14*%
%TO.N,DISPLAY_CLK*%
X212689902Y-91739763D03*
%TO.P,A1,GP15,GP15_GP15*%
%TO.N,DISPLAY_DIO*%
X212689902Y-94279763D03*
%TO.P,A1,GP26,GP26_GP26*%
%TO.N,TP_GP26*%
X212689902Y-96819763D03*
%TO.P,A1,GP27,GP27_GP27*%
%TO.N,TP_GP27*%
X212689902Y-99359763D03*
%TO.P,A1,GP28,GP28_GP28*%
%TO.N,TP_GP28*%
X212689902Y-101899763D03*
%TO.P,A1,GP29,GP29_GP29*%
%TO.N,ALERT*%
X212689902Y-104439763D03*
%TD*%
%TO.P,PS1,4,Vout-_4*%
%TO.N,CELL_A_POS*%
X187393218Y-86929439D03*
%TO.P,PS1,3,Vout+_3*%
%TO.N,VCC2_P1*%
X184853218Y-86929439D03*
%TO.P,PS1,2,Vin-_2*%
%TO.N,GND*%
X182313218Y-86929439D03*
D11*
%TO.P,PS1,1,Vin+_1*%
%TO.N,+5V*%
X179773218Y-86929439D03*
%TD*%
D12*
%TO.P,J2,1,Pin_1_1*%
%TO.N,CELL_B_NEG*%
X240108483Y-102155940D03*
D13*
%TO.P,J2,2,Pin_2_2*%
%TO.N,CELL_A_NEG*%
X240108483Y-97075940D03*
%TO.P,J2,3,Pin_3_3*%
%TO.N,CELL_B_POS*%
X240108483Y-91995940D03*
%TO.P,J2,4,Pin_4_4*%
%TO.N,CELL_A_POS*%
X240108483Y-86915940D03*
%TD*%
D14*
%TO.P,J3,1,Pin_1_1*%
%TO.N,+3V3*%
X201038788Y-72035256D03*
D15*
%TO.P,J3,2,Pin_2_2*%
%TO.N,GND*%
X201038788Y-74535256D03*
%TO.P,J3,3,Pin_3_3*%
%TO.N,ENC_CLK*%
X201038788Y-77035256D03*
%TO.P,J3,4,Pin_4_4*%
%TO.N,ENC_DT*%
X201038788Y-79535256D03*
%TO.P,J3,5,Pin_5_5*%
%TO.N,ENC_SW*%
X201038788Y-82035256D03*
%TD*%
D16*
%TO.P,J4,1,Pin_1_1*%
%TO.N,+3V3*%
X209722473Y-79484439D03*
D15*
%TO.P,J4,2,Pin_2_2*%
%TO.N,GND*%
X209722473Y-76984439D03*
%TO.P,J4,3,Pin_3_3*%
%TO.N,DISPLAY_CLK*%
X209722473Y-74484439D03*
%TO.P,J4,4,Pin_4_4*%
%TO.N,DISPLAY_DIO*%
X209722473Y-71984439D03*
%TD*%
D17*
%TO.P,J1,1,Pin_1_1*%
%TO.N,CYCLER_IN+*%
X167000000Y-86915940D03*
D13*
%TO.P,J1,2,Pin_2_2*%
X167000000Y-91995940D03*
%TO.P,J1,3,Pin_3_3*%
%TO.N,CYCLER_IN-*%
X167000000Y-97075940D03*
%TO.P,J1,4,Pin_4_4*%
X167000000Y-102155940D03*
%TD*%
D11*
%TO.P,PS2,1,Vin+_1*%
%TO.N,+5V*%
X223569194Y-86929439D03*
D10*
%TO.P,PS2,2,Vin-_2*%
%TO.N,GND*%
X226109194Y-86929439D03*
%TO.P,PS2,3,Vout+_3*%
%TO.N,VCC2_P2*%
X228649194Y-86929439D03*
%TO.P,PS2,4,Vout-_4*%
%TO.N,CELL_B_POS*%
X231189194Y-86929439D03*
%TD*%
D18*
%TO.P,C_5V2,1*%
%TO.N,+5V*%
X180308218Y-88929439D03*
%TO.P,C_5V2,2*%
%TO.N,GND*%
X181858218Y-88929439D03*
%TD*%
D19*
%TO.P,C_VDD_U1_1,1*%
%TO.N,VCC2_P1*%
X191083218Y-74429439D03*
%TO.P,C_VDD_U1_1,2*%
%TO.N,CELL_A_POS*%
X191083218Y-76329439D03*
%TD*%
D20*
%TO.P,C_VDD_U4_2,1*%
%TO.N,+5V*%
X236907953Y-114889440D03*
%TO.P,C_VDD_U4_2,2*%
%TO.N,GND*%
X236907953Y-116439440D03*
%TD*%
D21*
%TO.P,C_5V1,1*%
%TO.N,+5V*%
X223749194Y-89929439D03*
%TO.P,C_5V1,2*%
%TO.N,GND*%
X225649194Y-89929439D03*
%TD*%
D20*
%TO.P,C_VDD_U2_2,1*%
%TO.N,VCC2_P2*%
X236649194Y-75154439D03*
%TO.P,C_VDD_U2_2,2*%
%TO.N,CELL_B_POS*%
X236649194Y-76704439D03*
%TD*%
D19*
%TO.P,C_VDD_U4_1,1*%
%TO.N,+5V*%
X234907953Y-114664440D03*
%TO.P,C_VDD_U4_1,2*%
%TO.N,GND*%
X234907953Y-116564440D03*
%TD*%
D20*
%TO.P,C_VDD_U3_2,1*%
%TO.N,+5V*%
X193306570Y-114588503D03*
%TO.P,C_VDD_U3_2,2*%
%TO.N,GND*%
X193306570Y-116138503D03*
%TD*%
D21*
%TO.P,C_PS1_IN1,1*%
%TO.N,+5V*%
X180233218Y-83984439D03*
%TO.P,C_PS1_IN1,2*%
%TO.N,GND*%
X182133218Y-83984439D03*
%TD*%
D19*
%TO.P,C_VDD_U3_1,1*%
%TO.N,+5V*%
X191306570Y-114638503D03*
%TO.P,C_VDD_U3_1,2*%
%TO.N,GND*%
X191306570Y-116538503D03*
%TD*%
D21*
%TO.P,C_PS2_OUT1,1*%
%TO.N,VCC2_P2*%
X229149194Y-84429439D03*
%TO.P,C_PS2_OUT1,2*%
%TO.N,CELL_B_POS*%
X231049194Y-84429439D03*
%TD*%
%TO.P,C_PS1_OUT1,1*%
%TO.N,VCC2_P1*%
X185403218Y-83929439D03*
%TO.P,C_PS1_OUT1,2*%
%TO.N,CELL_A_POS*%
X187303218Y-83929439D03*
%TD*%
D19*
%TO.P,C_VDD_U2_1,1*%
%TO.N,VCC2_P2*%
X234649194Y-74979439D03*
%TO.P,C_VDD_U2_1,2*%
%TO.N,CELL_B_POS*%
X234649194Y-76879439D03*
%TD*%
D21*
%TO.P,C_PS2_IN1,1*%
%TO.N,+5V*%
X223749194Y-84429439D03*
%TO.P,C_PS2_IN1,2*%
%TO.N,GND*%
X225649194Y-84429439D03*
%TD*%
D20*
%TO.P,C_VDD_U1_2,1*%
%TO.N,VCC2_P1*%
X193083218Y-74654439D03*
%TO.P,C_VDD_U1_2,2*%
%TO.N,CELL_A_POS*%
X193083218Y-76204439D03*
%TD*%
D22*
%TO.N,GND*%
X227300000Y-85600000D03*
X225000000Y-88400000D03*
X227400000Y-88400000D03*
X181300000Y-85700000D03*
X185200000Y-104400000D03*
X186100000Y-104100000D03*
X185500000Y-103300000D03*
X186100000Y-95500000D03*
X185200000Y-95000000D03*
X224600000Y-94800000D03*
X224900000Y-95700000D03*
X224700000Y-104200000D03*
X224700000Y-105400000D03*
X214200000Y-108000000D03*
X214200000Y-108900000D03*
X214200000Y-109800000D03*
X216400000Y-113000000D03*
X213000000Y-114000000D03*
X209000000Y-105000000D03*
X209000000Y-106000000D03*
X209000000Y-107000000D03*
X209000000Y-112000000D03*
X209000000Y-111000000D03*
X209000000Y-110000000D03*
X209000000Y-109000000D03*
X209000000Y-108000000D03*
X194000000Y-113000000D03*
X193000000Y-113000000D03*
X192000000Y-113000000D03*
X196000000Y-116000000D03*
X196000000Y-117000000D03*
X195000000Y-117000000D03*
X195000000Y-116000000D03*
X238000000Y-113000000D03*
X239000000Y-113000000D03*
X239000000Y-114000000D03*
X239000000Y-115000000D03*
X240000000Y-119000000D03*
X239000000Y-120000000D03*
X239000000Y-119000000D03*
X238000000Y-73000000D03*
X237000000Y-73000000D03*
X236000000Y-73000000D03*
X232000000Y-81000000D03*
X232000000Y-80000000D03*
X240000000Y-78000000D03*
X239000000Y-78000000D03*
X239000000Y-77000000D03*
X196000000Y-81000000D03*
X195000000Y-81000000D03*
X195000000Y-80000000D03*
X196000000Y-76000000D03*
X196000000Y-77000000D03*
X195000000Y-76000000D03*
X162000000Y-74000000D03*
X162000000Y-78000000D03*
X162000000Y-83000000D03*
X162000000Y-106000000D03*
X162000000Y-110000000D03*
X162000000Y-115000000D03*
X167000000Y-121000000D03*
X172000000Y-121000000D03*
X177000000Y-121000000D03*
X216000000Y-121000000D03*
X222000000Y-121000000D03*
X233000000Y-121000000D03*
X238000000Y-121000000D03*
X241000000Y-121000000D03*
X246000000Y-116000000D03*
X246000000Y-111000000D03*
X246000000Y-106000000D03*
X246000000Y-101000000D03*
X246000000Y-96000000D03*
X246000000Y-91000000D03*
X246000000Y-86000000D03*
X246000000Y-81000000D03*
X246000000Y-76000000D03*
X238000000Y-69000000D03*
X233000000Y-69000000D03*
X228000000Y-69000000D03*
X223000000Y-69000000D03*
X218000000Y-69000000D03*
X213000000Y-69000000D03*
X208000000Y-69000000D03*
X203000000Y-69000000D03*
X198000000Y-69000000D03*
X193000000Y-69000000D03*
X188000000Y-69000000D03*
X183000000Y-69000000D03*
X178000000Y-69000000D03*
X173000000Y-69000000D03*
X168000000Y-69000000D03*
%TO.N,SCL*%
X219900000Y-96700000D03*
%TO.N,+3V3*%
X191500000Y-96900000D03*
%TO.N,+5V*%
X219600000Y-118900000D03*
X233700000Y-112600000D03*
%TO.N,+HV*%
X183200000Y-98000000D03*
X227500000Y-93400000D03*
%TO.N,TP_GP13*%
X210155025Y-96555025D03*
%TO.N,TP_GP11*%
X205100000Y-96600000D03*
%TO.N,TP_GP12*%
X207600000Y-96600000D03*
%TO.N,+HV_P2*%
X225700000Y-94900000D03*
X236300000Y-79400000D03*
%TO.N,ALERT*%
X219044975Y-103355025D03*
X221144975Y-103355025D03*
X220475000Y-95075000D03*
%TO.N,GND*%
X225389695Y-104800000D03*
X225668723Y-96188931D03*
%TO.N,+5V*%
X222400000Y-88900000D03*
%TO.N,SDA*%
X219709408Y-95718330D03*
%TO.N,GATE_N2_IN*%
X218600000Y-107400000D03*
%TO.N,GND_N1*%
X188500000Y-120500000D03*
X183600000Y-105800000D03*
%TO.N,TP_GP28*%
X215300000Y-117400000D03*
%TO.N,CELL_B_POS*%
X230000000Y-76600000D03*
%TO.N,VCC2_P2*%
X233800000Y-73400000D03*
%TO.N,GND*%
X224375000Y-77889438D03*
%TO.N,CELL_A_POS*%
X186700000Y-76500000D03*
%TO.N,+HV_P1*%
X180400000Y-92037500D03*
X192675000Y-79400000D03*
%TO.N,VCC2_P1*%
X186700000Y-73425000D03*
%TO.N,GND*%
X172800000Y-89000000D03*
X172800000Y-90900000D03*
X172800000Y-92600000D03*
X176700000Y-96100000D03*
%TO.N,CELL_B_NEG*%
X236700000Y-119100000D03*
%TO.N,GND*%
X229900000Y-117100000D03*
X224600000Y-117100000D03*
%TO.N,CELL_A_NEG*%
X192775000Y-118600000D03*
%TO.N,GND*%
X188400000Y-118200000D03*
%TO.N,+5V*%
X190100000Y-113300000D03*
%TO.N,GND*%
X190600000Y-110700000D03*
X219800000Y-89700000D03*
X191000000Y-89800000D03*
%TO.N,ALERT*%
X190700000Y-96100000D03*
X190200000Y-103200000D03*
%TO.N,SDA*%
X194400000Y-98200000D03*
X189600000Y-102200000D03*
%TO.N,SCL*%
X194400000Y-92900000D03*
X188600000Y-101800000D03*
%TO.N,+3V3*%
X191500000Y-94325000D03*
%TO.N,GND*%
X180700000Y-79100000D03*
X165700000Y-81600000D03*
X185800000Y-94100000D03*
X180400000Y-102100000D03*
X173400000Y-108200000D03*
%TD*%
%TO.N,+HV_P2*%
D23*
X236300000Y-79400000D02*
X241900000Y-85000000D01*
X241900000Y-85000000D02*
X241900000Y-87700000D01*
X241900000Y-87700000D02*
X234700000Y-94900000D01*
X234700000Y-94900000D02*
X225700000Y-94900000D01*
%TO.N,CELL_A_NEG*%
X240108483Y-97075940D02*
X218584423Y-118600000D01*
X218584423Y-118600000D02*
X192775000Y-118600000D01*
%TO.N,VCC2_P1*%
X187704439Y-74429439D02*
X186700000Y-73425000D01*
X191083218Y-74429439D02*
X187704439Y-74429439D01*
%TO.N,+5V*%
X233700000Y-112600000D02*
X233700000Y-112700000D01*
X233700000Y-112700000D02*
X233100000Y-113300000D01*
X233100000Y-113300000D02*
X225200000Y-113300000D01*
X225200000Y-113300000D02*
X219600000Y-118900000D01*
X233700000Y-112600000D02*
X233698772Y-112601228D01*
X233698772Y-112601228D02*
X233698772Y-113298772D01*
X233698772Y-113298772D02*
X235289440Y-114889440D01*
X235289440Y-114889440D02*
X236907953Y-114889440D01*
X233700000Y-112600000D02*
X233700000Y-113456487D01*
X233700000Y-113456487D02*
X234907953Y-114664440D01*
%TO.N,GATE_N2_IN*%
D24*
X218600000Y-107400000D02*
X218600000Y-104100000D01*
X218600000Y-104100000D02*
X215249763Y-100749763D01*
X215249763Y-100749763D02*
X213201603Y-100749763D01*
X213201603Y-100749763D02*
X213176603Y-100724763D01*
X213176603Y-100724763D02*
X212203201Y-100724763D01*
X212203201Y-100724763D02*
X212178201Y-100749763D01*
X212178201Y-100749763D02*
X198839902Y-100749763D01*
X198839902Y-100749763D02*
X197449902Y-99359763D01*
%TO.N,+HV*%
D23*
X227500000Y-93400000D02*
X221400000Y-93400000D01*
X221400000Y-93400000D02*
X217169763Y-89169763D01*
X217169763Y-89169763D02*
X195430237Y-89169763D01*
X195430237Y-89169763D02*
X186600000Y-98000000D01*
X186600000Y-98000000D02*
X183200000Y-98000000D01*
%TO.N,ALERT*%
D24*
X190700000Y-96100000D02*
X190700000Y-98300000D01*
X190700000Y-98300000D02*
X187875000Y-101125000D01*
X187875000Y-101125000D02*
X187875000Y-102100305D01*
X187875000Y-102100305D02*
X188974695Y-103200000D01*
X188974695Y-103200000D02*
X190200000Y-103200000D01*
%TO.N,SCL*%
D25*
X219900000Y-96700000D02*
X214500000Y-96700000D01*
X214500000Y-96700000D02*
X213400000Y-95600000D01*
X212100000Y-95600000D02*
X210100000Y-97600000D01*
X213400000Y-95600000D02*
X212100000Y-95600000D01*
X210100000Y-97600000D02*
X200770139Y-97600000D01*
X200770139Y-97600000D02*
X197449902Y-94279763D01*
%TO.N,SDA*%
X219709408Y-95718330D02*
X219791078Y-95800000D01*
X220300000Y-95800000D02*
X220700000Y-96200000D01*
X220700000Y-96200000D02*
X220700000Y-96925305D01*
X219791078Y-95800000D02*
X220300000Y-95800000D01*
X220700000Y-96925305D02*
X220200305Y-97425000D01*
X220200305Y-97425000D02*
X214475000Y-97425000D01*
X214475000Y-97425000D02*
X213800000Y-98100000D01*
X213800000Y-98100000D02*
X198730139Y-98100000D01*
X198730139Y-98100000D02*
X197449902Y-96819763D01*
%TO.N,ALERT*%
D24*
X220475000Y-95075000D02*
X221200000Y-95800000D01*
X221200000Y-95800000D02*
X221200000Y-103300000D01*
X221200000Y-103300000D02*
X221144975Y-103355025D01*
%TO.N,+3V3*%
X191500000Y-94325000D02*
X191500000Y-96900000D01*
%TO.N,TP_GP11*%
X205100000Y-96600000D02*
X205100000Y-90499861D01*
X205100000Y-90499861D02*
X205069902Y-90469763D01*
%TO.N,TP_GP12*%
X207600000Y-96200000D02*
X207609902Y-96190098D01*
X207600000Y-96600000D02*
X207600000Y-96200000D01*
X207609902Y-96190098D02*
X207609902Y-90469763D01*
%TO.N,TP_GP13*%
X210149902Y-95550098D02*
X210149902Y-90469763D01*
X210155025Y-96555025D02*
X210155025Y-95555221D01*
X210155025Y-95555221D02*
X210149902Y-95550098D01*
%TO.N,ALERT*%
X190200000Y-103200000D02*
X211450139Y-103200000D01*
X211450139Y-103200000D02*
X212689902Y-104439763D01*
X219044975Y-103355025D02*
X221144975Y-103355025D01*
%TO.N,TP_GP28*%
X215300000Y-117400000D02*
X215300000Y-104509861D01*
%TO.N,+5V*%
D23*
X223429439Y-89929439D02*
X222400000Y-88900000D01*
X223749194Y-89929439D02*
X223429439Y-89929439D01*
X223569194Y-86929439D02*
X223569194Y-89749439D01*
X223569194Y-89749439D02*
X223749194Y-89929439D01*
%TO.N,CELL_A_POS*%
X193083218Y-76204439D02*
X205178779Y-88300000D01*
X205178779Y-88300000D02*
X219800000Y-88300000D01*
X219800000Y-88300000D02*
X222700000Y-91200000D01*
X222700000Y-91200000D02*
X235824423Y-91200000D01*
X235824423Y-91200000D02*
X240108483Y-86915940D01*
%TO.N,+5V*%
X223569194Y-86929439D02*
X223569194Y-84609439D01*
X223569194Y-84609439D02*
X223749194Y-84429439D01*
%TO.N,SDA*%
D25*
X194400000Y-98200000D02*
X196069665Y-98200000D01*
X196069665Y-98200000D02*
X197449902Y-96819763D01*
%TO.N,SCL*%
X194400000Y-92900000D02*
X196070139Y-92900000D01*
X196070139Y-92900000D02*
X197449902Y-94279763D01*
%TO.N,GND_N1*%
D23*
X183600000Y-115600000D02*
X188500000Y-120500000D01*
X183600000Y-105800000D02*
X183600000Y-115600000D01*
%TO.N,CELL_B_POS*%
X234649194Y-76879439D02*
X236474194Y-76879439D01*
X236474194Y-76879439D02*
X236649194Y-76704439D01*
X233600000Y-76600000D02*
X233879439Y-76879439D01*
X230000000Y-76600000D02*
X233600000Y-76600000D01*
X233879439Y-76879439D02*
X234649194Y-76879439D01*
X231049194Y-84429439D02*
X231049194Y-86789439D01*
X231049194Y-86789439D02*
X231189194Y-86929439D01*
%TO.N,VCC2_P2*%
X229149194Y-84429439D02*
X229149194Y-86429439D01*
X229149194Y-86429439D02*
X228649194Y-86929439D01*
X234649194Y-74979439D02*
X236474194Y-74979439D01*
X236474194Y-74979439D02*
X236649194Y-75154439D01*
X233800000Y-74130245D02*
X234649194Y-74979439D01*
X233800000Y-73400000D02*
X233800000Y-74130245D01*
%TO.N,CELL_A_POS*%
X187300000Y-76500000D02*
X187470561Y-76329439D01*
X187470561Y-76329439D02*
X191083218Y-76329439D01*
X186700000Y-76500000D02*
X187300000Y-76500000D01*
X191083218Y-76329439D02*
X192958218Y-76329439D01*
X192958218Y-76329439D02*
X193083218Y-76204439D01*
%TO.N,+HV_P1*%
X192675000Y-79400000D02*
X192675000Y-83486135D01*
X192675000Y-83486135D02*
X184123635Y-92037500D01*
X184123635Y-92037500D02*
X180400000Y-92037500D01*
%TO.N,VCC2_P1*%
X191083218Y-74429439D02*
X192858218Y-74429439D01*
X192858218Y-74429439D02*
X193083218Y-74654439D01*
%TO.N,CELL_B_NEG*%
X236700000Y-119100000D02*
X240108483Y-115691517D01*
X240108483Y-115691517D02*
X240108483Y-102155940D01*
%TO.N,+5V*%
X193306570Y-114588503D02*
X210161162Y-114588503D01*
X210161162Y-114588503D02*
X212689902Y-112059763D01*
%TO.N,GND*%
X191306570Y-116538503D02*
X192906570Y-116538503D01*
X192906570Y-116538503D02*
X193306570Y-116138503D01*
X188400000Y-118200000D02*
X189645073Y-118200000D01*
X189645073Y-118200000D02*
X191306570Y-116538503D01*
%TO.N,+5V*%
X193306570Y-114588503D02*
X191388503Y-114588503D01*
X191388503Y-114588503D02*
X190100000Y-113300000D01*
X190100000Y-113300000D02*
X190100000Y-113431933D01*
X190100000Y-113431933D02*
X191306570Y-114638503D01*
%TO.N,SDA*%
D25*
X193600000Y-98200000D02*
X194400000Y-98200000D01*
X189600000Y-102200000D02*
X193600000Y-98200000D01*
%TO.N,SCL*%
X188600000Y-101800000D02*
X194400000Y-96000000D01*
X194400000Y-96000000D02*
X194400000Y-92900000D01*
%TO.N,+5V*%
D23*
X180308218Y-88929439D02*
X180308218Y-87464439D01*
X180308218Y-87464439D02*
X179773218Y-86929439D01*
%TO.N,GND*%
X181858218Y-88929439D02*
X181858218Y-87384439D01*
X181858218Y-87384439D02*
X182313218Y-86929439D01*
%TO.N,+5V*%
X179773218Y-86929439D02*
X179773218Y-84444439D01*
X179773218Y-84444439D02*
X180233218Y-83984439D01*
%TO.N,GND*%
X182313218Y-86929439D02*
X182313218Y-84164439D01*
X182313218Y-84164439D02*
X182133218Y-83984439D01*
%TO.N,VCC2_P1*%
X184853218Y-86929439D02*
X184853218Y-84479439D01*
X184853218Y-84479439D02*
X185403218Y-83929439D01*
%TO.N,CELL_A_POS*%
X187393218Y-86929439D02*
X187393218Y-84019439D01*
X187393218Y-84019439D02*
X187303218Y-83929439D01*
%TO.N,TP_GP28*%
D24*
X215300000Y-104509861D02*
X212689902Y-101899763D01*
%TD*%
%TA.AperFunction,Conductor*%
%TO.N,GND*%
G36*
X224598586Y-84984339D02*
G01*
X224648989Y-85032726D01*
X224659098Y-85055356D01*
X224714836Y-85223560D01*
X224714837Y-85223563D01*
X224806878Y-85372784D01*
X224930848Y-85496754D01*
X225080069Y-85588795D01*
X225080074Y-85588797D01*
X225246501Y-85643945D01*
X225252799Y-85645294D01*
X225314232Y-85678576D01*
X225347919Y-85739789D01*
X225350458Y-85776275D01*
X225347475Y-85814166D01*
X225979785Y-86446476D01*
X225916201Y-86463514D01*
X225802187Y-86529340D01*
X225709095Y-86622432D01*
X225643269Y-86736446D01*
X225626231Y-86800030D01*
X224993922Y-86167721D01*
X224993921Y-86167721D01*
X224954574Y-86221878D01*
X224855888Y-86415560D01*
X224854872Y-86415042D01*
X224814406Y-86465252D01*
X224748110Y-86487311D01*
X224680412Y-86470027D01*
X224632806Y-86418886D01*
X224619694Y-86363390D01*
X224619694Y-86059688D01*
X224619693Y-86059686D01*
X224608062Y-86001209D01*
X224608061Y-86001208D01*
X224563746Y-85934886D01*
X224497424Y-85890571D01*
X224497423Y-85890570D01*
X224438946Y-85878939D01*
X224438942Y-85878939D01*
X224143694Y-85878939D01*
X224076655Y-85859254D01*
X224030900Y-85806450D01*
X224019694Y-85754939D01*
X224019694Y-85462532D01*
X224039379Y-85395493D01*
X224092183Y-85349738D01*
X224102739Y-85345491D01*
X224146965Y-85330014D01*
X224212076Y-85307232D01*
X224321344Y-85226589D01*
X224401987Y-85117321D01*
X224424352Y-85053403D01*
X224465071Y-84996631D01*
X224530024Y-84970883D01*
X224598586Y-84984339D01*
G37*
%TD.AperFunction*%
%TA.AperFunction,Conductor*%
G36*
X181847293Y-87122432D02*
G01*
X181913119Y-87236446D01*
X182006211Y-87329538D01*
X182120225Y-87395364D01*
X182183809Y-87412401D01*
X181531158Y-88065053D01*
X181469835Y-88098538D01*
X181400143Y-88093554D01*
X181355796Y-88065053D01*
X181314776Y-88024033D01*
X181314775Y-88024033D01*
X181180485Y-88106866D01*
X181060643Y-88226709D01*
X180998609Y-88327280D01*
X180981317Y-88342832D01*
X180967377Y-88361453D01*
X180955824Y-88365760D01*
X180946660Y-88374004D01*
X180923703Y-88377739D01*
X180901911Y-88385866D01*
X180889865Y-88383245D01*
X180877697Y-88385225D01*
X180856364Y-88375955D01*
X180833639Y-88371011D01*
X180817946Y-88359262D01*
X180813616Y-88357381D01*
X180805386Y-88349859D01*
X180795033Y-88339505D01*
X180761551Y-88278180D01*
X180758718Y-88251828D01*
X180758718Y-87975153D01*
X180778403Y-87908114D01*
X180779617Y-87906261D01*
X180812085Y-87857670D01*
X180812086Y-87857668D01*
X180823717Y-87799191D01*
X180823718Y-87799189D01*
X180823718Y-87495487D01*
X180843403Y-87428448D01*
X180896207Y-87382693D01*
X180965365Y-87372749D01*
X181028921Y-87401774D01*
X181059156Y-87443703D01*
X181059912Y-87443318D01*
X181158593Y-87636989D01*
X181197946Y-87691155D01*
X181830255Y-87058847D01*
X181847293Y-87122432D01*
G37*
%TD.AperFunction*%
%TA.AperFunction,Conductor*%
G36*
X244503472Y-67800695D02*
G01*
X244795306Y-67817084D01*
X244809103Y-67818638D01*
X245093827Y-67867015D01*
X245107384Y-67870109D01*
X245384899Y-67950060D01*
X245398025Y-67954653D01*
X245664841Y-68065172D01*
X245677355Y-68071198D01*
X245843443Y-68162992D01*
X245930124Y-68210899D01*
X245941898Y-68218297D01*
X246177439Y-68385422D01*
X246188307Y-68394090D01*
X246403641Y-68586526D01*
X246413473Y-68596358D01*
X246605909Y-68811692D01*
X246614580Y-68822564D01*
X246781702Y-69058101D01*
X246789100Y-69069875D01*
X246928797Y-69322637D01*
X246934830Y-69335165D01*
X247045346Y-69601975D01*
X247049939Y-69615100D01*
X247129890Y-69892615D01*
X247132984Y-69906172D01*
X247181359Y-70190885D01*
X247182916Y-70204703D01*
X247199305Y-70496527D01*
X247199500Y-70503480D01*
X247199500Y-118996519D01*
X247199305Y-119003472D01*
X247182916Y-119295296D01*
X247181359Y-119309114D01*
X247132984Y-119593827D01*
X247129890Y-119607384D01*
X247049939Y-119884899D01*
X247045346Y-119898024D01*
X246934830Y-120164834D01*
X246928797Y-120177362D01*
X246789100Y-120430124D01*
X246781702Y-120441898D01*
X246614580Y-120677435D01*
X246605909Y-120688307D01*
X246413473Y-120903641D01*
X246403641Y-120913473D01*
X246188307Y-121105909D01*
X246177435Y-121114580D01*
X245941898Y-121281702D01*
X245930124Y-121289100D01*
X245677362Y-121428797D01*
X245664834Y-121434830D01*
X245398024Y-121545346D01*
X245384899Y-121549939D01*
X245107384Y-121629890D01*
X245093827Y-121632984D01*
X244809114Y-121681359D01*
X244795296Y-121682916D01*
X244503472Y-121699305D01*
X244496519Y-121699500D01*
X164003481Y-121699500D01*
X163996528Y-121699305D01*
X163704703Y-121682916D01*
X163690885Y-121681359D01*
X163406172Y-121632984D01*
X163392615Y-121629890D01*
X163115100Y-121549939D01*
X163101975Y-121545346D01*
X162835165Y-121434830D01*
X162822637Y-121428797D01*
X162569875Y-121289100D01*
X162558101Y-121281702D01*
X162322564Y-121114580D01*
X162311692Y-121105909D01*
X162305639Y-121100500D01*
X162171387Y-120980524D01*
X162096358Y-120913473D01*
X162086526Y-120903641D01*
X161894090Y-120688307D01*
X161885419Y-120677435D01*
X161718297Y-120441898D01*
X161710899Y-120430124D01*
X161680139Y-120374468D01*
X161571198Y-120177355D01*
X161565172Y-120164841D01*
X161455264Y-119899500D01*
X161454653Y-119898024D01*
X161450060Y-119884899D01*
X161370109Y-119607384D01*
X161367015Y-119593827D01*
X161345758Y-119468716D01*
X161318638Y-119309103D01*
X161317084Y-119295306D01*
X161300695Y-119003472D01*
X161300500Y-118996519D01*
X161300500Y-118385837D01*
X163049500Y-118385837D01*
X163049500Y-118614162D01*
X163085215Y-118839660D01*
X163155770Y-119056803D01*
X163228988Y-119200500D01*
X163259421Y-119260228D01*
X163393621Y-119444937D01*
X163555063Y-119606379D01*
X163739772Y-119740579D01*
X163835884Y-119789550D01*
X163943196Y-119844229D01*
X163943198Y-119844229D01*
X163943201Y-119844231D01*
X164023393Y-119870287D01*
X164160339Y-119914784D01*
X164385838Y-119950500D01*
X164385843Y-119950500D01*
X164614162Y-119950500D01*
X164839660Y-119914784D01*
X164889604Y-119898556D01*
X165056799Y-119844231D01*
X165260228Y-119740579D01*
X165444937Y-119606379D01*
X165606379Y-119444937D01*
X165740579Y-119260228D01*
X165844231Y-119056799D01*
X165914784Y-118839660D01*
X165950500Y-118614162D01*
X165950500Y-118385837D01*
X165914784Y-118160339D01*
X165865238Y-118007853D01*
X165844231Y-117943201D01*
X165844229Y-117943198D01*
X165844229Y-117943196D01*
X165755327Y-117768717D01*
X165740579Y-117739772D01*
X165606379Y-117555063D01*
X165444937Y-117393621D01*
X165260228Y-117259421D01*
X165216248Y-117237012D01*
X165056803Y-117155770D01*
X164839660Y-117085215D01*
X164614162Y-117049500D01*
X164614157Y-117049500D01*
X164385843Y-117049500D01*
X164385838Y-117049500D01*
X164160339Y-117085215D01*
X163943196Y-117155770D01*
X163739771Y-117259421D01*
X163555061Y-117393622D01*
X163393622Y-117555061D01*
X163259421Y-117739771D01*
X163155770Y-117943196D01*
X163085215Y-118160339D01*
X163049500Y-118385837D01*
X161300500Y-118385837D01*
X161300500Y-105720943D01*
X182999500Y-105720943D01*
X182999500Y-105879056D01*
X183040423Y-106031783D01*
X183040426Y-106031790D01*
X183119473Y-106168706D01*
X183119477Y-106168712D01*
X183119480Y-106168716D01*
X183119482Y-106168718D01*
X183123872Y-106174438D01*
X183149069Y-106239606D01*
X183149500Y-106249930D01*
X183149500Y-115659308D01*
X183173712Y-115749672D01*
X183180200Y-115773885D01*
X183180200Y-115773886D01*
X183180201Y-115773887D01*
X183239511Y-115876614D01*
X183239513Y-115876616D01*
X187863299Y-120500402D01*
X187896784Y-120561725D01*
X187898556Y-120571893D01*
X187899498Y-120579050D01*
X187899500Y-120579056D01*
X187899500Y-120579057D01*
X187928773Y-120688307D01*
X187940423Y-120731783D01*
X187940426Y-120731790D01*
X188019475Y-120868709D01*
X188019479Y-120868714D01*
X188019480Y-120868716D01*
X188131284Y-120980520D01*
X188131286Y-120980521D01*
X188131290Y-120980524D01*
X188268209Y-121059573D01*
X188268216Y-121059577D01*
X188420943Y-121100500D01*
X188420945Y-121100500D01*
X188579055Y-121100500D01*
X188579057Y-121100500D01*
X188731784Y-121059577D01*
X188868716Y-120980520D01*
X188980520Y-120868716D01*
X189059577Y-120731784D01*
X189100500Y-120579057D01*
X189100500Y-120420943D01*
X189059577Y-120268216D01*
X189059573Y-120268209D01*
X188980524Y-120131290D01*
X188980518Y-120131282D01*
X188868717Y-120019481D01*
X188868709Y-120019475D01*
X188731790Y-119940426D01*
X188731786Y-119940424D01*
X188731784Y-119940423D01*
X188579057Y-119899500D01*
X188579050Y-119899498D01*
X188571893Y-119898556D01*
X188507997Y-119870287D01*
X188500402Y-119863299D01*
X185475592Y-116838489D01*
X190081571Y-116838489D01*
X190092064Y-116941200D01*
X190147211Y-117107622D01*
X190147213Y-117107627D01*
X190239254Y-117256848D01*
X190363224Y-117380818D01*
X190512445Y-117472859D01*
X190512450Y-117472861D01*
X190678872Y-117528008D01*
X190678879Y-117528009D01*
X190781589Y-117538502D01*
X191056569Y-117538502D01*
X191056570Y-117538501D01*
X191056570Y-116788503D01*
X190081571Y-116788503D01*
X190081571Y-116838489D01*
X185475592Y-116838489D01*
X184086819Y-115449716D01*
X184053334Y-115388393D01*
X184050500Y-115362035D01*
X184050500Y-113220943D01*
X189499500Y-113220943D01*
X189499500Y-113379056D01*
X189540423Y-113531783D01*
X189540426Y-113531790D01*
X189619475Y-113668709D01*
X189619479Y-113668714D01*
X189619480Y-113668716D01*
X189731284Y-113780520D01*
X189731286Y-113780521D01*
X189731290Y-113780524D01*
X189868213Y-113859576D01*
X189875728Y-113862689D01*
X189875152Y-113864078D01*
X189922207Y-113891243D01*
X190344751Y-114313787D01*
X190378236Y-114375110D01*
X190381070Y-114401468D01*
X190381070Y-114942772D01*
X190383923Y-114973202D01*
X190383923Y-114973204D01*
X190427674Y-115098234D01*
X190428777Y-115101385D01*
X190509420Y-115210653D01*
X190618688Y-115291296D01*
X190682603Y-115313661D01*
X190739377Y-115354381D01*
X190765125Y-115419333D01*
X190751669Y-115487895D01*
X190703282Y-115538298D01*
X190680652Y-115548407D01*
X190512448Y-115604145D01*
X190512445Y-115604146D01*
X190363224Y-115696187D01*
X190239254Y-115820157D01*
X190147213Y-115969378D01*
X190147211Y-115969383D01*
X190092064Y-116135805D01*
X190092063Y-116135812D01*
X190081570Y-116238516D01*
X190081570Y-116288503D01*
X191182570Y-116288503D01*
X191249609Y-116308188D01*
X191295364Y-116360992D01*
X191306570Y-116412503D01*
X191306570Y-116538503D01*
X191432570Y-116538503D01*
X191499609Y-116558188D01*
X191545364Y-116610992D01*
X191556570Y-116662503D01*
X191556570Y-117538502D01*
X191831542Y-117538502D01*
X191831556Y-117538501D01*
X191934267Y-117528008D01*
X192100689Y-117472861D01*
X192100694Y-117472859D01*
X192249915Y-117380818D01*
X192373885Y-117256848D01*
X192465926Y-117107627D01*
X192465928Y-117107622D01*
X192487202Y-117043423D01*
X192526975Y-116985978D01*
X192591490Y-116959155D01*
X192660266Y-116971470D01*
X192670005Y-116976889D01*
X192748077Y-117025045D01*
X192748088Y-117025050D01*
X192908963Y-117078358D01*
X193008253Y-117088502D01*
X193556570Y-117088502D01*
X193604878Y-117088502D01*
X193604892Y-117088501D01*
X193704177Y-117078358D01*
X193865051Y-117025050D01*
X193865062Y-117025045D01*
X194009298Y-116936078D01*
X194009302Y-116936075D01*
X194129142Y-116816235D01*
X194129145Y-116816231D01*
X194218112Y-116671995D01*
X194218117Y-116671984D01*
X194271425Y-116511109D01*
X194281569Y-116411825D01*
X194281570Y-116411812D01*
X194281570Y-116388503D01*
X193556570Y-116388503D01*
X193556570Y-117088502D01*
X193008253Y-117088502D01*
X193056569Y-117088501D01*
X193056570Y-117088501D01*
X193056570Y-116262503D01*
X193076255Y-116195464D01*
X193129059Y-116149709D01*
X193180570Y-116138503D01*
X193306570Y-116138503D01*
X193306570Y-116012503D01*
X193326255Y-115945464D01*
X193379059Y-115899709D01*
X193430570Y-115888503D01*
X194281569Y-115888503D01*
X194281569Y-115865195D01*
X194281568Y-115865180D01*
X194271425Y-115765895D01*
X194218117Y-115605021D01*
X194218112Y-115605010D01*
X194129145Y-115460774D01*
X194129142Y-115460770D01*
X194009302Y-115340930D01*
X194009298Y-115340927D01*
X193908729Y-115278895D01*
X193893176Y-115261604D01*
X193874555Y-115247663D01*
X193870247Y-115236111D01*
X193862004Y-115226947D01*
X193858268Y-115203988D01*
X193850142Y-115182197D01*
X193852762Y-115170152D01*
X193850783Y-115157985D01*
X193860051Y-115136652D01*
X193864997Y-115113925D01*
X193876744Y-115098234D01*
X193878626Y-115093903D01*
X193886149Y-115085672D01*
X193896504Y-115075318D01*
X193957829Y-115041836D01*
X193984181Y-115039003D01*
X210220470Y-115039003D01*
X210220471Y-115039003D01*
X210310835Y-115014789D01*
X210335049Y-115008302D01*
X210437776Y-114948992D01*
X212281060Y-113105706D01*
X212342381Y-113072223D01*
X212392928Y-113071772D01*
X212586435Y-113110262D01*
X212586436Y-113110263D01*
X212586437Y-113110263D01*
X212793368Y-113110263D01*
X212793369Y-113110262D01*
X212996322Y-113069893D01*
X213187500Y-112990704D01*
X213359557Y-112875740D01*
X213505879Y-112729418D01*
X213620843Y-112557361D01*
X213700032Y-112366183D01*
X213740402Y-112163228D01*
X213740402Y-111956298D01*
X213700032Y-111753343D01*
X213620843Y-111562165D01*
X213505879Y-111390108D01*
X213505877Y-111390105D01*
X213359559Y-111243787D01*
X213273528Y-111186304D01*
X213187500Y-111128822D01*
X213187495Y-111128820D01*
X213125793Y-111103262D01*
X213022792Y-111060597D01*
X212968390Y-111016757D01*
X212946325Y-110950463D01*
X212963604Y-110882764D01*
X213014741Y-110835153D01*
X213031928Y-110828106D01*
X213208119Y-110770858D01*
X213397456Y-110674385D01*
X213451618Y-110635033D01*
X213451619Y-110635033D01*
X212819310Y-110002725D01*
X212882895Y-109985688D01*
X212996909Y-109919862D01*
X213090001Y-109826770D01*
X213155827Y-109712756D01*
X213172864Y-109649171D01*
X213805172Y-110281480D01*
X213805172Y-110281479D01*
X213844524Y-110227317D01*
X213940997Y-110037980D01*
X214006659Y-109835893D01*
X214006659Y-109835890D01*
X214039902Y-109626009D01*
X214039902Y-109413516D01*
X214006659Y-109203635D01*
X214006659Y-109203632D01*
X213940997Y-109001545D01*
X213844526Y-108812212D01*
X213805172Y-108758045D01*
X213805171Y-108758045D01*
X213172864Y-109390353D01*
X213155827Y-109326770D01*
X213090001Y-109212756D01*
X212996909Y-109119664D01*
X212882895Y-109053838D01*
X212819311Y-109036800D01*
X213451618Y-108404491D01*
X213397452Y-108365138D01*
X213208118Y-108268667D01*
X213031928Y-108211419D01*
X212974252Y-108171981D01*
X212947054Y-108107623D01*
X212958969Y-108038776D01*
X213006213Y-107987301D01*
X213022784Y-107978931D01*
X213187500Y-107910704D01*
X213359557Y-107795740D01*
X213505879Y-107649418D01*
X213620843Y-107477361D01*
X213700032Y-107286183D01*
X213740402Y-107083228D01*
X213740402Y-106876298D01*
X213700032Y-106673343D01*
X213620843Y-106482165D01*
X213505879Y-106310108D01*
X213505877Y-106310105D01*
X213359559Y-106163787D01*
X213273528Y-106106304D01*
X213187500Y-106048822D01*
X213146381Y-106031790D01*
X212996322Y-105969633D01*
X212996314Y-105969631D01*
X212793371Y-105929263D01*
X212793367Y-105929263D01*
X212586437Y-105929263D01*
X212586432Y-105929263D01*
X212383489Y-105969631D01*
X212383481Y-105969633D01*
X212192305Y-106048821D01*
X212020244Y-106163787D01*
X211873926Y-106310105D01*
X211758960Y-106482166D01*
X211679772Y-106673342D01*
X211679770Y-106673350D01*
X211639402Y-106876293D01*
X211639402Y-107083232D01*
X211679770Y-107286175D01*
X211679772Y-107286183D01*
X211758961Y-107477361D01*
X211816443Y-107563389D01*
X211873926Y-107649420D01*
X212020244Y-107795738D01*
X212192307Y-107910706D01*
X212294945Y-107953219D01*
X212357010Y-107978927D01*
X212411413Y-108022768D01*
X212433478Y-108089062D01*
X212416199Y-108156761D01*
X212365062Y-108204372D01*
X212347876Y-108211419D01*
X212171683Y-108268668D01*
X211982341Y-108365143D01*
X211928184Y-108404490D01*
X211928184Y-108404491D01*
X212560493Y-109036800D01*
X212496909Y-109053838D01*
X212382895Y-109119664D01*
X212289803Y-109212756D01*
X212223977Y-109326770D01*
X212206939Y-109390354D01*
X211574630Y-108758045D01*
X211574629Y-108758045D01*
X211535282Y-108812202D01*
X211438806Y-109001545D01*
X211373144Y-109203632D01*
X211373144Y-109203635D01*
X211339902Y-109413516D01*
X211339902Y-109626009D01*
X211373144Y-109835890D01*
X211373144Y-109835893D01*
X211438806Y-110037980D01*
X211535277Y-110227313D01*
X211574630Y-110281479D01*
X212206939Y-109649171D01*
X212223977Y-109712756D01*
X212289803Y-109826770D01*
X212382895Y-109919862D01*
X212496909Y-109985688D01*
X212560492Y-110002725D01*
X211928184Y-110635032D01*
X211928184Y-110635033D01*
X211982351Y-110674387D01*
X212171684Y-110770858D01*
X212347875Y-110828106D01*
X212405550Y-110867543D01*
X212432749Y-110931902D01*
X212420834Y-111000748D01*
X212373590Y-111052224D01*
X212357010Y-111060598D01*
X212192305Y-111128820D01*
X212020244Y-111243787D01*
X211873926Y-111390105D01*
X211758960Y-111562166D01*
X211679772Y-111753342D01*
X211679770Y-111753350D01*
X211639402Y-111956293D01*
X211639402Y-112163232D01*
X211677891Y-112356733D01*
X211671664Y-112426325D01*
X211643955Y-112468605D01*
X210010878Y-114101684D01*
X209949555Y-114135169D01*
X209923197Y-114138003D01*
X193984181Y-114138003D01*
X193917142Y-114118318D01*
X193896500Y-114101684D01*
X193809795Y-114014979D01*
X193809791Y-114014976D01*
X193809790Y-114014975D01*
X193689696Y-113953784D01*
X193689694Y-113953783D01*
X193689691Y-113953782D01*
X193590063Y-113938003D01*
X193590058Y-113938003D01*
X193023082Y-113938003D01*
X193023077Y-113938003D01*
X192923448Y-113953782D01*
X192923444Y-113953783D01*
X192923444Y-113953784D01*
X192860788Y-113985709D01*
X192803348Y-114014976D01*
X192803344Y-114014979D01*
X192716640Y-114101684D01*
X192655317Y-114135169D01*
X192628959Y-114138003D01*
X192219198Y-114138003D01*
X192152159Y-114118318D01*
X192119428Y-114087637D01*
X192103720Y-114066353D01*
X191994452Y-113985710D01*
X191994450Y-113985709D01*
X191866270Y-113940856D01*
X191835840Y-113938003D01*
X191835836Y-113938003D01*
X191426468Y-113938003D01*
X191359429Y-113918318D01*
X191338787Y-113901684D01*
X190736700Y-113299597D01*
X190703215Y-113238274D01*
X190701442Y-113228099D01*
X190700500Y-113220945D01*
X190700500Y-113220943D01*
X190659577Y-113068216D01*
X190605435Y-112974438D01*
X190580524Y-112931290D01*
X190580518Y-112931282D01*
X190468717Y-112819481D01*
X190468709Y-112819475D01*
X190331790Y-112740426D01*
X190331786Y-112740424D01*
X190331784Y-112740423D01*
X190179057Y-112699500D01*
X190020943Y-112699500D01*
X189868216Y-112740423D01*
X189868209Y-112740426D01*
X189731290Y-112819475D01*
X189731282Y-112819481D01*
X189619481Y-112931282D01*
X189619475Y-112931290D01*
X189540426Y-113068209D01*
X189540423Y-113068216D01*
X189499500Y-113220943D01*
X184050500Y-113220943D01*
X184050500Y-111956293D01*
X196399402Y-111956293D01*
X196399402Y-112163232D01*
X196439770Y-112366175D01*
X196439772Y-112366183D01*
X196518960Y-112557359D01*
X196633926Y-112729420D01*
X196780244Y-112875738D01*
X196780247Y-112875740D01*
X196952304Y-112990704D01*
X197143482Y-113069893D01*
X197346432Y-113110262D01*
X197346436Y-113110263D01*
X197346437Y-113110263D01*
X197553368Y-113110263D01*
X197553369Y-113110262D01*
X197756322Y-113069893D01*
X197947500Y-112990704D01*
X198119557Y-112875740D01*
X198265879Y-112729418D01*
X198380843Y-112557361D01*
X198460032Y-112366183D01*
X198500402Y-112163228D01*
X198500402Y-111956298D01*
X198460032Y-111753343D01*
X198380843Y-111562165D01*
X198265879Y-111390108D01*
X198265877Y-111390105D01*
X198119559Y-111243787D01*
X198033528Y-111186304D01*
X197947500Y-111128822D01*
X197947495Y-111128820D01*
X197756322Y-111049633D01*
X197756314Y-111049631D01*
X197553371Y-111009263D01*
X197553367Y-111009263D01*
X197346437Y-111009263D01*
X197346432Y-111009263D01*
X197143489Y-111049631D01*
X197143481Y-111049633D01*
X196952305Y-111128821D01*
X196780244Y-111243787D01*
X196633926Y-111390105D01*
X196518960Y-111562166D01*
X196439772Y-111753342D01*
X196439770Y-111753350D01*
X196399402Y-111956293D01*
X184050500Y-111956293D01*
X184050500Y-109416293D01*
X196399402Y-109416293D01*
X196399402Y-109623232D01*
X196439770Y-109826175D01*
X196439772Y-109826183D01*
X196518960Y-110017359D01*
X196633926Y-110189420D01*
X196780244Y-110335738D01*
X196780247Y-110335740D01*
X196952304Y-110450704D01*
X197143482Y-110529893D01*
X197346432Y-110570262D01*
X197346436Y-110570263D01*
X197346437Y-110570263D01*
X197553368Y-110570263D01*
X197553369Y-110570262D01*
X197756322Y-110529893D01*
X197947500Y-110450704D01*
X198119557Y-110335740D01*
X198265879Y-110189418D01*
X198380843Y-110017361D01*
X198460032Y-109826183D01*
X198500402Y-109623228D01*
X198500402Y-109416298D01*
X198500402Y-109416295D01*
X198500401Y-109416294D01*
X198500401Y-109416293D01*
X198460032Y-109213343D01*
X198380843Y-109022165D01*
X198265879Y-108850108D01*
X198265877Y-108850105D01*
X198119559Y-108703787D01*
X198033528Y-108646304D01*
X197947500Y-108588822D01*
X197756322Y-108509633D01*
X197756314Y-108509631D01*
X197553371Y-108469263D01*
X197553367Y-108469263D01*
X197346437Y-108469263D01*
X197346432Y-108469263D01*
X197143489Y-108509631D01*
X197143481Y-108509633D01*
X196952305Y-108588821D01*
X196780244Y-108703787D01*
X196633926Y-108850105D01*
X196518960Y-109022166D01*
X196439772Y-109213342D01*
X196439770Y-109213350D01*
X196399402Y-109416293D01*
X184050500Y-109416293D01*
X184050500Y-106876293D01*
X196399402Y-106876293D01*
X196399402Y-107083232D01*
X196439770Y-107286175D01*
X196439772Y-107286183D01*
X196518961Y-107477361D01*
X196576443Y-107563389D01*
X196633926Y-107649420D01*
X196780244Y-107795738D01*
X196780247Y-107795740D01*
X196952304Y-107910704D01*
X197143482Y-107989893D01*
X197308757Y-108022768D01*
X197346432Y-108030262D01*
X197346436Y-108030263D01*
X197346437Y-108030263D01*
X197553368Y-108030263D01*
X197553369Y-108030262D01*
X197756322Y-107989893D01*
X197947500Y-107910704D01*
X198119557Y-107795740D01*
X198265879Y-107649418D01*
X198380843Y-107477361D01*
X198460032Y-107286183D01*
X198500402Y-107083228D01*
X198500402Y-106876298D01*
X198460032Y-106673343D01*
X198380843Y-106482165D01*
X198265879Y-106310108D01*
X198265877Y-106310105D01*
X198119559Y-106163787D01*
X198033528Y-106106304D01*
X197947500Y-106048822D01*
X197906381Y-106031790D01*
X197756322Y-105969633D01*
X197756314Y-105969631D01*
X197553371Y-105929263D01*
X197553367Y-105929263D01*
X197346437Y-105929263D01*
X197346432Y-105929263D01*
X197143489Y-105969631D01*
X197143481Y-105969633D01*
X196952305Y-106048821D01*
X196780244Y-106163787D01*
X196633926Y-106310105D01*
X196518960Y-106482166D01*
X196439772Y-106673342D01*
X196439770Y-106673350D01*
X196399402Y-106876293D01*
X184050500Y-106876293D01*
X184050500Y-106249930D01*
X184070185Y-106182891D01*
X184076128Y-106174438D01*
X184080512Y-106168723D01*
X184080520Y-106168716D01*
X184083367Y-106163786D01*
X184149740Y-106048822D01*
X184159577Y-106031784D01*
X184200500Y-105879057D01*
X184200500Y-105720943D01*
X184159577Y-105568216D01*
X184159573Y-105568209D01*
X184080524Y-105431290D01*
X184080518Y-105431282D01*
X183968717Y-105319481D01*
X183968709Y-105319475D01*
X183831790Y-105240426D01*
X183831786Y-105240424D01*
X183831784Y-105240423D01*
X183679057Y-105199500D01*
X183520943Y-105199500D01*
X183368216Y-105240423D01*
X183368209Y-105240426D01*
X183231290Y-105319475D01*
X183231282Y-105319481D01*
X183119481Y-105431282D01*
X183119475Y-105431290D01*
X183040426Y-105568209D01*
X183040423Y-105568216D01*
X182999500Y-105720943D01*
X161300500Y-105720943D01*
X161300500Y-102037842D01*
X165499500Y-102037842D01*
X165499500Y-102274037D01*
X165536446Y-102507308D01*
X165609433Y-102731936D01*
X165700108Y-102909894D01*
X165716657Y-102942373D01*
X165855483Y-103133450D01*
X166022490Y-103300457D01*
X166213567Y-103439283D01*
X166272304Y-103469211D01*
X166424003Y-103546506D01*
X166424005Y-103546506D01*
X166424008Y-103546508D01*
X166492357Y-103568716D01*
X166648631Y-103619493D01*
X166881903Y-103656440D01*
X166881908Y-103656440D01*
X167118097Y-103656440D01*
X167351368Y-103619493D01*
X167575992Y-103546508D01*
X167786433Y-103439283D01*
X167977510Y-103300457D01*
X168144517Y-103133450D01*
X168283343Y-102942373D01*
X168390568Y-102731932D01*
X168463553Y-102507308D01*
X168483989Y-102378280D01*
X168500500Y-102274037D01*
X168500500Y-102037842D01*
X168463553Y-101804571D01*
X168411658Y-101644857D01*
X168390568Y-101579948D01*
X168390566Y-101579945D01*
X168390566Y-101579943D01*
X168334002Y-101468931D01*
X168283343Y-101369507D01*
X168144517Y-101178430D01*
X167977510Y-101011423D01*
X167786433Y-100872597D01*
X167575996Y-100765373D01*
X167351368Y-100692386D01*
X167118097Y-100655440D01*
X167118092Y-100655440D01*
X166881908Y-100655440D01*
X166881903Y-100655440D01*
X166648631Y-100692386D01*
X166424003Y-100765373D01*
X166213566Y-100872597D01*
X166104550Y-100951802D01*
X166022490Y-101011423D01*
X166022488Y-101011425D01*
X166022487Y-101011425D01*
X165855485Y-101178427D01*
X165855485Y-101178428D01*
X165855483Y-101178430D01*
X165817939Y-101230105D01*
X165716657Y-101369506D01*
X165609433Y-101579943D01*
X165536446Y-101804571D01*
X165499500Y-102037842D01*
X161300500Y-102037842D01*
X161300500Y-96957842D01*
X165499500Y-96957842D01*
X165499500Y-97194037D01*
X165536446Y-97427308D01*
X165609433Y-97651936D01*
X165700108Y-97829894D01*
X165716657Y-97862373D01*
X165855483Y-98053450D01*
X166022490Y-98220457D01*
X166213567Y-98359283D01*
X166254260Y-98380017D01*
X166424003Y-98466506D01*
X166424005Y-98466506D01*
X166424008Y-98466508D01*
X166467145Y-98480524D01*
X166648631Y-98539493D01*
X166881903Y-98576440D01*
X166881908Y-98576440D01*
X167118097Y-98576440D01*
X167351368Y-98539493D01*
X167359598Y-98536819D01*
X167575992Y-98466508D01*
X167786433Y-98359283D01*
X167977510Y-98220457D01*
X168144517Y-98053450D01*
X168240789Y-97920943D01*
X182599500Y-97920943D01*
X182599500Y-98079057D01*
X182632307Y-98201492D01*
X182640423Y-98231783D01*
X182640426Y-98231790D01*
X182719475Y-98368709D01*
X182719479Y-98368714D01*
X182719480Y-98368716D01*
X182831284Y-98480520D01*
X182831286Y-98480521D01*
X182831290Y-98480524D01*
X182953114Y-98550858D01*
X182968216Y-98559577D01*
X183120943Y-98600500D01*
X183120945Y-98600500D01*
X183279055Y-98600500D01*
X183279057Y-98600500D01*
X183431784Y-98559577D01*
X183568716Y-98480520D01*
X183568721Y-98480514D01*
X183574443Y-98476125D01*
X183639612Y-98450930D01*
X183649931Y-98450500D01*
X186659307Y-98450500D01*
X186659309Y-98450500D01*
X186752095Y-98425638D01*
X186773887Y-98419799D01*
X186876614Y-98360489D01*
X190733590Y-94503512D01*
X190794911Y-94470029D01*
X190864603Y-94475013D01*
X190920536Y-94516885D01*
X190936446Y-94549636D01*
X190937314Y-94549277D01*
X190940422Y-94556780D01*
X190940423Y-94556784D01*
X190940424Y-94556787D01*
X190940426Y-94556790D01*
X191019475Y-94693709D01*
X191019481Y-94693717D01*
X191137031Y-94811267D01*
X191134785Y-94813512D01*
X191167179Y-94857855D01*
X191174500Y-94899830D01*
X191174500Y-95465780D01*
X191154815Y-95532819D01*
X191102011Y-95578574D01*
X191032853Y-95588518D01*
X190988501Y-95573168D01*
X190931784Y-95540423D01*
X190827092Y-95512371D01*
X190779057Y-95499500D01*
X190620943Y-95499500D01*
X190468216Y-95540423D01*
X190468209Y-95540426D01*
X190331290Y-95619475D01*
X190331282Y-95619481D01*
X190219481Y-95731282D01*
X190219475Y-95731290D01*
X190140426Y-95868209D01*
X190140423Y-95868216D01*
X190099500Y-96020943D01*
X190099500Y-96179057D01*
X190138464Y-96324471D01*
X190140423Y-96331783D01*
X190140426Y-96331790D01*
X190219475Y-96468709D01*
X190219481Y-96468717D01*
X190337031Y-96586267D01*
X190334785Y-96588512D01*
X190367179Y-96632855D01*
X190374500Y-96674830D01*
X190374500Y-98113811D01*
X190354815Y-98180850D01*
X190338181Y-98201492D01*
X187614537Y-100925135D01*
X187614533Y-100925141D01*
X187571681Y-100999362D01*
X187571680Y-100999362D01*
X187563987Y-101028079D01*
X187549500Y-101082145D01*
X187549500Y-102143157D01*
X187571682Y-102225945D01*
X187585418Y-102249736D01*
X187614535Y-102300167D01*
X188714228Y-103399859D01*
X188714230Y-103399862D01*
X188774833Y-103460465D01*
X188809819Y-103480664D01*
X188849057Y-103503318D01*
X188931843Y-103525501D01*
X188931845Y-103525501D01*
X189025144Y-103525501D01*
X189025160Y-103525500D01*
X189625170Y-103525500D01*
X189692209Y-103545185D01*
X189712679Y-103564022D01*
X189713733Y-103562969D01*
X189719480Y-103568716D01*
X189831284Y-103680520D01*
X189831286Y-103680521D01*
X189831290Y-103680524D01*
X189968209Y-103759573D01*
X189968216Y-103759577D01*
X190120943Y-103800500D01*
X190120945Y-103800500D01*
X190279055Y-103800500D01*
X190279057Y-103800500D01*
X190431784Y-103759577D01*
X190568716Y-103680520D01*
X190680520Y-103568716D01*
X190680520Y-103568715D01*
X190686267Y-103562969D01*
X190688512Y-103565214D01*
X190732855Y-103532821D01*
X190774830Y-103525500D01*
X196579170Y-103525500D01*
X196646209Y-103545185D01*
X196691964Y-103597989D01*
X196701908Y-103667147D01*
X196672883Y-103730703D01*
X196666851Y-103737181D01*
X196633927Y-103770104D01*
X196633926Y-103770105D01*
X196518960Y-103942166D01*
X196439772Y-104133342D01*
X196439770Y-104133350D01*
X196399402Y-104336293D01*
X196399402Y-104543232D01*
X196439770Y-104746175D01*
X196439772Y-104746183D01*
X196518960Y-104937359D01*
X196633926Y-105109420D01*
X196780244Y-105255738D01*
X196780247Y-105255740D01*
X196952304Y-105370704D01*
X197143482Y-105449893D01*
X197346432Y-105490262D01*
X197346436Y-105490263D01*
X197346437Y-105490263D01*
X197553368Y-105490263D01*
X197553369Y-105490262D01*
X197756322Y-105449893D01*
X197947500Y-105370704D01*
X198119557Y-105255740D01*
X198265879Y-105109418D01*
X198380843Y-104937361D01*
X198460032Y-104746183D01*
X198500402Y-104543228D01*
X198500402Y-104336298D01*
X198460032Y-104133343D01*
X198380843Y-103942165D01*
X198265879Y-103770108D01*
X198265877Y-103770105D01*
X198232953Y-103737181D01*
X198199468Y-103675858D01*
X198204452Y-103606166D01*
X198246324Y-103550233D01*
X198311788Y-103525816D01*
X198320634Y-103525500D01*
X211263950Y-103525500D01*
X211330989Y-103545185D01*
X211351631Y-103561819D01*
X211692470Y-103902658D01*
X211725955Y-103963981D01*
X211720971Y-104033673D01*
X211719350Y-104037791D01*
X211679773Y-104133338D01*
X211679770Y-104133350D01*
X211639402Y-104336293D01*
X211639402Y-104543232D01*
X211679770Y-104746175D01*
X211679772Y-104746183D01*
X211758960Y-104937359D01*
X211873926Y-105109420D01*
X212020244Y-105255738D01*
X212020247Y-105255740D01*
X212192304Y-105370704D01*
X212383482Y-105449893D01*
X212586432Y-105490262D01*
X212586436Y-105490263D01*
X212586437Y-105490263D01*
X212793368Y-105490263D01*
X212793369Y-105490262D01*
X212996322Y-105449893D01*
X213187500Y-105370704D01*
X213359557Y-105255740D01*
X213505879Y-105109418D01*
X213620843Y-104937361D01*
X213700032Y-104746183D01*
X213740402Y-104543228D01*
X213740402Y-104336298D01*
X213700032Y-104133343D01*
X213620843Y-103942165D01*
X213505879Y-103770108D01*
X213505877Y-103770105D01*
X213359559Y-103623787D01*
X213223417Y-103532821D01*
X213187500Y-103508822D01*
X213174212Y-103503318D01*
X212996322Y-103429633D01*
X212996314Y-103429631D01*
X212793371Y-103389263D01*
X212793367Y-103389263D01*
X212586437Y-103389263D01*
X212586432Y-103389263D01*
X212383489Y-103429631D01*
X212383477Y-103429634D01*
X212287930Y-103469211D01*
X212218461Y-103476680D01*
X212155982Y-103445404D01*
X212152797Y-103442331D01*
X211650003Y-102939537D01*
X211650001Y-102939535D01*
X211598660Y-102909893D01*
X211575779Y-102896682D01*
X211534385Y-102885591D01*
X211492992Y-102874500D01*
X211492991Y-102874500D01*
X198260160Y-102874500D01*
X198193121Y-102854815D01*
X198147366Y-102802011D01*
X198137422Y-102732853D01*
X198166447Y-102669297D01*
X198172479Y-102662819D01*
X198265876Y-102569421D01*
X198265877Y-102569420D01*
X198265879Y-102569418D01*
X198380843Y-102397361D01*
X198460032Y-102206183D01*
X198500402Y-102003228D01*
X198500402Y-101796298D01*
X198460032Y-101593343D01*
X198380843Y-101402165D01*
X198265879Y-101230108D01*
X198265877Y-101230105D01*
X198119559Y-101083787D01*
X198009464Y-101010225D01*
X197947500Y-100968822D01*
X197842045Y-100925141D01*
X197756322Y-100889633D01*
X197756314Y-100889631D01*
X197553371Y-100849263D01*
X197553367Y-100849263D01*
X197346437Y-100849263D01*
X197346432Y-100849263D01*
X197143489Y-100889631D01*
X197143481Y-100889633D01*
X196952305Y-100968821D01*
X196780244Y-101083787D01*
X196633926Y-101230105D01*
X196518960Y-101402166D01*
X196439772Y-101593342D01*
X196439770Y-101593350D01*
X196399402Y-101796293D01*
X196399402Y-102003232D01*
X196439770Y-102206175D01*
X196439772Y-102206183D01*
X196481056Y-102305852D01*
X196518961Y-102397361D01*
X196547286Y-102439752D01*
X196633926Y-102569420D01*
X196727325Y-102662819D01*
X196760810Y-102724142D01*
X196755826Y-102793834D01*
X196713954Y-102849767D01*
X196648490Y-102874184D01*
X196639644Y-102874500D01*
X190774830Y-102874500D01*
X190707791Y-102854815D01*
X190687320Y-102835977D01*
X190686267Y-102837031D01*
X190568717Y-102719481D01*
X190568709Y-102719475D01*
X190431790Y-102640426D01*
X190431786Y-102640424D01*
X190431784Y-102640423D01*
X190279057Y-102599500D01*
X190275686Y-102599500D01*
X190272947Y-102598695D01*
X190270997Y-102598439D01*
X190271037Y-102598134D01*
X190208647Y-102579815D01*
X190162892Y-102527011D01*
X190152948Y-102457853D01*
X190157912Y-102439752D01*
X190157473Y-102439635D01*
X190159577Y-102431784D01*
X190200500Y-102279057D01*
X190200500Y-102120943D01*
X190198642Y-102114008D01*
X190200303Y-102044161D01*
X190230733Y-101994236D01*
X193688152Y-98536819D01*
X193715079Y-98522115D01*
X193740898Y-98505523D01*
X193747098Y-98504631D01*
X193749475Y-98503334D01*
X193775833Y-98500500D01*
X193808504Y-98500500D01*
X193875543Y-98520185D01*
X193915891Y-98562500D01*
X193919480Y-98568716D01*
X194031284Y-98680520D01*
X194031286Y-98680521D01*
X194031290Y-98680524D01*
X194168209Y-98759573D01*
X194168216Y-98759577D01*
X194320943Y-98800500D01*
X194320945Y-98800500D01*
X194479055Y-98800500D01*
X194479057Y-98800500D01*
X194631784Y-98759577D01*
X194768716Y-98680520D01*
X194880520Y-98568716D01*
X194884108Y-98562500D01*
X194934675Y-98514285D01*
X194991496Y-98500500D01*
X196109225Y-98500500D01*
X196109227Y-98500500D01*
X196185654Y-98480021D01*
X196254176Y-98440460D01*
X196310125Y-98384511D01*
X196887798Y-97806836D01*
X196949119Y-97773353D01*
X197018810Y-97778337D01*
X197022909Y-97779949D01*
X197143482Y-97829893D01*
X197346432Y-97870262D01*
X197346436Y-97870263D01*
X197346437Y-97870263D01*
X197553368Y-97870263D01*
X197553369Y-97870262D01*
X197756322Y-97829893D01*
X197876876Y-97779957D01*
X197946340Y-97772489D01*
X198008820Y-97803763D01*
X198012006Y-97806838D01*
X198545628Y-98340460D01*
X198604968Y-98374720D01*
X198614147Y-98380020D01*
X198614151Y-98380022D01*
X198690577Y-98400500D01*
X198769701Y-98400500D01*
X211864170Y-98400500D01*
X211931209Y-98420185D01*
X211976964Y-98472989D01*
X211986908Y-98542147D01*
X211957883Y-98605703D01*
X211951851Y-98612181D01*
X211873927Y-98690104D01*
X211873926Y-98690105D01*
X211758960Y-98862166D01*
X211679772Y-99053342D01*
X211679770Y-99053350D01*
X211639402Y-99256293D01*
X211639402Y-99463232D01*
X211679770Y-99666175D01*
X211679772Y-99666183D01*
X211758960Y-99857359D01*
X211873926Y-100029420D01*
X212020244Y-100175738D01*
X212052305Y-100197160D01*
X212097110Y-100250772D01*
X212105818Y-100320097D01*
X212075664Y-100383125D01*
X212016222Y-100419844D01*
X211983415Y-100424263D01*
X199026091Y-100424263D01*
X198959052Y-100404578D01*
X198938410Y-100387944D01*
X198447333Y-99896867D01*
X198413848Y-99835544D01*
X198418832Y-99765852D01*
X198420453Y-99761733D01*
X198460032Y-99666183D01*
X198500402Y-99463228D01*
X198500402Y-99256298D01*
X198460032Y-99053343D01*
X198380843Y-98862165D01*
X198265879Y-98690108D01*
X198265877Y-98690105D01*
X198119559Y-98543787D01*
X198013601Y-98472989D01*
X197947500Y-98428822D01*
X197939813Y-98425638D01*
X197756322Y-98349633D01*
X197756314Y-98349631D01*
X197553371Y-98309263D01*
X197553367Y-98309263D01*
X197346437Y-98309263D01*
X197346432Y-98309263D01*
X197143489Y-98349631D01*
X197143481Y-98349633D01*
X196952305Y-98428821D01*
X196780244Y-98543787D01*
X196633926Y-98690105D01*
X196518960Y-98862166D01*
X196439772Y-99053342D01*
X196439770Y-99053350D01*
X196399402Y-99256293D01*
X196399402Y-99463232D01*
X196439770Y-99666175D01*
X196439772Y-99666183D01*
X196518960Y-99857359D01*
X196633926Y-100029420D01*
X196780244Y-100175738D01*
X196780247Y-100175740D01*
X196952304Y-100290704D01*
X197143482Y-100369893D01*
X197346432Y-100410262D01*
X197346436Y-100410263D01*
X197346437Y-100410263D01*
X197553368Y-100410263D01*
X197553369Y-100410262D01*
X197756322Y-100369893D01*
X197851872Y-100330313D01*
X197921341Y-100322845D01*
X197983820Y-100354120D01*
X197987006Y-100357194D01*
X198640040Y-101010228D01*
X198714263Y-101053081D01*
X198797049Y-101075263D01*
X198882755Y-101075263D01*
X211745401Y-101075263D01*
X211812440Y-101094948D01*
X211858195Y-101147752D01*
X211868139Y-101216910D01*
X211848504Y-101268153D01*
X211758960Y-101402166D01*
X211679772Y-101593342D01*
X211679770Y-101593350D01*
X211639402Y-101796293D01*
X211639402Y-102003232D01*
X211679770Y-102206175D01*
X211679772Y-102206183D01*
X211721056Y-102305852D01*
X211758961Y-102397361D01*
X211787286Y-102439752D01*
X211873926Y-102569420D01*
X212020244Y-102715738D01*
X212020247Y-102715740D01*
X212192304Y-102830704D01*
X212383482Y-102909893D01*
X212546771Y-102942373D01*
X212586432Y-102950262D01*
X212586436Y-102950263D01*
X212586437Y-102950263D01*
X212793368Y-102950263D01*
X212793369Y-102950262D01*
X212996322Y-102909893D01*
X213091872Y-102870313D01*
X213161341Y-102862845D01*
X213223820Y-102894120D01*
X213227006Y-102897194D01*
X214938181Y-104608369D01*
X214971666Y-104669692D01*
X214974500Y-104696050D01*
X214974500Y-116825169D01*
X214954815Y-116892208D01*
X214935982Y-116912684D01*
X214937031Y-116913733D01*
X214819481Y-117031282D01*
X214819475Y-117031290D01*
X214740426Y-117168209D01*
X214740423Y-117168216D01*
X214699500Y-117320943D01*
X214699500Y-117479057D01*
X214719567Y-117553946D01*
X214740423Y-117631783D01*
X214740426Y-117631790D01*
X214819475Y-117768709D01*
X214819479Y-117768714D01*
X214819480Y-117768716D01*
X214931284Y-117880520D01*
X214931285Y-117880521D01*
X214931287Y-117880522D01*
X214996397Y-117918113D01*
X215044612Y-117968679D01*
X215057836Y-118037286D01*
X215031868Y-118102151D01*
X214974954Y-118142680D01*
X214934397Y-118149500D01*
X193224931Y-118149500D01*
X193157892Y-118129815D01*
X193149443Y-118123875D01*
X193143709Y-118119475D01*
X193006790Y-118040426D01*
X193006786Y-118040424D01*
X193006784Y-118040423D01*
X192854057Y-117999500D01*
X192695943Y-117999500D01*
X192543216Y-118040423D01*
X192543209Y-118040426D01*
X192406290Y-118119475D01*
X192406282Y-118119481D01*
X192294481Y-118231282D01*
X192294475Y-118231290D01*
X192215426Y-118368209D01*
X192215423Y-118368216D01*
X192174500Y-118520943D01*
X192174500Y-118679057D01*
X192212809Y-118822026D01*
X192215423Y-118831783D01*
X192215426Y-118831790D01*
X192294475Y-118968709D01*
X192294479Y-118968714D01*
X192294480Y-118968716D01*
X192406284Y-119080520D01*
X192406286Y-119080521D01*
X192406290Y-119080524D01*
X192495078Y-119131785D01*
X192543216Y-119159577D01*
X192695943Y-119200500D01*
X192695945Y-119200500D01*
X192854055Y-119200500D01*
X192854057Y-119200500D01*
X193006784Y-119159577D01*
X193143716Y-119080520D01*
X193143721Y-119080514D01*
X193149443Y-119076125D01*
X193214612Y-119050930D01*
X193224931Y-119050500D01*
X218643730Y-119050500D01*
X218643732Y-119050500D01*
X218754040Y-119020943D01*
X218758310Y-119019799D01*
X218838977Y-118973225D01*
X218841287Y-118972019D01*
X218873078Y-118965716D01*
X218904590Y-118958072D01*
X218907158Y-118958961D01*
X218909823Y-118958433D01*
X218939979Y-118970320D01*
X218970617Y-118980924D01*
X218972296Y-118983059D01*
X218974825Y-118984056D01*
X218993771Y-119010366D01*
X219013808Y-119035845D01*
X219015260Y-119040208D01*
X219015654Y-119040755D01*
X219015694Y-119041510D01*
X219018464Y-119049833D01*
X219020331Y-119056799D01*
X219040423Y-119131785D01*
X219040426Y-119131790D01*
X219119475Y-119268709D01*
X219119479Y-119268714D01*
X219119480Y-119268716D01*
X219231284Y-119380520D01*
X219231286Y-119380521D01*
X219231290Y-119380524D01*
X219342860Y-119444938D01*
X219368216Y-119459577D01*
X219520943Y-119500500D01*
X219520945Y-119500500D01*
X219679055Y-119500500D01*
X219679057Y-119500500D01*
X219831784Y-119459577D01*
X219968716Y-119380520D01*
X220080520Y-119268716D01*
X220159577Y-119131784D01*
X220189277Y-119020943D01*
X236099500Y-119020943D01*
X236099500Y-119179057D01*
X236123525Y-119268717D01*
X236140423Y-119331783D01*
X236140426Y-119331790D01*
X236219475Y-119468709D01*
X236219479Y-119468714D01*
X236219480Y-119468716D01*
X236331284Y-119580520D01*
X236331286Y-119580521D01*
X236331290Y-119580524D01*
X236377814Y-119607384D01*
X236468216Y-119659577D01*
X236620943Y-119700500D01*
X236620945Y-119700500D01*
X236779055Y-119700500D01*
X236779057Y-119700500D01*
X236931784Y-119659577D01*
X237068716Y-119580520D01*
X237180520Y-119468716D01*
X237259577Y-119331784D01*
X237300500Y-119179057D01*
X237300500Y-119179044D01*
X237301441Y-119171901D01*
X237329707Y-119108003D01*
X237336688Y-119100414D01*
X238051265Y-118385837D01*
X242549500Y-118385837D01*
X242549500Y-118614162D01*
X242585215Y-118839660D01*
X242655770Y-119056803D01*
X242728988Y-119200500D01*
X242759421Y-119260228D01*
X242893621Y-119444937D01*
X243055063Y-119606379D01*
X243239772Y-119740579D01*
X243335884Y-119789550D01*
X243443196Y-119844229D01*
X243443198Y-119844229D01*
X243443201Y-119844231D01*
X243523393Y-119870287D01*
X243660339Y-119914784D01*
X243885838Y-119950500D01*
X243885843Y-119950500D01*
X244114162Y-119950500D01*
X244339660Y-119914784D01*
X244389604Y-119898556D01*
X244556799Y-119844231D01*
X244760228Y-119740579D01*
X244944937Y-119606379D01*
X245106379Y-119444937D01*
X245240579Y-119260228D01*
X245344231Y-119056799D01*
X245414784Y-118839660D01*
X245450500Y-118614162D01*
X245450500Y-118385837D01*
X245414784Y-118160339D01*
X245365238Y-118007853D01*
X245344231Y-117943201D01*
X245344229Y-117943198D01*
X245344229Y-117943196D01*
X245255327Y-117768717D01*
X245240579Y-117739772D01*
X245106379Y-117555063D01*
X244944937Y-117393621D01*
X244760228Y-117259421D01*
X244716248Y-117237012D01*
X244556803Y-117155770D01*
X244339660Y-117085215D01*
X244114162Y-117049500D01*
X244114157Y-117049500D01*
X243885843Y-117049500D01*
X243885838Y-117049500D01*
X243660339Y-117085215D01*
X243443196Y-117155770D01*
X243239771Y-117259421D01*
X243055061Y-117393622D01*
X242893622Y-117555061D01*
X242759421Y-117739771D01*
X242655770Y-117943196D01*
X242585215Y-118160339D01*
X242549500Y-118385837D01*
X238051265Y-118385837D01*
X240468972Y-115968131D01*
X240528282Y-115865404D01*
X240534768Y-115841192D01*
X240534769Y-115841192D01*
X240534769Y-115841188D01*
X240558983Y-115750826D01*
X240558983Y-103780440D01*
X240578668Y-103713401D01*
X240631472Y-103667646D01*
X240682983Y-103656440D01*
X241212753Y-103656440D01*
X241243182Y-103653586D01*
X241243184Y-103653586D01*
X241307273Y-103631159D01*
X241371365Y-103608733D01*
X241480633Y-103528090D01*
X241561276Y-103418822D01*
X241583702Y-103354730D01*
X241606129Y-103290641D01*
X241606129Y-103290639D01*
X241608983Y-103260209D01*
X241608983Y-101051670D01*
X241606129Y-101021240D01*
X241606129Y-101021238D01*
X241561276Y-100893059D01*
X241561275Y-100893057D01*
X241558748Y-100889633D01*
X241480633Y-100783790D01*
X241371365Y-100703147D01*
X241371363Y-100703146D01*
X241243183Y-100658293D01*
X241212753Y-100655440D01*
X241212749Y-100655440D01*
X239004217Y-100655440D01*
X239004213Y-100655440D01*
X238973783Y-100658293D01*
X238973781Y-100658293D01*
X238845602Y-100703146D01*
X238845600Y-100703147D01*
X238736333Y-100783790D01*
X238655690Y-100893057D01*
X238655689Y-100893059D01*
X238610836Y-101021238D01*
X238610836Y-101021240D01*
X238607983Y-101051670D01*
X238607983Y-103260209D01*
X238610836Y-103290639D01*
X238610836Y-103290641D01*
X238655689Y-103418820D01*
X238655690Y-103418822D01*
X238736333Y-103528090D01*
X238845601Y-103608733D01*
X238888328Y-103623684D01*
X238973782Y-103653586D01*
X239004213Y-103656440D01*
X239004217Y-103656440D01*
X239533983Y-103656440D01*
X239601022Y-103676125D01*
X239646777Y-103728929D01*
X239657983Y-103780440D01*
X239657983Y-115453552D01*
X239638298Y-115520591D01*
X239621664Y-115541233D01*
X237973321Y-117189575D01*
X237911998Y-117223060D01*
X237842306Y-117218076D01*
X237786373Y-117176204D01*
X237761956Y-117110740D01*
X237776808Y-117042467D01*
X237780102Y-117036796D01*
X237819497Y-116972927D01*
X237819500Y-116972921D01*
X237872808Y-116812046D01*
X237882952Y-116712762D01*
X237882953Y-116712749D01*
X237882953Y-116689440D01*
X237157953Y-116689440D01*
X237157953Y-117389439D01*
X237206261Y-117389439D01*
X237206275Y-117389438D01*
X237305560Y-117379295D01*
X237466434Y-117325987D01*
X237466440Y-117325984D01*
X237530309Y-117286589D01*
X237597701Y-117268148D01*
X237664365Y-117289070D01*
X237709135Y-117342711D01*
X237717797Y-117412042D01*
X237687602Y-117475049D01*
X237683088Y-117479808D01*
X236699597Y-118463299D01*
X236638274Y-118496784D01*
X236628107Y-118498556D01*
X236620949Y-118499498D01*
X236468216Y-118540423D01*
X236468209Y-118540426D01*
X236331290Y-118619475D01*
X236331282Y-118619481D01*
X236219481Y-118731282D01*
X236219475Y-118731290D01*
X236140426Y-118868209D01*
X236140423Y-118868216D01*
X236099500Y-119020943D01*
X220189277Y-119020943D01*
X220200500Y-118979057D01*
X220200500Y-118976115D01*
X220202430Y-118965634D01*
X220216806Y-118937165D01*
X220229707Y-118908003D01*
X220233756Y-118903601D01*
X220233926Y-118903266D01*
X220234229Y-118903087D01*
X220236688Y-118900414D01*
X222272676Y-116864426D01*
X233682954Y-116864426D01*
X233693447Y-116967137D01*
X233748594Y-117133559D01*
X233748596Y-117133564D01*
X233840637Y-117282785D01*
X233964607Y-117406755D01*
X234113828Y-117498796D01*
X234113833Y-117498798D01*
X234280255Y-117553945D01*
X234280262Y-117553946D01*
X234382972Y-117564439D01*
X234657952Y-117564439D01*
X234657953Y-117564438D01*
X234657953Y-116814440D01*
X235157953Y-116814440D01*
X235157953Y-117564439D01*
X235432925Y-117564439D01*
X235432939Y-117564438D01*
X235535650Y-117553945D01*
X235702072Y-117498798D01*
X235702077Y-117498796D01*
X235851298Y-117406755D01*
X235975270Y-117282783D01*
X235998128Y-117245725D01*
X236050076Y-117199000D01*
X236119038Y-117187777D01*
X236183120Y-117215620D01*
X236191348Y-117223140D01*
X236205220Y-117237012D01*
X236205224Y-117237015D01*
X236349460Y-117325982D01*
X236349471Y-117325987D01*
X236510346Y-117379295D01*
X236609636Y-117389439D01*
X236657952Y-117389438D01*
X236657953Y-117389438D01*
X236657953Y-116689440D01*
X236262953Y-116689440D01*
X236262953Y-116690440D01*
X236243268Y-116757479D01*
X236190464Y-116803234D01*
X236138953Y-116814440D01*
X235157953Y-116814440D01*
X234657953Y-116814440D01*
X233682954Y-116814440D01*
X233682954Y-116864426D01*
X222272676Y-116864426D01*
X225350284Y-113786819D01*
X225411607Y-113753334D01*
X225437965Y-113750500D01*
X233159308Y-113750500D01*
X233159309Y-113750500D01*
X233245997Y-113727271D01*
X233315847Y-113728932D01*
X233365773Y-113759364D01*
X233946134Y-114339724D01*
X233979619Y-114401047D01*
X233982453Y-114427405D01*
X233982453Y-114968709D01*
X233985306Y-114999139D01*
X233985306Y-114999141D01*
X234021084Y-115101385D01*
X234030160Y-115127322D01*
X234110803Y-115236590D01*
X234220071Y-115317233D01*
X234283986Y-115339598D01*
X234340760Y-115380318D01*
X234366508Y-115445270D01*
X234353052Y-115513832D01*
X234304665Y-115564235D01*
X234282035Y-115574344D01*
X234113831Y-115630082D01*
X234113828Y-115630083D01*
X233964607Y-115722124D01*
X233840637Y-115846094D01*
X233748596Y-115995315D01*
X233748594Y-115995320D01*
X233693447Y-116161742D01*
X233693446Y-116161749D01*
X233682953Y-116264453D01*
X233682953Y-116314440D01*
X235802953Y-116314440D01*
X235802953Y-116313440D01*
X235822638Y-116246401D01*
X235875442Y-116200646D01*
X235926953Y-116189440D01*
X237882952Y-116189440D01*
X237882952Y-116166132D01*
X237882951Y-116166117D01*
X237872808Y-116066832D01*
X237819500Y-115905958D01*
X237819495Y-115905947D01*
X237730528Y-115761711D01*
X237730525Y-115761707D01*
X237610685Y-115641867D01*
X237610681Y-115641864D01*
X237510112Y-115579832D01*
X237463387Y-115527884D01*
X237452166Y-115458922D01*
X237480009Y-115394840D01*
X237487518Y-115386622D01*
X237506481Y-115367660D01*
X237567672Y-115247566D01*
X237569028Y-115239003D01*
X237583453Y-115147933D01*
X237583453Y-114630946D01*
X237567673Y-114531318D01*
X237567672Y-114531316D01*
X237567672Y-114531314D01*
X237506481Y-114411220D01*
X237506479Y-114411218D01*
X237506476Y-114411214D01*
X237411178Y-114315916D01*
X237411174Y-114315913D01*
X237411173Y-114315912D01*
X237291079Y-114254721D01*
X237291077Y-114254720D01*
X237291074Y-114254719D01*
X237191446Y-114238940D01*
X237191441Y-114238940D01*
X236624465Y-114238940D01*
X236624460Y-114238940D01*
X236524831Y-114254719D01*
X236404731Y-114315913D01*
X236404727Y-114315916D01*
X236318023Y-114402621D01*
X236256700Y-114436106D01*
X236230342Y-114438940D01*
X235953755Y-114438940D01*
X235886716Y-114419255D01*
X235840961Y-114366451D01*
X235833075Y-114336920D01*
X235832209Y-114337110D01*
X235830599Y-114329738D01*
X235785746Y-114201559D01*
X235785745Y-114201557D01*
X235705103Y-114092290D01*
X235595835Y-114011647D01*
X235595833Y-114011646D01*
X235467653Y-113966793D01*
X235437223Y-113963940D01*
X235437219Y-113963940D01*
X235052405Y-113963940D01*
X234985366Y-113944255D01*
X234964724Y-113927621D01*
X234186819Y-113149716D01*
X234172115Y-113122788D01*
X234155523Y-113096970D01*
X234154631Y-113090769D01*
X234153334Y-113088393D01*
X234150500Y-113062035D01*
X234150500Y-113049930D01*
X234170185Y-112982891D01*
X234176128Y-112974438D01*
X234180512Y-112968723D01*
X234180520Y-112968716D01*
X234259577Y-112831784D01*
X234300500Y-112679057D01*
X234300500Y-112520943D01*
X234259577Y-112368216D01*
X234252947Y-112356733D01*
X234180524Y-112231290D01*
X234180518Y-112231282D01*
X234068717Y-112119481D01*
X234068709Y-112119475D01*
X233931790Y-112040426D01*
X233931786Y-112040424D01*
X233931784Y-112040423D01*
X233779057Y-111999500D01*
X233620943Y-111999500D01*
X233468216Y-112040423D01*
X233468209Y-112040426D01*
X233331290Y-112119475D01*
X233331282Y-112119481D01*
X233219481Y-112231282D01*
X233219475Y-112231290D01*
X233140426Y-112368209D01*
X233140423Y-112368216D01*
X233099500Y-112520943D01*
X233099500Y-112612035D01*
X233090855Y-112641475D01*
X233084332Y-112671462D01*
X233080577Y-112676477D01*
X233079815Y-112679074D01*
X233063181Y-112699716D01*
X232949716Y-112813181D01*
X232888393Y-112846666D01*
X232862035Y-112849500D01*
X225271388Y-112849500D01*
X225204349Y-112829815D01*
X225158594Y-112777011D01*
X225148650Y-112707853D01*
X225177675Y-112644297D01*
X225183707Y-112637819D01*
X232253317Y-105568209D01*
X239351219Y-98470306D01*
X239412540Y-98436823D01*
X239482232Y-98441807D01*
X239495195Y-98447504D01*
X239532491Y-98466508D01*
X239703631Y-98522115D01*
X239757114Y-98539493D01*
X239990386Y-98576440D01*
X239990391Y-98576440D01*
X240226580Y-98576440D01*
X240459851Y-98539493D01*
X240468081Y-98536819D01*
X240684475Y-98466508D01*
X240894916Y-98359283D01*
X241085993Y-98220457D01*
X241253000Y-98053450D01*
X241391826Y-97862373D01*
X241499051Y-97651932D01*
X241572036Y-97427308D01*
X241579446Y-97380524D01*
X241608983Y-97194037D01*
X241608983Y-96957842D01*
X241572036Y-96724571D01*
X241538172Y-96620352D01*
X241499051Y-96499948D01*
X241499049Y-96499945D01*
X241499049Y-96499943D01*
X241431351Y-96367080D01*
X241391826Y-96289507D01*
X241253000Y-96098430D01*
X241085993Y-95931423D01*
X240894916Y-95792597D01*
X240684479Y-95685373D01*
X240459851Y-95612386D01*
X240226580Y-95575440D01*
X240226575Y-95575440D01*
X239990391Y-95575440D01*
X239990386Y-95575440D01*
X239757114Y-95612386D01*
X239532486Y-95685373D01*
X239322049Y-95792597D01*
X239278599Y-95824166D01*
X239130973Y-95931423D01*
X239130971Y-95931425D01*
X239130970Y-95931425D01*
X238963968Y-96098427D01*
X238963968Y-96098428D01*
X238963966Y-96098430D01*
X238948672Y-96119481D01*
X238825140Y-96289506D01*
X238717916Y-96499943D01*
X238644929Y-96724571D01*
X238607983Y-96957842D01*
X238607983Y-97194037D01*
X238644930Y-97427309D01*
X238644930Y-97427312D01*
X238717912Y-97651926D01*
X238717914Y-97651931D01*
X238717915Y-97651932D01*
X238736918Y-97689228D01*
X238749814Y-97757897D01*
X238723537Y-97822637D01*
X238714114Y-97833203D01*
X218434139Y-118113181D01*
X218372816Y-118146666D01*
X218346458Y-118149500D01*
X215665603Y-118149500D01*
X215598564Y-118129815D01*
X215552809Y-118077011D01*
X215542865Y-118007853D01*
X215571890Y-117944297D01*
X215603603Y-117918113D01*
X215637579Y-117898496D01*
X215668716Y-117880520D01*
X215780520Y-117768716D01*
X215859577Y-117631784D01*
X215900500Y-117479057D01*
X215900500Y-117320943D01*
X215859577Y-117168216D01*
X215826394Y-117110740D01*
X215780524Y-117031290D01*
X215780518Y-117031282D01*
X215662969Y-116913733D01*
X215665207Y-116911494D01*
X215632798Y-116867080D01*
X215625500Y-116825169D01*
X215625500Y-104467009D01*
X215625500Y-104467008D01*
X215614378Y-104425501D01*
X215603318Y-104384222D01*
X215560465Y-104309999D01*
X213687333Y-102436867D01*
X213653848Y-102375544D01*
X213658832Y-102305852D01*
X213660453Y-102301733D01*
X213669846Y-102279057D01*
X213700032Y-102206183D01*
X213740402Y-102003228D01*
X213740402Y-101796298D01*
X213700032Y-101593343D01*
X213620843Y-101402165D01*
X213531300Y-101268153D01*
X213510423Y-101201475D01*
X213528908Y-101134095D01*
X213580887Y-101087406D01*
X213634403Y-101075263D01*
X215063574Y-101075263D01*
X215130613Y-101094948D01*
X215151255Y-101111582D01*
X218238181Y-104198507D01*
X218271666Y-104259830D01*
X218274500Y-104286188D01*
X218274500Y-106825169D01*
X218254815Y-106892208D01*
X218235982Y-106912684D01*
X218237031Y-106913733D01*
X218119481Y-107031282D01*
X218119475Y-107031290D01*
X218040426Y-107168209D01*
X218040423Y-107168216D01*
X217999500Y-107320943D01*
X217999500Y-107479056D01*
X218040423Y-107631783D01*
X218040426Y-107631790D01*
X218119475Y-107768709D01*
X218119479Y-107768714D01*
X218119480Y-107768716D01*
X218231284Y-107880520D01*
X218231286Y-107880521D01*
X218231290Y-107880524D01*
X218283566Y-107910705D01*
X218368216Y-107959577D01*
X218520943Y-108000500D01*
X218520945Y-108000500D01*
X218679055Y-108000500D01*
X218679057Y-108000500D01*
X218831784Y-107959577D01*
X218968716Y-107880520D01*
X219080520Y-107768716D01*
X219159577Y-107631784D01*
X219200500Y-107479057D01*
X219200500Y-107320943D01*
X219159577Y-107168216D01*
X219110512Y-107083232D01*
X219080524Y-107031290D01*
X219080518Y-107031282D01*
X218962969Y-106913733D01*
X218965207Y-106911494D01*
X218932798Y-106867080D01*
X218925500Y-106825169D01*
X218925500Y-104152853D01*
X218925500Y-104142855D01*
X218925501Y-104142853D01*
X218925501Y-104079523D01*
X218945186Y-104012484D01*
X218997991Y-103966730D01*
X218998001Y-103966728D01*
X219049501Y-103955525D01*
X219124030Y-103955525D01*
X219124032Y-103955525D01*
X219276759Y-103914602D01*
X219413691Y-103835545D01*
X219525495Y-103723741D01*
X219525495Y-103723740D01*
X219531242Y-103717994D01*
X219533487Y-103720239D01*
X219577830Y-103687846D01*
X219619805Y-103680525D01*
X220570145Y-103680525D01*
X220637184Y-103700210D01*
X220657654Y-103719047D01*
X220658708Y-103717994D01*
X220664455Y-103723741D01*
X220776259Y-103835545D01*
X220776261Y-103835546D01*
X220776265Y-103835549D01*
X220892503Y-103902658D01*
X220913191Y-103914602D01*
X221065918Y-103955525D01*
X221065920Y-103955525D01*
X221224030Y-103955525D01*
X221224032Y-103955525D01*
X221376759Y-103914602D01*
X221513691Y-103835545D01*
X221625495Y-103723741D01*
X221704552Y-103586809D01*
X221745475Y-103434082D01*
X221745475Y-103275968D01*
X221704552Y-103123241D01*
X221639081Y-103009840D01*
X221625499Y-102986315D01*
X221625493Y-102986307D01*
X221561819Y-102922633D01*
X221528334Y-102861310D01*
X221525500Y-102834952D01*
X221525500Y-95757149D01*
X221525499Y-95757145D01*
X221518569Y-95731282D01*
X221506269Y-95685373D01*
X221505905Y-95684015D01*
X221505211Y-95681428D01*
X221503318Y-95674361D01*
X221461737Y-95602342D01*
X221460465Y-95600138D01*
X221399862Y-95539535D01*
X221399859Y-95539533D01*
X221111629Y-95251303D01*
X221078144Y-95189980D01*
X221076993Y-95162185D01*
X221075500Y-95162185D01*
X221075500Y-94995945D01*
X221075500Y-94995943D01*
X221034577Y-94843216D01*
X221017428Y-94813512D01*
X220955524Y-94706290D01*
X220955518Y-94706282D01*
X220843717Y-94594481D01*
X220843709Y-94594475D01*
X220706790Y-94515426D01*
X220706786Y-94515424D01*
X220706784Y-94515423D01*
X220554057Y-94474500D01*
X220395943Y-94474500D01*
X220243216Y-94515423D01*
X220243209Y-94515426D01*
X220106290Y-94594475D01*
X220106282Y-94594481D01*
X219994481Y-94706282D01*
X219994475Y-94706290D01*
X219915426Y-94843209D01*
X219915423Y-94843216D01*
X219874500Y-94995943D01*
X219873439Y-95004003D01*
X219871584Y-95003758D01*
X219854815Y-95060869D01*
X219802011Y-95106624D01*
X219750500Y-95117830D01*
X219630351Y-95117830D01*
X219477624Y-95158753D01*
X219477617Y-95158756D01*
X219340698Y-95237805D01*
X219340690Y-95237811D01*
X219228889Y-95349612D01*
X219228883Y-95349620D01*
X219149834Y-95486539D01*
X219149831Y-95486546D01*
X219108908Y-95639273D01*
X219108908Y-95797387D01*
X219149675Y-95949529D01*
X219149831Y-95950113D01*
X219149834Y-95950120D01*
X219228883Y-96087039D01*
X219228889Y-96087047D01*
X219329661Y-96187819D01*
X219363146Y-96249142D01*
X219358162Y-96318834D01*
X219316290Y-96374767D01*
X219250826Y-96399184D01*
X219241980Y-96399500D01*
X214675833Y-96399500D01*
X214608794Y-96379815D01*
X214588152Y-96363181D01*
X213584513Y-95359542D01*
X213584511Y-95359540D01*
X213568396Y-95350236D01*
X213515991Y-95319980D01*
X213515990Y-95319979D01*
X213490513Y-95313152D01*
X213439562Y-95299500D01*
X213439560Y-95299500D01*
X213438102Y-95299308D01*
X213436962Y-95298803D01*
X213431712Y-95297397D01*
X213431931Y-95296578D01*
X213374206Y-95271040D01*
X213335736Y-95212715D01*
X213334906Y-95142850D01*
X213366607Y-95088689D01*
X213505879Y-94949418D01*
X213620843Y-94777361D01*
X213700032Y-94586183D01*
X213740402Y-94383228D01*
X213740402Y-94176298D01*
X213700032Y-93973343D01*
X213620843Y-93782165D01*
X213505879Y-93610108D01*
X213505877Y-93610105D01*
X213359559Y-93463787D01*
X213243898Y-93386506D01*
X213187500Y-93348822D01*
X213134904Y-93327036D01*
X212996322Y-93269633D01*
X212996314Y-93269631D01*
X212793371Y-93229263D01*
X212793367Y-93229263D01*
X212586437Y-93229263D01*
X212586432Y-93229263D01*
X212383489Y-93269631D01*
X212383481Y-93269633D01*
X212192305Y-93348821D01*
X212020244Y-93463787D01*
X211873926Y-93610105D01*
X211758960Y-93782166D01*
X211679772Y-93973342D01*
X211679770Y-93973350D01*
X211639402Y-94176293D01*
X211639402Y-94383232D01*
X211668853Y-94531290D01*
X211679772Y-94586183D01*
X211758961Y-94777361D01*
X211794447Y-94830470D01*
X211873926Y-94949420D01*
X212020243Y-95095737D01*
X212020247Y-95095740D01*
X212021857Y-95096816D01*
X212022510Y-95097597D01*
X212024955Y-95099604D01*
X212024574Y-95100067D01*
X212066665Y-95150426D01*
X212075375Y-95219750D01*
X212045223Y-95282779D01*
X211991217Y-95316143D01*
X211991518Y-95316870D01*
X211987035Y-95318726D01*
X211985782Y-95319501D01*
X211985079Y-95319692D01*
X211984018Y-95319976D01*
X211984008Y-95319980D01*
X211931604Y-95350236D01*
X211915492Y-95359538D01*
X211915486Y-95359542D01*
X210915296Y-96359732D01*
X210853973Y-96393217D01*
X210784281Y-96388233D01*
X210728348Y-96346361D01*
X210719060Y-96330051D01*
X210718666Y-96330279D01*
X210635549Y-96186315D01*
X210635543Y-96186307D01*
X210517994Y-96068758D01*
X210520232Y-96066519D01*
X210487823Y-96022105D01*
X210480525Y-95980194D01*
X210480525Y-95512371D01*
X210480525Y-95512368D01*
X210479625Y-95509009D01*
X210475402Y-95476925D01*
X210475402Y-91636293D01*
X211639402Y-91636293D01*
X211639402Y-91843232D01*
X211679770Y-92046175D01*
X211679772Y-92046183D01*
X211758961Y-92237361D01*
X211780291Y-92269284D01*
X211873926Y-92409420D01*
X212020244Y-92555738D01*
X212020247Y-92555740D01*
X212192304Y-92670704D01*
X212383482Y-92749893D01*
X212546771Y-92782373D01*
X212586432Y-92790262D01*
X212586436Y-92790263D01*
X212586437Y-92790263D01*
X212793368Y-92790263D01*
X212793369Y-92790262D01*
X212996322Y-92749893D01*
X213187500Y-92670704D01*
X213359557Y-92555740D01*
X213505879Y-92409418D01*
X213620843Y-92237361D01*
X213700032Y-92046183D01*
X213740402Y-91843228D01*
X213740402Y-91636298D01*
X213700032Y-91433343D01*
X213620843Y-91242165D01*
X213505879Y-91070108D01*
X213505877Y-91070105D01*
X213359559Y-90923787D01*
X213251257Y-90851423D01*
X213187500Y-90808822D01*
X212996322Y-90729633D01*
X212996314Y-90729631D01*
X212793371Y-90689263D01*
X212793367Y-90689263D01*
X212586437Y-90689263D01*
X212586432Y-90689263D01*
X212383489Y-90729631D01*
X212383481Y-90729633D01*
X212192305Y-90808821D01*
X212020244Y-90923787D01*
X211873926Y-91070105D01*
X211758960Y-91242166D01*
X211679772Y-91433342D01*
X211679770Y-91433350D01*
X211639402Y-91636293D01*
X210475402Y-91636293D01*
X210475402Y-91554843D01*
X210495087Y-91487804D01*
X210547891Y-91442049D01*
X210551950Y-91440282D01*
X210568702Y-91433343D01*
X210647500Y-91400704D01*
X210819557Y-91285740D01*
X210965879Y-91139418D01*
X211080843Y-90967361D01*
X211160032Y-90776183D01*
X211200402Y-90573228D01*
X211200402Y-90366298D01*
X211160032Y-90163343D01*
X211080843Y-89972165D01*
X211080842Y-89972163D01*
X211080842Y-89972162D01*
X210974596Y-89813153D01*
X210953718Y-89746476D01*
X210972203Y-89679096D01*
X211024182Y-89632406D01*
X211077698Y-89620263D01*
X216931798Y-89620263D01*
X216998837Y-89639948D01*
X217019479Y-89656582D01*
X221123387Y-93760490D01*
X221192687Y-93800500D01*
X221226114Y-93819799D01*
X221340691Y-93850500D01*
X227050069Y-93850500D01*
X227117108Y-93870185D01*
X227125557Y-93876125D01*
X227131281Y-93880517D01*
X227131284Y-93880520D01*
X227131287Y-93880521D01*
X227131290Y-93880524D01*
X227262509Y-93956282D01*
X227268216Y-93959577D01*
X227420943Y-94000500D01*
X227420945Y-94000500D01*
X227579055Y-94000500D01*
X227579057Y-94000500D01*
X227731784Y-93959577D01*
X227868716Y-93880520D01*
X227980520Y-93768716D01*
X228059577Y-93631784D01*
X228100500Y-93479057D01*
X228100500Y-93320943D01*
X228059577Y-93168216D01*
X228059573Y-93168209D01*
X227980524Y-93031290D01*
X227980518Y-93031282D01*
X227868717Y-92919481D01*
X227868709Y-92919475D01*
X227731790Y-92840426D01*
X227731786Y-92840424D01*
X227731784Y-92840423D01*
X227579057Y-92799500D01*
X227420943Y-92799500D01*
X227268216Y-92840423D01*
X227268209Y-92840426D01*
X227131290Y-92919475D01*
X227125557Y-92923875D01*
X227060388Y-92949070D01*
X227050069Y-92949500D01*
X221637965Y-92949500D01*
X221570926Y-92929815D01*
X221550284Y-92913181D01*
X217599284Y-88962181D01*
X217565799Y-88900858D01*
X217570783Y-88831166D01*
X217612655Y-88775233D01*
X217678119Y-88750816D01*
X217686965Y-88750500D01*
X219562035Y-88750500D01*
X219629074Y-88770185D01*
X219649716Y-88786819D01*
X222423386Y-91560489D01*
X222423387Y-91560490D01*
X222423389Y-91560491D01*
X222427534Y-91562884D01*
X222469305Y-91587000D01*
X222526114Y-91619799D01*
X222640691Y-91650500D01*
X222640694Y-91650500D01*
X235883731Y-91650500D01*
X235883732Y-91650500D01*
X235974096Y-91626286D01*
X235998310Y-91619799D01*
X236101037Y-91560489D01*
X239351219Y-88310306D01*
X239412540Y-88276823D01*
X239482232Y-88281807D01*
X239495195Y-88287504D01*
X239532491Y-88306508D01*
X239710685Y-88364407D01*
X239757114Y-88379493D01*
X239990386Y-88416440D01*
X239990391Y-88416440D01*
X240226577Y-88416440D01*
X240228987Y-88416058D01*
X240229706Y-88415944D01*
X240230910Y-88416099D01*
X240231439Y-88416058D01*
X240231447Y-88416168D01*
X240299000Y-88424891D01*
X240352457Y-88469881D01*
X240373104Y-88536631D01*
X240354386Y-88603947D01*
X240336798Y-88626096D01*
X234549716Y-94413181D01*
X234488393Y-94446666D01*
X234462035Y-94449500D01*
X226149931Y-94449500D01*
X226082892Y-94429815D01*
X226074443Y-94423875D01*
X226068709Y-94419475D01*
X225931790Y-94340426D01*
X225931786Y-94340424D01*
X225931784Y-94340423D01*
X225779057Y-94299500D01*
X225620943Y-94299500D01*
X225468216Y-94340423D01*
X225468209Y-94340426D01*
X225331290Y-94419475D01*
X225331282Y-94419481D01*
X225219481Y-94531282D01*
X225219475Y-94531290D01*
X225140426Y-94668209D01*
X225140423Y-94668216D01*
X225099500Y-94820943D01*
X225099500Y-94979057D01*
X225133682Y-95106624D01*
X225140423Y-95131783D01*
X225140426Y-95131790D01*
X225219475Y-95268709D01*
X225219479Y-95268714D01*
X225219480Y-95268716D01*
X225331284Y-95380520D01*
X225331286Y-95380521D01*
X225331290Y-95380524D01*
X225468209Y-95459573D01*
X225468216Y-95459577D01*
X225620943Y-95500500D01*
X225620945Y-95500500D01*
X225779055Y-95500500D01*
X225779057Y-95500500D01*
X225931784Y-95459577D01*
X226068716Y-95380520D01*
X226068721Y-95380514D01*
X226074443Y-95376125D01*
X226139612Y-95350930D01*
X226149931Y-95350500D01*
X234759307Y-95350500D01*
X234759309Y-95350500D01*
X234850466Y-95326074D01*
X234869730Y-95320913D01*
X234869732Y-95320912D01*
X234873887Y-95319799D01*
X234976614Y-95260489D01*
X238396302Y-91840799D01*
X238457625Y-91807315D01*
X238527317Y-91812299D01*
X238583250Y-91854171D01*
X238607667Y-91919635D01*
X238607983Y-91928481D01*
X238607983Y-92114037D01*
X238644929Y-92347308D01*
X238717916Y-92571936D01*
X238808591Y-92749894D01*
X238825140Y-92782373D01*
X238963966Y-92973450D01*
X239130973Y-93140457D01*
X239322050Y-93279283D01*
X239403816Y-93320945D01*
X239532486Y-93386506D01*
X239532488Y-93386506D01*
X239532491Y-93386508D01*
X239635273Y-93419904D01*
X239757114Y-93459493D01*
X239990386Y-93496440D01*
X239990391Y-93496440D01*
X240226580Y-93496440D01*
X240459851Y-93459493D01*
X240684475Y-93386508D01*
X240894916Y-93279283D01*
X241085993Y-93140457D01*
X241253000Y-92973450D01*
X241391826Y-92782373D01*
X241499051Y-92571932D01*
X241572036Y-92347308D01*
X241589450Y-92237359D01*
X241608983Y-92114037D01*
X241608983Y-91877842D01*
X241572036Y-91644571D01*
X241531645Y-91520262D01*
X241499051Y-91419948D01*
X241499049Y-91419945D01*
X241499049Y-91419943D01*
X241430668Y-91285738D01*
X241391826Y-91209507D01*
X241253000Y-91018430D01*
X241085993Y-90851423D01*
X240894916Y-90712597D01*
X240883348Y-90706703D01*
X240684479Y-90605373D01*
X240459851Y-90532386D01*
X240226580Y-90495440D01*
X240226575Y-90495440D01*
X240041024Y-90495440D01*
X239973985Y-90475755D01*
X239928230Y-90422951D01*
X239918286Y-90353793D01*
X239947311Y-90290237D01*
X239953343Y-90283759D01*
X240307663Y-89929439D01*
X242260490Y-87976614D01*
X242319799Y-87873887D01*
X242332917Y-87824928D01*
X242350500Y-87759309D01*
X242350500Y-84940691D01*
X242330525Y-84866145D01*
X242326286Y-84850325D01*
X242326286Y-84850324D01*
X242323544Y-84840091D01*
X242319799Y-84826113D01*
X242260489Y-84723386D01*
X236936700Y-79399597D01*
X236903215Y-79338274D01*
X236901442Y-79328099D01*
X236900500Y-79320945D01*
X236900500Y-79320943D01*
X236859577Y-79168216D01*
X236784201Y-79037659D01*
X236780524Y-79031290D01*
X236780518Y-79031282D01*
X236668717Y-78919481D01*
X236668709Y-78919475D01*
X236531790Y-78840426D01*
X236531786Y-78840424D01*
X236531784Y-78840423D01*
X236379057Y-78799500D01*
X236220943Y-78799500D01*
X236068216Y-78840423D01*
X236068209Y-78840426D01*
X235931290Y-78919475D01*
X235931282Y-78919481D01*
X235819481Y-79031282D01*
X235819475Y-79031290D01*
X235740426Y-79168209D01*
X235740423Y-79168216D01*
X235699500Y-79320943D01*
X235699500Y-79479056D01*
X235740423Y-79631783D01*
X235740426Y-79631790D01*
X235819475Y-79768709D01*
X235819479Y-79768714D01*
X235819480Y-79768716D01*
X235931284Y-79880520D01*
X235931286Y-79880521D01*
X235931290Y-79880524D01*
X236068209Y-79959573D01*
X236068216Y-79959577D01*
X236220943Y-80000500D01*
X236220945Y-80000500D01*
X236228099Y-80001442D01*
X236291996Y-80029707D01*
X236299597Y-80036700D01*
X241413181Y-85150284D01*
X241446666Y-85211607D01*
X241449500Y-85237965D01*
X241449500Y-85835568D01*
X241429815Y-85902607D01*
X241377011Y-85948362D01*
X241307853Y-85958306D01*
X241244297Y-85929281D01*
X241237819Y-85923249D01*
X241085995Y-85771425D01*
X241085993Y-85771423D01*
X240894916Y-85632597D01*
X240855829Y-85612681D01*
X240684479Y-85525373D01*
X240459851Y-85452386D01*
X240226580Y-85415440D01*
X240226575Y-85415440D01*
X239990391Y-85415440D01*
X239990386Y-85415440D01*
X239757114Y-85452386D01*
X239532486Y-85525373D01*
X239322049Y-85632597D01*
X239213033Y-85711802D01*
X239130973Y-85771423D01*
X239130971Y-85771425D01*
X239130970Y-85771425D01*
X238963968Y-85938427D01*
X238963968Y-85938428D01*
X238963966Y-85938430D01*
X238904345Y-86020490D01*
X238825140Y-86129506D01*
X238717916Y-86339943D01*
X238644929Y-86564571D01*
X238607983Y-86797842D01*
X238607983Y-87034037D01*
X238644930Y-87267309D01*
X238644930Y-87267312D01*
X238717912Y-87491926D01*
X238717914Y-87491931D01*
X238717915Y-87491932D01*
X238736918Y-87529228D01*
X238749814Y-87597897D01*
X238723537Y-87662637D01*
X238714114Y-87673203D01*
X235674139Y-90713181D01*
X235612816Y-90746666D01*
X235586458Y-90749500D01*
X226746676Y-90749500D01*
X226679637Y-90729815D01*
X226633882Y-90677011D01*
X226623938Y-90607853D01*
X226628970Y-90586495D01*
X226638699Y-90557133D01*
X226638700Y-90557129D01*
X226649193Y-90454425D01*
X226649194Y-90454412D01*
X226649194Y-90179439D01*
X225773194Y-90179439D01*
X225706155Y-90159754D01*
X225660400Y-90106950D01*
X225649194Y-90055439D01*
X225649194Y-89929439D01*
X225523194Y-89929439D01*
X225456155Y-89909754D01*
X225410400Y-89856950D01*
X225399194Y-89805439D01*
X225399194Y-89679439D01*
X225899194Y-89679439D01*
X226649193Y-89679439D01*
X226649193Y-89404467D01*
X226649192Y-89404452D01*
X226638699Y-89301741D01*
X226583552Y-89135319D01*
X226583550Y-89135314D01*
X226491509Y-88986093D01*
X226367539Y-88862123D01*
X226218318Y-88770082D01*
X226218313Y-88770080D01*
X226051891Y-88714933D01*
X226051884Y-88714932D01*
X225949180Y-88704439D01*
X225899194Y-88704439D01*
X225899194Y-89679439D01*
X225399194Y-89679439D01*
X225399194Y-88704439D01*
X225399193Y-88704438D01*
X225349223Y-88704439D01*
X225349205Y-88704440D01*
X225246496Y-88714933D01*
X225080074Y-88770080D01*
X225080069Y-88770082D01*
X224930848Y-88862123D01*
X224806878Y-88986093D01*
X224714837Y-89135314D01*
X224714835Y-89135319D01*
X224659099Y-89303521D01*
X224619326Y-89360966D01*
X224554811Y-89387789D01*
X224486035Y-89375474D01*
X224434835Y-89327931D01*
X224424352Y-89305472D01*
X224401987Y-89241558D01*
X224401986Y-89241556D01*
X224391805Y-89227761D01*
X224321344Y-89132289D01*
X224212076Y-89051646D01*
X224102738Y-89013386D01*
X224045962Y-88972664D01*
X224020216Y-88907711D01*
X224019694Y-88896345D01*
X224019694Y-88103939D01*
X224039379Y-88036900D01*
X224092183Y-87991145D01*
X224143694Y-87979939D01*
X224438944Y-87979939D01*
X224438945Y-87979938D01*
X224463003Y-87975153D01*
X224497423Y-87968307D01*
X224497423Y-87968306D01*
X224497425Y-87968306D01*
X224563746Y-87923991D01*
X224608061Y-87857670D01*
X224608061Y-87857668D01*
X224608062Y-87857668D01*
X224619693Y-87799191D01*
X224619694Y-87799189D01*
X224619694Y-87495487D01*
X224639379Y-87428448D01*
X224692183Y-87382693D01*
X224761341Y-87372749D01*
X224824897Y-87401774D01*
X224855132Y-87443703D01*
X224855888Y-87443318D01*
X224954569Y-87636989D01*
X224993922Y-87691155D01*
X225626231Y-87058847D01*
X225643269Y-87122432D01*
X225709095Y-87236446D01*
X225802187Y-87329538D01*
X225916201Y-87395364D01*
X225979784Y-87412401D01*
X225347476Y-88044708D01*
X225347476Y-88044709D01*
X225401643Y-88084063D01*
X225590976Y-88180534D01*
X225793064Y-88246196D01*
X226002948Y-88279439D01*
X226215440Y-88279439D01*
X226425321Y-88246196D01*
X226425324Y-88246196D01*
X226627411Y-88180534D01*
X226816748Y-88084061D01*
X226870910Y-88044709D01*
X226870911Y-88044709D01*
X226238602Y-87412401D01*
X226302187Y-87395364D01*
X226416201Y-87329538D01*
X226509293Y-87236446D01*
X226575119Y-87122432D01*
X226592156Y-87058847D01*
X227224464Y-87691156D01*
X227224464Y-87691155D01*
X227263816Y-87636993D01*
X227360289Y-87447656D01*
X227417537Y-87271465D01*
X227456974Y-87213790D01*
X227521333Y-87186591D01*
X227590179Y-87198505D01*
X227641655Y-87245749D01*
X227650027Y-87262326D01*
X227653813Y-87271465D01*
X227718252Y-87427035D01*
X227833218Y-87599096D01*
X227979536Y-87745414D01*
X227979539Y-87745416D01*
X228151596Y-87860380D01*
X228342774Y-87939569D01*
X228486547Y-87968167D01*
X228545724Y-87979938D01*
X228545728Y-87979939D01*
X228545729Y-87979939D01*
X228752660Y-87979939D01*
X228752661Y-87979938D01*
X228955614Y-87939569D01*
X229146792Y-87860380D01*
X229318849Y-87745416D01*
X229465171Y-87599094D01*
X229580135Y-87427037D01*
X229659324Y-87235859D01*
X229699694Y-87032904D01*
X229699694Y-86825974D01*
X229699693Y-86825969D01*
X230138694Y-86825969D01*
X230138694Y-87032908D01*
X230179062Y-87235851D01*
X230179064Y-87235859D01*
X230258252Y-87427035D01*
X230373218Y-87599096D01*
X230519536Y-87745414D01*
X230519539Y-87745416D01*
X230691596Y-87860380D01*
X230882774Y-87939569D01*
X231026547Y-87968167D01*
X231085724Y-87979938D01*
X231085728Y-87979939D01*
X231085729Y-87979939D01*
X231292660Y-87979939D01*
X231292661Y-87979938D01*
X231495614Y-87939569D01*
X231686792Y-87860380D01*
X231858849Y-87745416D01*
X232005171Y-87599094D01*
X232120135Y-87427037D01*
X232199324Y-87235859D01*
X232239694Y-87032904D01*
X232239694Y-86825974D01*
X232199324Y-86623019D01*
X232120135Y-86431841D01*
X232005171Y-86259784D01*
X232005169Y-86259781D01*
X231858851Y-86113463D01*
X231686791Y-85998497D01*
X231576240Y-85952705D01*
X231521837Y-85908863D01*
X231499773Y-85842569D01*
X231499694Y-85838144D01*
X231499694Y-85378968D01*
X231519379Y-85311929D01*
X231550061Y-85279198D01*
X231556587Y-85274381D01*
X231621344Y-85226589D01*
X231701987Y-85117321D01*
X231731588Y-85032726D01*
X231746840Y-84989140D01*
X231746840Y-84989138D01*
X231749694Y-84958708D01*
X231749694Y-83900169D01*
X231746840Y-83869739D01*
X231746840Y-83869737D01*
X231701987Y-83741558D01*
X231701986Y-83741556D01*
X231621344Y-83632289D01*
X231512076Y-83551646D01*
X231512074Y-83551645D01*
X231383894Y-83506792D01*
X231353464Y-83503939D01*
X231353460Y-83503939D01*
X230744928Y-83503939D01*
X230744924Y-83503939D01*
X230714494Y-83506792D01*
X230714492Y-83506792D01*
X230586313Y-83551645D01*
X230586311Y-83551646D01*
X230477044Y-83632289D01*
X230396401Y-83741556D01*
X230396400Y-83741558D01*
X230351547Y-83869737D01*
X230351547Y-83869739D01*
X230348694Y-83900169D01*
X230348694Y-84958708D01*
X230351547Y-84989138D01*
X230351547Y-84989140D01*
X230396400Y-85117319D01*
X230396401Y-85117321D01*
X230477043Y-85226588D01*
X230477045Y-85226590D01*
X230548327Y-85279198D01*
X230590578Y-85334845D01*
X230598694Y-85378968D01*
X230598694Y-85994292D01*
X230579009Y-86061331D01*
X230543586Y-86097393D01*
X230519541Y-86113459D01*
X230519535Y-86113464D01*
X230373218Y-86259781D01*
X230258252Y-86431842D01*
X230179064Y-86623018D01*
X230179062Y-86623026D01*
X230138694Y-86825969D01*
X229699693Y-86825969D01*
X229659324Y-86623019D01*
X229609133Y-86501847D01*
X229599694Y-86454394D01*
X229599694Y-85378968D01*
X229619379Y-85311929D01*
X229650061Y-85279198D01*
X229656587Y-85274381D01*
X229721344Y-85226589D01*
X229801987Y-85117321D01*
X229831588Y-85032726D01*
X229846840Y-84989140D01*
X229846840Y-84989138D01*
X229849694Y-84958708D01*
X229849694Y-83900169D01*
X229846840Y-83869739D01*
X229846840Y-83869737D01*
X229801987Y-83741558D01*
X229801986Y-83741556D01*
X229721344Y-83632289D01*
X229612076Y-83551646D01*
X229612074Y-83551645D01*
X229483894Y-83506792D01*
X229453464Y-83503939D01*
X229453460Y-83503939D01*
X228844928Y-83503939D01*
X228844924Y-83503939D01*
X228814494Y-83506792D01*
X228814492Y-83506792D01*
X228686313Y-83551645D01*
X228686311Y-83551646D01*
X228577044Y-83632289D01*
X228496401Y-83741556D01*
X228496400Y-83741558D01*
X228451547Y-83869737D01*
X228451547Y-83869739D01*
X228448694Y-83900169D01*
X228448694Y-84958708D01*
X228451547Y-84989138D01*
X228451547Y-84989140D01*
X228496400Y-85117319D01*
X228496401Y-85117321D01*
X228577043Y-85226588D01*
X228577045Y-85226590D01*
X228648327Y-85279198D01*
X228690578Y-85334845D01*
X228698694Y-85378968D01*
X228698694Y-85754939D01*
X228679009Y-85821978D01*
X228626205Y-85867733D01*
X228574694Y-85878939D01*
X228545724Y-85878939D01*
X228342781Y-85919307D01*
X228342773Y-85919309D01*
X228151597Y-85998497D01*
X227979536Y-86113463D01*
X227833218Y-86259781D01*
X227718251Y-86431842D01*
X227650029Y-86596547D01*
X227606188Y-86650950D01*
X227539894Y-86673015D01*
X227472194Y-86655736D01*
X227424584Y-86604598D01*
X227417537Y-86587412D01*
X227360289Y-86411221D01*
X227263818Y-86221888D01*
X227224464Y-86167721D01*
X227224463Y-86167721D01*
X226592156Y-86800029D01*
X226575119Y-86736446D01*
X226509293Y-86622432D01*
X226416201Y-86529340D01*
X226302187Y-86463514D01*
X226238603Y-86446476D01*
X226870910Y-85814167D01*
X226816744Y-85774814D01*
X226627411Y-85678343D01*
X226486658Y-85632610D01*
X226428982Y-85593173D01*
X226401784Y-85528814D01*
X226413699Y-85459968D01*
X226437295Y-85426997D01*
X226491511Y-85372781D01*
X226583550Y-85223563D01*
X226583552Y-85223558D01*
X226638699Y-85057136D01*
X226638700Y-85057129D01*
X226649193Y-84954425D01*
X226649194Y-84954412D01*
X226649194Y-84679439D01*
X225773194Y-84679439D01*
X225706155Y-84659754D01*
X225660400Y-84606950D01*
X225649194Y-84555439D01*
X225649194Y-84429439D01*
X225523194Y-84429439D01*
X225456155Y-84409754D01*
X225410400Y-84356950D01*
X225399194Y-84305439D01*
X225399194Y-84179439D01*
X225899194Y-84179439D01*
X226649193Y-84179439D01*
X226649193Y-83904467D01*
X226649192Y-83904452D01*
X226638699Y-83801741D01*
X226583552Y-83635319D01*
X226583550Y-83635314D01*
X226491509Y-83486093D01*
X226367539Y-83362123D01*
X226218318Y-83270082D01*
X226218313Y-83270080D01*
X226051891Y-83214933D01*
X226051884Y-83214932D01*
X225949180Y-83204439D01*
X225899194Y-83204439D01*
X225899194Y-84179439D01*
X225399194Y-84179439D01*
X225399194Y-83204439D01*
X225399193Y-83204438D01*
X225349223Y-83204439D01*
X225349205Y-83204440D01*
X225246496Y-83214933D01*
X225080074Y-83270080D01*
X225080069Y-83270082D01*
X224930848Y-83362123D01*
X224806878Y-83486093D01*
X224714837Y-83635314D01*
X224714835Y-83635319D01*
X224659099Y-83803521D01*
X224619326Y-83860966D01*
X224554811Y-83887789D01*
X224486035Y-83875474D01*
X224434835Y-83827931D01*
X224424352Y-83805472D01*
X224401987Y-83741558D01*
X224401986Y-83741556D01*
X224321344Y-83632289D01*
X224212076Y-83551646D01*
X224212074Y-83551645D01*
X224083894Y-83506792D01*
X224053464Y-83503939D01*
X224053460Y-83503939D01*
X223444928Y-83503939D01*
X223444924Y-83503939D01*
X223414494Y-83506792D01*
X223414492Y-83506792D01*
X223286313Y-83551645D01*
X223286311Y-83551646D01*
X223177044Y-83632289D01*
X223096401Y-83741556D01*
X223096400Y-83741558D01*
X223051547Y-83869737D01*
X223051547Y-83869739D01*
X223048694Y-83900169D01*
X223048694Y-84958708D01*
X223051547Y-84989138D01*
X223051547Y-84989140D01*
X223096401Y-85117321D01*
X223100743Y-85125537D01*
X223098799Y-85126564D01*
X223118435Y-85180324D01*
X223118694Y-85188330D01*
X223118694Y-85754939D01*
X223099009Y-85821978D01*
X223046205Y-85867733D01*
X222994694Y-85878939D01*
X222699441Y-85878939D01*
X222640964Y-85890570D01*
X222640963Y-85890571D01*
X222574641Y-85934886D01*
X222530326Y-86001208D01*
X222530325Y-86001209D01*
X222518694Y-86059686D01*
X222518694Y-87799191D01*
X222530325Y-87857668D01*
X222530326Y-87857669D01*
X222574641Y-87923991D01*
X222640963Y-87968306D01*
X222640964Y-87968307D01*
X222699441Y-87979938D01*
X222699444Y-87979939D01*
X222699446Y-87979939D01*
X222994694Y-87979939D01*
X223061733Y-87999624D01*
X223107488Y-88052428D01*
X223118694Y-88103939D01*
X223118694Y-88481038D01*
X223099009Y-88548077D01*
X223046205Y-88593832D01*
X222977047Y-88603776D01*
X222913491Y-88574751D01*
X222887308Y-88543040D01*
X222880522Y-88531287D01*
X222880518Y-88531282D01*
X222768717Y-88419481D01*
X222768709Y-88419475D01*
X222631790Y-88340426D01*
X222631786Y-88340424D01*
X222631784Y-88340423D01*
X222479057Y-88299500D01*
X222320943Y-88299500D01*
X222168216Y-88340423D01*
X222168209Y-88340426D01*
X222031290Y-88419475D01*
X222031282Y-88419481D01*
X221919481Y-88531282D01*
X221919475Y-88531290D01*
X221840426Y-88668209D01*
X221840423Y-88668216D01*
X221799500Y-88820943D01*
X221799500Y-88979057D01*
X221808699Y-89013386D01*
X221840423Y-89131783D01*
X221840426Y-89131790D01*
X221919475Y-89268709D01*
X221919479Y-89268714D01*
X221919480Y-89268716D01*
X222031284Y-89380520D01*
X222031286Y-89380521D01*
X222031290Y-89380524D01*
X222121592Y-89432659D01*
X222168216Y-89459577D01*
X222320943Y-89500500D01*
X222320945Y-89500500D01*
X222328099Y-89501442D01*
X222391996Y-89529707D01*
X222399597Y-89536700D01*
X223012375Y-90149478D01*
X223045860Y-90210801D01*
X223048694Y-90237159D01*
X223048694Y-90458708D01*
X223051547Y-90489138D01*
X223051547Y-90489140D01*
X223084932Y-90584545D01*
X223086434Y-90613973D01*
X223090629Y-90643147D01*
X223088195Y-90648475D01*
X223088494Y-90654324D01*
X223073847Y-90679893D01*
X223061604Y-90706703D01*
X223056676Y-90709869D01*
X223053766Y-90714951D01*
X223027616Y-90728545D01*
X223002826Y-90744477D01*
X222994731Y-90745640D01*
X222991773Y-90747179D01*
X222967891Y-90749500D01*
X222937965Y-90749500D01*
X222870926Y-90729815D01*
X222850284Y-90713181D01*
X220076616Y-87939513D01*
X220076614Y-87939511D01*
X220019024Y-87906261D01*
X219973888Y-87880201D01*
X219961780Y-87876957D01*
X219949673Y-87873713D01*
X219949670Y-87873712D01*
X219911478Y-87863478D01*
X219859309Y-87849500D01*
X219859308Y-87849500D01*
X205416744Y-87849500D01*
X205349705Y-87829815D01*
X205329063Y-87813181D01*
X200813319Y-83297437D01*
X200779834Y-83236114D01*
X200784818Y-83166422D01*
X200826690Y-83110489D01*
X200892154Y-83086072D01*
X200901000Y-83085756D01*
X201267254Y-83085756D01*
X201267255Y-83085755D01*
X201470208Y-83045386D01*
X201661386Y-82966197D01*
X201833443Y-82851233D01*
X201979765Y-82704911D01*
X202094729Y-82532854D01*
X202173918Y-82341676D01*
X202214288Y-82138721D01*
X202214288Y-81931791D01*
X202173918Y-81728836D01*
X202094729Y-81537658D01*
X201979765Y-81365601D01*
X201979763Y-81365598D01*
X201833445Y-81219280D01*
X201747414Y-81161797D01*
X201661386Y-81104315D01*
X201470208Y-81025126D01*
X201470200Y-81025124D01*
X201267257Y-80984756D01*
X201267253Y-80984756D01*
X200810323Y-80984756D01*
X200810318Y-80984756D01*
X200607375Y-81025124D01*
X200607367Y-81025126D01*
X200416191Y-81104314D01*
X200244130Y-81219280D01*
X200097812Y-81365598D01*
X199982846Y-81537659D01*
X199903658Y-81728835D01*
X199903656Y-81728843D01*
X199863288Y-81931786D01*
X199863288Y-82048044D01*
X199843603Y-82115083D01*
X199790799Y-82160838D01*
X199721641Y-82170782D01*
X199658085Y-82141757D01*
X199651607Y-82135725D01*
X196947668Y-79431786D01*
X199863288Y-79431786D01*
X199863288Y-79638725D01*
X199903656Y-79841668D01*
X199903658Y-79841676D01*
X199982846Y-80032852D01*
X200097812Y-80204913D01*
X200244130Y-80351231D01*
X200244133Y-80351233D01*
X200416190Y-80466197D01*
X200607368Y-80545386D01*
X200810318Y-80585755D01*
X200810322Y-80585756D01*
X200810323Y-80585756D01*
X201267254Y-80585756D01*
X201267255Y-80585755D01*
X201470208Y-80545386D01*
X201661386Y-80466197D01*
X201833443Y-80351233D01*
X201979765Y-80204911D01*
X202094729Y-80032854D01*
X202173918Y-79841676D01*
X202214288Y-79638721D01*
X202214288Y-79431791D01*
X202173918Y-79228836D01*
X202094729Y-79037658D01*
X201979765Y-78865601D01*
X201979763Y-78865598D01*
X201833445Y-78719280D01*
X201747414Y-78661797D01*
X201661386Y-78604315D01*
X201470208Y-78525126D01*
X201470200Y-78525124D01*
X201267257Y-78484756D01*
X201267253Y-78484756D01*
X200810323Y-78484756D01*
X200810318Y-78484756D01*
X200607375Y-78525124D01*
X200607367Y-78525126D01*
X200416191Y-78604314D01*
X200244130Y-78719280D01*
X200097812Y-78865598D01*
X199982846Y-79037659D01*
X199903658Y-79228835D01*
X199903656Y-79228843D01*
X199863288Y-79431786D01*
X196947668Y-79431786D01*
X193795037Y-76279155D01*
X193761552Y-76217832D01*
X193758718Y-76191474D01*
X193758718Y-75945945D01*
X193742938Y-75846317D01*
X193742937Y-75846315D01*
X193742937Y-75846313D01*
X193681746Y-75726219D01*
X193681744Y-75726217D01*
X193681741Y-75726213D01*
X193586443Y-75630915D01*
X193586439Y-75630912D01*
X193586438Y-75630911D01*
X193466344Y-75569720D01*
X193466342Y-75569719D01*
X193466339Y-75569718D01*
X193366711Y-75553939D01*
X193366706Y-75553939D01*
X192799730Y-75553939D01*
X192799725Y-75553939D01*
X192700096Y-75569718D01*
X192579996Y-75630912D01*
X192579992Y-75630915D01*
X192484694Y-75726213D01*
X192484692Y-75726217D01*
X192484690Y-75726219D01*
X192444580Y-75804939D01*
X192441373Y-75811234D01*
X192393398Y-75862030D01*
X192330888Y-75878939D01*
X192032747Y-75878939D01*
X191965708Y-75859254D01*
X191932977Y-75828572D01*
X191880369Y-75757290D01*
X191838266Y-75726217D01*
X191771100Y-75676646D01*
X191771098Y-75676645D01*
X191642918Y-75631792D01*
X191612488Y-75628939D01*
X191612484Y-75628939D01*
X190553952Y-75628939D01*
X190553948Y-75628939D01*
X190523518Y-75631792D01*
X190523516Y-75631792D01*
X190395337Y-75676645D01*
X190395335Y-75676646D01*
X190286066Y-75757290D01*
X190233459Y-75828572D01*
X190177812Y-75870823D01*
X190133689Y-75878939D01*
X187411252Y-75878939D01*
X187348664Y-75895709D01*
X187348661Y-75895710D01*
X187334518Y-75899500D01*
X187296674Y-75909640D01*
X187193947Y-75968949D01*
X187170622Y-75992273D01*
X187154791Y-76000860D01*
X187137526Y-76004564D01*
X187122027Y-76013027D01*
X187104073Y-76011742D01*
X187086476Y-76015518D01*
X187069948Y-76009300D01*
X187052336Y-76008040D01*
X187033674Y-75999248D01*
X186931784Y-75940423D01*
X186892179Y-75929811D01*
X186779057Y-75899500D01*
X186620943Y-75899500D01*
X186468216Y-75940423D01*
X186468209Y-75940426D01*
X186331290Y-76019475D01*
X186331282Y-76019481D01*
X186219481Y-76131282D01*
X186219475Y-76131290D01*
X186140426Y-76268209D01*
X186140423Y-76268216D01*
X186099500Y-76420943D01*
X186099500Y-76579057D01*
X186129973Y-76692782D01*
X186140423Y-76731783D01*
X186140426Y-76731790D01*
X186219475Y-76868709D01*
X186219479Y-76868714D01*
X186219480Y-76868716D01*
X186331284Y-76980520D01*
X186331286Y-76980521D01*
X186331290Y-76980524D01*
X186416881Y-77029939D01*
X186468216Y-77059577D01*
X186620943Y-77100500D01*
X186620945Y-77100500D01*
X186779055Y-77100500D01*
X186779057Y-77100500D01*
X186931784Y-77059577D01*
X187068716Y-76980520D01*
X187068721Y-76980514D01*
X187074443Y-76976125D01*
X187139612Y-76950930D01*
X187149931Y-76950500D01*
X187359308Y-76950500D01*
X187359309Y-76950500D01*
X187449673Y-76926286D01*
X187473887Y-76919799D01*
X187576614Y-76860489D01*
X187620845Y-76816258D01*
X187682168Y-76782773D01*
X187708526Y-76779939D01*
X190133689Y-76779939D01*
X190200728Y-76799624D01*
X190233459Y-76830306D01*
X190286066Y-76901587D01*
X190286067Y-76901587D01*
X190286068Y-76901589D01*
X190395336Y-76982232D01*
X190438063Y-76997183D01*
X190523517Y-77027085D01*
X190553948Y-77029939D01*
X190553952Y-77029939D01*
X191612488Y-77029939D01*
X191642917Y-77027085D01*
X191642919Y-77027085D01*
X191707008Y-77004658D01*
X191771100Y-76982232D01*
X191880368Y-76901589D01*
X191932977Y-76830306D01*
X191988624Y-76788055D01*
X192032747Y-76779939D01*
X192554098Y-76779939D01*
X192610392Y-76793454D01*
X192700094Y-76839159D01*
X192799725Y-76854939D01*
X192799730Y-76854939D01*
X193045253Y-76854939D01*
X193112292Y-76874624D01*
X193132934Y-76891258D01*
X204749258Y-88507582D01*
X204782743Y-88568905D01*
X204777759Y-88638597D01*
X204735887Y-88694530D01*
X204670423Y-88718947D01*
X204661577Y-88719263D01*
X195370928Y-88719263D01*
X195280562Y-88743476D01*
X195280561Y-88743475D01*
X195256353Y-88749962D01*
X195256350Y-88749963D01*
X195153623Y-88809274D01*
X195153620Y-88809276D01*
X186449716Y-97513181D01*
X186388393Y-97546666D01*
X186362035Y-97549500D01*
X183649931Y-97549500D01*
X183582892Y-97529815D01*
X183574443Y-97523875D01*
X183568709Y-97519475D01*
X183431790Y-97440426D01*
X183431786Y-97440424D01*
X183431784Y-97440423D01*
X183279057Y-97399500D01*
X183120943Y-97399500D01*
X182968216Y-97440423D01*
X182968209Y-97440426D01*
X182831290Y-97519475D01*
X182831282Y-97519481D01*
X182719481Y-97631282D01*
X182719475Y-97631290D01*
X182640426Y-97768209D01*
X182640423Y-97768216D01*
X182599500Y-97920943D01*
X168240789Y-97920943D01*
X168283343Y-97862373D01*
X168284597Y-97859911D01*
X168286327Y-97856518D01*
X168390566Y-97651936D01*
X168390566Y-97651935D01*
X168390568Y-97651932D01*
X168463553Y-97427308D01*
X168470963Y-97380524D01*
X168500500Y-97194037D01*
X168500500Y-96957842D01*
X168463553Y-96724571D01*
X168429689Y-96620352D01*
X168390568Y-96499948D01*
X168390566Y-96499945D01*
X168390566Y-96499943D01*
X168322868Y-96367080D01*
X168283343Y-96289507D01*
X168144517Y-96098430D01*
X167977510Y-95931423D01*
X167786433Y-95792597D01*
X167575996Y-95685373D01*
X167351368Y-95612386D01*
X167118097Y-95575440D01*
X167118092Y-95575440D01*
X166881908Y-95575440D01*
X166881903Y-95575440D01*
X166648631Y-95612386D01*
X166424003Y-95685373D01*
X166213566Y-95792597D01*
X166170116Y-95824166D01*
X166022490Y-95931423D01*
X166022488Y-95931425D01*
X166022487Y-95931425D01*
X165855485Y-96098427D01*
X165855485Y-96098428D01*
X165855483Y-96098430D01*
X165840189Y-96119481D01*
X165716657Y-96289506D01*
X165609433Y-96499943D01*
X165536446Y-96724571D01*
X165499500Y-96957842D01*
X161300500Y-96957842D01*
X161300500Y-91877842D01*
X165499500Y-91877842D01*
X165499500Y-92114037D01*
X165536446Y-92347308D01*
X165609433Y-92571936D01*
X165700108Y-92749894D01*
X165716657Y-92782373D01*
X165855483Y-92973450D01*
X166022490Y-93140457D01*
X166213567Y-93279283D01*
X166295333Y-93320945D01*
X166424003Y-93386506D01*
X166424005Y-93386506D01*
X166424008Y-93386508D01*
X166526790Y-93419904D01*
X166648631Y-93459493D01*
X166881903Y-93496440D01*
X166881908Y-93496440D01*
X167118097Y-93496440D01*
X167351368Y-93459493D01*
X167575992Y-93386508D01*
X167786433Y-93279283D01*
X167977510Y-93140457D01*
X168144517Y-92973450D01*
X168283343Y-92782373D01*
X168390568Y-92571932D01*
X168463553Y-92347308D01*
X168480967Y-92237359D01*
X168500500Y-92114037D01*
X168500500Y-91958443D01*
X179799500Y-91958443D01*
X179799500Y-92116557D01*
X179831870Y-92237361D01*
X179840423Y-92269283D01*
X179840426Y-92269290D01*
X179919475Y-92406209D01*
X179919479Y-92406214D01*
X179919480Y-92406216D01*
X180031284Y-92518020D01*
X180031286Y-92518021D01*
X180031290Y-92518024D01*
X180124663Y-92571932D01*
X180168216Y-92597077D01*
X180320943Y-92638000D01*
X180320945Y-92638000D01*
X180479055Y-92638000D01*
X180479057Y-92638000D01*
X180631784Y-92597077D01*
X180768716Y-92518020D01*
X180768721Y-92518014D01*
X180774443Y-92513625D01*
X180839612Y-92488430D01*
X180849931Y-92488000D01*
X184182943Y-92488000D01*
X184182944Y-92488000D01*
X184273308Y-92463786D01*
X184297522Y-92457299D01*
X184400249Y-92397989D01*
X193035489Y-83762749D01*
X193094798Y-83660022D01*
X193094799Y-83660021D01*
X193125500Y-83545444D01*
X193125500Y-79849930D01*
X193145185Y-79782891D01*
X193151128Y-79774438D01*
X193155512Y-79768723D01*
X193155520Y-79768716D01*
X193234577Y-79631784D01*
X193275500Y-79479057D01*
X193275500Y-79320943D01*
X193234577Y-79168216D01*
X193159201Y-79037659D01*
X193155524Y-79031290D01*
X193155518Y-79031282D01*
X193043717Y-78919481D01*
X193043709Y-78919475D01*
X192906790Y-78840426D01*
X192906786Y-78840424D01*
X192906784Y-78840423D01*
X192754057Y-78799500D01*
X192595943Y-78799500D01*
X192443216Y-78840423D01*
X192443209Y-78840426D01*
X192306290Y-78919475D01*
X192306282Y-78919481D01*
X192194481Y-79031282D01*
X192194475Y-79031290D01*
X192115426Y-79168209D01*
X192115423Y-79168216D01*
X192074500Y-79320943D01*
X192074500Y-79479056D01*
X192115423Y-79631783D01*
X192115426Y-79631790D01*
X192194473Y-79768706D01*
X192194477Y-79768712D01*
X192194480Y-79768716D01*
X192194481Y-79768717D01*
X192198872Y-79774438D01*
X192224069Y-79839606D01*
X192224500Y-79849930D01*
X192224500Y-83248169D01*
X192204815Y-83315208D01*
X192188181Y-83335850D01*
X188649955Y-86874075D01*
X188588632Y-86907560D01*
X188518940Y-86902576D01*
X188463007Y-86860704D01*
X188440657Y-86810585D01*
X188425910Y-86736446D01*
X188403348Y-86623019D01*
X188324159Y-86431841D01*
X188209195Y-86259784D01*
X188209193Y-86259781D01*
X188062873Y-86113461D01*
X187898827Y-86003850D01*
X187854022Y-85950238D01*
X187843718Y-85900748D01*
X187843718Y-84809601D01*
X187863403Y-84742562D01*
X187870100Y-84734252D01*
X187869849Y-84734067D01*
X187877734Y-84723383D01*
X187956011Y-84617321D01*
X187983298Y-84539339D01*
X188000864Y-84489140D01*
X188000864Y-84489138D01*
X188003718Y-84458708D01*
X188003718Y-83400169D01*
X188000864Y-83369739D01*
X188000864Y-83369737D01*
X187965992Y-83270080D01*
X187956011Y-83241557D01*
X187875368Y-83132289D01*
X187766100Y-83051646D01*
X187766098Y-83051645D01*
X187637918Y-83006792D01*
X187607488Y-83003939D01*
X187607484Y-83003939D01*
X186998952Y-83003939D01*
X186998948Y-83003939D01*
X186968518Y-83006792D01*
X186968516Y-83006792D01*
X186840337Y-83051645D01*
X186840335Y-83051646D01*
X186731068Y-83132289D01*
X186650425Y-83241556D01*
X186650424Y-83241558D01*
X186605571Y-83369737D01*
X186605571Y-83369739D01*
X186602718Y-83400169D01*
X186602718Y-84458708D01*
X186605571Y-84489138D01*
X186605571Y-84489140D01*
X186650424Y-84617319D01*
X186650425Y-84617321D01*
X186731068Y-84726589D01*
X186840336Y-84807232D01*
X186859670Y-84813997D01*
X186916446Y-84854716D01*
X186942195Y-84919668D01*
X186942718Y-84931039D01*
X186942718Y-85900748D01*
X186923033Y-85967787D01*
X186887609Y-86003850D01*
X186723562Y-86113461D01*
X186577242Y-86259781D01*
X186462276Y-86431842D01*
X186383088Y-86623018D01*
X186383086Y-86623026D01*
X186342718Y-86825969D01*
X186342718Y-87032908D01*
X186383086Y-87235851D01*
X186383088Y-87235859D01*
X186462276Y-87427035D01*
X186577242Y-87599096D01*
X186723560Y-87745414D01*
X186723563Y-87745416D01*
X186895620Y-87860380D01*
X187086798Y-87939569D01*
X187230571Y-87968167D01*
X187274364Y-87976878D01*
X187336275Y-88009262D01*
X187370849Y-88069978D01*
X187367110Y-88139748D01*
X187337854Y-88186176D01*
X183973351Y-91550681D01*
X183912028Y-91584166D01*
X183885670Y-91587000D01*
X180849931Y-91587000D01*
X180782892Y-91567315D01*
X180774443Y-91561375D01*
X180768709Y-91556975D01*
X180631790Y-91477926D01*
X180631786Y-91477924D01*
X180631784Y-91477923D01*
X180479057Y-91437000D01*
X180320943Y-91437000D01*
X180168216Y-91477923D01*
X180168209Y-91477926D01*
X180031290Y-91556975D01*
X180031282Y-91556981D01*
X179919481Y-91668782D01*
X179919475Y-91668790D01*
X179840426Y-91805709D01*
X179840423Y-91805716D01*
X179799500Y-91958443D01*
X168500500Y-91958443D01*
X168500500Y-91877842D01*
X168463553Y-91644571D01*
X168423162Y-91520262D01*
X168390568Y-91419948D01*
X168390566Y-91419945D01*
X168390566Y-91419943D01*
X168322185Y-91285738D01*
X168283343Y-91209507D01*
X168144517Y-91018430D01*
X167977510Y-90851423D01*
X167786433Y-90712597D01*
X167774865Y-90706703D01*
X167575996Y-90605373D01*
X167351368Y-90532386D01*
X167118097Y-90495440D01*
X167118092Y-90495440D01*
X166881908Y-90495440D01*
X166881903Y-90495440D01*
X166648631Y-90532386D01*
X166424003Y-90605373D01*
X166213566Y-90712597D01*
X166104550Y-90791802D01*
X166022490Y-90851423D01*
X166022488Y-90851425D01*
X166022487Y-90851425D01*
X165855485Y-91018427D01*
X165855485Y-91018428D01*
X165855483Y-91018430D01*
X165817939Y-91070105D01*
X165716657Y-91209506D01*
X165609433Y-91419943D01*
X165536446Y-91644571D01*
X165499500Y-91877842D01*
X161300500Y-91877842D01*
X161300500Y-85811670D01*
X165499500Y-85811670D01*
X165499500Y-88020209D01*
X165502353Y-88050639D01*
X165502353Y-88050641D01*
X165533534Y-88139748D01*
X165547207Y-88178822D01*
X165627850Y-88288090D01*
X165737118Y-88368733D01*
X165778591Y-88383245D01*
X165865299Y-88413586D01*
X165895730Y-88416440D01*
X165895734Y-88416440D01*
X168104270Y-88416440D01*
X168134699Y-88413586D01*
X168134701Y-88413586D01*
X168198790Y-88391159D01*
X168262882Y-88368733D01*
X168372150Y-88288090D01*
X168452793Y-88178822D01*
X168478996Y-88103939D01*
X168497646Y-88050641D01*
X168497646Y-88050639D01*
X168500500Y-88020209D01*
X168500500Y-86059686D01*
X178722718Y-86059686D01*
X178722718Y-87799191D01*
X178734349Y-87857668D01*
X178734350Y-87857669D01*
X178778665Y-87923991D01*
X178844987Y-87968306D01*
X178844988Y-87968307D01*
X178903465Y-87979938D01*
X178903468Y-87979939D01*
X178903470Y-87979939D01*
X179733718Y-87979939D01*
X179742403Y-87982489D01*
X179751365Y-87981201D01*
X179775405Y-87992179D01*
X179800757Y-87999624D01*
X179806684Y-88006464D01*
X179814921Y-88010226D01*
X179829210Y-88032460D01*
X179846512Y-88052428D01*
X179848799Y-88062942D01*
X179852695Y-88069004D01*
X179857718Y-88103939D01*
X179857718Y-88251828D01*
X179838033Y-88318867D01*
X179821399Y-88339509D01*
X179734694Y-88426213D01*
X179734691Y-88426217D01*
X179673497Y-88546317D01*
X179657718Y-88645945D01*
X179657718Y-89212932D01*
X179673497Y-89312560D01*
X179673498Y-89312563D01*
X179673499Y-89312565D01*
X179734690Y-89432659D01*
X179734691Y-89432660D01*
X179734694Y-89432664D01*
X179829992Y-89527962D01*
X179829996Y-89527965D01*
X179829998Y-89527967D01*
X179950092Y-89589158D01*
X179950094Y-89589158D01*
X179950096Y-89589159D01*
X180049725Y-89604939D01*
X180049730Y-89604939D01*
X180566711Y-89604939D01*
X180666339Y-89589159D01*
X180666339Y-89589158D01*
X180666344Y-89589158D01*
X180786438Y-89527967D01*
X180805391Y-89509013D01*
X180866712Y-89475529D01*
X180936403Y-89480512D01*
X180992338Y-89522383D01*
X180998610Y-89531598D01*
X181060642Y-89632167D01*
X181060645Y-89632171D01*
X181180485Y-89752011D01*
X181180489Y-89752014D01*
X181324725Y-89840981D01*
X181324736Y-89840986D01*
X181485611Y-89894294D01*
X181584901Y-89904438D01*
X182108218Y-89904438D01*
X182131526Y-89904438D01*
X182131540Y-89904437D01*
X182230825Y-89894294D01*
X182391699Y-89840986D01*
X182391710Y-89840981D01*
X182535946Y-89752014D01*
X182535950Y-89752011D01*
X182655790Y-89632171D01*
X182655793Y-89632167D01*
X182744760Y-89487931D01*
X182744765Y-89487920D01*
X182798073Y-89327045D01*
X182808217Y-89227761D01*
X182808218Y-89227748D01*
X182808218Y-89179439D01*
X182108218Y-89179439D01*
X182108218Y-89904438D01*
X181584901Y-89904438D01*
X181608218Y-89904437D01*
X181608218Y-89053439D01*
X181627903Y-88986400D01*
X181680707Y-88940645D01*
X181732218Y-88929439D01*
X181858218Y-88929439D01*
X181858218Y-88803439D01*
X181877903Y-88736400D01*
X181930707Y-88690645D01*
X181982218Y-88679439D01*
X182808217Y-88679439D01*
X182808217Y-88631131D01*
X182808216Y-88631116D01*
X182798073Y-88531831D01*
X182744765Y-88370957D01*
X182744764Y-88370956D01*
X182744215Y-88370065D01*
X182744024Y-88369368D01*
X182741711Y-88364407D01*
X182742558Y-88364011D01*
X182725772Y-88302673D01*
X182746691Y-88236009D01*
X182800331Y-88191237D01*
X182811439Y-88187030D01*
X182831438Y-88180532D01*
X183020772Y-88084061D01*
X183074934Y-88044709D01*
X183074935Y-88044709D01*
X182442626Y-87412401D01*
X182506211Y-87395364D01*
X182620225Y-87329538D01*
X182713317Y-87236446D01*
X182779143Y-87122432D01*
X182796180Y-87058847D01*
X183428488Y-87691156D01*
X183428488Y-87691155D01*
X183467840Y-87636993D01*
X183564313Y-87447656D01*
X183621561Y-87271465D01*
X183660998Y-87213790D01*
X183725357Y-87186591D01*
X183794203Y-87198505D01*
X183845679Y-87245749D01*
X183854051Y-87262326D01*
X183857837Y-87271465D01*
X183922276Y-87427035D01*
X184037242Y-87599096D01*
X184183560Y-87745414D01*
X184183563Y-87745416D01*
X184355620Y-87860380D01*
X184546798Y-87939569D01*
X184690571Y-87968167D01*
X184749748Y-87979938D01*
X184749752Y-87979939D01*
X184749753Y-87979939D01*
X184956684Y-87979939D01*
X184956685Y-87979938D01*
X185159638Y-87939569D01*
X185350816Y-87860380D01*
X185522873Y-87745416D01*
X185669195Y-87599094D01*
X185784159Y-87427037D01*
X185863348Y-87235859D01*
X185903718Y-87032904D01*
X185903718Y-86825974D01*
X185863348Y-86623019D01*
X185784159Y-86431841D01*
X185669195Y-86259784D01*
X185669193Y-86259781D01*
X185522873Y-86113461D01*
X185358827Y-86003850D01*
X185314022Y-85950238D01*
X185303718Y-85900748D01*
X185303718Y-84978939D01*
X185323403Y-84911900D01*
X185376207Y-84866145D01*
X185427718Y-84854939D01*
X185707488Y-84854939D01*
X185737917Y-84852085D01*
X185737919Y-84852085D01*
X185812144Y-84826112D01*
X185866100Y-84807232D01*
X185975368Y-84726589D01*
X186056011Y-84617321D01*
X186083298Y-84539339D01*
X186100864Y-84489140D01*
X186100864Y-84489138D01*
X186103718Y-84458708D01*
X186103718Y-83400169D01*
X186100864Y-83369739D01*
X186100864Y-83369737D01*
X186065992Y-83270080D01*
X186056011Y-83241557D01*
X185975368Y-83132289D01*
X185866100Y-83051646D01*
X185866098Y-83051645D01*
X185737918Y-83006792D01*
X185707488Y-83003939D01*
X185707484Y-83003939D01*
X185098952Y-83003939D01*
X185098948Y-83003939D01*
X185068518Y-83006792D01*
X185068516Y-83006792D01*
X184940337Y-83051645D01*
X184940335Y-83051646D01*
X184831068Y-83132289D01*
X184750425Y-83241556D01*
X184750424Y-83241558D01*
X184705571Y-83369737D01*
X184705571Y-83369739D01*
X184702718Y-83400169D01*
X184702718Y-83941474D01*
X184683033Y-84008513D01*
X184666399Y-84029155D01*
X184492731Y-84202822D01*
X184492727Y-84202828D01*
X184433419Y-84305551D01*
X184433418Y-84305556D01*
X184402718Y-84420130D01*
X184402718Y-85900748D01*
X184383033Y-85967787D01*
X184347609Y-86003850D01*
X184183562Y-86113461D01*
X184037242Y-86259781D01*
X183922275Y-86431842D01*
X183854053Y-86596547D01*
X183810212Y-86650950D01*
X183743918Y-86673015D01*
X183676218Y-86655736D01*
X183628608Y-86604598D01*
X183621561Y-86587412D01*
X183564313Y-86411221D01*
X183467842Y-86221888D01*
X183428488Y-86167721D01*
X183428487Y-86167721D01*
X182796180Y-86800029D01*
X182779143Y-86736446D01*
X182713317Y-86622432D01*
X182620225Y-86529340D01*
X182506211Y-86463514D01*
X182442627Y-86446476D01*
X183074934Y-85814167D01*
X183020768Y-85774814D01*
X182831435Y-85678343D01*
X182629347Y-85612681D01*
X182419464Y-85579439D01*
X182206972Y-85579439D01*
X181997090Y-85612681D01*
X181997087Y-85612681D01*
X181795000Y-85678343D01*
X181605657Y-85774819D01*
X181551500Y-85814166D01*
X181551500Y-85814167D01*
X182183809Y-86446476D01*
X182120225Y-86463514D01*
X182006211Y-86529340D01*
X181913119Y-86622432D01*
X181847293Y-86736446D01*
X181830255Y-86800030D01*
X181197946Y-86167721D01*
X181197945Y-86167721D01*
X181158598Y-86221878D01*
X181059912Y-86415560D01*
X181058896Y-86415042D01*
X181018430Y-86465252D01*
X180952134Y-86487311D01*
X180884436Y-86470027D01*
X180836830Y-86418886D01*
X180823718Y-86363390D01*
X180823718Y-86059688D01*
X180823717Y-86059686D01*
X180812086Y-86001209D01*
X180812085Y-86001208D01*
X180767770Y-85934886D01*
X180701448Y-85890571D01*
X180701447Y-85890570D01*
X180642970Y-85878939D01*
X180642966Y-85878939D01*
X180347718Y-85878939D01*
X180280679Y-85859254D01*
X180234924Y-85806450D01*
X180223718Y-85754939D01*
X180223718Y-85033939D01*
X180243403Y-84966900D01*
X180296207Y-84921145D01*
X180347718Y-84909939D01*
X180537488Y-84909939D01*
X180567917Y-84907085D01*
X180567919Y-84907085D01*
X180632008Y-84884658D01*
X180696100Y-84862232D01*
X180805368Y-84781589D01*
X180886011Y-84672321D01*
X180908376Y-84608403D01*
X180949095Y-84551631D01*
X181014048Y-84525883D01*
X181082610Y-84539339D01*
X181133013Y-84587726D01*
X181143122Y-84610356D01*
X181198860Y-84778560D01*
X181198861Y-84778563D01*
X181290902Y-84927784D01*
X181414872Y-85051754D01*
X181564093Y-85143795D01*
X181564098Y-85143797D01*
X181730520Y-85198944D01*
X181730527Y-85198945D01*
X181833237Y-85209438D01*
X182383218Y-85209438D01*
X182433190Y-85209438D01*
X182433204Y-85209437D01*
X182535915Y-85198944D01*
X182702337Y-85143797D01*
X182702342Y-85143795D01*
X182851563Y-85051754D01*
X182975533Y-84927784D01*
X183067574Y-84778563D01*
X183067576Y-84778558D01*
X183122723Y-84612136D01*
X183122724Y-84612129D01*
X183133217Y-84509425D01*
X183133218Y-84509412D01*
X183133218Y-84234439D01*
X182383218Y-84234439D01*
X182383218Y-85209438D01*
X181833237Y-85209438D01*
X181883217Y-85209437D01*
X181883218Y-85209437D01*
X181883218Y-83734439D01*
X182383218Y-83734439D01*
X183133217Y-83734439D01*
X183133217Y-83459467D01*
X183133216Y-83459452D01*
X183122723Y-83356741D01*
X183067576Y-83190319D01*
X183067574Y-83190314D01*
X182975533Y-83041093D01*
X182851563Y-82917123D01*
X182702342Y-82825082D01*
X182702337Y-82825080D01*
X182535915Y-82769933D01*
X182535908Y-82769932D01*
X182433204Y-82759439D01*
X182383218Y-82759439D01*
X182383218Y-83734439D01*
X181883218Y-83734439D01*
X181883218Y-82759439D01*
X181883217Y-82759438D01*
X181833247Y-82759439D01*
X181833229Y-82759440D01*
X181730520Y-82769933D01*
X181564098Y-82825080D01*
X181564093Y-82825082D01*
X181414872Y-82917123D01*
X181290902Y-83041093D01*
X181198861Y-83190314D01*
X181198859Y-83190319D01*
X181143123Y-83358521D01*
X181103350Y-83415966D01*
X181038835Y-83442789D01*
X180970059Y-83430474D01*
X180918859Y-83382931D01*
X180908376Y-83360472D01*
X180886011Y-83296558D01*
X180886010Y-83296556D01*
X180805368Y-83187289D01*
X180696100Y-83106646D01*
X180696098Y-83106645D01*
X180567918Y-83061792D01*
X180537488Y-83058939D01*
X180537484Y-83058939D01*
X179928952Y-83058939D01*
X179928948Y-83058939D01*
X179898518Y-83061792D01*
X179898516Y-83061792D01*
X179770337Y-83106645D01*
X179770335Y-83106646D01*
X179661068Y-83187289D01*
X179580425Y-83296556D01*
X179580424Y-83296558D01*
X179535571Y-83424737D01*
X179535571Y-83424739D01*
X179532718Y-83455169D01*
X179532718Y-83996474D01*
X179513033Y-84063513D01*
X179496399Y-84084155D01*
X179412731Y-84167822D01*
X179412727Y-84167828D01*
X179353419Y-84270551D01*
X179353418Y-84270556D01*
X179322718Y-84385130D01*
X179322718Y-85754939D01*
X179303033Y-85821978D01*
X179250229Y-85867733D01*
X179198718Y-85878939D01*
X178903465Y-85878939D01*
X178844988Y-85890570D01*
X178844987Y-85890571D01*
X178778665Y-85934886D01*
X178734350Y-86001208D01*
X178734349Y-86001209D01*
X178722718Y-86059686D01*
X168500500Y-86059686D01*
X168500500Y-85811670D01*
X168497646Y-85781240D01*
X168497646Y-85781238D01*
X168461722Y-85678576D01*
X168452793Y-85653058D01*
X168372150Y-85543790D01*
X168262882Y-85463147D01*
X168262880Y-85463146D01*
X168134700Y-85418293D01*
X168104270Y-85415440D01*
X168104266Y-85415440D01*
X165895734Y-85415440D01*
X165895730Y-85415440D01*
X165865300Y-85418293D01*
X165865298Y-85418293D01*
X165737119Y-85463146D01*
X165737117Y-85463147D01*
X165627850Y-85543790D01*
X165547207Y-85653057D01*
X165547206Y-85653059D01*
X165502353Y-85781238D01*
X165502353Y-85781240D01*
X165499500Y-85811670D01*
X161300500Y-85811670D01*
X161300500Y-73345943D01*
X186099500Y-73345943D01*
X186099500Y-73504057D01*
X186140159Y-73655796D01*
X186140423Y-73656783D01*
X186140426Y-73656790D01*
X186219475Y-73793709D01*
X186219479Y-73793714D01*
X186219480Y-73793716D01*
X186331284Y-73905520D01*
X186331286Y-73905521D01*
X186331290Y-73905524D01*
X186460219Y-73979960D01*
X186468216Y-73984577D01*
X186620943Y-74025500D01*
X186620945Y-74025500D01*
X186628099Y-74026442D01*
X186691996Y-74054707D01*
X186699597Y-74061700D01*
X187427825Y-74789928D01*
X187530552Y-74849238D01*
X187554760Y-74855723D01*
X187554763Y-74855725D01*
X187554764Y-74855725D01*
X187584886Y-74863796D01*
X187645130Y-74879939D01*
X190133689Y-74879939D01*
X190200728Y-74899624D01*
X190233459Y-74930306D01*
X190286066Y-75001587D01*
X190286067Y-75001587D01*
X190286068Y-75001589D01*
X190395336Y-75082232D01*
X190438063Y-75097183D01*
X190523517Y-75127085D01*
X190553948Y-75129939D01*
X190553952Y-75129939D01*
X191612488Y-75129939D01*
X191642917Y-75127085D01*
X191642919Y-75127085D01*
X191707008Y-75104658D01*
X191771100Y-75082232D01*
X191880368Y-75001589D01*
X191932977Y-74930306D01*
X191988624Y-74888055D01*
X192032747Y-74879939D01*
X192296587Y-74879939D01*
X192363626Y-74899624D01*
X192409381Y-74952428D01*
X192419060Y-74984542D01*
X192423497Y-75012560D01*
X192423498Y-75012563D01*
X192423499Y-75012565D01*
X192484690Y-75132659D01*
X192484691Y-75132660D01*
X192484694Y-75132664D01*
X192579992Y-75227962D01*
X192579996Y-75227965D01*
X192579998Y-75227967D01*
X192700092Y-75289158D01*
X192700094Y-75289158D01*
X192700096Y-75289159D01*
X192799725Y-75304939D01*
X192799730Y-75304939D01*
X193366711Y-75304939D01*
X193466339Y-75289159D01*
X193466339Y-75289158D01*
X193466344Y-75289158D01*
X193586438Y-75227967D01*
X193681746Y-75132659D01*
X193742937Y-75012565D01*
X193743303Y-75010256D01*
X193758718Y-74912932D01*
X193758718Y-74395945D01*
X193750129Y-74341718D01*
X193742938Y-74296317D01*
X193742937Y-74296315D01*
X193742937Y-74296313D01*
X193737303Y-74285256D01*
X199586557Y-74285256D01*
X200634642Y-74285256D01*
X200596158Y-74351913D01*
X200563788Y-74472721D01*
X200563788Y-74597791D01*
X200596158Y-74718599D01*
X200634642Y-74785256D01*
X199586557Y-74785256D01*
X199597030Y-74851382D01*
X199597030Y-74851385D01*
X199662692Y-75053473D01*
X199759167Y-75242813D01*
X199884060Y-75414715D01*
X199884064Y-75414720D01*
X200034323Y-75564979D01*
X200034328Y-75564983D01*
X200206230Y-75689876D01*
X200395570Y-75786351D01*
X200517643Y-75826015D01*
X200575318Y-75865452D01*
X200602517Y-75929811D01*
X200590603Y-75998657D01*
X200543358Y-76050133D01*
X200526778Y-76058507D01*
X200416192Y-76104313D01*
X200244130Y-76219280D01*
X200097812Y-76365598D01*
X199982846Y-76537659D01*
X199903658Y-76728835D01*
X199903656Y-76728843D01*
X199863288Y-76931786D01*
X199863288Y-77138725D01*
X199903656Y-77341668D01*
X199903658Y-77341676D01*
X199982846Y-77532852D01*
X200097812Y-77704913D01*
X200244130Y-77851231D01*
X200244133Y-77851233D01*
X200416190Y-77966197D01*
X200607368Y-78045386D01*
X200810318Y-78085755D01*
X200810322Y-78085756D01*
X200810323Y-78085756D01*
X201267254Y-78085756D01*
X201267255Y-78085755D01*
X201470208Y-78045386D01*
X201661386Y-77966197D01*
X201833443Y-77851233D01*
X201979765Y-77704911D01*
X202094729Y-77532854D01*
X202173918Y-77341676D01*
X202214288Y-77138721D01*
X202214288Y-76931791D01*
X202199001Y-76854939D01*
X202187217Y-76795694D01*
X202175032Y-76734439D01*
X208270242Y-76734439D01*
X209318327Y-76734439D01*
X209279843Y-76801096D01*
X209247473Y-76921904D01*
X209247473Y-77046974D01*
X209279843Y-77167782D01*
X209318327Y-77234439D01*
X208270242Y-77234439D01*
X208280715Y-77300565D01*
X208280715Y-77300568D01*
X208346377Y-77502656D01*
X208442852Y-77691996D01*
X208567745Y-77863898D01*
X208567749Y-77863903D01*
X208718008Y-78014162D01*
X208718013Y-78014166D01*
X208889915Y-78139059D01*
X209008444Y-78199454D01*
X209059240Y-78247429D01*
X209076035Y-78315250D01*
X209053497Y-78381385D01*
X208998782Y-78424836D01*
X208952149Y-78433939D01*
X208943203Y-78433939D01*
X208912773Y-78436792D01*
X208912771Y-78436792D01*
X208784592Y-78481645D01*
X208784590Y-78481646D01*
X208675323Y-78562289D01*
X208594680Y-78671556D01*
X208594679Y-78671558D01*
X208549826Y-78799737D01*
X208549826Y-78799739D01*
X208546973Y-78830169D01*
X208546973Y-80138708D01*
X208549826Y-80169138D01*
X208549826Y-80169140D01*
X208594679Y-80297319D01*
X208594680Y-80297321D01*
X208675323Y-80406589D01*
X208784591Y-80487232D01*
X208827318Y-80502183D01*
X208912772Y-80532085D01*
X208943203Y-80534939D01*
X208943207Y-80534939D01*
X210501743Y-80534939D01*
X210532172Y-80532085D01*
X210532174Y-80532085D01*
X210596263Y-80509658D01*
X210660355Y-80487232D01*
X210769623Y-80406589D01*
X210850266Y-80297321D01*
X210882602Y-80204911D01*
X210895119Y-80169140D01*
X210895119Y-80169138D01*
X210897973Y-80138708D01*
X210897973Y-78830169D01*
X210895119Y-78799739D01*
X210895119Y-78799737D01*
X210850266Y-78671558D01*
X210850265Y-78671556D01*
X210800639Y-78604315D01*
X210769623Y-78562289D01*
X210660355Y-78481646D01*
X210660353Y-78481645D01*
X210532173Y-78436792D01*
X210501743Y-78433939D01*
X210501739Y-78433939D01*
X210492797Y-78433939D01*
X210425758Y-78414254D01*
X210380003Y-78361450D01*
X210370059Y-78292292D01*
X210399084Y-78228736D01*
X210436502Y-78199454D01*
X210555030Y-78139059D01*
X210726932Y-78014166D01*
X210726937Y-78014162D01*
X210877196Y-77863903D01*
X210877200Y-77863898D01*
X211002093Y-77691996D01*
X211098568Y-77502656D01*
X211164230Y-77300568D01*
X211164230Y-77300565D01*
X211174704Y-77234439D01*
X210126619Y-77234439D01*
X210165103Y-77167782D01*
X210197473Y-77046974D01*
X210197473Y-76921904D01*
X210165103Y-76801096D01*
X210126619Y-76734439D01*
X211174704Y-76734439D01*
X211164230Y-76668312D01*
X211164230Y-76668309D01*
X211126158Y-76551134D01*
X211116348Y-76520943D01*
X229399500Y-76520943D01*
X229399500Y-76679056D01*
X229440423Y-76831783D01*
X229440426Y-76831790D01*
X229519475Y-76968709D01*
X229519479Y-76968714D01*
X229519480Y-76968716D01*
X229631284Y-77080520D01*
X229631286Y-77080521D01*
X229631290Y-77080524D01*
X229732099Y-77138725D01*
X229768216Y-77159577D01*
X229920943Y-77200500D01*
X229920945Y-77200500D01*
X230079055Y-77200500D01*
X230079057Y-77200500D01*
X230231784Y-77159577D01*
X230368716Y-77080520D01*
X230368721Y-77080514D01*
X230374443Y-77076125D01*
X230439612Y-77050930D01*
X230449931Y-77050500D01*
X233362035Y-77050500D01*
X233429074Y-77070185D01*
X233449716Y-77086819D01*
X233602825Y-77239928D01*
X233662135Y-77274170D01*
X233705553Y-77299238D01*
X233718654Y-77302748D01*
X233730249Y-77308651D01*
X233746579Y-77324063D01*
X233765749Y-77335749D01*
X233773763Y-77345522D01*
X233852044Y-77451589D01*
X233961312Y-77532232D01*
X234004039Y-77547183D01*
X234089493Y-77577085D01*
X234119924Y-77579939D01*
X234119928Y-77579939D01*
X235178464Y-77579939D01*
X235208893Y-77577085D01*
X235208895Y-77577085D01*
X235272984Y-77554658D01*
X235337076Y-77532232D01*
X235446344Y-77451589D01*
X235498953Y-77380306D01*
X235554600Y-77338055D01*
X235598723Y-77329939D01*
X236218205Y-77329939D01*
X236255867Y-77338980D01*
X236256789Y-77336143D01*
X236266070Y-77339159D01*
X236365701Y-77354939D01*
X236365706Y-77354939D01*
X236932687Y-77354939D01*
X237032315Y-77339159D01*
X237032315Y-77339158D01*
X237032320Y-77339158D01*
X237152414Y-77277967D01*
X237247722Y-77182659D01*
X237308913Y-77062565D01*
X237309386Y-77059577D01*
X237324694Y-76962932D01*
X237324694Y-76445945D01*
X237308914Y-76346317D01*
X237308913Y-76346315D01*
X237308913Y-76346313D01*
X237247722Y-76226219D01*
X237247720Y-76226217D01*
X237247717Y-76226213D01*
X237152419Y-76130915D01*
X237152415Y-76130912D01*
X237152414Y-76130911D01*
X237032320Y-76069720D01*
X237032318Y-76069719D01*
X237032315Y-76069718D01*
X236932687Y-76053939D01*
X236932682Y-76053939D01*
X236365706Y-76053939D01*
X236365701Y-76053939D01*
X236266072Y-76069718D01*
X236145972Y-76130912D01*
X236145968Y-76130915D01*
X236050670Y-76226213D01*
X236050668Y-76226217D01*
X236050666Y-76226219D01*
X235989475Y-76346313D01*
X235985045Y-76355008D01*
X235983108Y-76354021D01*
X235951030Y-76400933D01*
X235886671Y-76428131D01*
X235872537Y-76428939D01*
X235598723Y-76428939D01*
X235531684Y-76409254D01*
X235498953Y-76378572D01*
X235446345Y-76307290D01*
X235408223Y-76279155D01*
X235337076Y-76226646D01*
X235337074Y-76226645D01*
X235208894Y-76181792D01*
X235178464Y-76178939D01*
X235178460Y-76178939D01*
X234119928Y-76178939D01*
X234119924Y-76178939D01*
X234089497Y-76181792D01*
X233958061Y-76227783D01*
X233957506Y-76228247D01*
X233956311Y-76228396D01*
X233952542Y-76229715D01*
X233952257Y-76228901D01*
X233927346Y-76232010D01*
X233897561Y-76238062D01*
X233891683Y-76236459D01*
X233888173Y-76236898D01*
X233871561Y-76230974D01*
X233854501Y-76226324D01*
X233850212Y-76224267D01*
X233773887Y-76180201D01*
X233749673Y-76173713D01*
X233738553Y-76170733D01*
X233738548Y-76170731D01*
X233675291Y-76153782D01*
X233659309Y-76149500D01*
X233659308Y-76149500D01*
X230449931Y-76149500D01*
X230382892Y-76129815D01*
X230374443Y-76123875D01*
X230368709Y-76119475D01*
X230231790Y-76040426D01*
X230231786Y-76040424D01*
X230231784Y-76040423D01*
X230079057Y-75999500D01*
X229920943Y-75999500D01*
X229768216Y-76040423D01*
X229768209Y-76040426D01*
X229631290Y-76119475D01*
X229631282Y-76119481D01*
X229519481Y-76231282D01*
X229519475Y-76231290D01*
X229440426Y-76368209D01*
X229440423Y-76368216D01*
X229399500Y-76520943D01*
X211116348Y-76520943D01*
X211098568Y-76466221D01*
X211002093Y-76276881D01*
X210877200Y-76104979D01*
X210877196Y-76104974D01*
X210726937Y-75954715D01*
X210726932Y-75954711D01*
X210555030Y-75829818D01*
X210365689Y-75733343D01*
X210243617Y-75693679D01*
X210185941Y-75654241D01*
X210158743Y-75589883D01*
X210170658Y-75521036D01*
X210217902Y-75469561D01*
X210234479Y-75461188D01*
X210345071Y-75415380D01*
X210517128Y-75300416D01*
X210663450Y-75154094D01*
X210778414Y-74982037D01*
X210857603Y-74790859D01*
X210897973Y-74587904D01*
X210897973Y-74380974D01*
X210857603Y-74178019D01*
X210778414Y-73986841D01*
X210663450Y-73814784D01*
X210663448Y-73814781D01*
X210517130Y-73668463D01*
X210431099Y-73610980D01*
X210345071Y-73553498D01*
X210153893Y-73474309D01*
X210153885Y-73474307D01*
X209953424Y-73434433D01*
X209950941Y-73433939D01*
X209950938Y-73433939D01*
X209494008Y-73433939D01*
X209494003Y-73433939D01*
X209291060Y-73474307D01*
X209291052Y-73474309D01*
X209099876Y-73553497D01*
X208927815Y-73668463D01*
X208781497Y-73814781D01*
X208666531Y-73986842D01*
X208587343Y-74178018D01*
X208587341Y-74178026D01*
X208546973Y-74380969D01*
X208546973Y-74587908D01*
X208587341Y-74790851D01*
X208587343Y-74790859D01*
X208666531Y-74982035D01*
X208781497Y-75154096D01*
X208927815Y-75300414D01*
X208927818Y-75300416D01*
X209099875Y-75415380D01*
X209210463Y-75461187D01*
X209264866Y-75505028D01*
X209286931Y-75571322D01*
X209269652Y-75639021D01*
X209218515Y-75686632D01*
X209201329Y-75693679D01*
X209079254Y-75733344D01*
X208889915Y-75829818D01*
X208718013Y-75954711D01*
X208718008Y-75954715D01*
X208567749Y-76104974D01*
X208567745Y-76104979D01*
X208442852Y-76276881D01*
X208346377Y-76466221D01*
X208280715Y-76668309D01*
X208280715Y-76668312D01*
X208270242Y-76734439D01*
X202175032Y-76734439D01*
X202173918Y-76728836D01*
X202094729Y-76537658D01*
X201979765Y-76365601D01*
X201979763Y-76365598D01*
X201833445Y-76219280D01*
X201661384Y-76104313D01*
X201550797Y-76058507D01*
X201496394Y-76014666D01*
X201474329Y-75948372D01*
X201491608Y-75880672D01*
X201542746Y-75833062D01*
X201559932Y-75826015D01*
X201682005Y-75786351D01*
X201871345Y-75689876D01*
X202043247Y-75564983D01*
X202043252Y-75564979D01*
X202193511Y-75414720D01*
X202193515Y-75414715D01*
X202318408Y-75242813D01*
X202414883Y-75053473D01*
X202480545Y-74851385D01*
X202480545Y-74851382D01*
X202491019Y-74785256D01*
X201442934Y-74785256D01*
X201481418Y-74718599D01*
X201513788Y-74597791D01*
X201513788Y-74472721D01*
X201481418Y-74351913D01*
X201442934Y-74285256D01*
X202491019Y-74285256D01*
X202480545Y-74219129D01*
X202480545Y-74219126D01*
X202414883Y-74017038D01*
X202318408Y-73827698D01*
X202193515Y-73655796D01*
X202193511Y-73655791D01*
X202043252Y-73505532D01*
X202043247Y-73505528D01*
X201871345Y-73380635D01*
X201754195Y-73320943D01*
X233199500Y-73320943D01*
X233199500Y-73479057D01*
X233219447Y-73553498D01*
X233240423Y-73631783D01*
X233240426Y-73631790D01*
X233319473Y-73768706D01*
X233319477Y-73768712D01*
X233319480Y-73768716D01*
X233319482Y-73768718D01*
X233323872Y-73774438D01*
X233349069Y-73839606D01*
X233349500Y-73849930D01*
X233349500Y-74189553D01*
X233363981Y-74243599D01*
X233373451Y-74278939D01*
X233380201Y-74304132D01*
X233439511Y-74406859D01*
X233439513Y-74406861D01*
X233687375Y-74654723D01*
X233720860Y-74716046D01*
X233723694Y-74742404D01*
X233723694Y-75283708D01*
X233726547Y-75314138D01*
X233726547Y-75314140D01*
X233761974Y-75415381D01*
X233771401Y-75442321D01*
X233852044Y-75551589D01*
X233961312Y-75632232D01*
X233980714Y-75639021D01*
X234089493Y-75677085D01*
X234119924Y-75679939D01*
X234119928Y-75679939D01*
X235178464Y-75679939D01*
X235208893Y-75677085D01*
X235208895Y-75677085D01*
X235274178Y-75654241D01*
X235337076Y-75632232D01*
X235446344Y-75551589D01*
X235498953Y-75480306D01*
X235554600Y-75438055D01*
X235598723Y-75429939D01*
X235872537Y-75429939D01*
X235939576Y-75449624D01*
X235985331Y-75502428D01*
X235988639Y-75510925D01*
X235989475Y-75512565D01*
X236050666Y-75632659D01*
X236050668Y-75632661D01*
X236050670Y-75632664D01*
X236145968Y-75727962D01*
X236145972Y-75727965D01*
X236145974Y-75727967D01*
X236266068Y-75789158D01*
X236266070Y-75789158D01*
X236266072Y-75789159D01*
X236365701Y-75804939D01*
X236365706Y-75804939D01*
X236932687Y-75804939D01*
X237032315Y-75789159D01*
X237032315Y-75789158D01*
X237032320Y-75789158D01*
X237152414Y-75727967D01*
X237247722Y-75632659D01*
X237308913Y-75512565D01*
X237310519Y-75502428D01*
X237324694Y-75412932D01*
X237324694Y-74895945D01*
X237308914Y-74796317D01*
X237308913Y-74796315D01*
X237308913Y-74796313D01*
X237247722Y-74676219D01*
X237247720Y-74676217D01*
X237247717Y-74676213D01*
X237152419Y-74580915D01*
X237152415Y-74580912D01*
X237152414Y-74580911D01*
X237032320Y-74519720D01*
X237032318Y-74519719D01*
X237032315Y-74519718D01*
X236932687Y-74503939D01*
X236932682Y-74503939D01*
X236365706Y-74503939D01*
X236365701Y-74503939D01*
X236266070Y-74519718D01*
X236256789Y-74522735D01*
X236255867Y-74519897D01*
X236218205Y-74528939D01*
X235598723Y-74528939D01*
X235531684Y-74509254D01*
X235498953Y-74478572D01*
X235446345Y-74407290D01*
X235337076Y-74326646D01*
X235337074Y-74326645D01*
X235208894Y-74281792D01*
X235178464Y-74278939D01*
X235178460Y-74278939D01*
X234637160Y-74278939D01*
X234570121Y-74259254D01*
X234549479Y-74242620D01*
X234286819Y-73979960D01*
X234272115Y-73953032D01*
X234255523Y-73927214D01*
X234254631Y-73921013D01*
X234253334Y-73918637D01*
X234250500Y-73892279D01*
X234250500Y-73849930D01*
X234270185Y-73782891D01*
X234276128Y-73774438D01*
X234280512Y-73768723D01*
X234280520Y-73768716D01*
X234359577Y-73631784D01*
X234400500Y-73479057D01*
X234400500Y-73320943D01*
X234359577Y-73168216D01*
X234311969Y-73085756D01*
X234280524Y-73031290D01*
X234280518Y-73031282D01*
X234168717Y-72919481D01*
X234168709Y-72919475D01*
X234031790Y-72840426D01*
X234031786Y-72840424D01*
X234031784Y-72840423D01*
X233879057Y-72799500D01*
X233720943Y-72799500D01*
X233568216Y-72840423D01*
X233568209Y-72840426D01*
X233431290Y-72919475D01*
X233431282Y-72919481D01*
X233319481Y-73031282D01*
X233319475Y-73031290D01*
X233240426Y-73168209D01*
X233240423Y-73168216D01*
X233199500Y-73320943D01*
X201754195Y-73320943D01*
X201752817Y-73320241D01*
X201702021Y-73272266D01*
X201685226Y-73204445D01*
X201707764Y-73138310D01*
X201762479Y-73094859D01*
X201809112Y-73085756D01*
X201818058Y-73085756D01*
X201848487Y-73082902D01*
X201848489Y-73082902D01*
X201924563Y-73056282D01*
X201976670Y-73038049D01*
X202085938Y-72957406D01*
X202166581Y-72848138D01*
X202189007Y-72784046D01*
X202211434Y-72719957D01*
X202211434Y-72719955D01*
X202214288Y-72689525D01*
X202214288Y-71880969D01*
X208546973Y-71880969D01*
X208546973Y-72087908D01*
X208587341Y-72290851D01*
X208587343Y-72290859D01*
X208666531Y-72482035D01*
X208781497Y-72654096D01*
X208927815Y-72800414D01*
X208927818Y-72800416D01*
X209099875Y-72915380D01*
X209291053Y-72994569D01*
X209475623Y-73031282D01*
X209494003Y-73034938D01*
X209494007Y-73034939D01*
X209494008Y-73034939D01*
X209950939Y-73034939D01*
X209950940Y-73034938D01*
X210153893Y-72994569D01*
X210345071Y-72915380D01*
X210517128Y-72800416D01*
X210663450Y-72654094D01*
X210778414Y-72482037D01*
X210857603Y-72290859D01*
X210897973Y-72087904D01*
X210897973Y-71880974D01*
X210857603Y-71678019D01*
X210778414Y-71486841D01*
X210663450Y-71314784D01*
X210663448Y-71314781D01*
X210517130Y-71168463D01*
X210431099Y-71110980D01*
X210345071Y-71053498D01*
X210153893Y-70974309D01*
X210153885Y-70974307D01*
X209950942Y-70933939D01*
X209950938Y-70933939D01*
X209494008Y-70933939D01*
X209494003Y-70933939D01*
X209291060Y-70974307D01*
X209291052Y-70974309D01*
X209099876Y-71053497D01*
X208927815Y-71168463D01*
X208781497Y-71314781D01*
X208666531Y-71486842D01*
X208587343Y-71678018D01*
X208587341Y-71678026D01*
X208546973Y-71880969D01*
X202214288Y-71880969D01*
X202214288Y-71380986D01*
X202211434Y-71350556D01*
X202211434Y-71350554D01*
X202166581Y-71222375D01*
X202166580Y-71222373D01*
X202085938Y-71113106D01*
X201976670Y-71032463D01*
X201976668Y-71032462D01*
X201848488Y-70987609D01*
X201818058Y-70984756D01*
X201818054Y-70984756D01*
X200259522Y-70984756D01*
X200259518Y-70984756D01*
X200229088Y-70987609D01*
X200229086Y-70987609D01*
X200100907Y-71032462D01*
X200100905Y-71032463D01*
X199991638Y-71113106D01*
X199910995Y-71222373D01*
X199910994Y-71222375D01*
X199866141Y-71350554D01*
X199866141Y-71350556D01*
X199863288Y-71380986D01*
X199863288Y-72689525D01*
X199866141Y-72719955D01*
X199866141Y-72719957D01*
X199908295Y-72840423D01*
X199910995Y-72848138D01*
X199991638Y-72957406D01*
X200100906Y-73038049D01*
X200143633Y-73053000D01*
X200229087Y-73082902D01*
X200259518Y-73085756D01*
X200268464Y-73085756D01*
X200335503Y-73105441D01*
X200381258Y-73158245D01*
X200391202Y-73227403D01*
X200362177Y-73290959D01*
X200324759Y-73320241D01*
X200206230Y-73380635D01*
X200034328Y-73505528D01*
X200034323Y-73505532D01*
X199884064Y-73655791D01*
X199884060Y-73655796D01*
X199759167Y-73827698D01*
X199662692Y-74017038D01*
X199597030Y-74219126D01*
X199597030Y-74219129D01*
X199586557Y-74285256D01*
X193737303Y-74285256D01*
X193681746Y-74176219D01*
X193681744Y-74176217D01*
X193681741Y-74176213D01*
X193586443Y-74080915D01*
X193586439Y-74080912D01*
X193586438Y-74080911D01*
X193466344Y-74019720D01*
X193466342Y-74019719D01*
X193466339Y-74019718D01*
X193366711Y-74003939D01*
X193366706Y-74003939D01*
X193027154Y-74003939D01*
X192995061Y-73999714D01*
X192921337Y-73979960D01*
X192917527Y-73978939D01*
X192917526Y-73978939D01*
X192032747Y-73978939D01*
X191965708Y-73959254D01*
X191932977Y-73928572D01*
X191880369Y-73857290D01*
X191794230Y-73793717D01*
X191771100Y-73776646D01*
X191771098Y-73776645D01*
X191642918Y-73731792D01*
X191612488Y-73728939D01*
X191612484Y-73728939D01*
X190553952Y-73728939D01*
X190553948Y-73728939D01*
X190523518Y-73731792D01*
X190523516Y-73731792D01*
X190395337Y-73776645D01*
X190395335Y-73776646D01*
X190286066Y-73857290D01*
X190233459Y-73928572D01*
X190177812Y-73970823D01*
X190133689Y-73978939D01*
X187942404Y-73978939D01*
X187875365Y-73959254D01*
X187854723Y-73942620D01*
X187336700Y-73424597D01*
X187303215Y-73363274D01*
X187301442Y-73353099D01*
X187300500Y-73345945D01*
X187300500Y-73345943D01*
X187259577Y-73193216D01*
X187259573Y-73193209D01*
X187180524Y-73056290D01*
X187180518Y-73056282D01*
X187068717Y-72944481D01*
X187068709Y-72944475D01*
X186931790Y-72865426D01*
X186931786Y-72865424D01*
X186931784Y-72865423D01*
X186779057Y-72824500D01*
X186620943Y-72824500D01*
X186468216Y-72865423D01*
X186468209Y-72865426D01*
X186331290Y-72944475D01*
X186331282Y-72944481D01*
X186219481Y-73056282D01*
X186219475Y-73056290D01*
X186140426Y-73193209D01*
X186140423Y-73193216D01*
X186099500Y-73345943D01*
X161300500Y-73345943D01*
X161300500Y-70885837D01*
X163049500Y-70885837D01*
X163049500Y-71114162D01*
X163085215Y-71339660D01*
X163155770Y-71556803D01*
X163217537Y-71678026D01*
X163259421Y-71760228D01*
X163393621Y-71944937D01*
X163555063Y-72106379D01*
X163739772Y-72240579D01*
X163835884Y-72289550D01*
X163943196Y-72344229D01*
X163943198Y-72344229D01*
X163943201Y-72344231D01*
X164059592Y-72382049D01*
X164160339Y-72414784D01*
X164385838Y-72450500D01*
X164385843Y-72450500D01*
X164614162Y-72450500D01*
X164839660Y-72414784D01*
X165056799Y-72344231D01*
X165260228Y-72240579D01*
X165444937Y-72106379D01*
X165606379Y-71944937D01*
X165740579Y-71760228D01*
X165844231Y-71556799D01*
X165914784Y-71339660D01*
X165918724Y-71314784D01*
X165950500Y-71114162D01*
X165950500Y-70885837D01*
X242549500Y-70885837D01*
X242549500Y-71114162D01*
X242585215Y-71339660D01*
X242655770Y-71556803D01*
X242717537Y-71678026D01*
X242759421Y-71760228D01*
X242893621Y-71944937D01*
X243055063Y-72106379D01*
X243239772Y-72240579D01*
X243335884Y-72289550D01*
X243443196Y-72344229D01*
X243443198Y-72344229D01*
X243443201Y-72344231D01*
X243559592Y-72382049D01*
X243660339Y-72414784D01*
X243885838Y-72450500D01*
X243885843Y-72450500D01*
X244114162Y-72450500D01*
X244339660Y-72414784D01*
X244556799Y-72344231D01*
X244760228Y-72240579D01*
X244944937Y-72106379D01*
X245106379Y-71944937D01*
X245240579Y-71760228D01*
X245344231Y-71556799D01*
X245414784Y-71339660D01*
X245418724Y-71314784D01*
X245450500Y-71114162D01*
X245450500Y-70885837D01*
X245414784Y-70660339D01*
X245361558Y-70496527D01*
X245344231Y-70443201D01*
X245344229Y-70443198D01*
X245344229Y-70443196D01*
X245240578Y-70239771D01*
X245106379Y-70055063D01*
X244944937Y-69893621D01*
X244760228Y-69759421D01*
X244556803Y-69655770D01*
X244339660Y-69585215D01*
X244114162Y-69549500D01*
X244114157Y-69549500D01*
X243885843Y-69549500D01*
X243885838Y-69549500D01*
X243660339Y-69585215D01*
X243443196Y-69655770D01*
X243239771Y-69759421D01*
X243055061Y-69893622D01*
X242893622Y-70055061D01*
X242759421Y-70239771D01*
X242655770Y-70443196D01*
X242585215Y-70660339D01*
X242549500Y-70885837D01*
X165950500Y-70885837D01*
X165914784Y-70660339D01*
X165861558Y-70496527D01*
X165844231Y-70443201D01*
X165844229Y-70443198D01*
X165844229Y-70443196D01*
X165740578Y-70239771D01*
X165606379Y-70055063D01*
X165444937Y-69893621D01*
X165260228Y-69759421D01*
X165056803Y-69655770D01*
X164839660Y-69585215D01*
X164614162Y-69549500D01*
X164614157Y-69549500D01*
X164385843Y-69549500D01*
X164385838Y-69549500D01*
X164160339Y-69585215D01*
X163943196Y-69655770D01*
X163739771Y-69759421D01*
X163555061Y-69893622D01*
X163393622Y-70055061D01*
X163259421Y-70239771D01*
X163155770Y-70443196D01*
X163085215Y-70660339D01*
X163049500Y-70885837D01*
X161300500Y-70885837D01*
X161300500Y-70503480D01*
X161300695Y-70496527D01*
X161315114Y-70239771D01*
X161317084Y-70204691D01*
X161318638Y-70190898D01*
X161367015Y-69906167D01*
X161370109Y-69892615D01*
X161438344Y-69655769D01*
X161450061Y-69615096D01*
X161454653Y-69601975D01*
X161461595Y-69585216D01*
X161565175Y-69335151D01*
X161571195Y-69322651D01*
X161710902Y-69069869D01*
X161718297Y-69058101D01*
X161885428Y-68822551D01*
X161894079Y-68811704D01*
X162086527Y-68596356D01*
X162096358Y-68586526D01*
X162311704Y-68394079D01*
X162322551Y-68385428D01*
X162558106Y-68218293D01*
X162569869Y-68210902D01*
X162822651Y-68071195D01*
X162835151Y-68065175D01*
X163101979Y-67954651D01*
X163115096Y-67950061D01*
X163392621Y-67870107D01*
X163406167Y-67867015D01*
X163690898Y-67818638D01*
X163704691Y-67817084D01*
X163996528Y-67800695D01*
X164003481Y-67800500D01*
X164047595Y-67800500D01*
X244452405Y-67800500D01*
X244496519Y-67800500D01*
X244503472Y-67800695D01*
G37*
%TD.AperFunction*%
%TD*%
M02*
