M48
METRIC
T1C0.400
T2C0.950
T3C1.000
T4C1.300
T5C2.500
%
G90
G05
T1
X162.0Y-74.0
X162.0Y-78.0
X162.0Y-83.0
X162.0Y-106.0
X162.0Y-110.0
X162.0Y-115.0
X165.7Y-81.6
X167.0Y-121.0
X168.0Y-69.0
X172.0Y-121.0
X172.8Y-89.0
X172.8Y-90.9
X172.8Y-92.6
X173.0Y-69.0
X173.4Y-108.2
X176.7Y-96.1
X177.0Y-121.0
X178.0Y-69.0
X180.4Y-92.037
X180.4Y-102.1
X180.7Y-79.1
X181.3Y-85.7
X183.0Y-69.0
X183.2Y-98.0
X183.6Y-105.8
X185.2Y-95.0
X185.2Y-104.4
X185.5Y-103.3
X185.8Y-94.1
X186.1Y-95.5
X186.1Y-104.1
X186.7Y-73.425
X186.7Y-76.5
X188.0Y-69.0
X188.4Y-118.2
X188.5Y-120.5
X188.6Y-101.8
X189.6Y-102.2
X190.1Y-113.3
X190.2Y-103.2
X190.6Y-110.7
X190.7Y-96.1
X191.0Y-89.8
X191.5Y-94.325
X191.5Y-96.9
X192.0Y-113.0
X192.675Y-79.4
X192.775Y-118.6
X193.0Y-69.0
X193.0Y-113.0
X194.0Y-113.0
X194.4Y-92.9
X194.4Y-98.2
X195.0Y-76.0
X195.0Y-80.0
X195.0Y-81.0
X195.0Y-116.0
X195.0Y-117.0
X196.0Y-76.0
X196.0Y-77.0
X196.0Y-81.0
X196.0Y-116.0
X196.0Y-117.0
X198.0Y-69.0
X203.0Y-69.0
X205.1Y-96.6
X207.6Y-96.6
X208.0Y-69.0
X209.0Y-105.0
X209.0Y-106.0
X209.0Y-107.0
X209.0Y-108.0
X209.0Y-109.0
X209.0Y-110.0
X209.0Y-111.0
X209.0Y-112.0
X210.155Y-96.555
X213.0Y-69.0
X213.0Y-114.0
X214.2Y-108.0
X214.2Y-108.9
X214.2Y-109.8
X215.3Y-117.4
X216.0Y-121.0
X216.4Y-113.0
X218.0Y-69.0
X218.6Y-107.4
X219.045Y-103.355
X219.6Y-118.9
X219.709Y-95.718
X219.8Y-89.7
X219.9Y-96.7
X220.475Y-95.075
X221.145Y-103.355
X222.0Y-121.0
X222.4Y-88.9
X223.0Y-69.0
X224.375Y-77.889
X224.6Y-94.8
X224.6Y-117.1
X224.7Y-104.2
X224.7Y-105.4
X224.9Y-95.7
X225.0Y-88.4
X225.39Y-104.8
X225.669Y-96.189
X225.7Y-94.9
X227.3Y-85.6
X227.4Y-88.4
X227.5Y-93.4
X228.0Y-69.0
X229.9Y-117.1
X230.0Y-76.6
X232.0Y-80.0
X232.0Y-81.0
X233.0Y-69.0
X233.0Y-121.0
X233.7Y-112.6
X233.8Y-73.4
X236.0Y-73.0
X236.3Y-79.4
X236.7Y-119.1
X237.0Y-73.0
X238.0Y-69.0
X238.0Y-73.0
X238.0Y-113.0
X238.0Y-121.0
X239.0Y-77.0
X239.0Y-78.0
X239.0Y-113.0
X239.0Y-114.0
X239.0Y-115.0
X239.0Y-119.0
X239.0Y-120.0
X240.0Y-78.0
X240.0Y-119.0
X241.0Y-121.0
X246.0Y-76.0
X246.0Y-81.0
X246.0Y-86.0
X246.0Y-91.0
X246.0Y-96.0
X246.0Y-101.0
X246.0Y-106.0
X246.0Y-111.0
X246.0Y-116.0
T2
X201.039Y-72.035
X201.039Y-74.535
X201.039Y-77.035
X201.039Y-79.535
X201.039Y-82.035
X209.722Y-71.984
X209.722Y-74.484
X209.722Y-76.984
X209.722Y-79.484
T3
X179.773Y-86.929
X182.313Y-86.929
X184.853Y-86.929
X187.393Y-86.929
X197.45Y-91.74
X197.45Y-94.28
X197.45Y-96.82
X197.45Y-99.36
X197.45Y-101.9
X197.45Y-104.44
X197.45Y-106.98
X197.45Y-109.52
X197.45Y-112.06
X199.99Y-90.47
X202.53Y-90.47
X205.07Y-90.47
X207.61Y-90.47
X210.15Y-90.47
X212.69Y-91.74
X212.69Y-94.28
X212.69Y-96.82
X212.69Y-99.36
X212.69Y-101.9
X212.69Y-104.44
X212.69Y-106.98
X212.69Y-109.52
X212.69Y-112.06
X223.569Y-86.929
X226.109Y-86.929
X228.649Y-86.929
X231.189Y-86.929
T4
X167.0Y-86.916
X167.0Y-91.996
X167.0Y-97.076
X167.0Y-102.156
X240.108Y-86.916
X240.108Y-91.996
X240.108Y-97.076
X240.108Y-102.156
T5
X164.5Y-71.0
X164.5Y-118.5
X244.0Y-71.0
X244.0Y-118.5
M30
